<?xml version="1.0" encoding="utf-8"?>
<!-- Generator: Adobe Illustrator 19.2.1, SVG Export Plug-In . SVG Version: 6.00 Build 0)  -->
<svg version="1.1" id="Layer_1" xmlns="http://www.w3.org/2000/svg" xmlns:xlink="http://www.w3.org/1999/xlink" x="0px" y="0px"
	 width="179.9px" height="121.4px" viewBox="0 0 179.9 121.4" enable-background="new 0 0 179.9 121.4" xml:space="preserve">
<rect fill="#3B2416" width="179.9" height="121.4"/>
<rect x="37.5" y="30.1" transform="matrix(0.9772 -0.2123 0.2123 0.9772 -10.7784 20.5725)" fill="#F15B2B" stroke="#231F20" stroke-width="2.1176" stroke-miterlimit="10" width="105.8" height="60.8"/>
<g>
	<path fill="#FFFFFF" stroke="#FFFFFF" stroke-width="1.0588" stroke-miterlimit="10" d="M42.4,61.3l2.3-14.6l1.9-0.4L55,58.5L53,59
		l-2.5-3.8l-5.7,1.2l-0.6,4.4L42.4,61.3z M45.1,54.9l4.6-1l-2.2-3.4c-0.7-1-1.2-1.9-1.6-2.6c0,0.9,0,1.8-0.2,2.7L45.1,54.9z"/>
	<path fill="#FFFFFF" stroke="#FFFFFF" stroke-width="1.0588" stroke-miterlimit="10" d="M66.4,50.1L66,48.4l6.2-1.3l1.2,5.4
		c-0.8,1-1.6,1.7-2.6,2.3c-0.9,0.6-1.9,1-3,1.2c-1.4,0.3-2.8,0.3-4.1-0.1c-1.3-0.4-2.4-1.1-3.2-2.1c-0.8-1-1.4-2.3-1.7-3.7
		c-0.3-1.4-0.3-2.8,0-4.2c0.3-1.4,1-2.5,2-3.3c1-0.8,2.2-1.4,3.6-1.7c1.1-0.2,2-0.3,3-0.1c0.9,0.2,1.7,0.5,2.3,1
		c0.6,0.5,1.2,1.2,1.6,2.1l-1.6,0.9c-0.4-0.7-0.8-1.2-1.2-1.6c-0.4-0.4-1-0.6-1.6-0.7s-1.4-0.1-2.1,0.1c-0.9,0.2-1.6,0.5-2.2,0.9
		c-0.6,0.4-1,0.9-1.3,1.4c-0.3,0.5-0.5,1.1-0.6,1.6c-0.2,1-0.1,2,0.1,3c0.3,1.3,0.7,2.3,1.4,3.1c0.6,0.8,1.4,1.3,2.4,1.5
		c0.9,0.2,1.9,0.3,2.9,0c0.8-0.2,1.6-0.5,2.3-1c0.7-0.5,1.3-1,1.6-1.4l-0.6-2.7L66.4,50.1z"/>
	<path fill="#FFFFFF" stroke="#FFFFFF" stroke-width="1.0588" stroke-miterlimit="10" d="M83.3,52.4l-0.3-1.5
		c-0.6,1.4-1.5,2.2-3,2.5c-0.6,0.1-1.2,0.1-1.8,0c-0.6-0.1-1.1-0.3-1.4-0.6c-0.3-0.3-0.6-0.7-0.8-1.2c-0.1-0.3-0.3-0.9-0.5-1.6
		L74,43.4l1.8-0.4l1.3,5.8c0.2,0.9,0.4,1.6,0.5,1.9c0.2,0.4,0.5,0.8,1,1c0.4,0.2,0.9,0.2,1.4,0.1c0.5-0.1,1-0.4,1.4-0.7
		s0.7-0.8,0.8-1.3c0.1-0.5,0-1.2-0.2-2.1l-1.2-5.6l1.8-0.4l2.3,10.5L83.3,52.4z"/>
	<path fill="#FFFFFF" stroke="#FFFFFF" stroke-width="1.0588" stroke-miterlimit="10" d="M85,39l-0.4-2.1l1.8-0.4l0.4,2.1L85,39z
		 M87.7,51.5l-2.3-10.5l1.8-0.4l2.3,10.5L87.7,51.5z"/>
	<path fill="#FFFFFF" stroke="#FFFFFF" stroke-width="1.0588" stroke-miterlimit="10" d="M99,49l-0.3-1.3c-0.4,1.2-1.3,1.9-2.6,2.2
		c-0.8,0.2-1.7,0.1-2.5-0.2s-1.5-0.8-2.1-1.6c-0.6-0.7-1-1.7-1.2-2.7c-0.2-1.1-0.3-2-0.1-3c0.2-0.9,0.5-1.7,1.1-2.3
		c0.6-0.6,1.3-1,2.2-1.2c0.6-0.1,1.2-0.1,1.8,0c0.6,0.2,1,0.4,1.4,0.8l-1.1-5.2l1.8-0.4l3.2,14.5L99,49z M92.2,45
		c0.3,1.3,0.8,2.3,1.5,2.8c0.7,0.5,1.5,0.7,2.2,0.6c0.8-0.2,1.4-0.6,1.8-1.4c0.4-0.8,0.5-1.8,0.2-3.1c-0.3-1.4-0.8-2.4-1.5-3
		c-0.7-0.6-1.5-0.7-2.3-0.6c-0.8,0.2-1.4,0.6-1.8,1.4C92,42.5,91.9,43.6,92.2,45z"/>
	<path fill="#FFFFFF" stroke="#FFFFFF" stroke-width="1.0588" stroke-miterlimit="10" d="M109.9,43.1l1.9-0.2
		c-0.1,1.1-0.4,2.1-1.1,2.9c-0.7,0.8-1.6,1.3-2.8,1.5c-1.5,0.3-2.9,0.1-4-0.6c-1.1-0.8-1.8-2-2.2-3.7c-0.4-1.8-0.2-3.2,0.5-4.4
		c0.7-1.2,1.8-1.9,3.2-2.2c1.4-0.3,2.7-0.1,3.8,0.7c1.1,0.8,1.8,2,2.2,3.8c0,0.1,0.1,0.3,0.1,0.5l-7.9,1.7c0.3,1.1,0.8,2,1.6,2.4
		c0.7,0.5,1.5,0.6,2.4,0.4c0.7-0.1,1.2-0.4,1.6-0.9C109.6,44.5,109.8,43.9,109.9,43.1z M103.5,41.5l5.9-1.3
		c-0.3-0.9-0.6-1.5-1.1-1.8c-0.7-0.6-1.5-0.7-2.4-0.6c-0.8,0.2-1.4,0.6-1.9,1.3C103.5,39.7,103.3,40.5,103.5,41.5z"/>
	<path fill="#FFFFFF" stroke="#FFFFFF" stroke-width="1.0588" stroke-miterlimit="10" d="M123.2,42.2l0.6,1.4
		c-0.4,0.2-0.9,0.3-1.2,0.4c-0.6,0.1-1.1,0.1-1.5,0c-0.4-0.1-0.7-0.3-0.9-0.6c-0.2-0.3-0.4-0.9-0.6-1.9l-1.2-5.6l-1.2,0.3l-0.3-1.3
		l1.2-0.3l-0.5-2.4l1.4-1.4l0.7,3.4l1.7-0.4l0.3,1.3l-1.7,0.4l1.2,5.7c0.1,0.5,0.2,0.8,0.3,0.9c0.1,0.1,0.2,0.2,0.4,0.3s0.3,0,0.6,0
		C122.7,42.4,122.9,42.3,123.2,42.2z"/>
	<path fill="#FFFFFF" stroke="#FFFFFF" stroke-width="1.0588" stroke-miterlimit="10" d="M123.5,38.5c-0.4-1.8-0.2-3.3,0.6-4.4
		c0.7-0.9,1.6-1.5,2.8-1.8c1.3-0.3,2.5-0.1,3.6,0.6c1,0.7,1.7,1.8,2.1,3.4c0.3,1.3,0.3,2.3,0.1,3.1c-0.2,0.8-0.6,1.5-1.3,2
		c-0.6,0.6-1.4,0.9-2.2,1.1c-1.4,0.3-2.6,0.1-3.6-0.6C124.5,41.4,123.9,40.2,123.5,38.5z M125.2,38.2c0.3,1.3,0.8,2.1,1.4,2.6
		c0.7,0.5,1.4,0.7,2.3,0.5c0.8-0.2,1.4-0.6,1.9-1.4c0.4-0.7,0.5-1.8,0.2-3c-0.3-1.2-0.7-2.1-1.4-2.6c-0.7-0.5-1.4-0.7-2.3-0.5
		c-0.8,0.2-1.5,0.6-1.9,1.4C125,35.9,124.9,36.9,125.2,38.2z"/>
	<path fill="#FCEE23" stroke="#FCEE23" stroke-miterlimit="10" d="M46.1,73.5l-1.9-8.9l1.2-0.3l0.8,3.7l4.6-1L50,63.4l1.2-0.3
		l1.9,8.9l-1.2,0.3L51,68.1l-4.6,1l0.9,4.2L46.1,73.5z"/>
	<path fill="#FCEE23" stroke="#FCEE23" stroke-miterlimit="10" d="M55.4,71.5l1.5-9.7l1.3-0.3l5.6,8.1L62.4,70l-1.6-2.5L57,68.4
		l-0.4,2.9L55.4,71.5z M57.1,67.3l3-0.7l-1.5-2.3c-0.4-0.7-0.8-1.3-1-1.7c0,0.6,0,1.2-0.1,1.8L57.1,67.3z"/>
	<path fill="#FCEE23" stroke="#FCEE23" stroke-miterlimit="10" d="M65.9,69.3l-1.9-8.9l1.2-0.3l1.7,7.9l4.4-1l0.2,1.1L65.9,69.3z"/>
	<path fill="#FCEE23" stroke="#FCEE23" stroke-miterlimit="10" d="M74,67.5l-1.9-8.9l1.2-0.3l1.7,7.9l4.4-1l0.2,1.1L74,67.5z"/>
	<path fill="#FCEE23" stroke="#FCEE23" stroke-miterlimit="10" d="M81,61.4c-0.3-1.5-0.2-2.7,0.4-3.7c0.6-1,1.5-1.7,2.8-1.9
		c0.8-0.2,1.6-0.1,2.4,0.1c0.7,0.3,1.4,0.7,1.9,1.3c0.5,0.6,0.8,1.4,1,2.3c0.2,0.9,0.2,1.8,0,2.5c-0.2,0.8-0.6,1.4-1.2,2
		c-0.6,0.5-1.3,0.9-2,1c-0.8,0.2-1.6,0.1-2.4-0.1c-0.7-0.3-1.4-0.7-1.9-1.3C81.5,62.9,81.1,62.2,81,61.4z M82.2,61.2
		c0.2,1.1,0.7,1.9,1.4,2.4c0.7,0.5,1.5,0.6,2.4,0.5c0.9-0.2,1.6-0.7,2-1.4c0.4-0.8,0.5-1.7,0.3-2.8c-0.2-0.7-0.4-1.3-0.8-1.8
		c-0.4-0.5-0.8-0.8-1.4-1c-0.5-0.2-1.1-0.2-1.7-0.1c-0.8,0.2-1.5,0.6-2,1.3C82,58.8,81.9,59.8,82.2,61.2z"/>
	<path fill="#FCEE23" stroke="#FCEE23" stroke-miterlimit="10" d="M94.8,63l-4.3-8.4l1.2-0.3l2.6,5.6c0.3,0.6,0.5,1.2,0.8,1.7
		c0-1,0-1.6,0-1.7l0.4-6.4l1.4-0.3l2.3,4.2c0.6,1.1,1,2.1,1.4,3c0-0.6,0-1.3,0-2l0.2-6l1.2-0.3l-0.5,9.5l-1.1,0.2L97,55.4
		c-0.3-0.5-0.5-0.9-0.5-1c0,0.4,0,0.8,0,1.1L96,62.7L94.8,63z"/>
	<path fill="#FCEE23" stroke="#FCEE23" stroke-miterlimit="10" d="M106.3,60.5l-1.9-8.9l6.5-1.4l0.2,1.1l-5.3,1.1l0.6,2.7l4.9-1.1
		l0.2,1l-4.9,1.1l0.7,3l5.5-1.2l0.2,1.1L106.3,60.5z"/>
	<path fill="#FCEE23" stroke="#FCEE23" stroke-miterlimit="10" d="M115.8,58.4l-1.9-8.9l6.5-1.4l0.2,1.1l-5.3,1.1l0.6,2.7l4.9-1.1
		l0.2,1l-4.9,1.1l0.7,3l5.5-1.2l0.2,1.1L115.8,58.4z"/>
	<path fill="#FCEE23" stroke="#FCEE23" stroke-miterlimit="10" d="M125.4,56.3l-1.9-8.9l1.2-0.3l6.2,6l-1.5-7l1.1-0.2l1.9,8.9
		l-1.2,0.3l-6.2-6l1.5,7L125.4,56.3z"/>
	<path fill="#FCEE23" stroke="#FCEE23" stroke-miterlimit="10" d="M60.9,83.9l2.2,0.1c-0.1,1.8-0.6,3.3-1.5,4.4
		c-0.9,1.2-2.2,1.9-3.9,2.3c-1.7,0.4-3.2,0.3-4.4-0.1c-1.2-0.5-2.3-1.3-3.1-2.5c-0.8-1.2-1.4-2.5-1.8-4.1c-0.4-1.6-0.4-3.2,0-4.5
		c0.4-1.4,1.1-2.5,2.1-3.4c1-0.9,2.2-1.5,3.6-1.8c1.6-0.3,3-0.2,4.3,0.3c1.3,0.6,2.3,1.5,3,2.9l-2,0.9c-0.6-1.1-1.3-1.8-2.1-2.2
		c-0.8-0.4-1.7-0.4-2.8-0.2c-1.2,0.3-2.2,0.8-2.9,1.5c-0.7,0.8-1.1,1.7-1.2,2.7c-0.1,1.1-0.1,2.1,0.2,3.1c0.3,1.3,0.7,2.5,1.4,3.4
		c0.6,0.9,1.4,1.5,2.3,1.9c0.9,0.3,1.9,0.4,2.8,0.2c1.2-0.3,2.1-0.8,2.8-1.7C60.6,86.4,60.9,85.3,60.9,83.9z"/>
	<path fill="#FCEE23" stroke="#FCEE23" stroke-miterlimit="10" d="M67.3,88.4l2.6-17.1l2.3-0.5l9.9,14.4l-2.4,0.5l-2.9-4.4l-6.6,1.4
		l-0.7,5.2L67.3,88.4z M70.4,80.9l5.4-1.2l-2.6-4c-0.8-1.2-1.4-2.2-1.8-3c0,1.1,0,2.1-0.2,3.2L70.4,80.9z"/>
	<path fill="#FCEE23" stroke="#FCEE23" stroke-miterlimit="10" d="M86,84.3l-3.4-15.8l2.1-0.5l11,10.6L93,66.2l2-0.4l3.4,15.8
		l-2.1,0.5l-11-10.6L88,83.9L86,84.3z"/>
	<path fill="#FCEE23" stroke="#FCEE23" stroke-miterlimit="10" d="M104.1,80.4l-3.4-15.8l5.4-1.2c1.2-0.3,2.2-0.4,2.9-0.4
		c1,0,1.8,0.2,2.6,0.6c1,0.5,1.8,1.3,2.5,2.3c0.7,1,1.1,2.2,1.4,3.6c0.3,1.2,0.4,2.3,0.3,3.3c-0.1,1-0.3,1.8-0.6,2.5
		c-0.3,0.7-0.7,1.3-1.1,1.7c-0.4,0.5-1,0.9-1.7,1.2c-0.7,0.3-1.5,0.6-2.5,0.8L104.1,80.4z M105.8,78l3.4-0.7c1-0.2,1.8-0.5,2.4-0.8
		c0.6-0.3,1-0.7,1.2-1.1c0.4-0.6,0.6-1.4,0.7-2.3c0.1-0.9,0-1.9-0.2-3.1c-0.4-1.7-0.9-2.9-1.6-3.6c-0.7-0.8-1.5-1.2-2.4-1.4
		c-0.6-0.1-1.5,0-2.8,0.3l-3.3,0.7L105.8,78z"/>
	<path fill="#FCEE23" stroke="#FCEE23" stroke-miterlimit="10" d="M126.8,75.4l-1.5-6.7l-8.1-7.8l2.5-0.6l4.2,4.1
		c0.8,0.8,1.5,1.5,2.2,2.3c0.3-0.9,0.7-2,1.1-3.2l2.1-5.3l2.4-0.5l-4.3,10.5l1.5,6.7L126.8,75.4z"/>
</g>
<polyline fill="#F15B2B" stroke="#231F20" stroke-width="2.1176" stroke-miterlimit="10" points="32.3,42 7,41.1 10.6,45.8 7.3,49 
	11.7,51.1 8.7,55.3 11.8,56.6 9.8,60.4 13.5,61.9 11.2,66.7 15,68.8 12.5,73.1 16.2,74.4 13.8,78.9 17.8,81.5 15,84.6 19.4,87.4 
	16.3,90.3 20.3,93.2 17.8,97.4 22,99.4 19.4,104.7 22.7,104 20.5,109.9 24.9,109 23.7,114.8 45.2,101.4 "/>
<polyline fill="#F15B2B" stroke="#231F20" stroke-width="2.1176" stroke-miterlimit="10" points="148.5,78.9 172.8,78.4 169.3,73.9 
	172.6,70.7 168.2,68.8 171.2,64.6 168.2,63.4 170.1,59.6 166.5,58.2 168.8,53.5 165.1,51.4 167.5,47.3 163.8,46 166.2,41.6 
	162.3,39.1 165,36 160.8,33.3 163.8,30.5 159.9,27.7 162.3,23.6 158.3,21.7 160.8,16.4 157.6,17.1 159.7,11.4 155.4,12.3 156.5,6.7 
	135.7,19.7 "/>
<g>
</g>
<g>
</g>
<g>
</g>
<g>
</g>
<g>
</g>
<g>
</g>
</svg>
