<?xml version="1.0" encoding="utf-8"?>
<!-- Generator: Adobe Illustrator 19.2.1, SVG Export Plug-In . SVG Version: 6.00 Build 0)  -->
<svg version="1.1" id="Layer_1" xmlns="http://www.w3.org/2000/svg" xmlns:xlink="http://www.w3.org/1999/xlink" x="0px" y="0px"
	 width="179.9px" height="121.4px" viewBox="0 0 179.9 121.4" enable-background="new 0 0 179.9 121.4" xml:space="preserve">
<rect fill="#3A2417" width="179.9" height="121.4"/>
<g>
	
		<path fill="#F15B2B" stroke="#000000" stroke-width="1.0489" stroke-linecap="round" stroke-linejoin="round" stroke-miterlimit="10" d="
		M146.8,73.2c0.9-3.4,0.6-5.8,0.4-6.7l2,3.4l2.7-0.8l0.8,2.7l2.7-0.6v2.5l3-0.8l0.5,1.9l2.5-0.5v2.6l2.4-0.9l1.2,2.5l2.7-1.1
		l1.2,3.2l2.7-1.3l0.6,2.9l3.1-0.6l-0.4,3.1l4.2,0.7l-10,4.4l-24.2-14.8L146.8,73.2z"/>
	<path fill="#939598" d="M108,90.6c4.3-2.9,11.2-6,14.3-5.7c3.1,0.3,19,6.7,19,6.7l-5.6,12.4l-3.7,3.2l-6.6,3.9L108,90.6z"/>
	<path fill="#F15B2B" stroke="#000000" stroke-width="1.0489" stroke-linecap="round" stroke-miterlimit="10" d="M108.4,90.3
		c10.3-8.3,33-13.3,36.9-15.7c9.4,0,24.3,12.8,27.1,13.4c-8.9,4.6-37,15.7-41.6,20c3.1-4,4.7-5.7,3.2-7.9c-1.5-2.2,0.2-4.8,0.7-6.2
		c0.5-1.4,1.9-4.2-6.1-4.8C120.7,88.6,114.4,85.5,108.4,90.3z"/>
	<path fill="#F15B2B" d="M89.1,95.8c-2.4-3.3-6.4-0.7-10.7,4.3h3l-0.9,3.4h3.2l-1.9,3.3h2.7l-0.8,2.8l2.8,0.6l-1.3,2.1h3.6l-1.6,2.5
		l2.9,0.7l-0.9,2.7c3.9-2.7,8.8-4.2,9.2-4.2l2.8,5.1c3.8-2.1,4.7-4,11.4-1.6c6.7,2.4,14.9-4.5,17.2-6.5c2.3-2,7.4-5.2-2.6-4.2
		c-10,1-3.8-5.1-3.3-7.7c0.6-2.6-2.6-6.7-2.6-9.5c-6.9,4.1-9.9,2.6-13.6,1S93.6,85.9,89.1,95.8z"/>
	<path fill="none" stroke="#000000" stroke-width="1.0489" stroke-linecap="round" stroke-miterlimit="10" d="M90.1,101.2l10.6,18.2
		c3.8-2.1,4.7-4,11.4-1.6s14.9-4.5,17.2-6.5c2.3-2,7.4-5.2-2.6-4.2c-10,1-3.8-5.1-3.3-7.7c0.6-2.6-2.6-6.7-2.6-9.5
		c-6.9,4.1-9.9,2.6-13.6,1c-3.7-1.6-14.1-4.5-18.6,5.4c-2.4-3.3-6.4-0.7-10.7,4.3h3l-0.9,3.4h3.2l-1.9,3.3h2.7l-0.8,2.8l2.8,0.6
		l-1.3,2.1h3.6l-1.6,2.5l2.9,0.7l-0.9,2.7c3.9-2.7,8.7-4.2,9.1-4.2"/>
</g>
<path opacity="0.8" fill="#FFFFFF" d="M137.4,72.8c-1.7-0.8-2.1-2.6-1.5-4.2c0.5-1.6,1.7-4.3-1.3-5.2c-3-1-3.7-2-0.6-9.2
	c3.2-7.3-8.5-8.9-12.3-9.4c-3.8-0.5-23.2-4.1-24.9-19.1c-1.7-15-19.5-23.8-37.2-20.9c0,0-18.8,2.1-22.5,18c-5.8-2.6-11-3.2-15-1.8
	c-3.3,1.2-5.7,3.6-7.2,7.2c-0.5,1.3,0.1,2.7,1.3,3.2c0.1,0.1,0.3,0.1,0.4,0.1c1.2,0.3,2.4-0.3,2.8-1.5c1-2.3,2.4-3.8,4.3-4.5
	c3.1-1.1,7.6-0.3,12.7,2.3c0,0.1,0,0.2,0,0.2c-0.1,20.9,14.7,28.8,25.1,32c12.4,3.8,44.9-0.6,50.2-2.6c5.3-2,15-2.5,13.8,1.8
	c-1.2,4.3,0.3,5.7,3.1,6.5c2.8,0.7,4,1.4,3.8,4.2s0.8,4.8,2.4,5c1.6,0.2,3.8,0.2,4.9,2C140.2,75.8,139.1,73.6,137.4,72.8z
	 M56.3,28.2c-0.1-0.1-0.3-0.3-0.5-0.5c-0.1-0.1-0.2-0.2-0.3-0.2c-0.1-0.1-0.2-0.2-0.4-0.2c-0.3-0.2-0.6-0.3-0.9-0.4
	c-0.3-0.1-0.7-0.2-1-0.2c-0.4,0-0.7-0.1-1.1,0c-0.4,0-0.8,0.1-1.2,0.1c-1.6,0.3-3.1,1.1-3.9,1.9c-0.2,0.2-0.4,0.4-0.6,0.6
	c-0.1,0.2-0.3,0.4-0.4,0.6c-0.1,0.2-0.2,0.3-0.2,0.4c0,0.1-0.1,0.2-0.1,0.2s0-0.1,0-0.2c0-0.1-0.1-0.3-0.1-0.5c0-0.2,0-0.5,0.1-0.8
	c0.1-0.3,0.2-0.6,0.3-1c0.3-0.7,0.9-1.4,1.7-2c0.4-0.3,0.8-0.5,1.3-0.7c0.5-0.2,1-0.4,1.5-0.5c1-0.2,2.1-0.2,3,0.1
	c0.5,0.1,0.9,0.4,1.3,0.6c0.4,0.3,0.7,0.5,1,0.8c0.1,0.1,0.2,0.3,0.3,0.4c0.1,0.1,0.2,0.3,0.2,0.4c0.1,0.3,0.2,0.5,0.3,0.7
	c0.1,0.2,0.1,0.4,0.1,0.5c0,0.1,0,0.2,0,0.2S56.6,28.5,56.3,28.2z M74.2,45.7c-6.7,0.3-15.5-1.9-18.1-4.6c7.6-0.1,15.2-0.2,19.6-3.2
	C75.8,40.2,75.6,43.4,74.2,45.7z M78.9,25.5c-0.1-0.1-0.3-0.3-0.5-0.5c-0.1-0.1-0.2-0.2-0.3-0.2c-0.1-0.1-0.2-0.2-0.4-0.2
	c-0.3-0.2-0.6-0.3-0.9-0.4c-0.3-0.1-0.7-0.2-1-0.2c-0.4,0-0.7-0.1-1.1,0c-0.4,0-0.8,0.1-1.2,0.1c-1.6,0.3-3.1,1.1-3.9,1.9
	c-0.2,0.2-0.4,0.4-0.6,0.6c-0.1,0.2-0.3,0.4-0.4,0.6c-0.1,0.2-0.2,0.3-0.2,0.4c0,0.1-0.1,0.2-0.1,0.2s0-0.1,0-0.2
	c0-0.1-0.1-0.3-0.1-0.5c0-0.2,0-0.5,0.1-0.8c0.1-0.3,0.2-0.6,0.3-1c0.3-0.7,0.9-1.4,1.7-2c0.4-0.3,0.8-0.5,1.3-0.7
	c0.5-0.2,1-0.4,1.5-0.5c1-0.2,2.1-0.2,3,0.1c0.5,0.1,0.9,0.4,1.3,0.6c0.4,0.3,0.7,0.5,1,0.8c0.1,0.1,0.2,0.3,0.3,0.4
	c0.1,0.1,0.2,0.3,0.2,0.4c0.1,0.3,0.2,0.5,0.3,0.7c0.1,0.2,0.1,0.4,0.1,0.5c0,0.1,0,0.2,0,0.2S79.2,25.8,78.9,25.5z"/>
<g>
	
		<rect x="4" y="33.1" transform="matrix(0.9903 -0.1389 0.1389 0.9903 -6.2441 2.6205)" fill="#C49A6C" width="23.3" height="25.9"/>
	<g>
		<path fill="#3C2517" d="M16.4,46.8C11,44.6,6.3,45.3,6.3,45.3c2.4,1.8,3.7,2.9,3.9,4.2c1.1-1,3.7-3,6.5-0.3c1.1-1.5,2.2-3,6.1-2.7
			c-0.4-1.9-0.3-3.2,1-4.3C20.9,42.6,18.2,44.9,16.4,46.8z"/>
	</g>
</g>
<g>
</g>
<g>
</g>
<g>
</g>
<g>
</g>
<g>
</g>
<g>
</g>
</svg>
