<?xml version="1.0" encoding="utf-8"?>
<!-- Generator: Adobe Illustrator 19.2.1, SVG Export Plug-In . SVG Version: 6.00 Build 0)  -->
<svg version="1.1" id="Layer_1" xmlns="http://www.w3.org/2000/svg" xmlns:xlink="http://www.w3.org/1999/xlink" x="0px" y="0px"
	 width="172.8px" height="266.4px" viewBox="0 0 172.8 266.4" enable-background="new 0 0 172.8 266.4" xml:space="preserve">
<rect y="0" fill="#2A170E" width="172.8" height="266.4"/>
<g>
	<g>
		<path fill="#FFFFFF" d="M59.5,12.5l0.7,3.3c0.1,0.4,0.2,1,0.3,1.6h0.1c0-0.6,0.1-1,0.2-1.4l0.7-3.5h0.7l0.7,3.5
			c0.1,0.4,0.2,0.9,0.2,1.4h0.1c0.1-0.5,0.2-1.1,0.3-1.6l0.7-3.3h0.7L63.4,18h-0.7l-0.7-3.6c-0.1-0.4-0.2-0.8-0.2-1.3h-0.2
			c-0.1,0.5-0.1,0.9-0.2,1.3L60.8,18h-0.7l-1.4-5.5H59.5z"/>
		<path fill="#FFFFFF" d="M65.9,12.2v2l0.1,0c0.2-0.3,0.5-0.5,0.9-0.5c0.7,0,1.1,0.5,1.1,1.4V18h-0.6v-2.6c0-0.8-0.1-1.2-0.7-1.2
			c-0.3,0-0.6,0.1-0.8,0.4V18h-0.6v-5.8H65.9z"/>
		<path fill="#FFFFFF" d="M71.9,16c0,1.4-0.6,2.2-1.5,2.2c-0.9,0-1.5-0.8-1.5-2.2c0-1.3,0.6-2.2,1.5-2.2
			C71.4,13.8,71.9,14.6,71.9,16z M69.5,15.9c0,1.2,0.3,1.8,0.9,1.8c0.6,0,0.9-0.6,0.9-1.7c0-1.1-0.4-1.7-0.9-1.7
			S69.5,14.8,69.5,15.9z"/>
		<path fill="#FFFFFF" d="M76.7,14.9c-0.1-0.4-0.4-0.6-0.7-0.6c-0.5,0-0.9,0.6-0.9,1.7c0,1.1,0.3,1.7,0.9,1.7c0.3,0,0.6-0.2,0.7-0.6
			h0.4v0.6c-0.3,0.4-0.7,0.5-1.1,0.5c-0.9,0-1.5-0.8-1.5-2.2c0-1.4,0.6-2.2,1.5-2.2c0.4,0,0.8,0.2,1.1,0.5v0.6H76.7z"/>
		<path fill="#FFFFFF" d="M80.7,18h-0.6v-0.3h-0.1c-0.3,0.3-0.6,0.5-1,0.5c-0.7,0-1.3-0.5-1.3-1.2c0-0.9,0.8-1.4,2.3-1.5
			c0-0.1,0-0.2,0-0.3c0-0.7-0.2-0.9-0.8-0.9c-0.4,0-0.7,0.2-0.9,0.6H78v-0.6c0.4-0.2,0.8-0.4,1.3-0.4c0.5,0,0.9,0.2,1.2,0.5
			c0.2,0.3,0.2,0.6,0.2,1.3V18z M80.1,15.8c-1.2,0.1-1.7,0.5-1.7,1.1c0,0.4,0.3,0.7,0.8,0.7c0.3,0,0.6-0.1,0.9-0.4V15.8z"/>
		<path fill="#FFFFFF" d="M82.4,13.9v0.3l0.1,0c0.2-0.3,0.5-0.5,0.9-0.5c0.8,0,1.1,0.5,1.1,1.4V18h-0.6v-2.6c0-0.8-0.1-1.2-0.7-1.2
			c-0.3,0-0.6,0.1-0.8,0.4V18h-0.6v-4.1H82.4z"/>
		<path fill="#FFFFFF" d="M88,13.9v0.3c0,0.1,0,0.3-0.1,0.4l0.1,0.1c0.2-0.5,0.8-0.8,1.3-0.8h0v0.7c-0.6,0-1,0.2-1.4,0.6V18h-0.6
			v-4.1H88z"/>
		<path fill="#FFFFFF" d="M90.7,16.2v0.1c0,0.9,0.4,1.4,1,1.4c0.4,0,0.8-0.2,0.9-0.5h0.4v0.5c-0.4,0.4-0.8,0.5-1.4,0.5
			c-1.1,0-1.6-0.7-1.6-2.2c0-1.4,0.6-2.2,1.5-2.2c1,0,1.5,0.8,1.5,2.2v0.2H90.7z M92.5,15.7c0-0.9-0.4-1.4-0.9-1.4
			c-0.6,0-0.9,0.5-0.9,1.4H92.5z"/>
		<path fill="#FFFFFF" d="M94.2,17c0.2,0.4,0.5,0.6,1,0.6c0.5,0,0.8-0.3,0.8-0.7c0-0.6-0.5-0.6-1.3-0.9c-0.5-0.2-0.8-0.6-0.8-1.1
			c0-0.7,0.6-1.2,1.3-1.2c0.4,0,0.8,0.1,1.2,0.5v0.6H96c-0.2-0.4-0.5-0.6-0.8-0.6c-0.4,0-0.8,0.3-0.8,0.7c0,0.4,0.3,0.6,0.9,0.8
			c0.8,0.2,1.2,0.6,1.2,1.2c0,0.7-0.5,1.3-1.4,1.3c-0.5,0-1-0.2-1.4-0.5V17H94.2z"/>
		<path fill="#FFFFFF" d="M98.1,12.2v0.7h-0.6v-0.7H98.1z M98,13.9V18h-0.6v-4.1H98z"/>
		<path fill="#FFFFFF" d="M99.3,17c0.2,0.4,0.5,0.6,1,0.6c0.5,0,0.8-0.3,0.8-0.7c0-0.6-0.5-0.6-1.3-0.9C99.4,15.9,99,15.5,99,15
			c0-0.7,0.5-1.2,1.3-1.2c0.4,0,0.8,0.1,1.2,0.5v0.6h-0.4c-0.2-0.4-0.5-0.6-0.8-0.6c-0.4,0-0.8,0.3-0.8,0.7c0,0.4,0.3,0.6,0.9,0.8
			c0.8,0.2,1.2,0.6,1.2,1.2c0,0.7-0.5,1.3-1.4,1.3c-0.5,0-1-0.2-1.4-0.5V17H99.3z"/>
		<path fill="#FFFFFF" d="M104.2,13.9v0.5h-0.9v2.6c0,0.6,0,0.6,0.5,0.6h0.4V18h-0.6c-0.8,0-0.9-0.3-0.9-1.3v-2.4h-0.5v-0.5h0.5
			v-1.3h0.6v1.3H104.2z"/>
		<path fill="#FFFFFF" d="M109.5,18h-0.6v-0.3h-0.1c-0.3,0.3-0.6,0.5-1,0.5c-0.7,0-1.3-0.5-1.3-1.2c0-0.9,0.8-1.4,2.3-1.5
			c0-0.1,0-0.2,0-0.3c0-0.7-0.2-0.9-0.8-0.9c-0.4,0-0.7,0.2-0.9,0.6h-0.4v-0.6c0.4-0.2,0.8-0.4,1.3-0.4c0.5,0,0.9,0.2,1.2,0.5
			c0.2,0.3,0.2,0.6,0.2,1.3V18z M108.9,15.8c-1.2,0.1-1.7,0.5-1.7,1.1c0,0.4,0.3,0.7,0.8,0.7c0.3,0,0.6-0.1,0.9-0.4V15.8z"/>
		<path fill="#FFFFFF" d="M114.5,14.9c-0.1-0.4-0.4-0.6-0.7-0.6c-0.5,0-0.9,0.6-0.9,1.7c0,1.1,0.3,1.7,0.9,1.7
			c0.3,0,0.6-0.2,0.7-0.6h0.4v0.6c-0.3,0.4-0.7,0.5-1.1,0.5c-0.9,0-1.5-0.8-1.5-2.2c0-1.4,0.6-2.2,1.5-2.2c0.4,0,0.8,0.2,1.1,0.5
			v0.6H114.5z"/>
		<path fill="#FFFFFF" d="M116.4,12.2v2l0.1,0c0.2-0.3,0.5-0.5,0.9-0.5c0.7,0,1.1,0.5,1.1,1.4V18h-0.6v-2.6c0-0.8-0.1-1.2-0.7-1.2
			c-0.3,0-0.6,0.1-0.8,0.4V18h-0.6v-5.8H116.4z"/>
		<path fill="#FFFFFF" d="M122.4,16c0,1.4-0.6,2.2-1.5,2.2c-0.9,0-1.5-0.8-1.5-2.2c0-1.3,0.6-2.2,1.5-2.2
			C121.8,13.8,122.4,14.6,122.4,16z M119.9,15.9c0,1.2,0.3,1.8,0.9,1.8c0.6,0,0.9-0.6,0.9-1.7c0-1.1-0.4-1.7-0.9-1.7
			S119.9,14.8,119.9,15.9z"/>
		<path fill="#FFFFFF" d="M125.3,14.9c-0.1-0.4-0.4-0.6-0.7-0.6c-0.5,0-0.9,0.6-0.9,1.7c0,1.1,0.3,1.7,0.9,1.7
			c0.3,0,0.6-0.2,0.7-0.6h0.4v0.6c-0.3,0.4-0.7,0.5-1.1,0.5c-0.9,0-1.5-0.8-1.5-2.2c0-1.4,0.6-2.2,1.5-2.2c0.4,0,0.8,0.2,1.1,0.5
			v0.6H125.3z"/>
		<path fill="#FFFFFF" d="M129.4,16c0,1.4-0.6,2.2-1.5,2.2c-0.9,0-1.5-0.8-1.5-2.2c0-1.3,0.6-2.2,1.5-2.2
			C128.8,13.8,129.4,14.6,129.4,16z M127,15.9c0,1.2,0.3,1.8,0.9,1.8c0.6,0,0.9-0.6,0.9-1.7c0-1.1-0.4-1.7-0.9-1.7
			C127.4,14.2,127,14.8,127,15.9z"/>
		<path fill="#FFFFFF" d="M130.9,12.2V18h-0.6v-5.8H130.9z"/>
		<path fill="#FFFFFF" d="M134.8,18h-0.6v-0.3h-0.1c-0.3,0.3-0.6,0.5-1,0.5c-0.7,0-1.3-0.5-1.3-1.2c0-0.9,0.8-1.4,2.3-1.5
			c0-0.1,0-0.2,0-0.3c0-0.7-0.2-0.9-0.8-0.9c-0.4,0-0.7,0.2-0.9,0.6h-0.4v-0.6c0.4-0.2,0.8-0.4,1.3-0.4c0.5,0,0.9,0.2,1.2,0.5
			c0.2,0.3,0.2,0.6,0.2,1.3V18z M134.2,15.8c-1.2,0.1-1.7,0.5-1.7,1.1c0,0.4,0.3,0.7,0.8,0.7c0.3,0,0.6-0.1,0.9-0.4V15.8z"/>
		<path fill="#FFFFFF" d="M137.5,13.9v0.5h-0.9v2.6c0,0.6,0,0.6,0.5,0.6h0.4V18h-0.6c-0.8,0-0.9-0.3-0.9-1.3v-2.4h-0.5v-0.5h0.5
			v-1.3h0.6v1.3H137.5z"/>
		<path fill="#FFFFFF" d="M138.6,16.2v0.1c0,0.9,0.4,1.4,1,1.4c0.4,0,0.8-0.2,0.9-0.5h0.4v0.5c-0.4,0.4-0.8,0.5-1.4,0.5
			c-1.1,0-1.6-0.7-1.6-2.2c0-1.4,0.6-2.2,1.5-2.2c1,0,1.5,0.8,1.5,2.2v0.2H138.6z M140.4,15.7c0-0.9-0.4-1.4-0.9-1.4
			c-0.6,0-0.9,0.5-0.9,1.4H140.4z"/>
		<path fill="#FFFFFF" d="M144.4,12.2v2l0.1,0c0.2-0.3,0.5-0.5,0.9-0.5c0.7,0,1.3,0.8,1.3,2.2c0,1.4-0.5,2.2-1.3,2.2
			c-0.4,0-0.7-0.2-0.9-0.5l-0.1,0V18h-0.6v-5.8H144.4z M144.4,17.2c0.3,0.3,0.5,0.4,0.8,0.4c0.6,0,0.9-0.6,0.9-1.7
			c0-1.1-0.3-1.7-0.9-1.7c-0.3,0-0.5,0.1-0.8,0.4V17.2z"/>
		<path fill="#FFFFFF" d="M150.3,18h-0.6v-0.3h-0.1c-0.3,0.3-0.6,0.5-1,0.5c-0.7,0-1.3-0.5-1.3-1.2c0-0.9,0.8-1.4,2.3-1.5
			c0-0.1,0-0.2,0-0.3c0-0.7-0.2-0.9-0.8-0.9c-0.4,0-0.7,0.2-0.9,0.6h-0.4v-0.6c0.4-0.2,0.8-0.4,1.3-0.4c0.5,0,0.9,0.2,1.2,0.5
			c0.2,0.3,0.2,0.6,0.2,1.3V18z M149.7,15.8c-1.2,0.1-1.7,0.5-1.7,1.1c0,0.4,0.3,0.7,0.8,0.7c0.3,0,0.6-0.1,0.9-0.4V15.8z"/>
		<path fill="#FFFFFF" d="M152,13.9v0.3c0,0.1,0,0.3-0.1,0.4l0.1,0.1c0.2-0.5,0.8-0.8,1.3-0.8h0v0.7c-0.6,0-1,0.2-1.4,0.6V18h-0.6
			v-4.1H152z"/>
		<path fill="#FFFFFF" d="M58.6,24.6v-0.5h0.6c0-0.1,0-0.3,0-0.5c0-0.9,0.3-1.3,1.2-1.3c0.1,0,0.1,0,0.2,0v0.5h-0.1
			c-0.5,0-0.7,0.2-0.7,0.7v0.6h0.7v0.5h-0.7v3.6h-0.6v-3.6H58.6z"/>
		<path fill="#FFFFFF" d="M61.9,22.4v0.7h-0.6v-0.7H61.9z M61.9,24.1v4.1h-0.6v-4.1H61.9z"/>
		<path fill="#FFFFFF" d="M63.7,22.4v5.8h-0.6v-5.8H63.7z"/>
		<path fill="#FFFFFF" d="M65.4,22.4v5.8h-0.6v-5.8H65.4z"/>
		<path fill="#FFFFFF" d="M67,26.3v0.1c0,0.9,0.4,1.4,1,1.4c0.4,0,0.8-0.2,0.9-0.5h0.4v0.5c-0.4,0.4-0.8,0.5-1.4,0.5
			c-1.1,0-1.6-0.7-1.6-2.2c0-1.4,0.6-2.2,1.5-2.2c1,0,1.5,0.8,1.5,2.2v0.2H67z M68.8,25.8c0-0.9-0.4-1.4-0.9-1.4
			c-0.6,0-0.9,0.5-0.9,1.4H68.8z"/>
		<path fill="#FFFFFF" d="M72.5,27.8L72.5,27.8c-0.3,0.3-0.6,0.5-1,0.5c-0.8,0-1.3-0.8-1.3-2.2c0-1.3,0.5-2.2,1.3-2.2
			c0.4,0,0.6,0.2,0.9,0.5l0.1,0v-2h0.6v5.8h-0.6V27.8z M72.5,24.9c-0.3-0.3-0.5-0.4-0.8-0.4c-0.6,0-0.9,0.6-0.9,1.7
			c0,1.1,0.3,1.7,0.9,1.7c0.3,0,0.5-0.2,0.8-0.4V24.9z"/>
		<path fill="#FFFFFF" d="M76.2,24.1l0.7,3.5h0.1l0.7-3.5h0.6l0.7,3.5h0.1l0.7-3.5h0.7l-1.2,4.1h-0.6L78.1,25H78l-0.7,3.2h-0.6
			l-1.1-4.1H76.2z"/>
		<path fill="#FFFFFF" d="M81.9,22.4v0.7h-0.6v-0.7H81.9z M81.9,24.1v4.1h-0.6v-4.1H81.9z"/>
		<path fill="#FFFFFF" d="M84.7,24.1v0.5h-0.9v2.6c0,0.6,0,0.6,0.5,0.6h0.4v0.5H84c-0.8,0-0.9-0.3-0.9-1.3v-2.4h-0.5v-0.5h0.5v-1.3
			h0.6v1.3H84.7z"/>
		<path fill="#FFFFFF" d="M86,22.4v2l0.1,0c0.2-0.3,0.5-0.5,0.9-0.5c0.7,0,1.1,0.5,1.1,1.4v2.8h-0.6v-2.6c0-0.8-0.1-1.2-0.7-1.2
			c-0.3,0-0.6,0.1-0.8,0.4v3.3h-0.6v-5.8H86z"/>
		<path fill="#FFFFFF" d="M93,25c-0.1-0.4-0.4-0.6-0.7-0.6c-0.5,0-0.9,0.6-0.9,1.7c0,1.1,0.3,1.7,0.9,1.7c0.3,0,0.6-0.2,0.7-0.6h0.4
			v0.6c-0.3,0.4-0.7,0.5-1.1,0.5c-0.9,0-1.5-0.8-1.5-2.2c0-1.4,0.6-2.2,1.5-2.2c0.4,0,0.8,0.2,1.1,0.5V25H93z"/>
		<path fill="#FFFFFF" d="M97,28.2h-0.6v-0.3h-0.1c-0.3,0.3-0.6,0.5-1,0.5c-0.7,0-1.3-0.5-1.3-1.2c0-0.9,0.8-1.4,2.3-1.5
			c0-0.1,0-0.2,0-0.3c0-0.7-0.2-0.9-0.8-0.9c-0.4,0-0.7,0.2-0.9,0.6h-0.4v-0.6c0.4-0.2,0.8-0.4,1.3-0.4c0.5,0,0.9,0.2,1.2,0.5
			c0.2,0.3,0.2,0.6,0.2,1.3V28.2z M96.4,26c-1.2,0.1-1.7,0.5-1.7,1.1c0,0.4,0.3,0.7,0.8,0.7c0.3,0,0.6-0.1,0.9-0.4V26z"/>
		<path fill="#FFFFFF" d="M98.7,24.1v0.3c0,0.1,0,0.3-0.1,0.4l0.1,0.1c0.2-0.5,0.8-0.8,1.3-0.8h0v0.7c-0.6,0-1,0.2-1.4,0.6v2.9h-0.6
			v-4.1H98.7z"/>
		<path fill="#FFFFFF" d="M103.6,28.2H103v-0.3H103c-0.3,0.3-0.6,0.5-1,0.5c-0.7,0-1.3-0.5-1.3-1.2c0-0.9,0.8-1.4,2.3-1.5
			c0-0.1,0-0.2,0-0.3c0-0.7-0.2-0.9-0.8-0.9c-0.4,0-0.7,0.2-0.9,0.6h-0.4v-0.6c0.4-0.2,0.8-0.4,1.3-0.4c0.5,0,0.9,0.2,1.2,0.5
			c0.2,0.3,0.2,0.6,0.2,1.3V28.2z M103,26c-1.2,0.1-1.7,0.5-1.7,1.1c0,0.4,0.3,0.7,0.8,0.7c0.3,0,0.6-0.1,0.9-0.4V26z"/>
		<path fill="#FFFFFF" d="M105.3,24.1v0.3l0.1,0c0.2-0.3,0.5-0.5,0.9-0.5c0.4,0,0.7,0.2,1,0.6c0.4-0.4,0.7-0.6,1-0.6
			c0.7,0,1.1,0.5,1.1,1.4v2.8h-0.6v-2.6c0-0.8-0.1-1.2-0.7-1.2c-0.3,0-0.5,0.1-0.7,0.4v3.3h-0.6v-2.4c0-0.9-0.1-1.3-0.6-1.3
			c-0.3,0-0.5,0.1-0.8,0.4v3.3h-0.6v-4.1H105.3z"/>
		<path fill="#FFFFFF" d="M110.8,26.3v0.1c0,0.9,0.4,1.4,1,1.4c0.4,0,0.8-0.2,0.9-0.5h0.4v0.5c-0.4,0.4-0.8,0.5-1.4,0.5
			c-1.1,0-1.6-0.7-1.6-2.2c0-1.4,0.6-2.2,1.5-2.2c1,0,1.5,0.8,1.5,2.2v0.2H110.8z M112.6,25.8c0-0.9-0.4-1.4-0.9-1.4
			c-0.6,0-0.9,0.5-0.9,1.4H112.6z"/>
		<path fill="#FFFFFF" d="M114.7,22.4v5.8h-0.6v-5.8H114.7z"/>
		<path fill="#FFFFFF" d="M115.7,29.1c0.4,0,0.5-0.2,0.5-0.6v-0.4h-0.4v-0.7h0.9v0.9c0,0.9-0.2,1.2-1,1.2V29.1z"/>
		<path fill="#FFFFFF" d="M120.1,24.1v0.4l0.1,0c0.2-0.3,0.5-0.5,0.9-0.5c0.8,0,1.3,0.8,1.3,2.2c0,1.3-0.5,2.2-1.3,2.2
			c-0.4,0-0.7-0.2-0.9-0.5l-0.1,0v1.6h-0.6v-5.4H120.1z M120.1,27.4c0.3,0.3,0.5,0.4,0.8,0.4c0.6,0,0.9-0.6,0.9-1.7
			c0-1.1-0.3-1.7-0.9-1.7c-0.3,0-0.5,0.1-0.8,0.4V27.4z"/>
		<path fill="#FFFFFF" d="M123.8,26.3v0.1c0,0.9,0.4,1.4,1,1.4c0.4,0,0.8-0.2,0.9-0.5h0.4v0.5c-0.4,0.4-0.8,0.5-1.4,0.5
			c-1.1,0-1.6-0.7-1.6-2.2c0-1.4,0.6-2.2,1.5-2.2c1,0,1.5,0.8,1.5,2.2v0.2H123.8z M125.6,25.8c0-0.9-0.4-1.4-0.9-1.4
			c-0.6,0-0.9,0.5-0.9,1.4H125.6z"/>
		<path fill="#FFFFFF" d="M129.8,28.2h-0.6v-0.3h-0.1c-0.3,0.3-0.6,0.5-1,0.5c-0.7,0-1.3-0.5-1.3-1.2c0-0.9,0.8-1.4,2.3-1.5
			c0-0.1,0-0.2,0-0.3c0-0.7-0.2-0.9-0.8-0.9c-0.4,0-0.7,0.2-0.9,0.6h-0.4v-0.6c0.4-0.2,0.8-0.4,1.3-0.4c0.5,0,0.9,0.2,1.2,0.5
			c0.2,0.3,0.2,0.6,0.2,1.3V28.2z M129.2,26c-1.2,0.1-1.7,0.5-1.7,1.1c0,0.4,0.3,0.7,0.8,0.7c0.3,0,0.6-0.1,0.9-0.4V26z"/>
		<path fill="#FFFFFF" d="M131.5,24.1v0.3l0.1,0c0.2-0.3,0.5-0.5,0.9-0.5c0.8,0,1.1,0.5,1.1,1.4v2.8H133v-2.6c0-0.8-0.1-1.2-0.7-1.2
			c-0.3,0-0.6,0.1-0.8,0.4v3.3h-0.6v-4.1H131.5z"/>
		<path fill="#FFFFFF" d="M136.7,28.2v-0.3l-0.1,0c-0.2,0.3-0.5,0.5-0.9,0.5c-0.5,0-0.9-0.2-1-0.7c-0.1-0.2-0.1-0.6-0.1-1.1v-2.4
			h0.6v2.6c0,0.8,0.1,1.2,0.7,1.2c0.3,0,0.6-0.1,0.8-0.4v-3.3h0.6v4.1H136.7z"/>
		<path fill="#FFFFFF" d="M140.1,24.1v0.5h-0.9v2.6c0,0.6,0,0.6,0.5,0.6h0.4v0.5h-0.6c-0.8,0-0.9-0.3-0.9-1.3v-2.4H138v-0.5h0.5
			v-1.3h0.6v1.3H140.1z"/>
		<path fill="#FFFFFF" d="M140.9,27.2c0.2,0.4,0.5,0.6,1,0.6c0.5,0,0.8-0.3,0.8-0.7c0-0.6-0.5-0.6-1.3-0.9c-0.5-0.2-0.8-0.6-0.8-1.1
			c0-0.7,0.6-1.2,1.3-1.2c0.4,0,0.8,0.1,1.2,0.5V25h-0.4c-0.2-0.4-0.5-0.6-0.8-0.6c-0.4,0-0.8,0.3-0.8,0.7c0,0.4,0.3,0.6,0.9,0.8
			c0.8,0.2,1.2,0.6,1.2,1.2c0,0.7-0.5,1.3-1.4,1.3c-0.5,0-1-0.2-1.4-0.5v-0.6H140.9z"/>
		<path fill="#FFFFFF" d="M148.8,28.2h-0.6v-0.3h-0.1c-0.3,0.3-0.6,0.5-1,0.5c-0.7,0-1.3-0.5-1.3-1.2c0-0.9,0.8-1.4,2.3-1.5
			c0-0.1,0-0.2,0-0.3c0-0.7-0.2-0.9-0.8-0.9c-0.4,0-0.7,0.2-0.9,0.6h-0.4v-0.6c0.4-0.2,0.8-0.4,1.3-0.4c0.5,0,0.9,0.2,1.2,0.5
			c0.2,0.3,0.2,0.6,0.2,1.3V28.2z M148.2,26c-1.2,0.1-1.7,0.5-1.7,1.1c0,0.4,0.3,0.7,0.8,0.7c0.3,0,0.6-0.1,0.9-0.4V26z"/>
		<path fill="#FFFFFF" d="M150.4,24.1v0.3l0.1,0c0.2-0.3,0.5-0.5,0.9-0.5c0.8,0,1.1,0.5,1.1,1.4v2.8H152v-2.6c0-0.8-0.1-1.2-0.7-1.2
			c-0.3,0-0.6,0.1-0.8,0.4v3.3h-0.6v-4.1H150.4z"/>
		<path fill="#FFFFFF" d="M155.7,27.8L155.7,27.8c-0.3,0.3-0.6,0.5-1,0.5c-0.8,0-1.3-0.8-1.3-2.2c0-1.3,0.5-2.2,1.3-2.2
			c0.4,0,0.6,0.2,0.9,0.5l0.1,0v-2h0.6v5.8h-0.6V27.8z M155.7,24.9c-0.3-0.3-0.5-0.4-0.8-0.4c-0.6,0-0.9,0.6-0.9,1.7
			c0,1.1,0.3,1.7,0.9,1.7c0.3,0,0.5-0.2,0.8-0.4V24.9z"/>
		<path fill="#FFFFFF" d="M59.7,34.2v0.3l0.1,0c0.2-0.3,0.5-0.5,0.9-0.5c0.8,0,1.1,0.5,1.1,1.4v2.8h-0.6v-2.6c0-0.8-0.1-1.2-0.7-1.2
			c-0.3,0-0.6,0.1-0.8,0.4v3.3h-0.6v-4.1H59.7z"/>
		<path fill="#FFFFFF" d="M65.7,36.3c0,1.4-0.6,2.2-1.5,2.2c-0.9,0-1.5-0.8-1.5-2.2c0-1.3,0.6-2.2,1.5-2.2
			C65.1,34.1,65.7,34.9,65.7,36.3z M63.2,36.2c0,1.2,0.3,1.8,0.9,1.8c0.6,0,0.9-0.6,0.9-1.7c0-1.1-0.4-1.7-0.9-1.7
			S63.2,35.2,63.2,36.2z"/>
		<path fill="#FFFFFF" d="M68.6,38.3V38l-0.1,0c-0.2,0.3-0.5,0.5-0.9,0.5c-0.5,0-0.9-0.2-1-0.7c-0.1-0.2-0.1-0.6-0.1-1.1v-2.4h0.6
			v2.6c0,0.8,0.1,1.2,0.7,1.2c0.3,0,0.6-0.1,0.8-0.4v-3.3h0.6v4.1H68.6z"/>
		<path fill="#FFFFFF" d="M73.1,38.1c0,1.1-0.5,1.5-1.4,1.5c-0.5,0-0.9-0.1-1.3-0.4v-0.7h0.4c0.2,0.4,0.4,0.5,0.9,0.5
			c0.7,0,0.8-0.4,0.8-1.3v-0.3l-0.1,0c-0.2,0.3-0.5,0.5-0.9,0.5c-0.8,0-1.3-0.7-1.3-1.9c0-1.3,0.5-2,1.3-2c0.4,0,0.7,0.2,0.9,0.5
			l0.1,0v-0.4h0.6V38.1z M72.5,35.1c-0.3-0.3-0.5-0.4-0.8-0.4c-0.6,0-0.9,0.5-0.9,1.4c0,1,0.3,1.5,0.9,1.5c0.3,0,0.6-0.1,0.8-0.4
			V35.1z"/>
		<path fill="#FFFFFF" d="M76.8,38.3h-0.6V38h-0.1c-0.3,0.3-0.6,0.5-1,0.5c-0.7,0-1.3-0.5-1.3-1.2c0-0.9,0.8-1.4,2.3-1.5
			c0-0.1,0-0.2,0-0.3c0-0.7-0.2-0.9-0.8-0.9c-0.4,0-0.7,0.2-0.9,0.6h-0.4v-0.6c0.4-0.2,0.8-0.4,1.3-0.4c0.5,0,0.9,0.2,1.2,0.5
			c0.2,0.3,0.2,0.6,0.2,1.3V38.3z M76.2,36.1c-1.2,0.1-1.7,0.5-1.7,1.1c0,0.4,0.3,0.7,0.8,0.7c0.3,0,0.6-0.1,0.9-0.4V36.1z"/>
		<path fill="#FFFFFF" d="M79.5,34.2v0.5h-0.9v2.6c0,0.6,0,0.6,0.5,0.6h0.4v0.5h-0.6c-0.8,0-0.9-0.3-0.9-1.3v-2.4h-0.5v-0.5H78v-1.3
			h0.6v1.3H79.5z"/>
		<path fill="#FFFFFF" d="M80.1,34.4v-0.3c0-1,0.6-1.5,1.5-1.5c0.9,0,1.4,0.5,1.4,1.4c0,0.8-0.5,1.2-1,1.7c-0.2,0.2-0.3,0.5-0.3,0.8
			v0.2h-0.5v-0.4c0-0.4,0.2-0.7,0.4-1c0.4-0.4,0.8-0.7,0.8-1.3c0-0.6-0.3-0.9-0.9-0.9c-0.4,0-0.8,0.2-0.8,1v0.3H80.1z M81,37.5h0.9
			v0.8H81V37.5z"/>
	</g>
</g>
<g>
	<g>
		<path fill="#FFFFFF" d="M62.8,79.6l0.9,3.1c0.1,0.5,0.3,1.1,0.4,1.6h0.2c0.1-0.7,0.3-1.2,0.4-1.7l0.9-3h1v5.5h-0.6v-3.3
			c0-0.2,0-0.8,0.1-1.8h-0.1l-1.5,5.1h-0.5L62.4,80h-0.1c0.1,0.7,0.1,1.2,0.1,1.6v3.5h-0.6v-5.5H62.8z"/>
		<path fill="#FFFFFF" d="M71.3,82v0.3c0,0.7-0.2,1.2-0.5,1.5v0.1l1.2,1.2h-0.8l-0.6-0.7c-0.4,0.6-0.8,0.8-1.5,0.8
			c-0.9,0-1.6-0.7-1.6-1.6c0-0.7,0.3-1.1,1-1.5v-0.1c-0.5-0.4-0.8-0.8-0.8-1.4c0-0.7,0.5-1.2,1.3-1.2c0.8,0,1.4,0.6,1.4,1.3
			c0,0.6-0.4,1.2-1.1,1.4v0.1c0.5,0.4,0.8,0.9,1.2,1.4h0.2V82H71.3z M68.7,82.4c-0.5,0.4-0.7,0.7-0.7,1.1c0,0.7,0.5,1.3,1.1,1.3
			c0.5,0,1-0.4,1.2-0.6L68.7,82.4z M69.2,81.9c0.5-0.3,0.7-0.6,0.7-1.1c0-0.6-0.3-0.9-0.8-0.9c-0.5,0-0.8,0.3-0.8,0.8
			c0,0.4,0.3,0.8,0.8,1.2H69.2z"/>
		<path fill="#FFFFFF" d="M73.4,79.6l0.9,3.1c0.1,0.5,0.3,1.1,0.4,1.6h0.2c0.1-0.7,0.3-1.2,0.4-1.7l0.9-3h1v5.5h-0.6v-3.3
			c0-0.2,0-0.8,0.1-1.8h-0.1L75,85.1h-0.5L73,80h-0.1c0.1,0.7,0.1,1.2,0.1,1.6v3.5h-0.6v-5.5H73.4z"/>
		<path fill="#FFFFFF" d="M78,81.4c0.4,0,0.5-0.2,0.5-0.6v-0.4h-0.4v-0.7H79v0.9c0,0.9-0.2,1.2-1,1.2V81.4z"/>
		<path fill="#FFFFFF" d="M80,84.2c0.2,0.4,0.5,0.6,1,0.6c0.5,0,0.8-0.3,0.8-0.7c0-0.6-0.5-0.6-1.3-0.9c-0.5-0.2-0.8-0.6-0.8-1.1
			c0-0.7,0.6-1.2,1.3-1.2c0.4,0,0.8,0.1,1.2,0.5V82h-0.4c-0.2-0.4-0.5-0.6-0.8-0.6c-0.4,0-0.8,0.3-0.8,0.7c0,0.4,0.3,0.6,0.9,0.8
			c0.8,0.2,1.2,0.6,1.2,1.2c0,0.7-0.5,1.3-1.4,1.3c-0.5,0-1-0.2-1.4-0.5v-0.6H80z"/>
		<path fill="#FFFFFF" d="M83.1,86.1c0.4,0,0.5-0.2,0.5-0.6V85h-0.4v-0.7h0.9v0.9c0,0.9-0.2,1.2-1,1.2V86.1z"/>
		<path fill="#FFFFFF" d="M88.7,81v0.5h-0.9V84c0,0.6,0,0.6,0.5,0.6h0.4v0.5H88c-0.8,0-0.9-0.3-0.9-1.3v-2.4h-0.5V81h0.5v-1.3h0.6
			V81H88.7z"/>
		<path fill="#FFFFFF" d="M90,79.4v2l0.1,0c0.2-0.3,0.5-0.5,0.9-0.5c0.7,0,1.1,0.5,1.1,1.4v2.8h-0.6v-2.6c0-0.8-0.1-1.2-0.7-1.2
			c-0.3,0-0.6,0.1-0.8,0.4v3.3h-0.6v-5.8H90z"/>
		<path fill="#FFFFFF" d="M93.6,83.3v0.1c0,0.9,0.4,1.4,1,1.4c0.4,0,0.8-0.2,0.9-0.5H96v0.5c-0.4,0.4-0.8,0.5-1.4,0.5
			c-1.1,0-1.6-0.7-1.6-2.2c0-1.4,0.6-2.2,1.5-2.2c1,0,1.5,0.8,1.5,2.2v0.2H93.6z M95.4,82.8c0-0.9-0.4-1.4-0.9-1.4
			c-0.6,0-0.9,0.5-0.9,1.4H95.4z"/>
		<path fill="#FFFFFF" d="M100.8,82c-0.1-0.4-0.4-0.6-0.7-0.6c-0.5,0-0.9,0.6-0.9,1.7c0,1.1,0.3,1.7,0.9,1.7c0.3,0,0.6-0.2,0.7-0.6
			h0.4v0.6c-0.3,0.4-0.7,0.5-1.1,0.5c-0.9,0-1.5-0.8-1.5-2.2c0-1.4,0.6-2.2,1.5-2.2c0.4,0,0.8,0.2,1.1,0.5V82H100.8z"/>
		<path fill="#FFFFFF" d="M105,83.1c0,1.4-0.6,2.2-1.5,2.2c-0.9,0-1.5-0.8-1.5-2.2c0-1.3,0.6-2.2,1.5-2.2
			C104.4,80.9,105,81.7,105,83.1z M102.5,83c0,1.2,0.3,1.8,0.9,1.8c0.6,0,0.9-0.6,0.9-1.7c0-1.1-0.4-1.7-0.9-1.7S102.5,82,102.5,83z
			"/>
		<path fill="#FFFFFF" d="M106.5,79.4v5.8h-0.6v-5.8H106.5z"/>
		<path fill="#FFFFFF" d="M110.5,83.1c0,1.4-0.6,2.2-1.5,2.2c-0.9,0-1.5-0.8-1.5-2.2c0-1.3,0.6-2.2,1.5-2.2
			C109.9,80.9,110.5,81.7,110.5,83.1z M108,83c0,1.2,0.3,1.8,0.9,1.8c0.6,0,0.9-0.6,0.9-1.7c0-1.1-0.4-1.7-0.9-1.7S108,82,108,83z"
			/>
		<path fill="#FFFFFF" d="M113.4,85.1v-0.3l-0.1,0c-0.2,0.3-0.5,0.5-0.9,0.5c-0.5,0-0.9-0.2-1-0.7c-0.1-0.2-0.1-0.6-0.1-1.1V81h0.6
			v2.6c0,0.8,0.1,1.2,0.7,1.2c0.3,0,0.6-0.1,0.8-0.4V81h0.6v4.1H113.4z"/>
		<path fill="#FFFFFF" d="M115.8,81v0.3c0,0.1,0,0.3-0.1,0.4l0.1,0.1c0.2-0.5,0.8-0.8,1.3-0.8h0v0.7c-0.6,0-1,0.2-1.4,0.6v2.9h-0.6
			V81H115.8z"/>
		<path fill="#FFFFFF" d="M117.5,81.5V81h0.6c0-0.1,0-0.3,0-0.5c0-0.9,0.3-1.3,1.2-1.3c0.1,0,0.1,0,0.2,0v0.5h-0.1
			c-0.5,0-0.7,0.2-0.7,0.7V81h0.7v0.5h-0.7v3.6h-0.6v-3.6H117.5z"/>
		<path fill="#FFFFFF" d="M122.3,85.1v-0.3l-0.1,0c-0.2,0.3-0.5,0.5-0.9,0.5c-0.5,0-0.9-0.2-1-0.7c-0.1-0.2-0.1-0.6-0.1-1.1V81h0.6
			v2.6c0,0.8,0.1,1.2,0.7,1.2c0.3,0,0.6-0.1,0.8-0.4V81h0.6v4.1H122.3z"/>
		<path fill="#FFFFFF" d="M124.6,79.4v5.8H124v-5.8H124.6z"/>
		<path fill="#FFFFFF" d="M128.1,79.4v2l0.1,0c0.2-0.3,0.5-0.5,0.9-0.5c0.7,0,1.3,0.8,1.3,2.2c0,1.4-0.5,2.2-1.3,2.2
			c-0.4,0-0.7-0.2-0.9-0.5l-0.1,0v0.4h-0.6v-5.8H128.1z M128.1,84.3c0.3,0.3,0.5,0.4,0.8,0.4c0.6,0,0.9-0.6,0.9-1.7
			c0-1.1-0.3-1.7-0.9-1.7c-0.3,0-0.5,0.1-0.8,0.4V84.3z"/>
		<path fill="#FFFFFF" d="M133.4,85.1v-0.3l-0.1,0c-0.2,0.3-0.5,0.5-0.9,0.5c-0.5,0-0.9-0.2-1-0.7c-0.1-0.2-0.1-0.6-0.1-1.1V81h0.6
			v2.6c0,0.8,0.1,1.2,0.7,1.2c0.3,0,0.6-0.1,0.8-0.4V81h0.6v4.1H133.4z"/>
		<path fill="#FFFFFF" d="M136.7,81v0.5h-0.9V84c0,0.6,0,0.6,0.5,0.6h0.4v0.5h-0.6c-0.8,0-0.9-0.3-0.9-1.3v-2.4h-0.5V81h0.5v-1.3
			h0.6V81H136.7z"/>
		<path fill="#FFFFFF" d="M139.1,81v0.5h-0.9V84c0,0.6,0,0.6,0.5,0.6h0.4v0.5h-0.6c-0.8,0-0.9-0.3-0.9-1.3v-2.4h-0.5V81h0.5v-1.3
			h0.6V81H139.1z"/>
		<path fill="#FFFFFF" d="M142.6,83.1c0,1.4-0.6,2.2-1.5,2.2c-0.9,0-1.5-0.8-1.5-2.2c0-1.3,0.6-2.2,1.5-2.2
			C142.1,80.9,142.6,81.7,142.6,83.1z M140.2,83c0,1.2,0.3,1.8,0.9,1.8c0.6,0,0.9-0.6,0.9-1.7c0-1.1-0.4-1.7-0.9-1.7
			S140.2,82,140.2,83z"/>
		<path fill="#FFFFFF" d="M144.2,81v0.3l0.1,0c0.2-0.3,0.5-0.5,0.9-0.5c0.8,0,1.1,0.5,1.1,1.4v2.8h-0.6v-2.6c0-0.8-0.1-1.2-0.7-1.2
			c-0.3,0-0.6,0.1-0.8,0.4v3.3h-0.6V81H144.2z"/>
		<path fill="#FFFFFF" d="M148.8,82.3v0.6h-1.8v-0.6H148.8z"/>
		<path fill="#FFFFFF" d="M149.8,84.2c0.2,0.4,0.5,0.6,1,0.6c0.5,0,0.8-0.3,0.8-0.7c0-0.6-0.5-0.6-1.3-0.9c-0.5-0.2-0.8-0.6-0.8-1.1
			c0-0.7,0.6-1.2,1.3-1.2c0.4,0,0.8,0.1,1.2,0.5V82h-0.4c-0.2-0.4-0.5-0.6-0.8-0.6c-0.4,0-0.8,0.3-0.8,0.7c0,0.4,0.3,0.6,0.9,0.8
			c0.8,0.2,1.2,0.6,1.2,1.2c0,0.7-0.5,1.3-1.4,1.3c-0.5,0-1-0.2-1.4-0.5v-0.6H149.8z"/>
		<path fill="#FFFFFF" d="M153.7,79.4v2l0.1,0c0.2-0.3,0.5-0.5,0.9-0.5c0.7,0,1.1,0.5,1.1,1.4v2.8h-0.6v-2.6c0-0.8-0.1-1.2-0.7-1.2
			c-0.3,0-0.6,0.1-0.8,0.4v3.3h-0.6v-5.8H153.7z"/>
		<path fill="#FFFFFF" d="M159.4,85.1h-0.6v-0.3h-0.1c-0.3,0.3-0.6,0.5-1,0.5c-0.7,0-1.3-0.5-1.3-1.2c0-0.9,0.8-1.4,2.3-1.5
			c0-0.1,0-0.2,0-0.3c0-0.7-0.2-0.9-0.8-0.9c-0.4,0-0.7,0.2-0.9,0.6h-0.4v-0.6c0.4-0.2,0.8-0.4,1.3-0.4c0.5,0,0.9,0.2,1.2,0.5
			c0.2,0.3,0.2,0.6,0.2,1.3V85.1z M158.8,82.9c-1.2,0.1-1.7,0.5-1.7,1.1c0,0.4,0.3,0.7,0.8,0.7c0.3,0,0.6-0.1,0.9-0.4V82.9z"/>
		<path fill="#FFFFFF" d="M161,81v0.4l0.1,0c0.2-0.3,0.5-0.5,0.9-0.5c0.8,0,1.3,0.8,1.3,2.2c0,1.3-0.5,2.2-1.3,2.2
			c-0.4,0-0.7-0.2-0.9-0.5l-0.1,0v1.6h-0.6V81H161z M161,84.3c0.3,0.3,0.5,0.4,0.8,0.4c0.6,0,0.9-0.6,0.9-1.7c0-1.1-0.3-1.7-0.9-1.7
			c-0.3,0-0.5,0.1-0.8,0.4V84.3z"/>
		<path fill="#FFFFFF" d="M164.6,83.3v0.1c0,0.9,0.4,1.4,1,1.4c0.4,0,0.8-0.2,0.9-0.5h0.4v0.5c-0.4,0.4-0.8,0.5-1.4,0.5
			c-1.1,0-1.6-0.7-1.6-2.2c0-1.4,0.6-2.2,1.5-2.2c1,0,1.5,0.8,1.5,2.2v0.2H164.6z M166.4,82.8c0-0.9-0.4-1.4-0.9-1.4
			c-0.6,0-0.9,0.5-0.9,1.4H166.4z"/>
		<path fill="#FFFFFF" d="M170.1,84.8L170.1,84.8c-0.3,0.3-0.6,0.5-1,0.5c-0.8,0-1.3-0.8-1.3-2.2c0-1.3,0.5-2.2,1.3-2.2
			c0.4,0,0.6,0.2,0.9,0.5l0.1,0v-2h0.6v5.8h-0.6V84.8z M170.1,81.9c-0.3-0.3-0.5-0.4-0.8-0.4c-0.6,0-0.9,0.6-0.9,1.7
			c0,1.1,0.3,1.7,0.9,1.7c0.3,0,0.5-0.2,0.8-0.4V81.9z"/>
		<path fill="#FFFFFF" d="M63.8,92.2c-0.1-0.4-0.4-0.6-0.7-0.6c-0.5,0-0.9,0.6-0.9,1.7c0,1.1,0.3,1.7,0.9,1.7c0.3,0,0.6-0.2,0.7-0.6
			h0.4v0.6c-0.3,0.4-0.7,0.5-1.1,0.5c-0.9,0-1.5-0.8-1.5-2.2c0-1.4,0.6-2.2,1.5-2.2c0.4,0,0.8,0.2,1.1,0.5v0.6H63.8z"/>
		<path fill="#FFFFFF" d="M67.8,95.3h-0.6V95h-0.1c-0.3,0.3-0.6,0.5-1,0.5c-0.7,0-1.3-0.5-1.3-1.2c0-0.9,0.8-1.4,2.3-1.5
			c0-0.1,0-0.2,0-0.3c0-0.7-0.2-0.9-0.8-0.9c-0.4,0-0.7,0.2-0.9,0.6h-0.4v-0.6c0.4-0.2,0.8-0.4,1.3-0.4c0.5,0,0.9,0.2,1.2,0.5
			c0.2,0.3,0.2,0.6,0.2,1.3V95.3z M67.2,93.1c-1.2,0.1-1.7,0.5-1.7,1.1c0,0.4,0.3,0.7,0.8,0.7c0.3,0,0.6-0.1,0.9-0.4V93.1z"/>
		<path fill="#FFFFFF" d="M69.5,91.2v0.3l0.1,0c0.2-0.3,0.5-0.5,0.9-0.5c0.8,0,1.1,0.5,1.1,1.4v2.8H71v-2.6c0-0.8-0.1-1.2-0.7-1.2
			c-0.3,0-0.6,0.1-0.8,0.4v3.3h-0.6v-4.1H69.5z"/>
		<path fill="#FFFFFF" d="M74.8,95L74.8,95c-0.3,0.3-0.6,0.5-1,0.5c-0.8,0-1.3-0.8-1.3-2.2c0-1.3,0.5-2.2,1.3-2.2
			c0.4,0,0.6,0.2,0.9,0.5l0.1,0v-2h0.6v5.8h-0.6V95z M74.8,92c-0.3-0.3-0.5-0.4-0.8-0.4c-0.6,0-0.9,0.6-0.9,1.7
			c0,1.1,0.3,1.7,0.9,1.7c0.3,0,0.5-0.2,0.8-0.4V92z"/>
		<path fill="#FFFFFF" d="M77,89.5v0.7h-0.6v-0.7H77z M77,91.2v4.1h-0.6v-4.1H77z"/>
		<path fill="#FFFFFF" d="M78.6,93.4v0.1c0,0.9,0.4,1.4,1,1.4c0.4,0,0.8-0.2,0.9-0.5H81v0.5c-0.4,0.4-0.8,0.5-1.4,0.5
			c-1.1,0-1.6-0.7-1.6-2.2c0-1.4,0.6-2.2,1.5-2.2c1,0,1.5,0.8,1.5,2.2v0.2H78.6z M80.4,93c0-0.9-0.4-1.4-0.9-1.4
			c-0.6,0-0.9,0.5-0.9,1.4H80.4z"/>
		<path fill="#FFFFFF" d="M82.1,94.3c0.2,0.4,0.5,0.6,1,0.6c0.5,0,0.8-0.3,0.8-0.7c0-0.6-0.5-0.6-1.3-0.9c-0.5-0.2-0.8-0.6-0.8-1.1
			c0-0.7,0.6-1.2,1.3-1.2c0.4,0,0.8,0.1,1.2,0.5v0.6h-0.4c-0.2-0.4-0.5-0.6-0.8-0.6c-0.4,0-0.8,0.3-0.8,0.7c0,0.4,0.3,0.6,0.9,0.8
			c0.8,0.2,1.2,0.6,1.2,1.2c0,0.7-0.5,1.3-1.4,1.3c-0.5,0-1-0.2-1.4-0.5v-0.6H82.1z"/>
		<path fill="#FFFFFF" d="M85.1,96.2c0.4,0,0.5-0.2,0.5-0.6v-0.4h-0.4v-0.7h0.9v0.9c0,0.9-0.2,1.2-1,1.2V96.2z"/>
		<path fill="#FFFFFF" d="M89.7,91.2v0.3l0.1,0c0.2-0.3,0.5-0.5,0.9-0.5c0.8,0,1.1,0.5,1.1,1.4v2.8h-0.6v-2.6c0-0.8-0.1-1.2-0.7-1.2
			c-0.3,0-0.6,0.1-0.8,0.4v3.3h-0.6v-4.1H89.7z"/>
		<path fill="#FFFFFF" d="M93.3,93.4v0.1c0,0.9,0.4,1.4,1,1.4c0.4,0,0.8-0.2,0.9-0.5h0.4v0.5c-0.4,0.4-0.8,0.5-1.4,0.5
			c-1.1,0-1.6-0.7-1.6-2.2c0-1.4,0.6-2.2,1.5-2.2c1,0,1.5,0.8,1.5,2.2v0.2H93.3z M95.1,93c0-0.9-0.4-1.4-0.9-1.4
			c-0.6,0-0.9,0.5-0.9,1.4H95.1z"/>
		<path fill="#FFFFFF" d="M96.9,91.2l0.6,2.3c0.1,0.3,0.1,0.6,0.2,1.1h0.1c0.1-0.6,0.2-1,0.2-1.1l0.5-2.3h0.7l-1.2,4.1h-0.5
			l-1.2-4.1H96.9z"/>
		<path fill="#FFFFFF" d="M100.3,93.4v0.1c0,0.9,0.4,1.4,1,1.4c0.4,0,0.8-0.2,0.9-0.5h0.4v0.5c-0.4,0.4-0.8,0.5-1.4,0.5
			c-1.1,0-1.6-0.7-1.6-2.2c0-1.4,0.6-2.2,1.5-2.2c1,0,1.5,0.8,1.5,2.2v0.2H100.3z M102.1,93c0-0.9-0.4-1.4-0.9-1.4
			c-0.6,0-0.9,0.5-0.9,1.4H102.1z"/>
		<path fill="#FFFFFF" d="M104.3,91.2v0.3c0,0.1,0,0.3-0.1,0.4l0.1,0.1c0.2-0.5,0.8-0.8,1.3-0.8h0v0.7c-0.6,0-1,0.2-1.4,0.6v2.9
			h-0.6v-4.1H104.3z"/>
		<path fill="#FFFFFF" d="M111.1,95.1c0,1.1-0.5,1.5-1.4,1.5c-0.5,0-0.9-0.1-1.3-0.4v-0.7h0.4c0.2,0.4,0.4,0.5,0.9,0.5
			c0.7,0,0.8-0.4,0.8-1.3v-0.3l-0.1,0c-0.2,0.3-0.5,0.5-0.9,0.5c-0.8,0-1.3-0.7-1.3-1.9c0-1.3,0.5-2,1.3-2c0.4,0,0.7,0.2,0.9,0.5
			l0.1,0v-0.4h0.6V95.1z M110.5,92c-0.3-0.3-0.5-0.4-0.8-0.4c-0.6,0-0.9,0.5-0.9,1.4c0,1,0.3,1.5,0.9,1.5c0.3,0,0.6-0.1,0.8-0.4V92z
			"/>
		<path fill="#FFFFFF" d="M112.6,93.4v0.1c0,0.9,0.4,1.4,1,1.4c0.4,0,0.8-0.2,0.9-0.5h0.4v0.5c-0.4,0.4-0.8,0.5-1.4,0.5
			c-1.1,0-1.6-0.7-1.6-2.2c0-1.4,0.6-2.2,1.5-2.2c1,0,1.5,0.8,1.5,2.2v0.2H112.6z M114.4,93c0-0.9-0.4-1.4-0.9-1.4
			c-0.6,0-0.9,0.5-0.9,1.4H114.4z"/>
		<path fill="#FFFFFF" d="M117.5,91.2v0.5h-0.9v2.6c0,0.6,0,0.6,0.5,0.6h0.4v0.5h-0.6c-0.8,0-0.9-0.3-0.9-1.3v-2.4h-0.5v-0.5h0.5
			v-1.3h0.6v1.3H117.5z"/>
		<path fill="#FFFFFF" d="M123,93.3c0,1.4-0.6,2.2-1.5,2.2c-0.9,0-1.5-0.8-1.5-2.2c0-1.3,0.6-2.2,1.5-2.2
			C122.4,91.1,123,91.9,123,93.3z M120.5,93.2c0,1.2,0.3,1.8,0.9,1.8c0.6,0,0.9-0.6,0.9-1.7c0-1.1-0.4-1.7-0.9-1.7
			S120.5,92.1,120.5,93.2z"/>
		<path fill="#FFFFFF" d="M124.5,89.5v5.8h-0.6v-5.8H124.5z"/>
		<path fill="#FFFFFF" d="M127.8,95L127.8,95c-0.3,0.3-0.6,0.5-1,0.5c-0.8,0-1.3-0.8-1.3-2.2c0-1.3,0.5-2.2,1.3-2.2
			c0.4,0,0.6,0.2,0.9,0.5l0.1,0v-2h0.6v5.8h-0.6V95z M127.8,92c-0.3-0.3-0.5-0.4-0.8-0.4c-0.6,0-0.9,0.6-0.9,1.7
			c0,1.1,0.3,1.7,0.9,1.7c0.3,0,0.5-0.2,0.8-0.4V92z"/>
	</g>
</g>
<g>
	<g>
		<path fill="#FFFFFF" d="M59.9,148.6v-5h-1.5v-0.5H62v0.5h-1.4v5H59.9z"/>
		<path fill="#FFFFFF" d="M64.7,148.6h-0.6v-0.3H64c-0.3,0.3-0.6,0.5-1,0.5c-0.7,0-1.3-0.5-1.3-1.2c0-0.9,0.8-1.4,2.3-1.5
			c0-0.1,0-0.2,0-0.3c0-0.7-0.2-0.9-0.8-0.9c-0.4,0-0.7,0.2-0.9,0.6H62v-0.6c0.4-0.2,0.8-0.4,1.3-0.4c0.5,0,0.9,0.2,1.2,0.5
			c0.2,0.3,0.2,0.6,0.2,1.3V148.6z M64.1,146.4c-1.2,0.1-1.7,0.5-1.7,1.1c0,0.4,0.3,0.7,0.8,0.7c0.3,0,0.6-0.1,0.9-0.4V146.4z"/>
		<path fill="#FFFFFF" d="M65.9,147.6c0.2,0.4,0.5,0.6,1,0.6c0.5,0,0.8-0.3,0.8-0.7c0-0.6-0.5-0.6-1.3-0.9c-0.5-0.2-0.8-0.6-0.8-1.1
			c0-0.7,0.6-1.2,1.3-1.2c0.4,0,0.8,0.1,1.2,0.5v0.6h-0.4c-0.2-0.4-0.5-0.6-0.8-0.6c-0.4,0-0.8,0.3-0.8,0.7c0,0.4,0.3,0.6,0.9,0.8
			c0.8,0.2,1.2,0.6,1.2,1.2c0,0.7-0.5,1.3-1.4,1.3c-0.5,0-1-0.2-1.4-0.5v-0.6H65.9z"/>
		<path fill="#FFFFFF" d="M70.8,144.5v0.5h-0.9v2.6c0,0.6,0,0.6,0.5,0.6h0.4v0.5h-0.6c-0.8,0-0.9-0.3-0.9-1.3V145h-0.5v-0.5h0.5
			v-1.3h0.6v1.3H70.8z"/>
		<path fill="#FFFFFF" d="M71.9,146.7v0.1c0,0.9,0.4,1.4,1,1.4c0.4,0,0.8-0.2,0.9-0.5h0.4v0.5c-0.4,0.4-0.8,0.5-1.4,0.5
			c-1.1,0-1.6-0.7-1.6-2.2c0-1.4,0.6-2.2,1.5-2.2c1,0,1.5,0.8,1.5,2.2v0.2H71.9z M73.7,146.3c0-0.9-0.4-1.4-0.9-1.4
			c-0.6,0-0.9,0.5-0.9,1.4H73.7z"/>
		<path fill="#FFFFFF" d="M78.8,144.5v0.5h-0.9v2.6c0,0.6,0,0.6,0.5,0.6h0.4v0.5h-0.6c-0.8,0-0.9-0.3-0.9-1.3V145h-0.5v-0.5h0.5
			v-1.3h0.6v1.3H78.8z"/>
		<path fill="#FFFFFF" d="M80.1,142.8v2l0.1,0c0.2-0.3,0.5-0.5,0.9-0.5c0.7,0,1.1,0.5,1.1,1.4v2.8h-0.6V146c0-0.8-0.1-1.2-0.7-1.2
			c-0.3,0-0.6,0.1-0.8,0.4v3.3h-0.6v-5.8H80.1z"/>
		<path fill="#FFFFFF" d="M83.7,146.7v0.1c0,0.9,0.4,1.4,1,1.4c0.4,0,0.8-0.2,0.9-0.5h0.4v0.5c-0.4,0.4-0.8,0.5-1.4,0.5
			c-1.1,0-1.6-0.7-1.6-2.2c0-1.4,0.6-2.2,1.5-2.2c1,0,1.5,0.8,1.5,2.2v0.2H83.7z M85.5,146.3c0-0.9-0.4-1.4-0.9-1.4
			c-0.6,0-0.9,0.5-0.9,1.4H85.5z"/>
		<path fill="#FFFFFF" d="M89.5,144.5v0.3c0,0.1,0,0.3-0.1,0.4l0.1,0.1c0.2-0.5,0.8-0.8,1.3-0.8h0v0.7c-0.6,0-1,0.2-1.4,0.6v2.9
			h-0.6v-4.1H89.5z"/>
		<path fill="#FFFFFF" d="M94.4,148.6h-0.6v-0.3h-0.1c-0.3,0.3-0.6,0.5-1,0.5c-0.7,0-1.3-0.5-1.3-1.2c0-0.9,0.8-1.4,2.3-1.5
			c0-0.1,0-0.2,0-0.3c0-0.7-0.2-0.9-0.8-0.9c-0.4,0-0.7,0.2-0.9,0.6h-0.4v-0.6c0.4-0.2,0.8-0.4,1.3-0.4c0.5,0,0.9,0.2,1.2,0.5
			c0.2,0.3,0.2,0.6,0.2,1.3V148.6z M93.8,146.4c-1.2,0.1-1.7,0.5-1.7,1.1c0,0.4,0.3,0.7,0.8,0.7c0.3,0,0.6-0.1,0.9-0.4V146.4z"/>
		<path fill="#FFFFFF" d="M96.1,142.8v0.7h-0.6v-0.7H96.1z M96.1,144.5v4.1h-0.6v-4.1H96.1z"/>
		<path fill="#FFFFFF" d="M97.9,144.5v0.3l0.1,0c0.2-0.3,0.5-0.5,0.9-0.5c0.8,0,1.1,0.5,1.1,1.4v2.8h-0.6V146c0-0.8-0.1-1.2-0.7-1.2
			c-0.3,0-0.6,0.1-0.8,0.4v3.3h-0.6v-4.1H97.9z"/>
		<path fill="#FFFFFF" d="M101.5,142.8v2l0.1,0c0.2-0.3,0.5-0.5,0.9-0.5c0.7,0,1.3,0.8,1.3,2.2c0,1.4-0.5,2.2-1.3,2.2
			c-0.4,0-0.7-0.2-0.9-0.5l-0.1,0v0.4h-0.6v-5.8H101.5z M101.5,147.8c0.3,0.3,0.5,0.4,0.8,0.4c0.6,0,0.9-0.6,0.9-1.7
			c0-1.1-0.3-1.7-0.9-1.7c-0.3,0-0.5,0.1-0.8,0.4V147.8z"/>
		<path fill="#FFFFFF" d="M107.6,146.6c0,1.4-0.6,2.2-1.5,2.2c-0.9,0-1.5-0.8-1.5-2.2c0-1.3,0.6-2.2,1.5-2.2
			C107,144.4,107.6,145.2,107.6,146.6z M105.2,146.5c0,1.2,0.3,1.8,0.9,1.8c0.6,0,0.9-0.6,0.9-1.7c0-1.1-0.4-1.7-0.9-1.7
			S105.2,145.4,105.2,146.5z"/>
		<path fill="#FFFFFF" d="M108.8,144.5l0.7,3.5h0.1l0.7-3.5h0.6l0.7,3.5h0.1l0.7-3.5h0.7l-1.2,4.1h-0.6l-0.7-3.2h-0.1l-0.7,3.2h-0.6
			l-1.1-4.1H108.8z"/>
		<path fill="#FFFFFF" d="M116,144.5l0.7,3.5h0.1l0.7-3.5h0.6l0.7,3.5h0.1l0.7-3.5h0.7l-1.2,4.1h-0.6l-0.7-3.2h-0.1l-0.7,3.2h-0.6
			l-1.1-4.1H116z"/>
		<path fill="#FFFFFF" d="M121.6,142.8v0.7H121v-0.7H121.6z M121.6,144.5v4.1H121v-4.1H121.6z"/>
		<path fill="#FFFFFF" d="M124.4,144.5v0.5h-0.9v2.6c0,0.6,0,0.6,0.5,0.6h0.4v0.5h-0.6c-0.8,0-0.9-0.3-0.9-1.3V145h-0.5v-0.5h0.5
			v-1.3h0.6v1.3H124.4z"/>
		<path fill="#FFFFFF" d="M125.7,142.8v2l0.1,0c0.2-0.3,0.5-0.5,0.9-0.5c0.7,0,1.1,0.5,1.1,1.4v2.8h-0.6V146c0-0.8-0.1-1.2-0.7-1.2
			c-0.3,0-0.6,0.1-0.8,0.4v3.3h-0.6v-5.8H125.7z"/>
		<path fill="#FFFFFF" d="M131,147.5c0.2,0.5,0.5,0.7,1.1,0.7c0.7,0,1.1-0.4,1.1-1c0-0.7-0.5-0.9-1.4-1.3c-0.8-0.4-1.2-0.8-1.2-1.6
			c0-0.8,0.6-1.4,1.5-1.4c0.6,0,1,0.1,1.5,0.5v0.7h-0.4c-0.2-0.5-0.5-0.7-1-0.7c-0.6,0-1,0.4-1,0.9c0,0.5,0.3,0.8,0.9,1
			c0.5,0.2,1,0.4,1.3,0.7c0.3,0.3,0.5,0.7,0.5,1.1c0,0.9-0.7,1.5-1.9,1.5c-0.5,0-0.9-0.1-1.4-0.4v-0.8H131z"/>
		<path fill="#FFFFFF" d="M135.2,142.8v2.5c0,0.4,0,0.8-0.1,1.2l0.1,0l1.5-2.1h0.7l-1.4,1.8l1.3,2.3h-0.6l-0.7-1.3
			c-0.1-0.2-0.2-0.4-0.3-0.7l-0.1,0l-0.4,0.6v1.4h-0.6v-5.8H135.2z"/>
		<path fill="#FFFFFF" d="M138.7,142.8v0.7H138v-0.7H138.7z M138.7,144.5v4.1h-0.6v-4.1H138.7z"/>
		<path fill="#FFFFFF" d="M141.4,144.5v0.5h-0.9v2.6c0,0.6,0,0.6,0.5,0.6h0.4v0.5h-0.6c-0.8,0-0.9-0.3-0.9-1.3V145h-0.5v-0.5h0.5
			v-1.3h0.6v1.3H141.4z"/>
		<path fill="#FFFFFF" d="M143.8,144.5v0.5h-0.9v2.6c0,0.6,0,0.6,0.5,0.6h0.4v0.5h-0.6c-0.8,0-0.9-0.3-0.9-1.3V145h-0.5v-0.5h0.5
			v-1.3h0.6v1.3H143.8z"/>
		<path fill="#FFFFFF" d="M145.1,142.8v5.8h-0.6v-5.8H145.1z"/>
		<path fill="#FFFFFF" d="M146.7,146.7v0.1c0,0.9,0.4,1.4,1,1.4c0.4,0,0.8-0.2,0.9-0.5h0.4v0.5c-0.4,0.4-0.8,0.5-1.4,0.5
			c-1.1,0-1.6-0.7-1.6-2.2c0-1.4,0.6-2.2,1.5-2.2c1,0,1.5,0.8,1.5,2.2v0.2H146.7z M148.5,146.3c0-0.9-0.4-1.4-0.9-1.4
			c-0.6,0-0.9,0.5-0.9,1.4H148.5z"/>
		<path fill="#FFFFFF" d="M150.2,147.6c0.2,0.4,0.5,0.6,1,0.6c0.5,0,0.8-0.3,0.8-0.7c0-0.6-0.5-0.6-1.3-0.9
			c-0.5-0.2-0.8-0.6-0.8-1.1c0-0.7,0.6-1.2,1.3-1.2c0.4,0,0.8,0.1,1.2,0.5v0.6h-0.4c-0.2-0.4-0.5-0.6-0.8-0.6
			c-0.4,0-0.8,0.3-0.8,0.7c0,0.4,0.3,0.6,0.9,0.8c0.8,0.2,1.2,0.6,1.2,1.2c0,0.7-0.5,1.3-1.4,1.3c-0.5,0-1-0.2-1.4-0.5v-0.6H150.2z"
			/>
		<path fill="#FFFFFF" d="M153.3,149.5c0.4,0,0.5-0.2,0.5-0.6v-0.4h-0.4v-0.7h0.9v0.9c0,0.9-0.2,1.2-1,1.2V149.5z"/>
		<path fill="#FFFFFF" d="M60.5,154.7v0.5h-0.9v2.6c0,0.6,0,0.6,0.5,0.6h0.4v0.5h-0.6c-0.8,0-0.9-0.3-0.9-1.3v-2.4h-0.5v-0.5H59
			v-1.3h0.6v1.3H60.5z"/>
		<path fill="#FFFFFF" d="M61.9,153v2l0.1,0c0.2-0.3,0.5-0.5,0.9-0.5c0.7,0,1.1,0.5,1.1,1.4v2.8h-0.6v-2.6c0-0.8-0.1-1.2-0.7-1.2
			c-0.3,0-0.6,0.1-0.8,0.4v3.3h-0.6V153H61.9z"/>
		<path fill="#FFFFFF" d="M65.4,156.9v0.1c0,0.9,0.4,1.4,1,1.4c0.4,0,0.8-0.2,0.9-0.5h0.4v0.5c-0.4,0.4-0.8,0.5-1.4,0.5
			c-1.1,0-1.6-0.7-1.6-2.2c0-1.4,0.6-2.2,1.5-2.2c1,0,1.5,0.8,1.5,2.2v0.2H65.4z M67.2,156.4c0-0.9-0.4-1.4-0.9-1.4
			c-0.6,0-0.9,0.5-0.9,1.4H67.2z"/>
		<path fill="#FFFFFF" d="M70.2,155.1v-0.5h0.6c0-0.1,0-0.3,0-0.5c0-0.9,0.3-1.3,1.2-1.3c0.1,0,0.1,0,0.2,0v0.5h-0.1
			c-0.5,0-0.7,0.2-0.7,0.7v0.6h0.7v0.5h-0.7v3.6h-0.6v-3.6H70.2z"/>
		<path fill="#FFFFFF" d="M73.5,154.7v0.3c0,0.1,0,0.3-0.1,0.4l0.1,0.1c0.2-0.5,0.8-0.8,1.3-0.8h0v0.7c-0.6,0-1,0.2-1.4,0.6v2.9
			h-0.6v-4.1H73.5z"/>
		<path fill="#FFFFFF" d="M77.8,158.8v-0.3l-0.1,0c-0.2,0.3-0.5,0.5-0.9,0.5c-0.5,0-0.9-0.2-1-0.7c-0.1-0.2-0.1-0.6-0.1-1.1v-2.4
			h0.6v2.6c0,0.8,0.1,1.2,0.7,1.2c0.3,0,0.6-0.1,0.8-0.4v-3.3h0.6v4.1H77.8z"/>
		<path fill="#FFFFFF" d="M80.1,153v0.7h-0.6V153H80.1z M80.1,154.7v4.1h-0.6v-4.1H80.1z"/>
		<path fill="#FFFFFF" d="M82.9,154.7v0.5h-0.9v2.6c0,0.6,0,0.6,0.5,0.6h0.4v0.5h-0.6c-0.8,0-0.9-0.3-0.9-1.3v-2.4h-0.5v-0.5h0.5
			v-1.3h0.6v1.3H82.9z"/>
		<path fill="#FFFFFF" d="M85,155.1v-0.5h0.6c0-0.1,0-0.3,0-0.5c0-0.9,0.3-1.3,1.2-1.3c0.1,0,0.1,0,0.2,0v0.5h-0.1
			c-0.5,0-0.7,0.2-0.7,0.7v0.6h0.7v0.5h-0.7v3.6h-0.6v-3.6H85z"/>
		<path fill="#FFFFFF" d="M88.3,153v5.8h-0.6V153H88.3z"/>
		<path fill="#FFFFFF" d="M92.2,158.8h-0.6v-0.3h-0.1c-0.3,0.3-0.6,0.5-1,0.5c-0.7,0-1.3-0.5-1.3-1.2c0-0.9,0.8-1.4,2.3-1.5
			c0-0.1,0-0.2,0-0.3c0-0.7-0.2-0.9-0.8-0.9c-0.4,0-0.7,0.2-0.9,0.6h-0.4v-0.6c0.4-0.2,0.8-0.4,1.3-0.4c0.5,0,0.9,0.2,1.2,0.5
			c0.2,0.3,0.2,0.6,0.2,1.3V158.8z M91.6,156.6c-1.2,0.1-1.7,0.5-1.7,1.1c0,0.4,0.3,0.7,0.8,0.7c0.3,0,0.6-0.1,0.9-0.4V156.6z"/>
		<path fill="#FFFFFF" d="M93.5,154.7l0.6,2.3c0.1,0.3,0.1,0.6,0.2,1.1h0.1c0.1-0.6,0.2-1,0.2-1.1l0.5-2.3h0.7l-1.2,4.1H94l-1.2-4.1
			H93.5z"/>
		<path fill="#FFFFFF" d="M99.3,156.7c0,1.4-0.6,2.2-1.5,2.2c-0.9,0-1.5-0.8-1.5-2.2c0-1.3,0.6-2.2,1.5-2.2
			C98.7,154.5,99.3,155.3,99.3,156.7z M96.8,156.6c0,1.2,0.3,1.8,0.9,1.8c0.6,0,0.9-0.6,0.9-1.7c0-1.1-0.4-1.7-0.9-1.7
			S96.8,155.6,96.8,156.6z"/>
		<path fill="#FFFFFF" d="M102.2,158.8v-0.3l-0.1,0c-0.2,0.3-0.5,0.5-0.9,0.5c-0.5,0-0.9-0.2-1-0.7c-0.1-0.2-0.1-0.6-0.1-1.1v-2.4
			h0.6v2.6c0,0.8,0.1,1.2,0.7,1.2c0.3,0,0.6-0.1,0.8-0.4v-3.3h0.6v4.1H102.2z"/>
		<path fill="#FFFFFF" d="M104.6,154.7v0.3c0,0.1,0,0.3-0.1,0.4l0.1,0.1c0.2-0.5,0.8-0.8,1.3-0.8h0v0.7c-0.6,0-1,0.2-1.4,0.6v2.9
			H104v-4.1H104.6z"/>
		<path fill="#FFFFFF" d="M107.2,156.9v0.1c0,0.9,0.4,1.4,1,1.4c0.4,0,0.8-0.2,0.9-0.5h0.4v0.5c-0.4,0.4-0.8,0.5-1.4,0.5
			c-1.1,0-1.6-0.7-1.6-2.2c0-1.4,0.6-2.2,1.5-2.2c1,0,1.5,0.8,1.5,2.2v0.2H107.2z M109,156.4c0-0.9-0.4-1.4-0.9-1.4
			c-0.6,0-0.9,0.5-0.9,1.4H109z"/>
		<path fill="#FFFFFF" d="M112.7,158.4L112.7,158.4c-0.3,0.3-0.6,0.5-1,0.5c-0.8,0-1.3-0.8-1.3-2.2c0-1.3,0.5-2.2,1.3-2.2
			c0.4,0,0.6,0.2,0.9,0.5l0.1,0v-2h0.6v5.8h-0.6V158.4z M112.7,155.5c-0.3-0.3-0.5-0.4-0.8-0.4c-0.6,0-0.9,0.6-0.9,1.7
			c0,1.1,0.3,1.7,0.9,1.7c0.3,0,0.5-0.2,0.8-0.4V155.5z"/>
		<path fill="#FFFFFF" d="M118.2,155.6c-0.1-0.4-0.4-0.6-0.7-0.6c-0.5,0-0.9,0.6-0.9,1.7c0,1.1,0.3,1.7,0.9,1.7
			c0.3,0,0.6-0.2,0.7-0.6h0.4v0.6c-0.3,0.4-0.7,0.5-1.1,0.5c-0.9,0-1.5-0.8-1.5-2.2c0-1.4,0.6-2.2,1.5-2.2c0.4,0,0.8,0.2,1.1,0.5
			v0.6H118.2z"/>
		<path fill="#FFFFFF" d="M122.2,158.8h-0.6v-0.3h-0.1c-0.3,0.3-0.6,0.5-1,0.5c-0.7,0-1.3-0.5-1.3-1.2c0-0.9,0.8-1.4,2.3-1.5
			c0-0.1,0-0.2,0-0.3c0-0.7-0.2-0.9-0.8-0.9c-0.4,0-0.7,0.2-0.9,0.6h-0.4v-0.6c0.4-0.2,0.8-0.4,1.3-0.4c0.5,0,0.9,0.2,1.2,0.5
			c0.2,0.3,0.2,0.6,0.2,1.3V158.8z M121.6,156.6c-1.2,0.1-1.7,0.5-1.7,1.1c0,0.4,0.3,0.7,0.8,0.7c0.3,0,0.6-0.1,0.9-0.4V156.6z"/>
		<path fill="#FFFFFF" d="M123.8,154.7v0.3l0.1,0c0.2-0.3,0.5-0.5,0.9-0.5c0.8,0,1.1,0.5,1.1,1.4v2.8h-0.6v-2.6
			c0-0.8-0.1-1.2-0.7-1.2c-0.3,0-0.6,0.1-0.8,0.4v3.3h-0.6v-4.1H123.8z"/>
		<path fill="#FFFFFF" d="M129.1,158.4L129.1,158.4c-0.3,0.3-0.6,0.5-1,0.5c-0.8,0-1.3-0.8-1.3-2.2c0-1.3,0.5-2.2,1.3-2.2
			c0.4,0,0.6,0.2,0.9,0.5l0.1,0v-2h0.6v5.8h-0.6V158.4z M129.1,155.5c-0.3-0.3-0.5-0.4-0.8-0.4c-0.6,0-0.9,0.6-0.9,1.7
			c0,1.1,0.3,1.7,0.9,1.7c0.3,0,0.5-0.2,0.8-0.4V155.5z"/>
		<path fill="#FFFFFF" d="M131.1,154.7l0.8,3.4h0.1l0.7-3.4h0.7l-1.2,4c-0.3,1-0.7,1.5-1.6,1.5c-0.1,0-0.1,0-0.2,0v-0.5
			c0.1,0,0.1,0,0.2,0c0.6,0,0.8-0.3,1-1l-1.2-3.9H131.1z"/>
		<path fill="#FFFFFF" d="M137.6,154.7v0.5h-0.9v2.6c0,0.6,0,0.6,0.5,0.6h0.4v0.5H137c-0.8,0-0.9-0.3-0.9-1.3v-2.4h-0.5v-0.5h0.5
			v-1.3h0.6v1.3H137.6z"/>
		<path fill="#FFFFFF" d="M139,153v2l0.1,0c0.2-0.3,0.5-0.5,0.9-0.5c0.7,0,1.1,0.5,1.1,1.4v2.8h-0.6v-2.6c0-0.8-0.1-1.2-0.7-1.2
			c-0.3,0-0.6,0.1-0.8,0.4v3.3h-0.6V153H139z"/>
		<path fill="#FFFFFF" d="M144.7,158.8h-0.6v-0.3H144c-0.3,0.3-0.6,0.5-1,0.5c-0.7,0-1.3-0.5-1.3-1.2c0-0.9,0.8-1.4,2.3-1.5
			c0-0.1,0-0.2,0-0.3c0-0.7-0.2-0.9-0.8-0.9c-0.4,0-0.7,0.2-0.9,0.6H142v-0.6c0.4-0.2,0.8-0.4,1.3-0.4c0.5,0,0.9,0.2,1.2,0.5
			c0.2,0.3,0.2,0.6,0.2,1.3V158.8z M144.1,156.6c-1.2,0.1-1.7,0.5-1.7,1.1c0,0.4,0.3,0.7,0.8,0.7c0.3,0,0.6-0.1,0.9-0.4V156.6z"/>
		<path fill="#FFFFFF" d="M147.4,154.7v0.5h-0.9v2.6c0,0.6,0,0.6,0.5,0.6h0.4v0.5h-0.6c-0.8,0-0.9-0.3-0.9-1.3v-2.4h-0.5v-0.5h0.5
			v-1.3h0.6v1.3H147.4z"/>
		<path fill="#FFFFFF" d="M59.3,167.1v0.1c0,0.9,0.4,1.4,1,1.4c0.4,0,0.8-0.2,0.9-0.5h0.4v0.5c-0.4,0.4-0.8,0.5-1.4,0.5
			c-1.1,0-1.6-0.7-1.6-2.2c0-1.4,0.6-2.2,1.5-2.2c1,0,1.5,0.8,1.5,2.2v0.2H59.3z M61.1,166.6c0-0.9-0.4-1.4-0.9-1.4
			c-0.6,0-0.9,0.5-0.9,1.4H61.1z"/>
		<path fill="#FFFFFF" d="M62.9,164.8l0.6,2.3c0.1,0.3,0.1,0.6,0.2,1.1h0.1c0.1-0.6,0.2-1,0.2-1.1l0.5-2.3h0.7l-1.2,4.1h-0.5
			l-1.2-4.1H62.9z"/>
		<path fill="#FFFFFF" d="M66.4,167.1v0.1c0,0.9,0.4,1.4,1,1.4c0.4,0,0.8-0.2,0.9-0.5h0.4v0.5c-0.4,0.4-0.8,0.5-1.4,0.5
			c-1.1,0-1.6-0.7-1.6-2.2c0-1.4,0.6-2.2,1.5-2.2c1,0,1.5,0.8,1.5,2.2v0.2H66.4z M68.2,166.6c0-0.9-0.4-1.4-0.9-1.4
			c-0.6,0-0.9,0.5-0.9,1.4H68.2z"/>
		<path fill="#FFFFFF" d="M70.3,164.8v0.3c0,0.1,0,0.3-0.1,0.4l0.1,0.1c0.2-0.5,0.8-0.8,1.3-0.8h0v0.7c-0.6,0-1,0.2-1.4,0.6v2.9
			h-0.6v-4.1H70.3z"/>
		<path fill="#FFFFFF" d="M72.8,164.8l0.8,3.4h0.1l0.7-3.4h0.7l-1.2,4c-0.3,1-0.7,1.5-1.6,1.5c-0.1,0-0.1,0-0.2,0v-0.5
			c0.1,0,0.1,0,0.2,0c0.6,0,0.8-0.3,1-1l-1.2-3.9H72.8z"/>
		<path fill="#FFFFFF" d="M78.6,166.9c0,1.4-0.6,2.2-1.5,2.2c-0.9,0-1.5-0.8-1.5-2.2c0-1.3,0.6-2.2,1.5-2.2
			C78,164.7,78.6,165.5,78.6,166.9z M76.2,166.8c0,1.2,0.3,1.8,0.9,1.8c0.6,0,0.9-0.6,0.9-1.7c0-1.1-0.4-1.7-0.9-1.7
			S76.2,165.8,76.2,166.8z"/>
		<path fill="#FFFFFF" d="M80.1,164.8v0.3l0.1,0c0.2-0.3,0.5-0.5,0.9-0.5c0.8,0,1.1,0.5,1.1,1.4v2.8h-0.6v-2.6
			c0-0.8-0.1-1.2-0.7-1.2c-0.3,0-0.6,0.1-0.8,0.4v3.3h-0.6v-4.1H80.1z"/>
		<path fill="#FFFFFF" d="M83.7,167.1v0.1c0,0.9,0.4,1.4,1,1.4c0.4,0,0.8-0.2,0.9-0.5h0.4v0.5c-0.4,0.4-0.8,0.5-1.4,0.5
			c-1.1,0-1.6-0.7-1.6-2.2c0-1.4,0.6-2.2,1.5-2.2c1,0,1.5,0.8,1.5,2.2v0.2H83.7z M85.5,166.6c0-0.9-0.4-1.4-0.9-1.4
			c-0.6,0-0.9,0.5-0.9,1.4H85.5z"/>
		<path fill="#FFFFFF" d="M90.9,165.8c-0.1-0.4-0.4-0.6-0.7-0.6c-0.5,0-0.9,0.6-0.9,1.7c0,1.1,0.3,1.7,0.9,1.7
			c0.3,0,0.6-0.2,0.7-0.6h0.4v0.6c-0.3,0.4-0.7,0.5-1.1,0.5c-0.9,0-1.5-0.8-1.5-2.2c0-1.4,0.6-2.2,1.5-2.2c0.4,0,0.8,0.2,1.1,0.5
			v0.6H90.9z"/>
		<path fill="#FFFFFF" d="M94.9,168.9h-0.6v-0.3h-0.1c-0.3,0.3-0.6,0.5-1,0.5c-0.7,0-1.3-0.5-1.3-1.2c0-0.9,0.8-1.4,2.3-1.5
			c0-0.1,0-0.2,0-0.3c0-0.7-0.2-0.9-0.8-0.9c-0.4,0-0.7,0.2-0.9,0.6h-0.4v-0.6c0.4-0.2,0.8-0.4,1.3-0.4c0.5,0,0.9,0.2,1.2,0.5
			c0.2,0.3,0.2,0.6,0.2,1.3V168.9z M94.3,166.7c-1.2,0.1-1.7,0.5-1.7,1.1c0,0.4,0.3,0.7,0.8,0.7c0.3,0,0.6-0.1,0.9-0.4V166.7z"/>
		<path fill="#FFFFFF" d="M96.6,164.8v0.3l0.1,0c0.2-0.3,0.5-0.5,0.9-0.5c0.8,0,1.1,0.5,1.1,1.4v2.8h-0.6v-2.6
			c0-0.8-0.1-1.2-0.7-1.2c-0.3,0-0.6,0.1-0.8,0.4v3.3H96v-4.1H96.6z"/>
		<path fill="#FFFFFF" d="M102,167.1v0.1c0,0.9,0.4,1.4,1,1.4c0.4,0,0.8-0.2,0.9-0.5h0.4v0.5c-0.4,0.4-0.8,0.5-1.4,0.5
			c-1.1,0-1.6-0.7-1.6-2.2c0-1.4,0.6-2.2,1.5-2.2c1,0,1.5,0.8,1.5,2.2v0.2H102z M103.8,166.6c0-0.9-0.4-1.4-0.9-1.4
			c-0.6,0-0.9,0.5-0.9,1.4H103.8z"/>
		<path fill="#FFFFFF" d="M106,164.8v0.3l0.1,0c0.2-0.3,0.5-0.5,0.9-0.5c0.8,0,1.1,0.5,1.1,1.4v2.8h-0.6v-2.6c0-0.8-0.1-1.2-0.7-1.2
			c-0.3,0-0.6,0.1-0.8,0.4v3.3h-0.6v-4.1H106z"/>
		<path fill="#FFFFFF" d="M109.7,169.4c0,0.6-0.3,0.8-1,0.8c-0.1,0-0.2,0-0.3,0v-0.5c0.1,0,0.2,0,0.2,0c0.4,0,0.5-0.1,0.5-0.4v-4.5
			h0.6V169.4z M109.8,163.2v0.7h-0.6v-0.7H109.8z"/>
		<path fill="#FFFFFF" d="M113.7,166.9c0,1.4-0.6,2.2-1.5,2.2c-0.9,0-1.5-0.8-1.5-2.2c0-1.3,0.6-2.2,1.5-2.2
			C113.1,164.7,113.7,165.5,113.7,166.9z M111.3,166.8c0,1.2,0.3,1.8,0.9,1.8c0.6,0,0.9-0.6,0.9-1.7c0-1.1-0.4-1.7-0.9-1.7
			S111.3,165.8,111.3,166.8z"/>
		<path fill="#FFFFFF" d="M114.8,164.8l0.8,3.4h0.1l0.7-3.4h0.7l-1.2,4c-0.3,1-0.7,1.5-1.6,1.5c-0.1,0-0.1,0-0.2,0v-0.5
			c0.1,0,0.1,0,0.2,0c0.6,0,0.8-0.3,1-1l-1.2-3.9H114.8z"/>
	</g>
</g>
<g>
	<g>
		<path fill="#FFFFFF" d="M59.9,213.4l0.9,3.1c0.1,0.5,0.3,1.1,0.4,1.6h0.2c0.1-0.7,0.3-1.2,0.4-1.7l0.9-3h1v5.5H63v-3.3
			c0-0.2,0-0.8,0.1-1.8h-0.1l-1.5,5.1H61l-1.5-5.1h-0.1c0.1,0.7,0.1,1.2,0.1,1.6v3.5h-0.6v-5.5H59.9z"/>
		<path fill="#FFFFFF" d="M65.3,213.1v0.7h-0.6v-0.7H65.3z M65.3,214.8v4.1h-0.6v-4.1H65.3z"/>
		<path fill="#FFFFFF" d="M67,213.1v5.8h-0.6v-5.8H67z"/>
		<path fill="#FFFFFF" d="M68.8,213.1v2.5c0,0.4,0,0.8-0.1,1.2l0.1,0l1.5-2.1H71l-1.4,1.8l1.3,2.3h-0.6l-0.7-1.3
			c-0.1-0.2-0.2-0.4-0.3-0.7l-0.1,0l-0.4,0.6v1.4h-0.6v-5.8H68.8z"/>
		<path fill="#FFFFFF" d="M75.5,215.8c-0.1-0.4-0.4-0.6-0.7-0.6c-0.5,0-0.9,0.6-0.9,1.7c0,1.1,0.3,1.7,0.9,1.7
			c0.3,0,0.6-0.2,0.7-0.6h0.4v0.6c-0.3,0.4-0.7,0.5-1.1,0.5c-0.9,0-1.5-0.8-1.5-2.2c0-1.4,0.6-2.2,1.5-2.2c0.4,0,0.8,0.2,1.1,0.5
			v0.6H75.5z"/>
		<path fill="#FFFFFF" d="M77.4,213.1v2l0.1,0c0.2-0.3,0.5-0.5,0.9-0.5c0.7,0,1.1,0.5,1.1,1.4v2.8h-0.6v-2.6c0-0.8-0.1-1.2-0.7-1.2
			c-0.3,0-0.6,0.1-0.8,0.4v3.3h-0.6v-5.8H77.4z"/>
		<path fill="#FFFFFF" d="M83.4,216.8c0,1.4-0.6,2.2-1.5,2.2c-0.9,0-1.5-0.8-1.5-2.2c0-1.3,0.6-2.2,1.5-2.2
			C82.8,214.7,83.4,215.5,83.4,216.8z M80.9,216.8c0,1.2,0.3,1.8,0.9,1.8c0.6,0,0.9-0.6,0.9-1.7c0-1.1-0.4-1.7-0.9-1.7
			S80.9,215.7,80.9,216.8z"/>
		<path fill="#FFFFFF" d="M86.3,215.8c-0.1-0.4-0.4-0.6-0.7-0.6c-0.5,0-0.9,0.6-0.9,1.7c0,1.1,0.3,1.7,0.9,1.7
			c0.3,0,0.6-0.2,0.7-0.6h0.4v0.6c-0.3,0.4-0.7,0.5-1.1,0.5c-0.9,0-1.5-0.8-1.5-2.2c0-1.4,0.6-2.2,1.5-2.2c0.4,0,0.8,0.2,1.1,0.5
			v0.6H86.3z"/>
		<path fill="#FFFFFF" d="M90.4,216.8c0,1.4-0.6,2.2-1.5,2.2c-0.9,0-1.5-0.8-1.5-2.2c0-1.3,0.6-2.2,1.5-2.2
			C89.9,214.7,90.4,215.5,90.4,216.8z M88,216.8c0,1.2,0.3,1.8,0.9,1.8c0.6,0,0.9-0.6,0.9-1.7c0-1.1-0.4-1.7-0.9-1.7
			S88,215.7,88,216.8z"/>
		<path fill="#FFFFFF" d="M92,213.1v5.8h-0.6v-5.8H92z"/>
		<path fill="#FFFFFF" d="M95.8,218.9h-0.6v-0.3h-0.1c-0.3,0.3-0.6,0.5-1,0.5c-0.7,0-1.3-0.5-1.3-1.2c0-0.9,0.8-1.4,2.3-1.5
			c0-0.1,0-0.2,0-0.3c0-0.7-0.2-0.9-0.8-0.9c-0.4,0-0.7,0.2-0.9,0.6h-0.4v-0.6c0.4-0.2,0.8-0.4,1.3-0.4c0.5,0,0.9,0.2,1.2,0.5
			c0.2,0.3,0.2,0.6,0.2,1.3V218.9z M95.2,216.7c-1.2,0.1-1.7,0.5-1.7,1.1c0,0.4,0.3,0.7,0.8,0.7c0.3,0,0.6-0.1,0.9-0.4V216.7z"/>
		<path fill="#FFFFFF" d="M98.5,214.8v0.5h-0.9v2.6c0,0.6,0,0.6,0.5,0.6h0.4v0.5h-0.6c-0.8,0-0.9-0.3-0.9-1.3v-2.4h-0.5v-0.5H97
			v-1.3h0.6v1.3H98.5z"/>
		<path fill="#FFFFFF" d="M99.6,217v0.1c0,0.9,0.4,1.4,1,1.4c0.4,0,0.8-0.2,0.9-0.5h0.4v0.5c-0.4,0.4-0.8,0.5-1.4,0.5
			c-1.1,0-1.6-0.7-1.6-2.2c0-1.4,0.6-2.2,1.5-2.2c1,0,1.5,0.8,1.5,2.2v0.2H99.6z M101.5,216.6c0-0.9-0.4-1.4-0.9-1.4
			c-0.6,0-0.9,0.5-0.9,1.4H101.5z"/>
		<path fill="#FFFFFF" d="M107.6,218.9H107v-0.3h-0.1c-0.3,0.3-0.6,0.5-1,0.5c-0.7,0-1.3-0.5-1.3-1.2c0-0.9,0.8-1.4,2.3-1.5
			c0-0.1,0-0.2,0-0.3c0-0.7-0.2-0.9-0.8-0.9c-0.4,0-0.7,0.2-0.9,0.6h-0.4v-0.6c0.4-0.2,0.8-0.4,1.3-0.4c0.5,0,0.9,0.2,1.2,0.5
			c0.2,0.3,0.2,0.6,0.2,1.3V218.9z M107,216.7c-1.2,0.1-1.7,0.5-1.7,1.1c0,0.4,0.3,0.7,0.8,0.7c0.3,0,0.6-0.1,0.9-0.4V216.7z"/>
		<path fill="#FFFFFF" d="M109.2,214.8v0.3l0.1,0c0.2-0.3,0.5-0.5,0.9-0.5c0.8,0,1.1,0.5,1.1,1.4v2.8h-0.6v-2.6
			c0-0.8-0.1-1.2-0.7-1.2c-0.3,0-0.6,0.1-0.8,0.4v3.3h-0.6v-4.1H109.2z"/>
		<path fill="#FFFFFF" d="M114.5,218.6L114.5,218.6c-0.3,0.3-0.6,0.5-1,0.5c-0.8,0-1.3-0.8-1.3-2.2c0-1.3,0.5-2.2,1.3-2.2
			c0.4,0,0.6,0.2,0.9,0.5l0.1,0v-2h0.6v5.8h-0.6V218.6z M114.5,215.6c-0.3-0.3-0.5-0.4-0.8-0.4c-0.6,0-0.9,0.6-0.9,1.7
			c0,1.1,0.3,1.7,0.9,1.7c0.3,0,0.5-0.2,0.8-0.4V215.6z"/>
		<path fill="#FFFFFF" d="M120.2,218.6L120.2,218.6c-0.3,0.3-0.6,0.5-1,0.5c-0.8,0-1.3-0.8-1.3-2.2c0-1.3,0.5-2.2,1.3-2.2
			c0.4,0,0.6,0.2,0.9,0.5l0.1,0v-2h0.6v5.8h-0.6V218.6z M120.2,215.6c-0.3-0.3-0.5-0.4-0.8-0.4c-0.6,0-0.9,0.6-0.9,1.7
			c0,1.1,0.3,1.7,0.9,1.7c0.3,0,0.5-0.2,0.8-0.4V215.6z"/>
		<path fill="#FFFFFF" d="M124.5,218.9h-0.6v-0.3h-0.1c-0.3,0.3-0.6,0.5-1,0.5c-0.7,0-1.3-0.5-1.3-1.2c0-0.9,0.8-1.4,2.3-1.5
			c0-0.1,0-0.2,0-0.3c0-0.7-0.2-0.9-0.8-0.9c-0.4,0-0.7,0.2-0.9,0.6h-0.4v-0.6c0.4-0.2,0.8-0.4,1.3-0.4c0.5,0,0.9,0.2,1.2,0.5
			c0.2,0.3,0.2,0.6,0.2,1.3V218.9z M123.9,216.7c-1.2,0.1-1.7,0.5-1.7,1.1c0,0.4,0.3,0.7,0.8,0.7c0.3,0,0.6-0.1,0.9-0.4V216.7z"/>
		<path fill="#FFFFFF" d="M126.2,214.8v0.3c0,0.1,0,0.3-0.1,0.4l0.1,0.1c0.2-0.5,0.8-0.8,1.3-0.8h0v0.7c-0.6,0-1,0.2-1.4,0.6v2.9
			h-0.6v-4.1H126.2z"/>
		<path fill="#FFFFFF" d="M129,213.1v2.5c0,0.4,0,0.8-0.1,1.2l0.1,0l1.5-2.1h0.7l-1.4,1.8l1.3,2.3h-0.6l-0.7-1.3
			c-0.1-0.2-0.2-0.4-0.3-0.7l-0.1,0l-0.4,0.6v1.4h-0.6v-5.8H129z"/>
		<path fill="#FFFFFF" d="M135.7,215.8c-0.1-0.4-0.4-0.6-0.7-0.6c-0.5,0-0.9,0.6-0.9,1.7c0,1.1,0.3,1.7,0.9,1.7
			c0.3,0,0.6-0.2,0.7-0.6h0.4v0.6c-0.3,0.4-0.7,0.5-1.1,0.5c-0.9,0-1.5-0.8-1.5-2.2c0-1.4,0.6-2.2,1.5-2.2c0.4,0,0.8,0.2,1.1,0.5
			v0.6H135.7z"/>
		<path fill="#FFFFFF" d="M137.6,213.1v2l0.1,0c0.2-0.3,0.5-0.5,0.9-0.5c0.7,0,1.1,0.5,1.1,1.4v2.8h-0.6v-2.6c0-0.8-0.1-1.2-0.7-1.2
			c-0.3,0-0.6,0.1-0.8,0.4v3.3H137v-5.8H137.6z"/>
		<path fill="#FFFFFF" d="M143.6,216.8c0,1.4-0.6,2.2-1.5,2.2c-0.9,0-1.5-0.8-1.5-2.2c0-1.3,0.6-2.2,1.5-2.2
			C143,214.7,143.6,215.5,143.6,216.8z M141.1,216.8c0,1.2,0.3,1.8,0.9,1.8c0.6,0,0.9-0.6,0.9-1.7c0-1.1-0.4-1.7-0.9-1.7
			S141.1,215.7,141.1,216.8z"/>
		<path fill="#FFFFFF" d="M146.5,215.8c-0.1-0.4-0.4-0.6-0.7-0.6c-0.5,0-0.9,0.6-0.9,1.7c0,1.1,0.3,1.7,0.9,1.7
			c0.3,0,0.6-0.2,0.7-0.6h0.4v0.6c-0.3,0.4-0.7,0.5-1.1,0.5c-0.9,0-1.5-0.8-1.5-2.2c0-1.4,0.6-2.2,1.5-2.2c0.4,0,0.8,0.2,1.1,0.5
			v0.6H146.5z"/>
		<path fill="#FFFFFF" d="M150.6,216.8c0,1.4-0.6,2.2-1.5,2.2c-0.9,0-1.5-0.8-1.5-2.2c0-1.3,0.6-2.2,1.5-2.2
			C150,214.7,150.6,215.5,150.6,216.8z M148.2,216.8c0,1.2,0.3,1.8,0.9,1.8c0.6,0,0.9-0.6,0.9-1.7c0-1.1-0.4-1.7-0.9-1.7
			S148.2,215.7,148.2,216.8z"/>
		<path fill="#FFFFFF" d="M152.1,213.1v5.8h-0.6v-5.8H152.1z"/>
		<path fill="#FFFFFF" d="M156,218.9h-0.6v-0.3h-0.1c-0.3,0.3-0.6,0.5-1,0.5c-0.7,0-1.3-0.5-1.3-1.2c0-0.9,0.8-1.4,2.3-1.5
			c0-0.1,0-0.2,0-0.3c0-0.7-0.2-0.9-0.8-0.9c-0.4,0-0.7,0.2-0.9,0.6h-0.4v-0.6c0.4-0.2,0.8-0.4,1.3-0.4c0.5,0,0.9,0.2,1.2,0.5
			c0.2,0.3,0.2,0.6,0.2,1.3V218.9z M155.4,216.7c-1.2,0.1-1.7,0.5-1.7,1.1c0,0.4,0.3,0.7,0.8,0.7c0.3,0,0.6-0.1,0.9-0.4V216.7z"/>
		<path fill="#FFFFFF" d="M158.7,214.8v0.5h-0.9v2.6c0,0.6,0,0.6,0.5,0.6h0.4v0.5H158c-0.8,0-0.9-0.3-0.9-1.3v-2.4h-0.5v-0.5h0.5
			v-1.3h0.6v1.3H158.7z"/>
		<path fill="#FFFFFF" d="M159.8,217v0.1c0,0.9,0.4,1.4,1,1.4c0.4,0,0.8-0.2,0.9-0.5h0.4v0.5c-0.4,0.4-0.8,0.5-1.4,0.5
			c-1.1,0-1.6-0.7-1.6-2.2c0-1.4,0.6-2.2,1.5-2.2c1,0,1.5,0.8,1.5,2.2v0.2H159.8z M161.6,216.6c0-0.9-0.4-1.4-0.9-1.4
			c-0.6,0-0.9,0.5-0.9,1.4H161.6z"/>
		<path fill="#FFFFFF" d="M61.6,229.1H61v-0.3h-0.1c-0.3,0.3-0.6,0.5-1,0.5c-0.7,0-1.3-0.5-1.3-1.2c0-0.9,0.8-1.4,2.3-1.5
			c0-0.1,0-0.2,0-0.3c0-0.7-0.2-0.9-0.8-0.9c-0.4,0-0.7,0.2-0.9,0.6h-0.4v-0.6c0.4-0.2,0.8-0.4,1.3-0.4c0.5,0,0.9,0.2,1.2,0.5
			c0.2,0.3,0.2,0.6,0.2,1.3V229.1z M61,226.9c-1.2,0.1-1.7,0.5-1.7,1.1c0,0.4,0.3,0.7,0.8,0.7c0.3,0,0.6-0.1,0.9-0.4V226.9z"/>
		<path fill="#FFFFFF" d="M63.3,224.9v0.3c0,0.1,0,0.3-0.1,0.4l0.1,0.1c0.2-0.5,0.8-0.8,1.3-0.8h0v0.7c-0.6,0-1,0.2-1.4,0.6v2.9
			h-0.6v-4.1H63.3z"/>
		<path fill="#FFFFFF" d="M65.9,227.2v0.1c0,0.9,0.4,1.4,1,1.4c0.4,0,0.8-0.2,0.9-0.5h0.4v0.5c-0.4,0.4-0.8,0.5-1.4,0.5
			c-1.1,0-1.6-0.7-1.6-2.2c0-1.4,0.6-2.2,1.5-2.2c1,0,1.5,0.8,1.5,2.2v0.2H65.9z M67.7,226.7c0-0.9-0.4-1.4-0.9-1.4
			c-0.6,0-0.9,0.5-0.9,1.4H67.7z"/>
		<path fill="#FFFFFF" d="M73.8,229.1h-0.6v-0.3h-0.1c-0.3,0.3-0.6,0.5-1,0.5c-0.7,0-1.3-0.5-1.3-1.2c0-0.9,0.8-1.4,2.3-1.5
			c0-0.1,0-0.2,0-0.3c0-0.7-0.2-0.9-0.8-0.9c-0.4,0-0.7,0.2-0.9,0.6h-0.4v-0.6c0.4-0.2,0.8-0.4,1.3-0.4c0.5,0,0.9,0.2,1.2,0.5
			c0.2,0.3,0.2,0.6,0.2,1.3V229.1z M73.2,226.9c-1.2,0.1-1.7,0.5-1.7,1.1c0,0.4,0.3,0.7,0.8,0.7c0.3,0,0.6-0.1,0.9-0.4V226.9z"/>
		<path fill="#FFFFFF" d="M76.3,225.4v-0.5h0.6c0-0.1,0-0.3,0-0.5c0-0.9,0.3-1.3,1.2-1.3c0.1,0,0.1,0,0.2,0v0.5h-0.1
			c-0.5,0-0.7,0.2-0.7,0.7v0.6h0.7v0.5h-0.7v3.6h-0.6v-3.6H76.3z"/>
		<path fill="#FFFFFF" d="M81.7,229.1h-0.6v-0.3H81c-0.3,0.3-0.6,0.5-1,0.5c-0.7,0-1.3-0.5-1.3-1.2c0-0.9,0.8-1.4,2.3-1.5
			c0-0.1,0-0.2,0-0.3c0-0.7-0.2-0.9-0.8-0.9c-0.4,0-0.7,0.2-0.9,0.6H79v-0.6c0.4-0.2,0.8-0.4,1.3-0.4c0.5,0,0.9,0.2,1.2,0.5
			c0.2,0.3,0.2,0.6,0.2,1.3V229.1z M81.1,226.9c-1.2,0.1-1.7,0.5-1.7,1.1c0,0.4,0.3,0.7,0.8,0.7c0.3,0,0.6-0.1,0.9-0.4V226.9z"/>
		<path fill="#FFFFFF" d="M83,224.9l0.6,2.3c0.1,0.3,0.1,0.6,0.2,1.1h0.1c0.1-0.6,0.2-1,0.2-1.1l0.5-2.3h0.7l-1.2,4.1h-0.5l-1.2-4.1
			H83z"/>
		<path fill="#FFFFFF" d="M88.8,227c0,1.4-0.6,2.2-1.5,2.2c-0.9,0-1.5-0.8-1.5-2.2c0-1.3,0.6-2.2,1.5-2.2
			C88.2,224.8,88.8,225.6,88.8,227z M86.4,226.9c0,1.2,0.3,1.8,0.9,1.8c0.6,0,0.9-0.6,0.9-1.7c0-1.1-0.4-1.7-0.9-1.7
			S86.4,225.9,86.4,226.9z"/>
		<path fill="#FFFFFF" d="M91.8,229.1v-0.3l-0.1,0c-0.2,0.3-0.5,0.5-0.9,0.5c-0.5,0-0.9-0.2-1-0.7c-0.1-0.2-0.1-0.6-0.1-1.1v-2.4
			h0.6v2.6c0,0.8,0.1,1.2,0.7,1.2c0.3,0,0.6-0.1,0.8-0.4v-3.3h0.6v4.1H91.8z"/>
		<path fill="#FFFFFF" d="M94.1,224.9v0.3c0,0.1,0,0.3-0.1,0.4l0.1,0.1c0.2-0.5,0.8-0.8,1.3-0.8h0v0.7c-0.6,0-1,0.2-1.4,0.6v2.9
			h-0.6v-4.1H94.1z"/>
		<path fill="#FFFFFF" d="M96.9,223.3v0.7h-0.6v-0.7H96.9z M96.9,224.9v4.1h-0.6v-4.1H96.9z"/>
		<path fill="#FFFFFF" d="M99.7,224.9v0.5h-0.9v2.6c0,0.6,0,0.6,0.5,0.6h0.4v0.5h-0.6c-0.8,0-0.9-0.3-0.9-1.3v-2.4h-0.5v-0.5h0.5
			v-1.3h0.6v1.3H99.7z"/>
		<path fill="#FFFFFF" d="M100.8,227.2v0.1c0,0.9,0.4,1.4,1,1.4c0.4,0,0.8-0.2,0.9-0.5h0.4v0.5c-0.4,0.4-0.8,0.5-1.4,0.5
			c-1.1,0-1.6-0.7-1.6-2.2c0-1.4,0.6-2.2,1.5-2.2c1,0,1.5,0.8,1.5,2.2v0.2H100.8z M102.6,226.7c0-0.9-0.4-1.4-0.9-1.4
			c-0.6,0-0.9,0.5-0.9,1.4H102.6z"/>
		<path fill="#FFFFFF" d="M107.7,224.9v0.5h-0.9v2.6c0,0.6,0,0.6,0.5,0.6h0.4v0.5h-0.6c-0.8,0-0.9-0.3-0.9-1.3v-2.4h-0.5v-0.5h0.5
			v-1.3h0.6v1.3H107.7z"/>
		<path fill="#FFFFFF" d="M111.3,227c0,1.4-0.6,2.2-1.5,2.2c-0.9,0-1.5-0.8-1.5-2.2c0-1.3,0.6-2.2,1.5-2.2
			C110.7,224.8,111.3,225.6,111.3,227z M108.8,226.9c0,1.2,0.3,1.8,0.9,1.8c0.6,0,0.9-0.6,0.9-1.7c0-1.1-0.4-1.7-0.9-1.7
			S108.8,225.9,108.8,226.9z"/>
		<path fill="#FFFFFF" d="M116.8,229.1h-0.6v-0.3h-0.1c-0.3,0.3-0.6,0.5-1,0.5c-0.7,0-1.3-0.5-1.3-1.2c0-0.9,0.8-1.4,2.3-1.5
			c0-0.1,0-0.2,0-0.3c0-0.7-0.2-0.9-0.8-0.9c-0.4,0-0.7,0.2-0.9,0.6h-0.4v-0.6c0.4-0.2,0.8-0.4,1.3-0.4c0.5,0,0.9,0.2,1.2,0.5
			c0.2,0.3,0.2,0.6,0.2,1.3V229.1z M116.2,226.9c-1.2,0.1-1.7,0.5-1.7,1.1c0,0.4,0.3,0.7,0.8,0.7c0.3,0,0.6-0.1,0.9-0.4V226.9z"/>
		<path fill="#FFFFFF" d="M118.4,223.3v5.8h-0.6v-5.8H118.4z"/>
		<path fill="#FFFFFF" d="M120.2,223.3v5.8h-0.6v-5.8H120.2z"/>
		<path fill="#FFFFFF" d="M123.8,223.3v2.5c0,0.4,0,0.8-0.1,1.2l0.1,0l1.5-2.1h0.7l-1.4,1.8l1.3,2.3h-0.6l-0.7-1.3
			c-0.1-0.2-0.2-0.4-0.3-0.7l-0.1,0l-0.4,0.6v1.4h-0.6v-5.8H123.8z"/>
		<path fill="#FFFFFF" d="M127.3,223.3v0.7h-0.6v-0.7H127.3z M127.2,224.9v4.1h-0.6v-4.1H127.2z"/>
		<path fill="#FFFFFF" d="M130.5,228.7L130.5,228.7c-0.3,0.3-0.6,0.5-1,0.5c-0.8,0-1.3-0.8-1.3-2.2c0-1.3,0.5-2.2,1.3-2.2
			c0.4,0,0.6,0.2,0.9,0.5l0.1,0v-2h0.6v5.8h-0.6V228.7z M130.5,225.8c-0.3-0.3-0.5-0.4-0.8-0.4c-0.6,0-0.9,0.6-0.9,1.7
			c0,1.1,0.3,1.7,0.9,1.7c0.3,0,0.5-0.2,0.8-0.4V225.8z"/>
		<path fill="#FFFFFF" d="M132.3,228.1c0.2,0.4,0.5,0.6,1,0.6c0.5,0,0.8-0.3,0.8-0.7c0-0.6-0.5-0.6-1.3-0.9
			c-0.5-0.2-0.8-0.6-0.8-1.1c0-0.7,0.6-1.2,1.3-1.2c0.4,0,0.8,0.1,1.2,0.5v0.6h-0.4c-0.2-0.4-0.5-0.6-0.8-0.6
			c-0.4,0-0.8,0.3-0.8,0.7s0.3,0.6,0.9,0.8c0.8,0.2,1.2,0.6,1.2,1.2c0,0.7-0.5,1.3-1.4,1.3c-0.5,0-1-0.2-1.4-0.5v-0.6H132.3z"/>
		<path fill="#FFFFFF" d="M140.2,229.1h-0.6v-0.3h-0.1c-0.3,0.3-0.6,0.5-1,0.5c-0.7,0-1.3-0.5-1.3-1.2c0-0.9,0.8-1.4,2.3-1.5
			c0-0.1,0-0.2,0-0.3c0-0.7-0.2-0.9-0.8-0.9c-0.4,0-0.7,0.2-0.9,0.6h-0.4v-0.6c0.4-0.2,0.8-0.4,1.3-0.4c0.5,0,0.9,0.2,1.2,0.5
			c0.2,0.3,0.2,0.6,0.2,1.3V229.1z M139.6,226.9c-1.2,0.1-1.7,0.5-1.7,1.1c0,0.4,0.3,0.7,0.8,0.7c0.3,0,0.6-0.1,0.9-0.4V226.9z"/>
		<path fill="#FFFFFF" d="M141.8,224.9v0.3l0.1,0c0.2-0.3,0.5-0.5,0.9-0.5c0.8,0,1.1,0.5,1.1,1.4v2.8h-0.6v-2.6
			c0-0.8-0.1-1.2-0.7-1.2c-0.3,0-0.6,0.1-0.8,0.4v3.3h-0.6v-4.1H141.8z"/>
		<path fill="#FFFFFF" d="M147.1,228.7L147.1,228.7c-0.3,0.3-0.6,0.5-1,0.5c-0.8,0-1.3-0.8-1.3-2.2c0-1.3,0.5-2.2,1.3-2.2
			c0.4,0,0.6,0.2,0.9,0.5l0.1,0v-2h0.6v5.8h-0.6V228.7z M147.1,225.8c-0.3-0.3-0.5-0.4-0.8-0.4c-0.6,0-0.9,0.6-0.9,1.7
			c0,1.1,0.3,1.7,0.9,1.7c0.3,0,0.5-0.2,0.8-0.4V225.8z"/>
		<path fill="#FFFFFF" d="M151,227.2v0.1c0,0.9,0.4,1.4,1,1.4c0.4,0,0.8-0.2,0.9-0.5h0.4v0.5c-0.4,0.4-0.8,0.5-1.4,0.5
			c-1.1,0-1.6-0.7-1.6-2.2c0-1.4,0.6-2.2,1.5-2.2c1,0,1.5,0.8,1.5,2.2v0.2H151z M152.8,226.7c0-0.9-0.4-1.4-0.9-1.4
			c-0.6,0-0.9,0.5-0.9,1.4H152.8z"/>
		<path fill="#FFFFFF" d="M154.6,224.9l0.6,2.3c0.1,0.3,0.1,0.6,0.2,1.1h0.1c0.1-0.6,0.2-1,0.2-1.1l0.5-2.3h0.7l-1.2,4.1h-0.5
			l-1.2-4.1H154.6z"/>
		<path fill="#FFFFFF" d="M158.1,227.2v0.1c0,0.9,0.4,1.4,1,1.4c0.4,0,0.8-0.2,0.9-0.5h0.4v0.5c-0.4,0.4-0.8,0.5-1.4,0.5
			c-1.1,0-1.6-0.7-1.6-2.2c0-1.4,0.6-2.2,1.5-2.2c1,0,1.5,0.8,1.5,2.2v0.2H158.1z M159.9,226.7c0-0.9-0.4-1.4-0.9-1.4
			c-0.6,0-0.9,0.5-0.9,1.4H159.9z"/>
		<path fill="#FFFFFF" d="M162,224.9v0.3l0.1,0c0.2-0.3,0.5-0.5,0.9-0.5c0.8,0,1.1,0.5,1.1,1.4v2.8h-0.6v-2.6c0-0.8-0.1-1.2-0.7-1.2
			c-0.3,0-0.6,0.1-0.8,0.4v3.3h-0.6v-4.1H162z"/>
		<path fill="#FFFFFF" d="M59.4,235.1v0.4l0.1,0c0.2-0.3,0.5-0.5,0.9-0.5c0.8,0,1.3,0.8,1.3,2.2c0,1.3-0.5,2.2-1.3,2.2
			c-0.4,0-0.7-0.2-0.9-0.5l-0.1,0v1.6h-0.6v-5.4H59.4z M59.4,238.4c0.3,0.3,0.5,0.4,0.8,0.4c0.6,0,0.9-0.6,0.9-1.7
			c0-1.1-0.3-1.7-0.9-1.7c-0.3,0-0.5,0.1-0.8,0.4V238.4z"/>
		<path fill="#FFFFFF" d="M65.2,239.2h-0.6v-0.3h-0.1c-0.3,0.3-0.6,0.5-1,0.5c-0.7,0-1.3-0.5-1.3-1.2c0-0.9,0.8-1.4,2.3-1.5
			c0-0.1,0-0.2,0-0.3c0-0.7-0.2-0.9-0.8-0.9c-0.4,0-0.7,0.2-0.9,0.6h-0.4v-0.6c0.4-0.2,0.8-0.4,1.3-0.4c0.5,0,0.9,0.2,1.2,0.5
			c0.2,0.3,0.2,0.6,0.2,1.3V239.2z M64.6,237c-1.2,0.1-1.7,0.5-1.7,1.1c0,0.4,0.3,0.7,0.8,0.7c0.3,0,0.6-0.1,0.9-0.4V237z"/>
		<path fill="#FFFFFF" d="M66.8,235.1v0.3c0,0.1,0,0.3-0.1,0.4l0.1,0.1c0.2-0.5,0.8-0.8,1.3-0.8h0v0.7c-0.6,0-1,0.2-1.4,0.6v2.9
			h-0.6v-4.1H66.8z"/>
		<path fill="#FFFFFF" d="M69.5,237.4v0.1c0,0.9,0.4,1.4,1,1.4c0.4,0,0.8-0.2,0.9-0.5h0.4v0.5c-0.4,0.4-0.8,0.5-1.4,0.5
			c-1.1,0-1.6-0.7-1.6-2.2c0-1.4,0.6-2.2,1.5-2.2c1,0,1.5,0.8,1.5,2.2v0.2H69.5z M71.3,236.9c0-0.9-0.4-1.4-0.9-1.4
			c-0.6,0-0.9,0.5-0.9,1.4H71.3z"/>
		<path fill="#FFFFFF" d="M73.4,235.1v0.3l0.1,0c0.2-0.3,0.5-0.5,0.9-0.5c0.8,0,1.1,0.5,1.1,1.4v2.8h-0.6v-2.6
			c0-0.8-0.1-1.2-0.7-1.2c-0.3,0-0.6,0.1-0.8,0.4v3.3h-0.6v-4.1H73.4z"/>
		<path fill="#FFFFFF" d="M78.2,235.1v0.5h-0.9v2.6c0,0.6,0,0.6,0.5,0.6h0.4v0.5h-0.6c-0.8,0-0.9-0.3-0.9-1.3v-2.4h-0.5v-0.5h0.5
			v-1.3h0.6v1.3H78.2z"/>
		<path fill="#FFFFFF" d="M79.1,238.3c0.2,0.4,0.5,0.6,1,0.6c0.5,0,0.8-0.3,0.8-0.7c0-0.6-0.5-0.6-1.3-0.9c-0.5-0.2-0.8-0.6-0.8-1.1
			c0-0.7,0.6-1.2,1.3-1.2c0.4,0,0.8,0.1,1.2,0.5v0.6H81c-0.2-0.4-0.5-0.6-0.8-0.6c-0.4,0-0.8,0.3-0.8,0.7c0,0.4,0.3,0.6,0.9,0.8
			c0.8,0.2,1.2,0.6,1.2,1.2c0,0.7-0.5,1.3-1.4,1.3c-0.5,0-1-0.2-1.4-0.5v-0.6H79.1z"/>
		<path fill="#FFFFFF" d="M84.5,235.1l0.7,3.5h0.1l0.7-3.5h0.6l0.7,3.5h0.1l0.7-3.5h0.7l-1.2,4.1h-0.6l-0.7-3.2h-0.1l-0.7,3.2H85
			l-1.1-4.1H84.5z"/>
		<path fill="#FFFFFF" d="M90.1,233.5v2l0.1,0c0.2-0.3,0.5-0.5,0.9-0.5c0.7,0,1.1,0.5,1.1,1.4v2.8h-0.6v-2.6c0-0.8-0.1-1.2-0.7-1.2
			c-0.3,0-0.6,0.1-0.8,0.4v3.3h-0.6v-5.8H90.1z"/>
		<path fill="#FFFFFF" d="M96.1,237.2c0,1.4-0.6,2.2-1.5,2.2c-0.9,0-1.5-0.8-1.5-2.2c0-1.3,0.6-2.2,1.5-2.2
			C95.6,235,96.1,235.8,96.1,237.2z M93.7,237.1c0,1.2,0.3,1.8,0.9,1.8c0.6,0,0.9-0.6,0.9-1.7c0-1.1-0.4-1.7-0.9-1.7
			S93.7,236.1,93.7,237.1z"/>
		<path fill="#FFFFFF" d="M99.1,238.3c0.2,0.4,0.5,0.6,1,0.6c0.5,0,0.8-0.3,0.8-0.7c0-0.6-0.5-0.6-1.3-0.9c-0.5-0.2-0.8-0.6-0.8-1.1
			c0-0.7,0.5-1.2,1.3-1.2c0.4,0,0.8,0.1,1.2,0.5v0.6h-0.4c-0.2-0.4-0.5-0.6-0.8-0.6c-0.4,0-0.8,0.3-0.8,0.7c0,0.4,0.3,0.6,0.9,0.8
			c0.8,0.2,1.2,0.6,1.2,1.2c0,0.7-0.5,1.3-1.4,1.3c-0.5,0-1-0.2-1.4-0.5v-0.6H99.1z"/>
		<path fill="#FFFFFF" d="M104,235.1v0.5H103v2.6c0,0.6,0,0.6,0.5,0.6h0.4v0.5h-0.6c-0.8,0-0.9-0.3-0.9-1.3v-2.4H102v-0.5h0.5v-1.3
			h0.6v1.3H104z"/>
		<path fill="#FFFFFF" d="M105.1,237.4v0.1c0,0.9,0.4,1.4,1,1.4c0.4,0,0.8-0.2,0.9-0.5h0.4v0.5c-0.4,0.4-0.8,0.5-1.4,0.5
			c-1.1,0-1.6-0.7-1.6-2.2c0-1.4,0.6-2.2,1.5-2.2c1,0,1.5,0.8,1.5,2.2v0.2H105.1z M106.9,236.9c0-0.9-0.4-1.4-0.9-1.4
			c-0.6,0-0.9,0.5-0.9,1.4H106.9z"/>
		<path fill="#FFFFFF" d="M111.2,239.2h-0.6v-0.3h-0.1c-0.3,0.3-0.6,0.5-1,0.5c-0.7,0-1.3-0.5-1.3-1.2c0-0.9,0.8-1.4,2.3-1.5
			c0-0.1,0-0.2,0-0.3c0-0.7-0.2-0.9-0.8-0.9c-0.4,0-0.7,0.2-0.9,0.6h-0.4v-0.6c0.4-0.2,0.8-0.4,1.3-0.4c0.5,0,0.9,0.2,1.2,0.5
			c0.2,0.3,0.2,0.6,0.2,1.3V239.2z M110.6,237c-1.2,0.1-1.7,0.5-1.7,1.1c0,0.4,0.3,0.7,0.8,0.7c0.3,0,0.6-0.1,0.9-0.4V237z"/>
		<path fill="#FFFFFF" d="M112.8,233.5v5.8h-0.6v-5.8H112.8z"/>
		<path fill="#FFFFFF" d="M115.4,235.6v-0.5h0.6c0-0.1,0-0.3,0-0.5c0-0.9,0.3-1.3,1.2-1.3c0.1,0,0.1,0,0.2,0v0.5h-0.1
			c-0.5,0-0.7,0.2-0.7,0.7v0.6h0.7v0.5h-0.7v3.6H116v-3.6H115.4z"/>
		<path fill="#FFFFFF" d="M118.7,235.1v0.3c0,0.1,0,0.3-0.1,0.4l0.1,0.1c0.2-0.5,0.8-0.8,1.3-0.8h0v0.7c-0.6,0-1,0.2-1.4,0.6v2.9
			h-0.6v-4.1H118.7z"/>
		<path fill="#FFFFFF" d="M123.8,237.2c0,1.4-0.6,2.2-1.5,2.2c-0.9,0-1.5-0.8-1.5-2.2c0-1.3,0.6-2.2,1.5-2.2
			C123.2,235,123.8,235.8,123.8,237.2z M121.3,237.1c0,1.2,0.3,1.8,0.9,1.8c0.6,0,0.9-0.6,0.9-1.7c0-1.1-0.4-1.7-0.9-1.7
			S121.3,236.1,121.3,237.1z"/>
		<path fill="#FFFFFF" d="M125.3,235.1v0.3l0.1,0c0.2-0.3,0.5-0.5,0.9-0.5c0.4,0,0.7,0.2,1,0.6c0.4-0.4,0.7-0.6,1.1-0.6
			c0.7,0,1.1,0.5,1.1,1.4v2.8h-0.6v-2.6c0-0.8-0.1-1.2-0.7-1.2c-0.3,0-0.6,0.1-0.7,0.4v3.3h-0.6v-2.4c0-0.9-0.1-1.3-0.6-1.3
			c-0.3,0-0.6,0.1-0.8,0.4v3.3h-0.6v-4.1H125.3z"/>
		<path fill="#FFFFFF" d="M133.8,235.1v0.5h-0.9v2.6c0,0.6,0,0.6,0.5,0.6h0.4v0.5h-0.6c-0.8,0-0.9-0.3-0.9-1.3v-2.4h-0.5v-0.5h0.5
			v-1.3h0.6v1.3H133.8z"/>
		<path fill="#FFFFFF" d="M135.2,233.5v2l0.1,0c0.2-0.3,0.5-0.5,0.9-0.5c0.7,0,1.1,0.5,1.1,1.4v2.8h-0.6v-2.6c0-0.8-0.1-1.2-0.7-1.2
			c-0.3,0-0.6,0.1-0.8,0.4v3.3h-0.6v-5.8H135.2z"/>
		<path fill="#FFFFFF" d="M138.7,237.4v0.1c0,0.9,0.4,1.4,1,1.4c0.4,0,0.8-0.2,0.9-0.5h0.4v0.5c-0.4,0.4-0.8,0.5-1.4,0.5
			c-1.1,0-1.6-0.7-1.6-2.2c0-1.4,0.6-2.2,1.5-2.2c1,0,1.5,0.8,1.5,2.2v0.2H138.7z M140.6,236.9c0-0.9-0.4-1.4-0.9-1.4
			c-0.6,0-0.9,0.5-0.9,1.4H140.6z"/>
		<path fill="#FFFFFF" d="M142.7,233.5v0.7h-0.6v-0.7H142.7z M142.7,235.1v4.1h-0.6v-4.1H142.7z"/>
		<path fill="#FFFFFF" d="M144.5,235.1v0.3c0,0.1,0,0.3-0.1,0.4l0.1,0.1c0.2-0.5,0.8-0.8,1.3-0.8h0v0.7c-0.6,0-1,0.2-1.4,0.6v2.9
			h-0.6v-4.1H144.5z"/>
		<path fill="#FFFFFF" d="M149.1,233.5v2.5c0,0.4,0,0.8-0.1,1.2l0.1,0l1.5-2.1h0.7l-1.4,1.8l1.3,2.3h-0.6l-0.7-1.3
			c-0.1-0.2-0.2-0.4-0.3-0.7l-0.1,0l-0.4,0.6v1.4h-0.6v-5.8H149.1z"/>
		<path fill="#FFFFFF" d="M152.6,233.5v0.7H152v-0.7H152.6z M152.6,235.1v4.1H152v-4.1H152.6z"/>
		<path fill="#FFFFFF" d="M155.9,238.9L155.9,238.9c-0.3,0.3-0.6,0.5-1,0.5c-0.8,0-1.3-0.8-1.3-2.2c0-1.3,0.5-2.2,1.3-2.2
			c0.4,0,0.6,0.2,0.9,0.5l0.1,0v-2h0.6v5.8h-0.6V238.9z M155.9,235.9c-0.3-0.3-0.5-0.4-0.8-0.4c-0.6,0-0.9,0.6-0.9,1.7
			c0,1.1,0.3,1.7,0.9,1.7c0.3,0,0.5-0.2,0.8-0.4V235.9z"/>
		<path fill="#FFFFFF" d="M157.3,235.5c0.4,0,0.5-0.2,0.5-0.6v-0.4h-0.4v-0.7h0.9v0.9c0,0.9-0.2,1.2-1,1.2V235.5z"/>
		<path fill="#FFFFFF" d="M159.4,238.3c0.2,0.4,0.5,0.6,1,0.6c0.5,0,0.8-0.3,0.8-0.7c0-0.6-0.5-0.6-1.3-0.9
			c-0.5-0.2-0.8-0.6-0.8-1.1c0-0.7,0.5-1.2,1.3-1.2c0.4,0,0.8,0.1,1.2,0.5v0.6h-0.4c-0.2-0.4-0.5-0.6-0.8-0.6
			c-0.4,0-0.8,0.3-0.8,0.7c0,0.4,0.3,0.6,0.9,0.8c0.8,0.2,1.2,0.6,1.2,1.2c0,0.7-0.5,1.3-1.4,1.3c-0.5,0-1-0.2-1.4-0.5v-0.6H159.4z"
			/>
		<path fill="#FFFFFF" d="M60.5,245.3v0.5h-0.9v2.6c0,0.6,0,0.6,0.5,0.6h0.4v0.5h-0.6c-0.8,0-0.9-0.3-0.9-1.3v-2.4h-0.5v-0.5H59V244
			h0.6v1.3H60.5z"/>
		<path fill="#FFFFFF" d="M61.9,245.3v0.3c0,0.1,0,0.3-0.1,0.4l0.1,0.1c0.2-0.5,0.8-0.8,1.3-0.8h0v0.7c-0.6,0-1,0.2-1.4,0.6v2.9
			h-0.6v-4.1H61.9z"/>
		<path fill="#FFFFFF" d="M64.5,247.5v0.1c0,0.9,0.4,1.4,1,1.4c0.4,0,0.8-0.2,0.9-0.5h0.4v0.5c-0.4,0.4-0.8,0.5-1.4,0.5
			c-1.1,0-1.6-0.7-1.6-2.2c0-1.4,0.6-2.2,1.5-2.2c1,0,1.5,0.8,1.5,2.2v0.2H64.5z M66.3,247.1c0-0.9-0.4-1.4-0.9-1.4
			c-0.6,0-0.9,0.5-0.9,1.4H66.3z"/>
		<path fill="#FFFFFF" d="M70.5,249.4h-0.6V249h-0.1c-0.3,0.3-0.6,0.5-1,0.5c-0.7,0-1.3-0.5-1.3-1.2c0-0.9,0.8-1.4,2.3-1.5
			c0-0.1,0-0.2,0-0.3c0-0.7-0.2-0.9-0.8-0.9c-0.4,0-0.7,0.2-0.9,0.6h-0.4v-0.6c0.4-0.2,0.8-0.4,1.3-0.4c0.5,0,0.9,0.2,1.2,0.5
			c0.2,0.3,0.2,0.6,0.2,1.3V249.4z M69.9,247.2c-1.2,0.1-1.7,0.5-1.7,1.1c0,0.4,0.3,0.7,0.8,0.7c0.3,0,0.6-0.1,0.9-0.4V247.2z"/>
		<path fill="#FFFFFF" d="M73.2,245.3v0.5h-0.9v2.6c0,0.6,0,0.6,0.5,0.6h0.4v0.5h-0.6c-0.8,0-0.9-0.3-0.9-1.3v-2.4h-0.5v-0.5h0.5
			V244h0.6v1.3H73.2z"/>
		<path fill="#FFFFFF" d="M76.3,243.6v2l0.1,0c0.2-0.3,0.5-0.5,0.9-0.5c0.7,0,1.3,0.8,1.3,2.2c0,1.4-0.5,2.2-1.3,2.2
			c-0.4,0-0.7-0.2-0.9-0.5l-0.1,0v0.4h-0.6v-5.8H76.3z M76.3,248.6c0.3,0.3,0.5,0.4,0.8,0.4c0.6,0,0.9-0.6,0.9-1.7
			c0-1.1-0.3-1.7-0.9-1.7c-0.3,0-0.5,0.1-0.8,0.4V248.6z"/>
		<path fill="#FFFFFF" d="M82.3,249.4h-0.6V249h-0.1c-0.3,0.3-0.6,0.5-1,0.5c-0.7,0-1.3-0.5-1.3-1.2c0-0.9,0.8-1.4,2.3-1.5
			c0-0.1,0-0.2,0-0.3c0-0.7-0.2-0.9-0.8-0.9c-0.4,0-0.7,0.2-0.9,0.6h-0.4v-0.6c0.4-0.2,0.8-0.4,1.3-0.4c0.5,0,0.9,0.2,1.2,0.5
			c0.2,0.3,0.2,0.6,0.2,1.3V249.4z M81.7,247.2c-1.2,0.1-1.7,0.5-1.7,1.1c0,0.4,0.3,0.7,0.8,0.7c0.3,0,0.6-0.1,0.9-0.4V247.2z"/>
		<path fill="#FFFFFF" d="M86.1,249.2c0,1-0.5,1.5-1.4,1.5c-0.5,0-0.9-0.1-1.3-0.4v-0.7h0.4c0.2,0.4,0.4,0.5,0.9,0.5
			c0.7,0,0.8-0.4,0.8-1.3v-0.3l-0.1,0c-0.2,0.3-0.5,0.5-0.9,0.5c-0.8,0-1.3-0.7-1.3-1.9c0-1.3,0.5-2,1.3-2c0.4,0,0.7,0.2,0.9,0.5
			l0.1,0v-0.4h0.6V249.2z M85.5,246.1c-0.3-0.3-0.5-0.4-0.8-0.4c-0.6,0-0.9,0.5-0.9,1.4c0,1,0.3,1.5,0.9,1.5c0.3,0,0.6-0.1,0.8-0.4
			V246.1z"/>
		<path fill="#FFFFFF" d="M87.3,248.4c0.2,0.4,0.5,0.6,1,0.6c0.5,0,0.8-0.3,0.8-0.7c0-0.6-0.5-0.6-1.3-0.9c-0.5-0.2-0.8-0.6-0.8-1.1
			c0-0.7,0.6-1.2,1.3-1.2c0.4,0,0.8,0.1,1.2,0.5v0.6h-0.4c-0.2-0.4-0.5-0.6-0.8-0.6c-0.4,0-0.8,0.3-0.8,0.7c0,0.4,0.3,0.6,0.9,0.8
			c0.8,0.2,1.2,0.6,1.2,1.2c0,0.7-0.5,1.3-1.4,1.3c-0.5,0-1-0.2-1.4-0.5v-0.6H87.3z"/>
	</g>
</g>
<circle fill="none" stroke="#FCEE23" stroke-width="1.2706" stroke-miterlimit="10" cx="29.2" cy="33.1" r="26.2"/>
<path fill="#8B5E3C" stroke="#130F0D" stroke-miterlimit="10" d="M55.9,51.6H4.1V26.8c0-7.6,6.2-13.7,13.7-13.7h24.3
	c7.6,0,13.7,6.2,13.7,13.7V51.6z"/>
<path fill="#FBB041" d="M54.5,29.8c0-1.1-5.8-2.5-6.8-2.7c-3.5-0.8-7.3-0.7-10.7,0.3c-3,0.9-6,2.5-9.2,2.3c-2.3-0.2-4.4-1.4-6.5-2.1
	c-4-1.4-7.8-1.1-11.9-0.2c-1.2,0.3-6.6,1.1-6.6,2.5V25c0-6.5,6.2-11.8,13.7-11.8h24.3c7.6,0,13.7,5.3,13.7,11.8
	C54.5,25,54.5,29.8,54.5,29.8z"/>
<path fill="#F1F2F2" d="M14.3,26.6c1,1,2.6,1.4,2.1,3.3c-0.2,0.9-0.4,3.2-1.3,3.7c-0.7,0.5-2.4-2.2-3.1-2.3
	c-1.9-0.2-2.9,0.2-3.8-1.4c-0.6-1.1-0.5-2.6,0.7-4C10.9,23.6,12.7,25.1,14.3,26.6z"/>
<path fill="#F1F2F2" d="M45.4,31.1c-1.3,1.1-2.9,0.4-4.6,0c-0.8-0.2-1.7,1-2,0.2c-0.2-0.7,0-1.5,0.2-2.2c0.8-1.9,2.2-3.5,4.1-4.5
	c1.3-0.7,1.7,2.6,3.2,3.1C48.2,28.3,47.4,29.4,45.4,31.1z"/>
<path fill="#F1F2F2" d="M28.9,30.9c-0.5-1.5-2.9,1.8-4.6,1.5c-0.8-0.2-1.5,0.7-1.8-0.1c-0.2-0.7,0-1.4,0.2-2.1
	c0.7-1.8,2.6-2.4,4.3-3.3c1.3-0.7,2.2-1.7,3.2-0.6C32,28.1,29.5,32.7,28.9,30.9z"/>
<path fill="#F1F2F2" d="M19.6,40.9c-1.3-0.3-2.9,0.2-3.5-1.1c-0.3-0.6-0.3-1.4,0.1-1.9c0.3-0.5,1.5,0.4,2.1,0.2
	c1.6-0.4,2.9-1.4,4.4-0.7c1.1,0.5,0.7,0.6,0.5,1.8C22.9,41.2,21.7,41.3,19.6,40.9z"/>
<path fill="none" stroke="#603A17" stroke-width="3.8118" stroke-miterlimit="10" d="M54.9,50.1H3.1V25.3c0-7.6,6.2-13.7,13.7-13.7
	h24.3c7.6,0,13.7,6.2,13.7,13.7V50.1z"/>
<circle fill="none" stroke="#FCEE23" stroke-width="1.2706" stroke-miterlimit="10" cx="29.2" cy="96.5" r="26.2"/>
<ellipse transform="matrix(0.2041 -0.979 0.979 0.2041 -61.8474 94.9901)" fill="#911A1D" cx="27.5" cy="85.5" rx="10" ry="14.5"/>
<g>
	<path fill="#FFFFFF" d="M24.7,79.7l1.3,0.5L25.7,81c0.7-0.4,1.4-0.4,2.1-0.2c0.4,0.1,0.6,0.3,0.8,0.6c0.2,0.3,0.3,0.6,0.4,0.9
		c0.4-0.2,0.7-0.3,1-0.3c0.3,0,0.7,0,1,0.1c0.4,0.2,0.7,0.4,0.9,0.7c0.2,0.3,0.3,0.6,0.3,1c0,0.3-0.1,0.7-0.3,1.2l-1.4,3.5l-1.5-0.6
		l1.3-3.1c0.2-0.5,0.3-0.9,0.3-1.1c-0.1-0.3-0.2-0.4-0.5-0.6c-0.2-0.1-0.4-0.1-0.7,0c-0.2,0.1-0.4,0.2-0.6,0.4
		c-0.2,0.2-0.4,0.6-0.6,1.1l-1.1,2.6l-1.5-0.6l1.2-3c0.2-0.5,0.3-0.9,0.3-1.1c0-0.2,0-0.3-0.1-0.4c-0.1-0.1-0.2-0.2-0.4-0.3
		c-0.2-0.1-0.5-0.1-0.7-0.1c-0.2,0-0.4,0.2-0.6,0.4s-0.4,0.6-0.6,1.1l-1.1,2.7l-1.5-0.6L24.7,79.7z"/>
</g>
<ellipse transform="matrix(0.9797 -0.2002 0.2002 0.9797 -19.9433 5.2441)" fill="#F15B2B" cx="16" cy="101.2" rx="16.6" ry="11.4"/>
<g>
	<path fill="#FFFFFF" d="M11.9,99.4l1.6-0.3l0.2,0.9c0.4-0.8,1.1-1.3,1.9-1.5c0.4-0.1,0.8-0.1,1.2,0.1c0.3,0.1,0.7,0.3,0.9,0.7
		c0.2-0.4,0.5-0.7,0.8-1c0.3-0.2,0.7-0.4,1-0.5c0.5-0.1,0.9-0.1,1.3,0.1s0.7,0.4,0.9,0.7c0.2,0.3,0.3,0.7,0.4,1.3l0.8,4.3l-1.8,0.3
		l-0.7-3.8c-0.1-0.7-0.3-1.1-0.4-1.2c-0.2-0.2-0.5-0.3-0.8-0.2c-0.2,0-0.5,0.2-0.7,0.4c-0.2,0.2-0.3,0.4-0.3,0.8
		c0,0.3,0,0.8,0.1,1.4L19,105l-1.8,0.3l-0.7-3.7c-0.1-0.7-0.2-1.1-0.3-1.2c-0.1-0.2-0.2-0.3-0.4-0.4c-0.1-0.1-0.3-0.1-0.6,0
		c-0.3,0.1-0.5,0.2-0.7,0.4c-0.2,0.2-0.3,0.4-0.3,0.7s0,0.8,0.1,1.4l0.6,3.2l-1.8,0.3L11.9,99.4z"/>
</g>
<ellipse transform="matrix(0.8266 -0.5628 0.5628 0.8266 -46.0899 42.2927)" fill="#FCEE23" cx="45.6" cy="95.9" rx="16.1" ry="10.9"/>
<g>
	<path fill="#FFFFFF" d="M40.9,94.3l1.3-0.2l0.1,0.7c0.4-0.6,0.8-1,1.5-1.1c0.3-0.1,0.6-0.1,0.9,0c0.3,0.1,0.5,0.3,0.7,0.5
		c0.2-0.3,0.4-0.6,0.6-0.8c0.2-0.2,0.5-0.3,0.8-0.4c0.4-0.1,0.7-0.1,1,0c0.3,0.1,0.5,0.3,0.7,0.6c0.1,0.2,0.3,0.6,0.4,1.1l0.6,3.4
		l-1.4,0.3l-0.6-3c-0.1-0.5-0.2-0.8-0.3-1c-0.2-0.2-0.4-0.2-0.7-0.2c-0.2,0-0.4,0.1-0.5,0.3c-0.1,0.2-0.2,0.3-0.3,0.6
		c0,0.2,0,0.6,0.1,1.1l0.5,2.5L45,99l-0.6-2.9c-0.1-0.5-0.2-0.8-0.3-1c-0.1-0.1-0.2-0.2-0.3-0.3c-0.1-0.1-0.3-0.1-0.4,0
		c-0.2,0-0.4,0.1-0.5,0.3c-0.1,0.1-0.2,0.3-0.3,0.6c0,0.2,0,0.6,0.1,1.1l0.5,2.6l-1.4,0.3L40.9,94.3z"/>
</g>
<circle fill="none" stroke="#FCEE23" stroke-width="1.2706" stroke-miterlimit="10" cx="28.2" cy="161.8" r="26.2"/>
<ellipse transform="matrix(0.2041 -0.979 0.979 0.2041 -134.0081 143.9386)" fill="#00AEEF" cx="21.5" cy="154.4" rx="10.2" ry="14.8"/>
<g>
	<path fill="#FFFFFF" stroke="#FFFFFF" stroke-width="0.3156" stroke-miterlimit="10" d="M19,154.2c-0.1,0.4-0.2,0.7-0.1,0.9
		c0.1,0.4,0.5,0.8,1.1,1.1c0.4,0.2,0.7,0.3,1,0.3c0.5,0.1,0.9-0.1,1.1-0.5c0.1-0.2,0.1-0.5,0-0.7c-0.2-0.2-0.4-0.5-0.9-0.9l-0.7-0.6
		c-0.7-0.6-1.2-1.1-1.4-1.4c-0.3-0.6-0.3-1.3,0.1-2c0.3-0.7,0.9-1.1,1.6-1.3c0.7-0.2,1.6,0,2.5,0.4c0.8,0.4,1.4,1,1.7,1.7
		c0.4,0.7,0.3,1.5,0,2.3l-1.5-0.8c0.2-0.5,0.2-0.9-0.1-1.3c-0.2-0.3-0.5-0.5-0.8-0.7c-0.4-0.2-0.8-0.3-1.1-0.3
		c-0.3,0-0.6,0.2-0.7,0.5c-0.1,0.3-0.1,0.5,0.1,0.8c0.1,0.2,0.4,0.4,0.8,0.8l1.2,1c0.5,0.4,0.9,0.8,1,1.2c0.3,0.6,0.2,1.2-0.1,1.9
		c-0.3,0.7-0.9,1.1-1.7,1.3c-0.8,0.2-1.6,0-2.6-0.5c-1-0.5-1.7-1.1-2-1.9c-0.3-0.7-0.3-1.5,0.1-2.3L19,154.2z"/>
</g>
<ellipse transform="matrix(0.9358 -0.3526 0.3526 0.9358 -58.3988 17.4564)" fill="#EC2227" cx="18.7" cy="169" rx="17" ry="11.7"/>
<g>
	<path fill="#FFFFFF" stroke="#FFFFFF" stroke-width="0.3156" stroke-miterlimit="10" d="M15.3,171.8c0.1,0.4,0.3,0.8,0.5,1
		c0.4,0.4,1,0.5,1.9,0.4c0.5-0.1,0.9-0.2,1.2-0.3c0.6-0.3,0.8-0.7,0.7-1.3c0-0.3-0.2-0.6-0.5-0.7c-0.3-0.1-0.8-0.2-1.5-0.3l-1.1-0.1
		c-1.1-0.1-1.9-0.2-2.3-0.5c-0.7-0.4-1.2-1-1.3-2c-0.1-0.9,0.1-1.7,0.7-2.4c0.6-0.7,1.5-1.1,2.8-1.3c1.1-0.1,2,0,2.8,0.5
		c0.8,0.5,1.3,1.2,1.5,2.3l-2,0.3c-0.1-0.6-0.4-1-1-1.2c-0.4-0.1-0.8-0.1-1.3-0.1c-0.5,0.1-1,0.2-1.3,0.5c-0.3,0.3-0.4,0.6-0.4,1
		c0,0.4,0.2,0.6,0.6,0.7c0.2,0.1,0.7,0.2,1.4,0.2l1.8,0.2c0.8,0.1,1.4,0.2,1.8,0.5c0.7,0.4,1.1,1,1.2,1.9c0.1,0.9-0.1,1.7-0.7,2.4
		c-0.6,0.7-1.6,1.1-2.9,1.3c-1.3,0.2-2.4,0-3.2-0.5c-0.8-0.5-1.3-1.3-1.5-2.3L15.3,171.8z"/>
</g>
<ellipse transform="matrix(0.8266 -0.5628 0.5628 0.8266 -84.8253 51.8053)" fill="#FCEE23" cx="41.7" cy="163.6" rx="13.4" ry="9.2"/>
<g>
	<path fill="#FFFFFF" stroke="#FFFFFF" stroke-width="0.3156" stroke-miterlimit="10" d="M41.7,160.1c-0.2-0.3-0.4-0.6-0.6-0.7
		c-0.4-0.2-0.9-0.2-1.6,0c-0.4,0.1-0.7,0.3-0.9,0.5c-0.4,0.3-0.5,0.7-0.4,1.2c0.1,0.3,0.3,0.4,0.6,0.5c0.3,0.1,0.7,0.1,1.2,0
		l0.9-0.1c0.9-0.1,1.6-0.1,2,0c0.7,0.2,1.1,0.7,1.4,1.4c0.3,0.7,0.2,1.4-0.2,2.1c-0.4,0.7-1,1.2-2.1,1.5c-0.8,0.3-1.6,0.3-2.4,0.1
		c-0.8-0.2-1.3-0.8-1.6-1.6l1.6-0.6c0.2,0.5,0.5,0.7,1,0.8c0.3,0,0.7,0,1.1-0.2c0.4-0.2,0.8-0.4,1-0.6c0.2-0.3,0.2-0.6,0.1-0.9
		c-0.1-0.3-0.3-0.5-0.6-0.5c-0.2,0-0.6,0-1.2,0l-1.5,0.2c-0.7,0.1-1.2,0-1.6-0.1c-0.6-0.2-1-0.7-1.3-1.4c-0.3-0.7-0.2-1.4,0.2-2.1
		c0.4-0.7,1.1-1.2,2.1-1.6c1-0.4,2-0.4,2.7-0.2c0.8,0.3,1.3,0.8,1.6,1.6L41.7,160.1z"/>
</g>
<circle fill="none" stroke="#FCEE23" stroke-width="1.2706" stroke-miterlimit="10" cx="28.2" cy="233.2" r="26.2"/>
<polygon fill="#603A17" stroke="#080908" stroke-width="0.5" stroke-miterlimit="10" points="8.7,225.6 10.8,224.1 26.2,229.2 
	26.9,231.7 25.2,240.8 1,235.6 "/>
<polygon fill="#8B5E3C" points="5,232.5 11.6,224.1 27,229.2 25.6,237 "/>
<polygon fill="#603A17" stroke="#080908" stroke-width="0.5" stroke-miterlimit="10" points="30.1,231.4 32.7,230.9 43.8,242.7 
	43.3,245.3 37.5,252.5 18.6,236.5 "/>
<polygon fill="#8B5E3C" points="22.8,235.3 32.7,230.9 43.8,242.7 38.9,248.9 "/>
<polygon fill="#261810" stroke="#020202" stroke-width="0.5" stroke-miterlimit="10" points="58.6,231.1 57.5,228.3 39.4,224.4 
	37.3,226.4 33.7,236.3 60.3,245.3 "/>
<polygon fill="#3C2517" stroke="#050606" stroke-width="0.5" stroke-miterlimit="10" points="59,240.5 57.5,228.3 39.4,224.4 
	36.3,232.8 "/>
<polygon fill="#261810" stroke="#020202" stroke-width="0.5" stroke-miterlimit="10" points="24.1,218.3 26.1,216.6 41.7,221.1 
	42.5,223.6 41.3,232.7 16.9,228.6 "/>
<polygon fill="#3C2517" stroke="#020202" stroke-width="0.5" stroke-miterlimit="10" points="19.9,225.4 26.1,216.6 41.7,221.1 
	40.6,228.9 "/>
<path fill="#F1F2F2" d="M37.1,41.1c-0.7,0.5-3.2,1.8-3.5-0.1c-0.2-1.6-1.7-1.3-2.2-2.1c-0.4-0.7-0.6-1.3-0.6-1.9
	c0-1.5,0.7-2.4,1.9-2.6c0.9-0.1,2.1,0.4,3.4,1.8C38.4,38.5,38.2,40.3,37.1,41.1z"/>
<g>
</g>
<g>
</g>
<g>
</g>
<g>
</g>
<g>
</g>
<g>
</g>
</svg>
