<?xml version="1.0" encoding="utf-8"?>
<!-- Generator: Adobe Illustrator 19.2.1, SVG Export Plug-In . SVG Version: 6.00 Build 0)  -->
<svg version="1.1" id="Layer_1" xmlns="http://www.w3.org/2000/svg" xmlns:xlink="http://www.w3.org/1999/xlink" x="0px" y="0px"
	 width="172.8px" height="266.4px" viewBox="0 0 172.8 266.4" style="enable-background:new 0 0 172.8 266.4;" xml:space="preserve"
	>
<style type="text/css">
	.st0{fill:#3A2417;}
	.st1{fill:none;}
	.st2{fill:#FFFFFF;}
	.st3{fill:none;stroke:#FCEE23;stroke-width:1.2706;stroke-miterlimit:10;}
	.st4{fill:#FCEE23;}
	.st5{fill:#EF4237;}
	.st6{fill:#603A17;}
	.st7{fill:#3B2717;stroke:#392515;stroke-miterlimit:10;}
	.st8{fill:#FFFFFF;stroke:#050505;stroke-width:0.5;stroke-miterlimit:10;}
	.st9{fill:#BE202E;stroke:#050505;stroke-width:0.5;stroke-miterlimit:10;}
	.st10{fill:#261810;stroke:#050505;stroke-width:0.5;stroke-miterlimit:10;}
	.st11{fill:#FFFFFF;stroke:#000000;stroke-width:0.5;stroke-miterlimit:10;}
	.st12{fill:#BE202E;}
	.st13{fill:#FFFFFF;stroke:#0D0D0D;stroke-width:0.5;stroke-miterlimit:10;}
	.st14{fill:#261810;stroke:#000000;stroke-width:0.5;stroke-miterlimit:10;}
	.st15{fill:#FFFFFF;stroke:#020202;stroke-width:0.5;stroke-miterlimit:10;}
	.st16{fill:#BE202E;stroke:#020202;stroke-width:0.5;stroke-miterlimit:10;}
	.st17{fill:#261810;stroke:#020202;stroke-width:0.5;stroke-miterlimit:10;}
	.st18{fill:#168443;}
	.st19{fill:#F15B2B;}
</style>
<rect class="st0" width="172.8" height="266.4"/>
<g>
	<rect x="61.3" y="16.7" class="st1" width="118.5" height="43.4"/>
	<path class="st2" d="M62.1,21.4c0.2,0.5,0.6,0.7,1.1,0.7c0.7,0,1.1-0.4,1.1-1c0-0.7-0.5-0.9-1.4-1.3c-0.8-0.4-1.2-0.8-1.2-1.6
		c0-0.8,0.6-1.4,1.5-1.4c0.6,0,1,0.1,1.5,0.5v0.7h-0.4c-0.2-0.5-0.6-0.7-1-0.7c-0.6,0-1,0.4-1,0.9c0,0.5,0.3,0.8,0.9,1
		c0.5,0.2,1,0.4,1.3,0.7c0.3,0.3,0.5,0.7,0.5,1.1c0,0.9-0.7,1.5-1.9,1.5c-0.5,0-0.9-0.1-1.4-0.4v-0.8H62.1z"/>
	<path class="st2" d="M68.6,20.4c0,1.4-0.6,2.2-1.5,2.2c-0.9,0-1.5-0.8-1.5-2.2c0-1.3,0.6-2.2,1.5-2.2C68,18.2,68.6,19,68.6,20.4z
		 M66.2,20.3c0,1.2,0.3,1.8,0.9,1.8c0.6,0,0.9-0.6,0.9-1.7c0-1.1-0.4-1.7-0.9-1.7S66.2,19.3,66.2,20.3z"/>
	<path class="st2" d="M70.1,18.3v0.3l0.1,0c0.2-0.3,0.5-0.5,0.9-0.5c0.4,0,0.7,0.2,1,0.6c0.4-0.4,0.7-0.6,1.1-0.6
		c0.7,0,1.1,0.5,1.1,1.4v2.8h-0.6v-2.6c0-0.8-0.1-1.2-0.7-1.2c-0.3,0-0.6,0.1-0.7,0.4v3.3h-0.6V20c0-0.9-0.1-1.3-0.6-1.3
		c-0.3,0-0.6,0.1-0.8,0.4v3.3h-0.6v-4.1H70.1z"/>
	<path class="st2" d="M75.6,20.6v0.1c0,0.9,0.4,1.4,1,1.4c0.4,0,0.8-0.2,0.9-0.5H78v0.5c-0.4,0.4-0.8,0.5-1.4,0.5
		c-1.1,0-1.6-0.7-1.6-2.2c0-1.4,0.6-2.2,1.5-2.2c1,0,1.5,0.8,1.5,2.2v0.2H75.6z M77.4,20.1c0-0.9-0.4-1.4-0.9-1.4
		c-0.6,0-0.9,0.5-0.9,1.4H77.4z"/>
	<path class="st2" d="M81,21.5c0.2,0.4,0.5,0.6,1,0.6c0.5,0,0.8-0.3,0.8-0.7c0-0.6-0.5-0.6-1.3-0.9c-0.5-0.2-0.8-0.6-0.8-1.1
		c0-0.7,0.6-1.2,1.3-1.2c0.4,0,0.8,0.1,1.2,0.5v0.6h-0.4c-0.2-0.4-0.5-0.6-0.8-0.6c-0.4,0-0.8,0.3-0.8,0.7c0,0.4,0.3,0.6,0.9,0.8
		c0.8,0.2,1.2,0.6,1.2,1.2c0,0.7-0.5,1.3-1.4,1.3c-0.5,0-1-0.2-1.4-0.5v-0.6H81z"/>
	<path class="st2" d="M86.9,22.4h-0.6v-0.3h-0.1c-0.3,0.3-0.6,0.5-1,0.5c-0.7,0-1.3-0.5-1.3-1.2c0-0.9,0.8-1.4,2.3-1.5
		c0-0.1,0-0.2,0-0.3c0-0.7-0.2-0.9-0.8-0.9c-0.4,0-0.7,0.2-0.9,0.6h-0.4v-0.6c0.4-0.2,0.8-0.4,1.3-0.4c0.5,0,0.9,0.2,1.2,0.5
		c0.2,0.3,0.2,0.6,0.2,1.3V22.4z M86.3,20.2c-1.2,0.1-1.7,0.5-1.7,1.1c0,0.4,0.3,0.7,0.8,0.7c0.3,0,0.6-0.1,0.9-0.4V20.2z"/>
	<path class="st2" d="M88.3,18.3l0.8,3.4h0.1l0.7-3.4h0.7l-1.2,4c-0.3,1-0.7,1.5-1.6,1.5c-0.1,0-0.1,0-0.2,0v-0.5c0.1,0,0.1,0,0.2,0
		c0.6,0,0.8-0.3,1-1l-1.2-3.9H88.3z"/>
	<path class="st2" d="M95.2,19.3c-0.1-0.4-0.4-0.6-0.7-0.6c-0.5,0-0.9,0.6-0.9,1.7c0,1.1,0.3,1.7,0.9,1.7c0.3,0,0.6-0.2,0.7-0.6h0.4
		v0.6c-0.3,0.4-0.7,0.5-1.1,0.5c-0.9,0-1.5-0.8-1.5-2.2c0-1.4,0.6-2.2,1.5-2.2c0.4,0,0.8,0.2,1.1,0.5v0.6H95.2z"/>
	<path class="st2" d="M99.2,22.4h-0.6v-0.3h-0.1c-0.3,0.3-0.6,0.5-1,0.5c-0.7,0-1.3-0.5-1.3-1.2c0-0.9,0.8-1.4,2.3-1.5
		c0-0.1,0-0.2,0-0.3c0-0.7-0.2-0.9-0.8-0.9c-0.4,0-0.7,0.2-0.9,0.6h-0.4v-0.6c0.4-0.2,0.8-0.4,1.3-0.4c0.5,0,0.9,0.2,1.2,0.5
		c0.2,0.3,0.2,0.6,0.2,1.3V22.4z M98.6,20.2c-1.2,0.1-1.7,0.5-1.7,1.1c0,0.4,0.3,0.7,0.8,0.7c0.3,0,0.6-0.1,0.9-0.4V20.2z"/>
	<path class="st2" d="M100.8,18.3v0.3l0.1,0c0.2-0.3,0.5-0.5,0.9-0.5c0.8,0,1.1,0.5,1.1,1.4v2.8h-0.6v-2.6c0-0.8-0.1-1.2-0.7-1.2
		c-0.3,0-0.6,0.1-0.8,0.4v3.3h-0.6v-4.1H100.8z"/>
	<path class="st2" d="M106.1,22.1L106.1,22.1c-0.3,0.3-0.6,0.5-1,0.5c-0.8,0-1.3-0.8-1.3-2.2c0-1.3,0.5-2.2,1.3-2.2
		c0.4,0,0.6,0.2,0.9,0.5l0.1,0v-2h0.6v5.8h-0.6V22.1z M106.1,19.2c-0.3-0.3-0.5-0.4-0.8-0.4c-0.6,0-0.9,0.6-0.9,1.7
		c0,1.1,0.3,1.7,0.9,1.7c0.3,0,0.5-0.2,0.8-0.4V19.2z"/>
	<path class="st2" d="M108.1,18.3l0.8,3.4h0.1l0.7-3.4h0.7l-1.2,4c-0.3,1-0.7,1.5-1.6,1.5c-0.1,0-0.1,0-0.2,0v-0.5
		c0.1,0,0.1,0,0.2,0c0.6,0,0.8-0.3,1-1l-1.2-3.9H108.1z"/>
	<path class="st2" d="M115,19.3c-0.1-0.4-0.4-0.6-0.7-0.6c-0.5,0-0.9,0.6-0.9,1.7c0,1.1,0.3,1.7,0.9,1.7c0.3,0,0.6-0.2,0.7-0.6h0.4
		v0.6c-0.3,0.4-0.7,0.5-1.1,0.5c-0.9,0-1.5-0.8-1.5-2.2c0-1.4,0.6-2.2,1.5-2.2c0.4,0,0.8,0.2,1.1,0.5v0.6H115z"/>
	<path class="st2" d="M119.2,20.4c0,1.4-0.6,2.2-1.5,2.2c-0.9,0-1.5-0.8-1.5-2.2c0-1.3,0.6-2.2,1.5-2.2
		C118.6,18.2,119.2,19,119.2,20.4z M116.7,20.3c0,1.2,0.3,1.8,0.9,1.8c0.6,0,0.9-0.6,0.9-1.7c0-1.1-0.4-1.7-0.9-1.7
		S116.7,19.3,116.7,20.3z"/>
	<path class="st2" d="M120.7,18.3v0.3c0,0.1,0,0.3-0.1,0.4l0.1,0.1c0.2-0.5,0.8-0.8,1.3-0.8h0V19c-0.6,0-1,0.2-1.4,0.6v2.9h-0.6
		v-4.1H120.7z"/>
	<path class="st2" d="M123.5,18.3v0.3l0.1,0c0.2-0.3,0.5-0.5,0.9-0.5c0.8,0,1.1,0.5,1.1,1.4v2.8H125v-2.6c0-0.8-0.1-1.2-0.7-1.2
		c-0.3,0-0.6,0.1-0.8,0.4v3.3h-0.6v-4.1H123.5z"/>
	<path class="st2" d="M129.2,16.7v0.7h-0.6v-0.7H129.2z M129.1,18.3v4.1h-0.6v-4.1H129.1z"/>
	<path class="st2" d="M130.5,21.5c0.2,0.4,0.5,0.6,1,0.6c0.5,0,0.8-0.3,0.8-0.7c0-0.6-0.5-0.6-1.3-0.9c-0.5-0.2-0.8-0.6-0.8-1.1
		c0-0.7,0.6-1.2,1.3-1.2c0.4,0,0.8,0.1,1.2,0.5v0.6h-0.4c-0.2-0.4-0.5-0.6-0.8-0.6c-0.4,0-0.8,0.3-0.8,0.7c0,0.4,0.3,0.6,0.9,0.8
		c0.8,0.2,1.2,0.6,1.2,1.2c0,0.7-0.5,1.3-1.4,1.3c-0.5,0-1-0.2-1.4-0.5v-0.6H130.5z"/>
	<path class="st2" d="M137.2,18.3v0.5h-0.9v2.6c0,0.6,0,0.6,0.5,0.6h0.4v0.5h-0.6c-0.8,0-0.9-0.3-0.9-1.3v-2.4h-0.5v-0.5h0.5V17h0.6
		v1.3H137.2z"/>
	<path class="st2" d="M138.5,16.7v2l0.1,0c0.2-0.3,0.5-0.5,0.9-0.5c0.7,0,1.1,0.5,1.1,1.4v2.8h-0.6v-2.6c0-0.8-0.1-1.2-0.7-1.2
		c-0.3,0-0.6,0.1-0.8,0.4v3.3H138v-5.8H138.5z"/>
	<path class="st2" d="M142.1,20.6v0.1c0,0.9,0.4,1.4,1,1.4c0.4,0,0.8-0.2,0.9-0.5h0.4v0.5c-0.4,0.4-0.8,0.5-1.4,0.5
		c-1.1,0-1.6-0.7-1.6-2.2c0-1.4,0.6-2.2,1.5-2.2c1,0,1.5,0.8,1.5,2.2v0.2H142.1z M143.9,20.1c0-0.9-0.4-1.4-0.9-1.4
		c-0.6,0-0.9,0.5-0.9,1.4H143.9z"/>
	<path class="st2" d="M147.9,18.3v0.3l0.1,0c0.2-0.3,0.5-0.5,0.9-0.5c0.4,0,0.7,0.2,1,0.6c0.4-0.4,0.7-0.6,1-0.6
		c0.7,0,1.1,0.5,1.1,1.4v2.8h-0.6v-2.6c0-0.8-0.1-1.2-0.7-1.2c-0.3,0-0.5,0.1-0.7,0.4v3.3h-0.6V20c0-0.9-0.1-1.3-0.6-1.3
		c-0.3,0-0.5,0.1-0.8,0.4v3.3h-0.6v-4.1H147.9z"/>
	<path class="st2" d="M155.8,20.4c0,1.4-0.6,2.2-1.5,2.2c-0.9,0-1.5-0.8-1.5-2.2c0-1.3,0.6-2.2,1.5-2.2
		C155.3,18.2,155.8,19,155.8,20.4z M153.4,20.3c0,1.2,0.3,1.8,0.9,1.8c0.6,0,0.9-0.6,0.9-1.7c0-1.1-0.4-1.7-0.9-1.7
		S153.4,19.3,153.4,20.3z"/>
	<path class="st2" d="M156.9,21.5c0.2,0.4,0.5,0.6,1,0.6c0.5,0,0.8-0.3,0.8-0.7c0-0.6-0.5-0.6-1.3-0.9c-0.5-0.2-0.8-0.6-0.8-1.1
		c0-0.7,0.5-1.2,1.3-1.2c0.4,0,0.8,0.1,1.2,0.5v0.6h-0.4c-0.2-0.4-0.5-0.6-0.8-0.6c-0.4,0-0.8,0.3-0.8,0.7c0,0.4,0.3,0.6,0.9,0.8
		c0.8,0.2,1.2,0.6,1.2,1.2c0,0.7-0.5,1.3-1.4,1.3c-0.5,0-1-0.2-1.4-0.5v-0.6H156.9z"/>
	<path class="st2" d="M161.8,18.3v0.5h-0.9v2.6c0,0.6,0,0.6,0.5,0.6h0.4v0.5h-0.6c-0.8,0-0.9-0.3-0.9-1.3v-2.4h-0.5v-0.5h0.5V17h0.6
		v1.3H161.8z"/>
	<path class="st2" d="M62.4,28.5v0.4l0.1,0c0.2-0.3,0.5-0.5,0.9-0.5c0.8,0,1.3,0.8,1.3,2.2c0,1.3-0.5,2.2-1.3,2.2
		c-0.4,0-0.7-0.2-0.9-0.5l-0.1,0v1.6h-0.6v-5.4H62.4z M62.4,31.8c0.3,0.3,0.5,0.4,0.8,0.4c0.6,0,0.9-0.6,0.9-1.7
		c0-1.1-0.3-1.7-0.9-1.7c-0.3,0-0.5,0.1-0.8,0.4V31.8z"/>
	<path class="st2" d="M68.5,30.6c0,1.4-0.6,2.2-1.5,2.2c-0.9,0-1.5-0.8-1.5-2.2c0-1.3,0.6-2.2,1.5-2.2
		C67.9,28.4,68.5,29.2,68.5,30.6z M66.1,30.5c0,1.2,0.3,1.8,0.9,1.8c0.6,0,0.9-0.6,0.9-1.7c0-1.1-0.4-1.7-0.9-1.7
		S66.1,29.4,66.1,30.5z"/>
	<path class="st2" d="M69.9,28.5v0.4l0.1,0c0.2-0.3,0.5-0.5,0.9-0.5c0.8,0,1.3,0.8,1.3,2.2c0,1.3-0.5,2.2-1.3,2.2
		c-0.4,0-0.7-0.2-0.9-0.5l-0.1,0v1.6h-0.6v-5.4H69.9z M69.9,31.8c0.3,0.3,0.5,0.4,0.8,0.4c0.6,0,0.9-0.6,0.9-1.7
		c0-1.1-0.3-1.7-0.9-1.7c-0.3,0-0.5,0.1-0.8,0.4V31.8z"/>
	<path class="st2" d="M75.2,32.6v-0.3l-0.1,0c-0.2,0.3-0.5,0.5-0.9,0.5c-0.5,0-0.9-0.2-1-0.7c-0.1-0.2-0.1-0.6-0.1-1.1v-2.4h0.6v2.6
		c0,0.8,0.1,1.2,0.7,1.2c0.3,0,0.6-0.1,0.8-0.4v-3.3h0.6v4.1H75.2z"/>
	<path class="st2" d="M77.5,26.8v5.8H77v-5.8H77.5z"/>
	<path class="st2" d="M81.4,32.6h-0.6v-0.3h-0.1c-0.3,0.3-0.6,0.5-1,0.5c-0.7,0-1.3-0.5-1.3-1.2c0-0.9,0.8-1.4,2.3-1.5
		c0-0.1,0-0.2,0-0.3c0-0.7-0.2-0.9-0.8-0.9c-0.4,0-0.7,0.2-0.9,0.6h-0.4v-0.6c0.4-0.2,0.8-0.4,1.3-0.4c0.5,0,0.9,0.2,1.2,0.5
		c0.2,0.3,0.2,0.6,0.2,1.3V32.6z M80.8,30.4c-1.2,0.1-1.7,0.5-1.7,1.1c0,0.4,0.3,0.7,0.8,0.7c0.3,0,0.6-0.1,0.9-0.4V30.4z"/>
	<path class="st2" d="M83.1,28.5v0.3c0,0.1,0,0.3-0.1,0.4l0.1,0.1c0.2-0.5,0.8-0.8,1.3-0.8h0v0.7c-0.6,0-1,0.2-1.4,0.6v2.9h-0.6
		v-4.1H83.1z"/>
	<path class="st2" d="M89.2,29.5c-0.1-0.4-0.4-0.6-0.7-0.6c-0.5,0-0.9,0.6-0.9,1.7c0,1.1,0.3,1.7,0.9,1.7c0.3,0,0.6-0.2,0.7-0.6h0.4
		v0.6c-0.3,0.4-0.7,0.5-1.1,0.5c-0.9,0-1.5-0.8-1.5-2.2c0-1.4,0.6-2.2,1.5-2.2c0.4,0,0.8,0.2,1.1,0.5v0.6H89.2z"/>
	<path class="st2" d="M93.2,32.6h-0.6v-0.3h-0.1c-0.3,0.3-0.6,0.5-1,0.5c-0.7,0-1.3-0.5-1.3-1.2c0-0.9,0.8-1.4,2.3-1.5
		c0-0.1,0-0.2,0-0.3c0-0.7-0.2-0.9-0.8-0.9c-0.4,0-0.7,0.2-0.9,0.6h-0.4v-0.6c0.4-0.2,0.8-0.4,1.3-0.4c0.5,0,0.9,0.2,1.2,0.5
		c0.2,0.3,0.2,0.6,0.2,1.3V32.6z M92.6,30.4c-1.2,0.1-1.7,0.5-1.7,1.1c0,0.4,0.3,0.7,0.8,0.7c0.3,0,0.6-0.1,0.9-0.4V30.4z"/>
	<path class="st2" d="M94.8,28.5v0.3l0.1,0c0.2-0.3,0.5-0.5,0.9-0.5c0.8,0,1.1,0.5,1.1,1.4v2.8h-0.6V30c0-0.8-0.1-1.2-0.7-1.2
		c-0.3,0-0.6,0.1-0.8,0.4v3.3h-0.6v-4.1H94.8z"/>
	<path class="st2" d="M100.1,32.3L100.1,32.3c-0.3,0.3-0.6,0.5-1,0.5c-0.8,0-1.3-0.8-1.3-2.2c0-1.3,0.5-2.2,1.3-2.2
		c0.4,0,0.6,0.2,0.9,0.5l0.1,0v-2h0.6v5.8h-0.6V32.3z M100.1,29.3c-0.3-0.3-0.5-0.4-0.8-0.4c-0.6,0-0.9,0.6-0.9,1.7
		c0,1.1,0.3,1.7,0.9,1.7c0.3,0,0.5-0.2,0.8-0.4V29.3z"/>
	<path class="st2" d="M102.1,28.5l0.8,3.4h0.1l0.7-3.4h0.7l-1.2,4c-0.3,1-0.7,1.5-1.6,1.5c-0.1,0-0.1,0-0.2,0v-0.5
		c0.1,0,0.1,0,0.2,0c0.6,0,0.8-0.3,1-1l-1.2-3.9H102.1z"/>
	<path class="st2" d="M106.6,29v-0.5h0.6c0-0.1,0-0.3,0-0.5c0-0.9,0.3-1.3,1.2-1.3c0.1,0,0.1,0,0.2,0v0.5h-0.1
		c-0.5,0-0.7,0.2-0.7,0.7v0.6h0.7V29h-0.7v3.6h-0.6V29H106.6z"/>
	<path class="st2" d="M112.2,30.6c0,1.4-0.6,2.2-1.5,2.2c-0.9,0-1.5-0.8-1.5-2.2c0-1.3,0.6-2.2,1.5-2.2
		C111.7,28.4,112.2,29.2,112.2,30.6z M109.8,30.5c0,1.2,0.3,1.8,0.9,1.8c0.6,0,0.9-0.6,0.9-1.7c0-1.1-0.4-1.7-0.9-1.7
		S109.8,29.4,109.8,30.5z"/>
	<path class="st2" d="M113.8,28.5v0.3c0,0.1,0,0.3-0.1,0.4l0.1,0.1c0.2-0.5,0.8-0.8,1.3-0.8h0v0.7c-0.6,0-1,0.2-1.4,0.6v2.9h-0.6
		v-4.1H113.8z"/>
	<path class="st2" d="M118.5,27.1v2.3h2.3v-2.3h0.6v5.5h-0.6v-2.7h-2.3v2.7h-0.6v-5.5H118.5z"/>
	<path class="st2" d="M125.3,32.6h-0.6v-0.3h-0.1c-0.3,0.3-0.6,0.5-1,0.5c-0.7,0-1.3-0.5-1.3-1.2c0-0.9,0.8-1.4,2.3-1.5
		c0-0.1,0-0.2,0-0.3c0-0.7-0.2-0.9-0.8-0.9c-0.4,0-0.7,0.2-0.9,0.6h-0.4v-0.6c0.4-0.2,0.8-0.4,1.3-0.4c0.5,0,0.9,0.2,1.2,0.5
		c0.2,0.3,0.2,0.6,0.2,1.3V32.6z M124.7,30.4c-1.2,0.1-1.7,0.5-1.7,1.1c0,0.4,0.3,0.7,0.8,0.7c0.3,0,0.6-0.1,0.9-0.4V30.4z"/>
	<path class="st2" d="M126.9,26.8v5.8h-0.6v-5.8H126.9z"/>
	<path class="st2" d="M128.7,26.8v5.8h-0.6v-5.8H128.7z"/>
	<path class="st2" d="M132.7,30.6c0,1.4-0.6,2.2-1.5,2.2c-0.9,0-1.5-0.8-1.5-2.2c0-1.3,0.6-2.2,1.5-2.2
		C132.1,28.4,132.7,29.2,132.7,30.6z M130.3,30.5c0,1.2,0.3,1.8,0.9,1.8c0.6,0,0.9-0.6,0.9-1.7c0-1.1-0.4-1.7-0.9-1.7
		S130.3,29.4,130.3,30.5z"/>
	<path class="st2" d="M133.9,28.5l0.7,3.5h0.1l0.7-3.5h0.6l0.7,3.5h0.1l0.7-3.5h0.7l-1.2,4.1h-0.6l-0.7-3.2h-0.1l-0.7,3.2h-0.6
		l-1.1-4.1H133.9z"/>
	<path class="st2" d="M139.3,30.7v0.1c0,0.9,0.4,1.4,1,1.4c0.4,0,0.8-0.2,0.9-0.5h0.4v0.5c-0.4,0.4-0.8,0.5-1.4,0.5
		c-1.1,0-1.6-0.7-1.6-2.2c0-1.4,0.6-2.2,1.5-2.2c1,0,1.5,0.8,1.5,2.2v0.2H139.3z M141.1,30.3c0-0.9-0.4-1.4-0.9-1.4
		c-0.6,0-0.9,0.5-0.9,1.4H141.1z"/>
	<path class="st2" d="M143,30.7v0.1c0,0.9,0.4,1.4,1,1.4c0.4,0,0.8-0.2,0.9-0.5h0.4v0.5c-0.4,0.4-0.8,0.5-1.4,0.5
		c-1.1,0-1.6-0.7-1.6-2.2c0-1.4,0.6-2.2,1.5-2.2c1,0,1.5,0.8,1.5,2.2v0.2H143z M144.8,30.3c0-0.9-0.4-1.4-0.9-1.4
		c-0.6,0-0.9,0.5-0.9,1.4H144.8z"/>
	<path class="st2" d="M147,28.5v0.3l0.1,0c0.2-0.3,0.5-0.5,0.9-0.5c0.8,0,1.1,0.5,1.1,1.4v2.8h-0.6V30c0-0.8-0.1-1.2-0.7-1.2
		c-0.3,0-0.6,0.1-0.8,0.4v3.3h-0.6v-4.1H147z"/>
	<path class="st2" d="M150,31.8h0.9v0.8H150V31.8z"/>
	<path class="st2" d="M152.9,27.1h0.7l0.8,2c0.1,0.3,0.3,0.6,0.4,1.1h0.1c0.1-0.5,0.2-0.9,0.3-1.1l0.8-2h0.7l-1.5,3.6v2h-0.6v-2
		L152.9,27.1z"/>
	<path class="st2" d="M159.7,30.6c0,1.4-0.6,2.2-1.5,2.2c-0.9,0-1.5-0.8-1.5-2.2c0-1.3,0.6-2.2,1.5-2.2
		C159.1,28.4,159.7,29.2,159.7,30.6z M157.2,30.5c0,1.2,0.3,1.8,0.9,1.8c0.6,0,0.9-0.6,0.9-1.7c0-1.1-0.4-1.7-0.9-1.7
		S157.2,29.4,157.2,30.5z"/>
	<path class="st2" d="M162.6,32.6v-0.3l-0.1,0c-0.2,0.3-0.5,0.5-0.9,0.5c-0.5,0-0.9-0.2-1-0.7c-0.1-0.2-0.1-0.6-0.1-1.1v-2.4h0.6
		v2.6c0,0.8,0.1,1.2,0.7,1.2c0.3,0,0.6-0.1,0.8-0.4v-3.3h0.6v4.1H162.6z"/>
	<path class="st2" d="M64.6,42.6c0,1.1-0.5,1.5-1.4,1.5c-0.5,0-0.9-0.1-1.3-0.4V43h0.4c0.2,0.4,0.4,0.5,0.9,0.5
		c0.7,0,0.8-0.4,0.8-1.3V42l-0.1,0c-0.2,0.3-0.5,0.5-0.9,0.5c-0.8,0-1.3-0.7-1.3-1.9c0-1.3,0.5-2,1.3-2c0.4,0,0.7,0.2,0.9,0.5l0.1,0
		v-0.4h0.6V42.6z M64,39.5c-0.3-0.3-0.5-0.4-0.8-0.4c-0.6,0-0.9,0.5-0.9,1.4c0,1,0.3,1.5,0.9,1.5c0.3,0,0.6-0.1,0.8-0.4V39.5z"/>
	<path class="st2" d="M68.5,40.7c0,1.4-0.6,2.2-1.5,2.2c-0.9,0-1.5-0.8-1.5-2.2c0-1.3,0.6-2.2,1.5-2.2
		C67.9,38.5,68.5,39.3,68.5,40.7z M66.1,40.6c0,1.2,0.3,1.8,0.9,1.8c0.6,0,0.9-0.6,0.9-1.7c0-1.1-0.4-1.7-0.9-1.7
		S66.1,39.6,66.1,40.6z"/>
	<path class="st2" d="M71,38.7v0.5h-0.9v2.6c0,0.6,0,0.6,0.5,0.6H71v0.5h-0.6c-0.8,0-0.9-0.3-0.9-1.3v-2.4H69v-0.5h0.5v-1.3h0.6v1.3
		H71z"/>
	<path class="st2" d="M73.4,38.7v0.5h-0.9v2.6c0,0.6,0,0.6,0.5,0.6h0.4v0.5h-0.6c-0.8,0-0.9-0.3-0.9-1.3v-2.4h-0.5v-0.5h0.5v-1.3
		h0.6v1.3H73.4z"/>
	<path class="st2" d="M76.8,42.8h-0.6v-0.3h-0.1c-0.3,0.3-0.6,0.5-1,0.5c-0.7,0-1.3-0.5-1.3-1.2c0-0.9,0.8-1.4,2.3-1.5
		c0-0.1,0-0.2,0-0.3c0-0.7-0.2-0.9-0.8-0.9c-0.4,0-0.7,0.2-0.9,0.6h-0.4v-0.6c0.4-0.2,0.8-0.4,1.3-0.4c0.5,0,0.9,0.2,1.2,0.5
		c0.2,0.3,0.2,0.6,0.2,1.3V42.8z M76.2,40.6c-1.2,0.1-1.7,0.5-1.7,1.1c0,0.4,0.3,0.7,0.8,0.7c0.3,0,0.6-0.1,0.9-0.4V40.6z"/>
	<path class="st2" d="M80.4,37v5.8h-0.6V37H80.4z"/>
	<path class="st2" d="M84.4,40.7c0,1.4-0.6,2.2-1.5,2.2c-0.9,0-1.5-0.8-1.5-2.2c0-1.3,0.6-2.2,1.5-2.2
		C83.8,38.5,84.4,39.3,84.4,40.7z M81.9,40.6c0,1.2,0.3,1.8,0.9,1.8c0.6,0,0.9-0.6,0.9-1.7c0-1.1-0.4-1.7-0.9-1.7
		S81.9,39.6,81.9,40.6z"/>
	<path class="st2" d="M85.6,38.7l0.6,2.3c0.1,0.3,0.1,0.6,0.2,1.1h0.1c0.1-0.6,0.2-1,0.2-1.1l0.5-2.3h0.7l-1.2,4.1h-0.5l-1.2-4.1
		H85.6z"/>
	<path class="st2" d="M89,40.9V41c0,0.9,0.4,1.4,1,1.4c0.4,0,0.8-0.2,0.9-0.5h0.4v0.5c-0.4,0.4-0.8,0.5-1.4,0.5
		c-1.1,0-1.6-0.7-1.6-2.2c0-1.4,0.6-2.2,1.5-2.2c1,0,1.5,0.8,1.5,2.2v0.2H89z M90.8,40.4c0-0.9-0.4-1.4-0.9-1.4
		c-0.6,0-0.9,0.5-0.9,1.4H90.8z"/>
	<path class="st2" d="M95.9,38.7v0.5h-0.9v2.6c0,0.6,0,0.6,0.5,0.6h0.4v0.5h-0.6c-0.8,0-0.9-0.3-0.9-1.3v-2.4h-0.5v-0.5h0.5v-1.3
		h0.6v1.3H95.9z"/>
	<path class="st2" d="M97.2,37v2l0.1,0c0.2-0.3,0.5-0.5,0.9-0.5c0.7,0,1.1,0.5,1.1,1.4v2.8h-0.6v-2.6c0-0.8-0.1-1.2-0.7-1.2
		c-0.3,0-0.6,0.1-0.8,0.4v3.3h-0.6V37H97.2z"/>
	<path class="st2" d="M100.8,40.9V41c0,0.9,0.4,1.4,1,1.4c0.4,0,0.8-0.2,0.9-0.5h0.4v0.5c-0.4,0.4-0.8,0.5-1.4,0.5
		c-1.1,0-1.6-0.7-1.6-2.2c0-1.4,0.6-2.2,1.5-2.2c1,0,1.5,0.8,1.5,2.2v0.2H100.8z M102.6,40.4c0-0.9-0.4-1.4-0.9-1.4
		c-0.6,0-0.9,0.5-0.9,1.4H102.6z"/>
	<path class="st2" d="M104.3,41.8c0.2,0.4,0.5,0.6,1,0.6c0.5,0,0.8-0.3,0.8-0.7c0-0.6-0.5-0.6-1.3-0.9c-0.5-0.2-0.8-0.6-0.8-1.1
		c0-0.7,0.6-1.2,1.3-1.2c0.4,0,0.8,0.1,1.2,0.5v0.6h-0.4c-0.2-0.4-0.5-0.6-0.8-0.6c-0.4,0-0.8,0.3-0.8,0.7c0,0.4,0.3,0.6,0.9,0.8
		c0.8,0.2,1.2,0.6,1.2,1.2c0,0.7-0.5,1.3-1.4,1.3c-0.5,0-1-0.2-1.4-0.5v-0.6H104.3z"/>
	<path class="st2" d="M107.9,40.9V41c0,0.9,0.4,1.4,1,1.4c0.4,0,0.8-0.2,0.9-0.5h0.4v0.5c-0.4,0.4-0.8,0.5-1.4,0.5
		c-1.1,0-1.6-0.7-1.6-2.2c0-1.4,0.6-2.2,1.5-2.2c1,0,1.5,0.8,1.5,2.2v0.2H107.9z M109.7,40.4c0-0.9-0.4-1.4-0.9-1.4
		c-0.6,0-0.9,0.5-0.9,1.4H109.7z"/>
	<path class="st2" d="M113.3,41.8c0.2,0.4,0.5,0.6,1,0.6c0.5,0,0.8-0.3,0.8-0.7c0-0.6-0.5-0.6-1.3-0.9c-0.5-0.2-0.8-0.6-0.8-1.1
		c0-0.7,0.6-1.2,1.3-1.2c0.4,0,0.8,0.1,1.2,0.5v0.6h-0.4c-0.2-0.4-0.5-0.6-0.8-0.6c-0.4,0-0.8,0.3-0.8,0.7c0,0.4,0.3,0.6,0.9,0.8
		c0.8,0.2,1.2,0.6,1.2,1.2c0,0.7-0.5,1.3-1.4,1.3c-0.5,0-1-0.2-1.4-0.5v-0.6H113.3z"/>
	<path class="st2" d="M118.6,42.8v-0.3l-0.1,0c-0.2,0.3-0.5,0.5-0.9,0.5c-0.5,0-0.9-0.2-1-0.7c-0.1-0.2-0.1-0.6-0.1-1.1v-2.4h0.6
		v2.6c0,0.8,0.1,1.2,0.7,1.2c0.3,0,0.6-0.1,0.8-0.4v-3.3h0.6v4.1H118.6z"/>
	<path class="st2" d="M123,42.6c0,1.1-0.5,1.5-1.4,1.5c-0.5,0-0.9-0.1-1.3-0.4V43h0.4c0.2,0.4,0.4,0.5,0.9,0.5
		c0.7,0,0.8-0.4,0.8-1.3V42l-0.1,0c-0.2,0.3-0.5,0.5-0.9,0.5c-0.8,0-1.3-0.7-1.3-1.9c0-1.3,0.5-2,1.3-2c0.4,0,0.7,0.2,0.9,0.5l0.1,0
		v-0.4h0.6V42.6z M122.5,39.5c-0.3-0.3-0.5-0.4-0.8-0.4c-0.6,0-0.9,0.5-0.9,1.4c0,1,0.3,1.5,0.9,1.5c0.3,0,0.6-0.1,0.8-0.4V39.5z"/>
	<path class="st2" d="M126.8,42.8h-0.6v-0.3h-0.1c-0.3,0.3-0.6,0.5-1,0.5c-0.7,0-1.3-0.5-1.3-1.2c0-0.9,0.8-1.4,2.3-1.5
		c0-0.1,0-0.2,0-0.3c0-0.7-0.2-0.9-0.8-0.9c-0.4,0-0.7,0.2-0.9,0.6h-0.4v-0.6c0.4-0.2,0.8-0.4,1.3-0.4c0.5,0,0.9,0.2,1.2,0.5
		c0.2,0.3,0.2,0.6,0.2,1.3V42.8z M126.2,40.6c-1.2,0.1-1.7,0.5-1.7,1.1c0,0.4,0.3,0.7,0.8,0.7c0.3,0,0.6-0.1,0.9-0.4V40.6z"/>
	<path class="st2" d="M128.5,38.7V39c0,0.1,0,0.3-0.1,0.4l0.1,0.1c0.2-0.5,0.8-0.8,1.3-0.8h0v0.7c-0.6,0-1,0.2-1.4,0.6v2.9h-0.6
		v-4.1H128.5z"/>
	<path class="st2" d="M131,38.7l0.8,3.4h0.1l0.7-3.4h0.7l-1.2,4c-0.3,1-0.7,1.5-1.6,1.5c-0.1,0-0.1,0-0.2,0v-0.5c0.1,0,0.1,0,0.2,0
		c0.6,0,0.8-0.3,1-1l-1.2-3.9H131z"/>
	<path class="st2" d="M137.5,38.7v0.5h-0.9v2.6c0,0.6,0,0.6,0.5,0.6h0.4v0.5h-0.6c-0.8,0-0.9-0.3-0.9-1.3v-2.4h-0.5v-0.5h0.5v-1.3
		h0.6v1.3H137.5z"/>
	<path class="st2" d="M138.8,38.7V39c0,0.1,0,0.3-0.1,0.4l0.1,0.1c0.2-0.5,0.8-0.8,1.3-0.8h0v0.7c-0.6,0-1,0.2-1.4,0.6v2.9h-0.6
		v-4.1H138.8z"/>
	<path class="st2" d="M141.4,40.9V41c0,0.9,0.4,1.4,1,1.4c0.4,0,0.8-0.2,0.9-0.5h0.4v0.5c-0.4,0.4-0.8,0.5-1.4,0.5
		c-1.1,0-1.6-0.7-1.6-2.2c0-1.4,0.6-2.2,1.5-2.2c1,0,1.5,0.8,1.5,2.2v0.2H141.4z M143.2,40.4c0-0.9-0.4-1.4-0.9-1.4
		c-0.6,0-0.9,0.5-0.9,1.4H143.2z"/>
	<path class="st2" d="M147.5,42.8h-0.6v-0.3h-0.1c-0.3,0.3-0.6,0.5-1,0.5c-0.7,0-1.3-0.5-1.3-1.2c0-0.9,0.8-1.4,2.3-1.5
		c0-0.1,0-0.2,0-0.3c0-0.7-0.2-0.9-0.8-0.9c-0.4,0-0.7,0.2-0.9,0.6h-0.4v-0.6c0.4-0.2,0.8-0.4,1.3-0.4c0.5,0,0.9,0.2,1.2,0.5
		c0.2,0.3,0.2,0.6,0.2,1.3V42.8z M146.9,40.6c-1.2,0.1-1.7,0.5-1.7,1.1c0,0.4,0.3,0.7,0.8,0.7c0.3,0,0.6-0.1,0.9-0.4V40.6z"/>
	<path class="st2" d="M150.2,38.7v0.5h-0.9v2.6c0,0.6,0,0.6,0.5,0.6h0.4v0.5h-0.6c-0.8,0-0.9-0.3-0.9-1.3v-2.4h-0.5v-0.5h0.5v-1.3
		h0.6v1.3H150.2z"/>
	<path class="st2" d="M151.1,41.8c0.2,0.4,0.5,0.6,1,0.6c0.5,0,0.8-0.3,0.8-0.7c0-0.6-0.5-0.6-1.3-0.9c-0.5-0.2-0.8-0.6-0.8-1.1
		c0-0.7,0.6-1.2,1.3-1.2c0.4,0,0.8,0.1,1.2,0.5v0.6h-0.4c-0.2-0.4-0.5-0.6-0.8-0.6c-0.4,0-0.8,0.3-0.8,0.7c0,0.4,0.3,0.6,0.9,0.8
		c0.8,0.2,1.2,0.6,1.2,1.2c0,0.7-0.5,1.3-1.4,1.3c-0.5,0-1-0.2-1.4-0.5v-0.6H151.1z"/>
</g>
<g>
	<g>
		<path class="st2" d="M62.3,77.2l0.7,3.3c0.1,0.4,0.2,1,0.3,1.6h0.1c0-0.6,0.1-1,0.2-1.4l0.7-3.5H65l0.7,3.5
			c0.1,0.4,0.2,0.9,0.2,1.4H66c0.1-0.5,0.2-1.1,0.3-1.6l0.7-3.3h0.7l-1.4,5.5h-0.7l-0.7-3.6c-0.1-0.4-0.2-0.8-0.2-1.3h-0.2
			c-0.1,0.5-0.1,0.9-0.2,1.3l-0.7,3.5h-0.7l-1.4-5.5H62.3z"/>
		<path class="st2" d="M68.8,76.9v2l0.1,0c0.2-0.3,0.5-0.5,0.9-0.5c0.7,0,1.1,0.5,1.1,1.4v2.8h-0.6v-2.6c0-0.8-0.1-1.2-0.7-1.2
			c-0.3,0-0.6,0.1-0.8,0.4v3.3h-0.6v-5.8H68.8z"/>
		<path class="st2" d="M72.3,80.8v0.1c0,0.9,0.4,1.4,1,1.4c0.4,0,0.8-0.2,0.9-0.5h0.4v0.5c-0.4,0.4-0.8,0.5-1.4,0.5
			c-1.1,0-1.6-0.7-1.6-2.2c0-1.4,0.6-2.2,1.5-2.2c1,0,1.5,0.8,1.5,2.2v0.2H72.3z M74.1,80.4c0-0.9-0.4-1.4-0.9-1.4
			c-0.6,0-0.9,0.5-0.9,1.4H74.1z"/>
		<path class="st2" d="M77.3,78.6V79h-0.9v2.6c0,0.6,0,0.6,0.5,0.6h0.4v0.5h-0.6c-0.8,0-0.9-0.3-0.9-1.3V79h-0.5v-0.5h0.5v-1.3h0.6
			v1.3H77.3z"/>
		<path class="st2" d="M78.6,76.9v2l0.1,0c0.2-0.3,0.5-0.5,0.9-0.5c0.7,0,1.1,0.5,1.1,1.4v2.8h-0.6v-2.6c0-0.8-0.1-1.2-0.7-1.2
			c-0.3,0-0.6,0.1-0.8,0.4v3.3H78v-5.8H78.6z"/>
		<path class="st2" d="M82.2,80.8v0.1c0,0.9,0.4,1.4,1,1.4c0.4,0,0.8-0.2,0.9-0.5h0.4v0.5c-0.4,0.4-0.8,0.5-1.4,0.5
			c-1.1,0-1.6-0.7-1.6-2.2c0-1.4,0.6-2.2,1.5-2.2c1,0,1.5,0.8,1.5,2.2v0.2H82.2z M84,80.4c0-0.9-0.4-1.4-0.9-1.4
			c-0.6,0-0.9,0.5-0.9,1.4H84z"/>
		<path class="st2" d="M86.2,78.6v0.3c0,0.1,0,0.3-0.1,0.4l0.1,0.1c0.2-0.5,0.8-0.8,1.3-0.8h0v0.7c-0.6,0-1,0.2-1.4,0.6v2.9h-0.6
			v-4.1H86.2z"/>
		<path class="st2" d="M91.9,78.6V79h-0.9v2.6c0,0.6,0,0.6,0.5,0.6h0.4v0.5h-0.6c-0.8,0-0.9-0.3-0.9-1.3V79h-0.5v-0.5h0.5v-1.3h0.6
			v1.3H91.9z"/>
		<path class="st2" d="M93.2,76.9v2l0.1,0c0.2-0.3,0.5-0.5,0.9-0.5c0.7,0,1.1,0.5,1.1,1.4v2.8h-0.6v-2.6c0-0.8-0.1-1.2-0.7-1.2
			c-0.3,0-0.6,0.1-0.8,0.4v3.3h-0.6v-5.8H93.2z"/>
		<path class="st2" d="M96.8,80.8v0.1c0,0.9,0.4,1.4,1,1.4c0.4,0,0.8-0.2,0.9-0.5h0.4v0.5c-0.4,0.4-0.8,0.5-1.4,0.5
			c-1.1,0-1.6-0.7-1.6-2.2c0-1.4,0.6-2.2,1.5-2.2c1,0,1.5,0.8,1.5,2.2v0.2H96.8z M98.6,80.4c0-0.9-0.4-1.4-0.9-1.4
			c-0.6,0-0.9,0.5-0.9,1.4H98.6z"/>
		<path class="st2" d="M100.3,78.6l0.8,3.4h0.1l0.7-3.4h0.7l-1.2,4c-0.3,1-0.7,1.5-1.6,1.5c-0.1,0-0.1,0-0.2,0v-0.5
			c0.1,0,0.1,0,0.2,0c0.6,0,0.8-0.3,1-1l-1.2-3.9H100.3z"/>
		<path class="st2" d="M107.9,82.7h-0.6v-0.3h-0.1c-0.3,0.3-0.6,0.5-1,0.5c-0.7,0-1.3-0.5-1.3-1.2c0-0.9,0.8-1.4,2.3-1.5
			c0-0.1,0-0.2,0-0.3c0-0.7-0.2-0.9-0.8-0.9c-0.4,0-0.7,0.2-0.9,0.6h-0.4v-0.6c0.4-0.2,0.8-0.4,1.3-0.4c0.5,0,0.9,0.2,1.2,0.5
			c0.2,0.3,0.2,0.6,0.2,1.3V82.7z M107.3,80.5c-1.2,0.1-1.7,0.5-1.7,1.1c0,0.4,0.3,0.7,0.8,0.7c0.3,0,0.6-0.1,0.9-0.4V80.5z"/>
		<path class="st2" d="M109.6,78.6v0.3c0,0.1,0,0.3-0.1,0.4l0.1,0.1c0.2-0.5,0.8-0.8,1.3-0.8h0v0.7c-0.6,0-1,0.2-1.4,0.6v2.9H109
			v-4.1H109.6z"/>
		<path class="st2" d="M112.2,80.8v0.1c0,0.9,0.4,1.4,1,1.4c0.4,0,0.8-0.2,0.9-0.5h0.4v0.5c-0.4,0.4-0.8,0.5-1.4,0.5
			c-1.1,0-1.6-0.7-1.6-2.2c0-1.4,0.6-2.2,1.5-2.2c1,0,1.5,0.8,1.5,2.2v0.2H112.2z M114,80.4c0-0.9-0.4-1.4-0.9-1.4
			c-0.6,0-0.9,0.5-0.9,1.4H114z"/>
		<path class="st2" d="M118,78.6v0.3l0.1,0c0.2-0.3,0.5-0.5,0.9-0.5c0.4,0,0.7,0.2,1,0.6c0.4-0.4,0.7-0.6,1-0.6
			c0.7,0,1.1,0.5,1.1,1.4v2.8h-0.6v-2.6c0-0.8-0.1-1.2-0.7-1.2c-0.3,0-0.5,0.1-0.7,0.4v3.3h-0.6v-2.4c0-0.9-0.1-1.3-0.6-1.3
			c-0.3,0-0.5,0.1-0.8,0.4v3.3h-0.6v-4.1H118z"/>
		<path class="st2" d="M123.7,76.9v0.7h-0.6v-0.7H123.7z M123.7,78.6v4.1h-0.6v-4.1H123.7z"/>
		<path class="st2" d="M125.5,78.6v0.3l0.1,0c0.2-0.3,0.5-0.5,0.9-0.5c0.8,0,1.1,0.5,1.1,1.4v2.8H127v-2.6c0-0.8-0.1-1.2-0.7-1.2
			c-0.3,0-0.6,0.1-0.8,0.4v3.3h-0.6v-4.1H125.5z"/>
		<path class="st2" d="M129.2,76.9v0.7h-0.6v-0.7H129.2z M129.2,78.6v4.1h-0.6v-4.1H129.2z"/>
		<path class="st2" d="M133.5,77.2c1,0,1.9,0.4,1.9,1.5c0,0.7-0.4,1.2-1.2,1.5l1.6,2.5h-0.8l-1.4-2.3h-0.8v2.3h-0.6v-5.5H133.5z
			 M132.9,79.9c0.1,0,0.2,0,0.3,0c1.1,0,1.5-0.4,1.5-1.2c0-0.8-0.5-1.1-1.5-1.1c-0.1,0-0.3,0-0.4,0V79.9z"/>
		<path class="st2" d="M136.9,80.8v0.1c0,0.9,0.4,1.4,1,1.4c0.4,0,0.8-0.2,0.9-0.5h0.4v0.5c-0.4,0.4-0.8,0.5-1.4,0.5
			c-1.1,0-1.6-0.7-1.6-2.2c0-1.4,0.6-2.2,1.5-2.2c1,0,1.5,0.8,1.5,2.2v0.2H136.9z M138.7,80.4c0-0.9-0.4-1.4-0.9-1.4
			c-0.6,0-0.9,0.5-0.9,1.4H138.7z"/>
		<path class="st2" d="M140.7,80.8v0.1c0,0.9,0.4,1.4,1,1.4c0.4,0,0.8-0.2,0.9-0.5h0.4v0.5c-0.4,0.4-0.8,0.5-1.4,0.5
			c-1.1,0-1.6-0.7-1.6-2.2c0-1.4,0.6-2.2,1.5-2.2c1,0,1.5,0.8,1.5,2.2v0.2H140.7z M142.5,80.4c0-0.9-0.4-1.4-0.9-1.4
			c-0.6,0-0.9,0.5-0.9,1.4H142.5z"/>
		<path class="st2" d="M144.2,81.7c0.2,0.4,0.5,0.6,1,0.6c0.5,0,0.8-0.3,0.8-0.7c0-0.6-0.5-0.6-1.3-0.9c-0.5-0.2-0.8-0.6-0.8-1.1
			c0-0.7,0.6-1.2,1.3-1.2c0.4,0,0.8,0.1,1.2,0.5v0.6H146c-0.2-0.4-0.5-0.6-0.8-0.6c-0.4,0-0.8,0.3-0.8,0.7c0,0.4,0.3,0.6,0.9,0.8
			c0.8,0.2,1.2,0.6,1.2,1.2c0,0.7-0.5,1.3-1.4,1.3c-0.5,0-1-0.2-1.4-0.5v-0.6H144.2z"/>
		<path class="st2" d="M147.8,80.8v0.1c0,0.9,0.4,1.4,1,1.4c0.4,0,0.8-0.2,0.9-0.5h0.4v0.5c-0.4,0.4-0.8,0.5-1.4,0.5
			c-1.1,0-1.6-0.7-1.6-2.2c0-1.4,0.6-2.2,1.5-2.2c1,0,1.5,0.8,1.5,2.2v0.2H147.8z M149.6,80.4c0-0.9-0.4-1.4-0.9-1.4
			c-0.6,0-0.9,0.5-0.9,1.4H149.6z"/>
		<path class="st2" d="M151,78.9c0.4,0,0.5-0.2,0.5-0.6v-0.4h-0.4v-0.7h0.9v0.9c0,0.9-0.2,1.2-1,1.2V78.9z"/>
		<path class="st2" d="M153,81.7c0.2,0.4,0.5,0.6,1,0.6c0.5,0,0.8-0.3,0.8-0.7c0-0.6-0.5-0.6-1.3-0.9c-0.5-0.2-0.8-0.6-0.8-1.1
			c0-0.7,0.5-1.2,1.3-1.2c0.4,0,0.8,0.1,1.2,0.5v0.6h-0.4c-0.2-0.4-0.5-0.6-0.8-0.6c-0.4,0-0.8,0.3-0.8,0.7c0,0.4,0.3,0.6,0.9,0.8
			c0.8,0.2,1.2,0.6,1.2,1.2c0,0.7-0.5,1.3-1.4,1.3c-0.5,0-1-0.2-1.4-0.5v-0.6H153z"/>
		<path class="st2" d="M62.4,88.7v0.4l0.1,0c0.2-0.3,0.5-0.5,0.9-0.5c0.8,0,1.3,0.8,1.3,2.2c0,1.3-0.5,2.2-1.3,2.2
			c-0.4,0-0.7-0.2-0.9-0.5l-0.1,0v1.6h-0.6v-5.4H62.4z M62.4,92c0.3,0.3,0.5,0.4,0.8,0.4c0.6,0,0.9-0.6,0.9-1.7
			c0-1.1-0.3-1.7-0.9-1.7c-0.3,0-0.5,0.1-0.8,0.4V92z"/>
		<path class="st2" d="M66.1,91v0.1c0,0.9,0.4,1.4,1,1.4c0.4,0,0.8-0.2,0.9-0.5h0.4v0.5c-0.4,0.4-0.8,0.5-1.4,0.5
			c-1.1,0-1.6-0.7-1.6-2.2c0-1.4,0.6-2.2,1.5-2.2c1,0,1.5,0.8,1.5,2.2V91H66.1z M67.9,90.5c0-0.9-0.4-1.4-0.9-1.4
			c-0.6,0-0.9,0.5-0.9,1.4H67.9z"/>
		<path class="st2" d="M72.1,92.8h-0.6v-0.3h-0.1c-0.3,0.3-0.6,0.5-1,0.5c-0.7,0-1.3-0.5-1.3-1.2c0-0.9,0.8-1.4,2.3-1.5
			c0-0.1,0-0.2,0-0.3c0-0.7-0.2-0.9-0.8-0.9c-0.4,0-0.7,0.2-0.9,0.6h-0.4V89c0.4-0.2,0.8-0.4,1.3-0.4c0.5,0,0.9,0.2,1.2,0.5
			c0.2,0.3,0.2,0.6,0.2,1.3V92.8z M71.5,90.6c-1.2,0.1-1.7,0.5-1.7,1.1c0,0.4,0.3,0.7,0.8,0.7c0.3,0,0.6-0.1,0.9-0.4V90.6z"/>
		<path class="st2" d="M73.8,88.7v0.3l0.1,0c0.2-0.3,0.5-0.5,0.9-0.5c0.8,0,1.1,0.5,1.1,1.4v2.8h-0.6v-2.6c0-0.8-0.1-1.2-0.7-1.2
			c-0.3,0-0.6,0.1-0.8,0.4v3.3h-0.6v-4.1H73.8z"/>
		<path class="st2" d="M79,92.8v-0.3l-0.1,0c-0.2,0.3-0.5,0.5-0.9,0.5c-0.5,0-0.9-0.2-1-0.7c-0.1-0.2-0.1-0.6-0.1-1.1v-2.4h0.6v2.6
			c0,0.8,0.1,1.2,0.7,1.2c0.3,0,0.6-0.1,0.8-0.4v-3.3h0.6v4.1H79z"/>
		<path class="st2" d="M82.3,88.7v0.5h-0.9v2.6c0,0.6,0,0.6,0.5,0.6h0.4v0.5h-0.6c-0.8,0-0.9-0.3-0.9-1.3v-2.4h-0.5v-0.5h0.5v-1.3
			h0.6v1.3H82.3z"/>
		<path class="st2" d="M85.4,87.1v2l0.1,0c0.2-0.3,0.5-0.5,0.9-0.5c0.7,0,1.3,0.8,1.3,2.2c0,1.4-0.5,2.2-1.3,2.2
			c-0.4,0-0.7-0.2-0.9-0.5l-0.1,0v0.4h-0.6v-5.8H85.4z M85.4,92c0.3,0.3,0.5,0.4,0.8,0.4c0.6,0,0.9-0.6,0.9-1.7
			c0-1.1-0.3-1.7-0.9-1.7c-0.3,0-0.5,0.1-0.8,0.4V92z"/>
		<path class="st2" d="M90.7,92.8v-0.3l-0.1,0c-0.2,0.3-0.5,0.5-0.9,0.5c-0.5,0-0.9-0.2-1-0.7c-0.1-0.2-0.1-0.6-0.1-1.1v-2.4h0.6
			v2.6c0,0.8,0.1,1.2,0.7,1.2c0.3,0,0.6-0.1,0.8-0.4v-3.3h0.6v4.1H90.7z"/>
		<path class="st2" d="M94,88.7v0.5h-0.9v2.6c0,0.6,0,0.6,0.5,0.6H94v0.5h-0.6c-0.8,0-0.9-0.3-0.9-1.3v-2.4H92v-0.5h0.5v-1.3h0.6
			v1.3H94z"/>
		<path class="st2" d="M96.4,88.7v0.5h-0.9v2.6c0,0.6,0,0.6,0.5,0.6h0.4v0.5h-0.6c-0.8,0-0.9-0.3-0.9-1.3v-2.4h-0.5v-0.5h0.5v-1.3
			h0.6v1.3H96.4z"/>
		<path class="st2" d="M97.5,91v0.1c0,0.9,0.4,1.4,1,1.4c0.4,0,0.8-0.2,0.9-0.5h0.4v0.5c-0.4,0.4-0.8,0.5-1.4,0.5
			c-1.1,0-1.6-0.7-1.6-2.2c0-1.4,0.6-2.2,1.5-2.2c1,0,1.5,0.8,1.5,2.2V91H97.5z M99.3,90.5c0-0.9-0.4-1.4-0.9-1.4
			c-0.6,0-0.9,0.5-0.9,1.4H99.3z"/>
		<path class="st2" d="M101.5,88.7v0.3c0,0.1,0,0.3-0.1,0.4l0.1,0.1c0.2-0.5,0.8-0.8,1.3-0.8h0v0.7c-0.6,0-1,0.2-1.4,0.6v2.9h-0.6
			v-4.1H101.5z"/>
		<path class="st2" d="M105.7,89.7c-0.1-0.4-0.4-0.6-0.7-0.6c-0.5,0-0.9,0.6-0.9,1.7c0,1.1,0.3,1.7,0.9,1.7c0.3,0,0.6-0.2,0.7-0.6
			h0.4v0.6c-0.3,0.4-0.7,0.5-1.1,0.5c-0.9,0-1.5-0.8-1.5-2.2c0-1.4,0.6-2.2,1.5-2.2c0.4,0,0.8,0.2,1.1,0.5v0.6H105.7z"/>
		<path class="st2" d="M109,92.8v-0.3l-0.1,0c-0.2,0.3-0.5,0.5-0.9,0.5c-0.5,0-0.9-0.2-1-0.7c-0.1-0.2-0.1-0.6-0.1-1.1v-2.4h0.6v2.6
			c0,0.8,0.1,1.2,0.7,1.2c0.3,0,0.6-0.1,0.8-0.4v-3.3h0.6v4.1H109z"/>
		<path class="st2" d="M111.3,88.7v0.4l0.1,0c0.2-0.3,0.5-0.5,0.9-0.5c0.8,0,1.3,0.8,1.3,2.2c0,1.3-0.5,2.2-1.3,2.2
			c-0.4,0-0.7-0.2-0.9-0.5l-0.1,0v1.6h-0.6v-5.4H111.3z M111.3,92c0.3,0.3,0.5,0.4,0.8,0.4c0.6,0,0.9-0.6,0.9-1.7
			c0-1.1-0.3-1.7-0.9-1.7c-0.3,0-0.5,0.1-0.8,0.4V92z"/>
		<path class="st2" d="M114.7,91.9c0.2,0.4,0.5,0.6,1,0.6c0.5,0,0.8-0.3,0.8-0.7c0-0.6-0.5-0.6-1.3-0.9c-0.5-0.2-0.8-0.6-0.8-1.1
			c0-0.7,0.5-1.2,1.3-1.2c0.4,0,0.8,0.1,1.2,0.5v0.6h-0.4c-0.2-0.4-0.5-0.6-0.8-0.6c-0.4,0-0.8,0.3-0.8,0.7c0,0.4,0.3,0.6,0.9,0.8
			c0.8,0.2,1.2,0.6,1.2,1.2c0,0.7-0.5,1.3-1.4,1.3c-0.5,0-1-0.2-1.4-0.5v-0.6H114.7z"/>
		<path class="st2" d="M122.7,90.8c0,1.4-0.6,2.2-1.5,2.2c-0.9,0-1.5-0.8-1.5-2.2c0-1.3,0.6-2.2,1.5-2.2
			C122.1,88.6,122.7,89.4,122.7,90.8z M120.2,90.7c0,1.2,0.3,1.8,0.9,1.8c0.6,0,0.9-0.6,0.9-1.7c0-1.1-0.4-1.7-0.9-1.7
			S120.2,89.7,120.2,90.7z"/>
		<path class="st2" d="M124.2,88.7v0.3c0,0.1,0,0.3-0.1,0.4l0.1,0.1c0.2-0.5,0.8-0.8,1.3-0.8h0v0.7c-0.6,0-1,0.2-1.4,0.6v2.9h-0.6
			v-4.1H124.2z"/>
		<path class="st2" d="M128.8,88.7v0.4l0.1,0c0.2-0.3,0.5-0.5,0.9-0.5c0.8,0,1.3,0.8,1.3,2.2c0,1.3-0.5,2.2-1.3,2.2
			c-0.4,0-0.7-0.2-0.9-0.5l-0.1,0v1.6h-0.6v-5.4H128.8z M128.8,92c0.3,0.3,0.5,0.4,0.8,0.4c0.6,0,0.9-0.6,0.9-1.7
			c0-1.1-0.3-1.7-0.9-1.7c-0.3,0-0.5,0.1-0.8,0.4V92z"/>
		<path class="st2" d="M134.1,92.8v-0.3l-0.1,0c-0.2,0.3-0.5,0.5-0.9,0.5c-0.5,0-0.9-0.2-1-0.7c-0.1-0.2-0.1-0.6-0.1-1.1v-2.4h0.6
			v2.6c0,0.8,0.1,1.2,0.7,1.2c0.3,0,0.6-0.1,0.8-0.4v-3.3h0.6v4.1H134.1z"/>
		<path class="st2" d="M136.4,88.7v0.3l0.1,0c0.2-0.3,0.5-0.5,0.9-0.5c0.4,0,0.7,0.2,1,0.6c0.4-0.4,0.7-0.6,1.1-0.6
			c0.7,0,1.1,0.5,1.1,1.4v2.8h-0.6v-2.6c0-0.8-0.1-1.2-0.7-1.2c-0.3,0-0.6,0.1-0.7,0.4v3.3h-0.6v-2.4c0-0.9-0.1-1.3-0.6-1.3
			c-0.3,0-0.6,0.1-0.8,0.4v3.3h-0.6v-4.1H136.4z"/>
		<path class="st2" d="M142,88.7v0.4l0.1,0c0.2-0.3,0.5-0.5,0.9-0.5c0.8,0,1.3,0.8,1.3,2.2c0,1.3-0.5,2.2-1.3,2.2
			c-0.4,0-0.7-0.2-0.9-0.5l-0.1,0v1.6h-0.6v-5.4H142z M142,92c0.3,0.3,0.5,0.4,0.8,0.4c0.6,0,0.9-0.6,0.9-1.7c0-1.1-0.3-1.7-0.9-1.7
			c-0.3,0-0.5,0.1-0.8,0.4V92z"/>
		<path class="st2" d="M145.8,87.1v2.5c0,0.4,0,0.8-0.1,1.2l0.1,0l1.5-2.1h0.7l-1.4,1.8l1.3,2.3h-0.6l-0.7-1.3
			c-0.1-0.2-0.2-0.4-0.3-0.7l-0.1,0l-0.4,0.6v1.4h-0.6v-5.8H145.8z"/>
		<path class="st2" d="M149.3,87.1v0.7h-0.6v-0.7H149.3z M149.2,88.7v4.1h-0.6v-4.1H149.2z"/>
		<path class="st2" d="M151,88.7v0.3l0.1,0c0.2-0.3,0.5-0.5,0.9-0.5c0.8,0,1.1,0.5,1.1,1.4v2.8h-0.6v-2.6c0-0.8-0.1-1.2-0.7-1.2
			c-0.3,0-0.6,0.1-0.8,0.4v3.3h-0.6v-4.1H151z"/>
		<path class="st2" d="M62.1,102c0.2,0.4,0.5,0.6,1,0.6c0.5,0,0.8-0.3,0.8-0.7c0-0.6-0.5-0.6-1.3-0.9c-0.5-0.2-0.8-0.6-0.8-1.1
			c0-0.7,0.6-1.2,1.3-1.2c0.4,0,0.8,0.1,1.2,0.5v0.6h-0.4c-0.2-0.4-0.5-0.6-0.8-0.6c-0.4,0-0.8,0.3-0.8,0.7c0,0.4,0.3,0.6,0.9,0.8
			c0.8,0.2,1.2,0.6,1.2,1.2c0,0.7-0.5,1.3-1.4,1.3c-0.5,0-1-0.2-1.4-0.5V102H62.1z"/>
		<path class="st2" d="M65.9,97.2v2l0.1,0c0.2-0.3,0.5-0.5,0.9-0.5c0.7,0,1.1,0.5,1.1,1.4v2.8h-0.6v-2.6c0-0.8-0.1-1.2-0.7-1.2
			c-0.3,0-0.6,0.1-0.8,0.4v3.3h-0.6v-5.8H65.9z"/>
		<path class="st2" d="M71.6,103H71v-0.3h-0.1c-0.3,0.3-0.6,0.5-1,0.5c-0.7,0-1.3-0.5-1.3-1.2c0-0.9,0.8-1.4,2.3-1.5
			c0-0.1,0-0.2,0-0.3c0-0.7-0.2-0.9-0.8-0.9c-0.4,0-0.7,0.2-0.9,0.6h-0.4v-0.6c0.4-0.2,0.8-0.4,1.3-0.4c0.5,0,0.9,0.2,1.2,0.5
			c0.2,0.3,0.2,0.6,0.2,1.3V103z M71,100.8c-1.2,0.1-1.7,0.5-1.7,1.1c0,0.4,0.3,0.7,0.8,0.7c0.3,0,0.6-0.1,0.9-0.4V100.8z"/>
		<path class="st2" d="M73.2,98.9v0.4l0.1,0c0.2-0.3,0.5-0.5,0.9-0.5c0.8,0,1.3,0.8,1.3,2.2c0,1.3-0.5,2.2-1.3,2.2
			c-0.4,0-0.7-0.2-0.9-0.5l-0.1,0v1.6h-0.6v-5.4H73.2z M73.2,102.2c0.3,0.3,0.5,0.4,0.8,0.4c0.6,0,0.9-0.6,0.9-1.7
			c0-1.1-0.3-1.7-0.9-1.7c-0.3,0-0.5,0.1-0.8,0.4V102.2z"/>
		<path class="st2" d="M76.8,101.1v0.1c0,0.9,0.4,1.4,1,1.4c0.4,0,0.8-0.2,0.9-0.5h0.4v0.5c-0.4,0.4-0.8,0.5-1.4,0.5
			c-1.1,0-1.6-0.7-1.6-2.2c0-1.4,0.6-2.2,1.5-2.2c1,0,1.5,0.8,1.5,2.2v0.2H76.8z M78.6,100.7c0-0.9-0.4-1.4-0.9-1.4
			c-0.6,0-0.9,0.5-0.9,1.4H78.6z"/>
		<path class="st2" d="M82.3,102.7L82.3,102.7c-0.3,0.3-0.6,0.5-1,0.5c-0.8,0-1.3-0.8-1.3-2.2c0-1.3,0.5-2.2,1.3-2.2
			c0.4,0,0.6,0.2,0.9,0.5l0.1,0v-2h0.6v5.8h-0.6V102.7z M82.3,99.7c-0.3-0.3-0.5-0.4-0.8-0.4c-0.6,0-0.9,0.6-0.9,1.7
			c0,1.1,0.3,1.7,0.9,1.7c0.3,0,0.5-0.2,0.8-0.4V99.7z"/>
		<path class="st2" d="M83.8,103.9c0.4,0,0.5-0.2,0.5-0.6v-0.4h-0.4v-0.7h0.9v0.9c0,0.9-0.2,1.2-1,1.2V103.9z"/>
		<path class="st2" d="M88.1,101.1v0.1c0,0.9,0.4,1.4,1,1.4c0.4,0,0.8-0.2,0.9-0.5h0.4v0.5c-0.4,0.4-0.8,0.5-1.4,0.5
			c-1.1,0-1.6-0.7-1.6-2.2c0-1.4,0.6-2.2,1.5-2.2c1,0,1.5,0.8,1.5,2.2v0.2H88.1z M89.9,100.7c0-0.9-0.4-1.4-0.9-1.4
			c-0.6,0-0.9,0.5-0.9,1.4H89.9z"/>
		<path class="st2" d="M91.7,98.9l0.6,2.3c0.1,0.3,0.1,0.6,0.2,1.1h0.1c0.1-0.6,0.2-1,0.2-1.1l0.5-2.3H94l-1.2,4.1h-0.5l-1.2-4.1
			H91.7z"/>
		<path class="st2" d="M95.2,101.1v0.1c0,0.9,0.4,1.4,1,1.4c0.4,0,0.8-0.2,0.9-0.5h0.4v0.5c-0.4,0.4-0.8,0.5-1.4,0.5
			c-1.1,0-1.6-0.7-1.6-2.2c0-1.4,0.6-2.2,1.5-2.2c1,0,1.5,0.8,1.5,2.2v0.2H95.2z M97,100.7c0-0.9-0.4-1.4-0.9-1.4
			c-0.6,0-0.9,0.5-0.9,1.4H97z"/>
		<path class="st2" d="M99.1,98.9v0.3c0,0.1,0,0.3-0.1,0.4l0.1,0.1c0.2-0.5,0.8-0.8,1.3-0.8h0v0.7c-0.6,0-1,0.2-1.4,0.6v2.9h-0.6
			v-4.1H99.1z"/>
		<path class="st2" d="M101.6,98.9l0.8,3.4h0.1l0.7-3.4h0.7l-1.2,4c-0.3,1-0.7,1.5-1.6,1.5c-0.1,0-0.1,0-0.2,0v-0.5
			c0.1,0,0.1,0,0.2,0c0.6,0,0.8-0.3,1-1l-1.2-3.9H101.6z"/>
		<path class="st2" d="M105.1,97.2v2l0.1,0c0.2-0.3,0.5-0.5,0.9-0.5c0.7,0,1.3,0.8,1.3,2.2c0,1.4-0.5,2.2-1.3,2.2
			c-0.4,0-0.7-0.2-0.9-0.5l-0.1,0v0.4h-0.6v-5.8H105.1z M105.1,102.2c0.3,0.3,0.5,0.4,0.8,0.4c0.6,0,0.9-0.6,0.9-1.7
			c0-1.1-0.3-1.7-0.9-1.7c-0.3,0-0.5,0.1-0.8,0.4V102.2z"/>
		<path class="st2" d="M111.2,101c0,1.4-0.6,2.2-1.5,2.2c-0.9,0-1.5-0.8-1.5-2.2c0-1.3,0.6-2.2,1.5-2.2
			C110.7,98.8,111.2,99.6,111.2,101z M108.8,100.9c0,1.2,0.3,1.8,0.9,1.8c0.6,0,0.9-0.6,0.9-1.7c0-1.1-0.4-1.7-0.9-1.7
			S108.8,99.8,108.8,100.9z"/>
		<path class="st2" d="M114.3,102.7L114.3,102.7c-0.3,0.3-0.6,0.5-1,0.5c-0.8,0-1.3-0.8-1.3-2.2c0-1.3,0.5-2.2,1.3-2.2
			c0.4,0,0.6,0.2,0.9,0.5l0.1,0v-2h0.6v5.8h-0.6V102.7z M114.3,99.7c-0.3-0.3-0.5-0.4-0.8-0.4c-0.6,0-0.9,0.6-0.9,1.7
			c0,1.1,0.3,1.7,0.9,1.7c0.3,0,0.5-0.2,0.8-0.4V99.7z"/>
		<path class="st2" d="M116.3,98.9l0.8,3.4h0.1l0.7-3.4h0.7l-1.2,4c-0.3,1-0.7,1.5-1.6,1.5c-0.1,0-0.1,0-0.2,0v-0.5
			c0.1,0,0.1,0,0.2,0c0.6,0,0.8-0.3,1-1l-1.2-3.9H116.3z"/>
		<path class="st2" d="M121.4,98.9l0.7,3.5h0.1l0.7-3.5h0.6l0.7,3.5h0.1l0.7-3.5h0.7l-1.2,4.1H124l-0.7-3.2h-0.1l-0.7,3.2h-0.6
			l-1.1-4.1H121.4z"/>
		<path class="st2" d="M127.1,97.2v0.7h-0.6v-0.7H127.1z M127.1,98.9v4.1h-0.6v-4.1H127.1z"/>
		<path class="st2" d="M129.9,98.9v0.5h-0.9v2.6c0,0.6,0,0.6,0.5,0.6h0.4v0.5h-0.6c-0.8,0-0.9-0.3-0.9-1.3v-2.4h-0.5v-0.5h0.5v-1.3
			h0.6v1.3H129.9z"/>
		<path class="st2" d="M131.2,97.2v2l0.1,0c0.2-0.3,0.5-0.5,0.9-0.5c0.7,0,1.1,0.5,1.1,1.4v2.8h-0.6v-2.6c0-0.8-0.1-1.2-0.7-1.2
			c-0.3,0-0.6,0.1-0.8,0.4v3.3h-0.6v-5.8H131.2z"/>
		<path class="st2" d="M137.2,101c0,1.4-0.6,2.2-1.5,2.2c-0.9,0-1.5-0.8-1.5-2.2c0-1.3,0.6-2.2,1.5-2.2
			C136.6,98.8,137.2,99.6,137.2,101z M134.8,100.9c0,1.2,0.3,1.8,0.9,1.8c0.6,0,0.9-0.6,0.9-1.7c0-1.1-0.4-1.7-0.9-1.7
			S134.8,99.8,134.8,100.9z"/>
		<path class="st2" d="M140.2,103v-0.3l-0.1,0c-0.2,0.3-0.5,0.5-0.9,0.5c-0.5,0-0.9-0.2-1-0.7c-0.1-0.2-0.1-0.6-0.1-1.1v-2.4h0.6
			v2.6c0,0.8,0.1,1.2,0.7,1.2c0.3,0,0.6-0.1,0.8-0.4v-3.3h0.6v4.1H140.2z"/>
		<path class="st2" d="M143.5,98.9v0.5h-0.9v2.6c0,0.6,0,0.6,0.5,0.6h0.4v0.5h-0.6c-0.8,0-0.9-0.3-0.9-1.3v-2.4h-0.5v-0.5h0.5v-1.3
			h0.6v1.3H143.5z"/>
		<path class="st2" d="M148.8,103h-0.6v-0.3h-0.1c-0.3,0.3-0.6,0.5-1,0.5c-0.7,0-1.3-0.5-1.3-1.2c0-0.9,0.8-1.4,2.3-1.5
			c0-0.1,0-0.2,0-0.3c0-0.7-0.2-0.9-0.8-0.9c-0.4,0-0.7,0.2-0.9,0.6h-0.4v-0.6c0.4-0.2,0.8-0.4,1.3-0.4c0.5,0,0.9,0.2,1.2,0.5
			c0.2,0.3,0.2,0.6,0.2,1.3V103z M148.2,100.8c-1.2,0.1-1.7,0.5-1.7,1.1c0,0.4,0.3,0.7,0.8,0.7c0.3,0,0.6-0.1,0.9-0.4V100.8z"/>
		<path class="st2" d="M152.3,98.9v0.4l0.1,0c0.2-0.3,0.5-0.5,0.9-0.5c0.8,0,1.3,0.8,1.3,2.2c0,1.3-0.5,2.2-1.3,2.2
			c-0.4,0-0.7-0.2-0.9-0.5l-0.1,0v1.6h-0.6v-5.4H152.3z M152.3,102.2c0.3,0.3,0.5,0.4,0.8,0.4c0.6,0,0.9-0.6,0.9-1.7
			c0-1.1-0.3-1.7-0.9-1.7c-0.3,0-0.5,0.1-0.8,0.4V102.2z"/>
		<path class="st2" d="M155.9,101.1v0.1c0,0.9,0.4,1.4,1,1.4c0.4,0,0.8-0.2,0.9-0.5h0.4v0.5c-0.4,0.4-0.8,0.5-1.4,0.5
			c-1.1,0-1.6-0.7-1.6-2.2c0-1.4,0.6-2.2,1.5-2.2c1,0,1.5,0.8,1.5,2.2v0.2H155.9z M157.7,100.7c0-0.9-0.4-1.4-0.9-1.4
			c-0.6,0-0.9,0.5-0.9,1.4H157.7z"/>
		<path class="st2" d="M162,103h-0.6v-0.3h-0.1c-0.3,0.3-0.6,0.5-1,0.5c-0.7,0-1.3-0.5-1.3-1.2c0-0.9,0.8-1.4,2.3-1.5
			c0-0.1,0-0.2,0-0.3c0-0.7-0.2-0.9-0.8-0.9c-0.4,0-0.7,0.2-0.9,0.6h-0.4v-0.6c0.4-0.2,0.8-0.4,1.3-0.4c0.5,0,0.9,0.2,1.2,0.5
			c0.2,0.3,0.2,0.6,0.2,1.3V103z M161.4,100.8c-1.2,0.1-1.7,0.5-1.7,1.1c0,0.4,0.3,0.7,0.8,0.7c0.3,0,0.6-0.1,0.9-0.4V100.8z"/>
		<path class="st2" d="M163.6,98.9v0.3l0.1,0c0.2-0.3,0.5-0.5,0.9-0.5c0.8,0,1.1,0.5,1.1,1.4v2.8h-0.6v-2.6c0-0.8-0.1-1.2-0.7-1.2
			c-0.3,0-0.6,0.1-0.8,0.4v3.3h-0.6v-4.1H163.6z"/>
		<path class="st2" d="M168.8,103v-0.3l-0.1,0c-0.2,0.3-0.5,0.5-0.9,0.5c-0.5,0-0.9-0.2-1-0.7c-0.1-0.2-0.1-0.6-0.1-1.1v-2.4h0.6
			v2.6c0,0.8,0.1,1.2,0.7,1.2c0.3,0,0.6-0.1,0.8-0.4v-3.3h0.6v4.1H168.8z"/>
		<path class="st2" d="M172.2,98.9v0.5h-0.9v2.6c0,0.6,0,0.6,0.5,0.6h0.4v0.5h-0.6c-0.8,0-0.9-0.3-0.9-1.3v-2.4h-0.5v-0.5h0.5v-1.3
			h0.6v1.3H172.2z"/>
		<path class="st2" d="M64.6,113.2H64v-0.3h-0.1c-0.3,0.3-0.6,0.5-1,0.5c-0.7,0-1.3-0.5-1.3-1.2c0-0.9,0.8-1.4,2.3-1.5
			c0-0.1,0-0.2,0-0.3c0-0.7-0.2-0.9-0.8-0.9c-0.4,0-0.7,0.2-0.9,0.6h-0.4v-0.6c0.4-0.2,0.8-0.4,1.3-0.4c0.5,0,0.9,0.2,1.2,0.5
			c0.2,0.3,0.2,0.6,0.2,1.3V113.2z M64,111c-1.2,0.1-1.7,0.5-1.7,1.1c0,0.4,0.3,0.7,0.8,0.7c0.3,0,0.6-0.1,0.9-0.4V111z"/>
		<path class="st2" d="M66.3,107.4v5.8h-0.6v-5.8H66.3z"/>
		<path class="st2" d="M68,107.4v5.8h-0.6v-5.8H68z"/>
		<path class="st2" d="M69.6,111.3v0.1c0,0.9,0.4,1.4,1,1.4c0.4,0,0.8-0.2,0.9-0.5H72v0.5c-0.4,0.4-0.8,0.5-1.4,0.5
			c-1.1,0-1.6-0.7-1.6-2.2c0-1.4,0.6-2.2,1.5-2.2c1,0,1.5,0.8,1.5,2.2v0.2H69.6z M71.4,110.8c0-0.9-0.4-1.4-0.9-1.4
			c-0.6,0-0.9,0.5-0.9,1.4H71.4z"/>
		<path class="st2" d="M73.5,109.1v0.3c0,0.1,0,0.3-0.1,0.4l0.1,0.1c0.2-0.5,0.8-0.8,1.3-0.8h0v0.7c-0.6,0-1,0.2-1.4,0.6v2.9H73
			v-4.1H73.5z"/>
		<path class="st2" d="M78.5,113c0,1.1-0.5,1.5-1.4,1.5c-0.5,0-0.9-0.1-1.3-0.4v-0.7h0.4c0.2,0.4,0.4,0.5,0.9,0.5
			c0.7,0,0.8-0.4,0.8-1.3v-0.3l-0.1,0c-0.2,0.3-0.5,0.5-0.9,0.5c-0.8,0-1.3-0.7-1.3-1.9c0-1.3,0.5-2,1.3-2c0.4,0,0.7,0.2,0.9,0.5
			l0.1,0v-0.4h0.6V113z M77.9,109.9c-0.3-0.3-0.5-0.4-0.8-0.4c-0.6,0-0.9,0.5-0.9,1.4c0,1,0.3,1.5,0.9,1.5c0.3,0,0.6-0.1,0.8-0.4
			V109.9z"/>
		<path class="st2" d="M79.8,109.1l0.8,3.4h0.1l0.7-3.4h0.7l-1.2,4c-0.3,1-0.7,1.5-1.6,1.5c-0.1,0-0.1,0-0.2,0v-0.5
			c0.1,0,0.1,0,0.2,0c0.6,0,0.8-0.3,1-1l-1.2-3.9H79.8z"/>
		<path class="st2" d="M85.3,107.4v5.8h-0.6v-5.8H85.3z"/>
		<path class="st2" d="M89.3,111.1c0,1.4-0.6,2.2-1.5,2.2c-0.9,0-1.5-0.8-1.5-2.2c0-1.3,0.6-2.2,1.5-2.2
			C88.7,108.9,89.3,109.7,89.3,111.1z M86.9,111c0,1.2,0.3,1.8,0.9,1.8c0.6,0,0.9-0.6,0.9-1.7c0-1.1-0.4-1.7-0.9-1.7
			S86.9,110,86.9,111z"/>
		<path class="st2" d="M90.5,109.1l0.6,2.3c0.1,0.3,0.1,0.6,0.2,1.1h0.1c0.1-0.6,0.2-1,0.2-1.1l0.5-2.3h0.7l-1.2,4.1H91l-1.2-4.1
			H90.5z"/>
		<path class="st2" d="M93.9,111.3v0.1c0,0.9,0.4,1.4,1,1.4c0.4,0,0.8-0.2,0.9-0.5h0.4v0.5c-0.4,0.4-0.8,0.5-1.4,0.5
			c-1.1,0-1.6-0.7-1.6-2.2c0-1.4,0.6-2.2,1.5-2.2c1,0,1.5,0.8,1.5,2.2v0.2H93.9z M95.7,110.8c0-0.9-0.4-1.4-0.9-1.4
			c-0.6,0-0.9,0.5-0.9,1.4H95.7z"/>
		<path class="st2" d="M97.4,112.2c0.2,0.4,0.5,0.6,1,0.6c0.5,0,0.8-0.3,0.8-0.7c0-0.6-0.5-0.6-1.3-0.9c-0.5-0.2-0.8-0.6-0.8-1.1
			c0-0.7,0.5-1.2,1.3-1.2c0.4,0,0.8,0.1,1.2,0.5v0.6h-0.4c-0.2-0.4-0.5-0.6-0.8-0.6c-0.4,0-0.8,0.3-0.8,0.7c0,0.4,0.3,0.6,0.9,0.8
			c0.8,0.2,1.2,0.6,1.2,1.2c0,0.7-0.5,1.3-1.4,1.3c-0.5,0-1-0.2-1.4-0.5v-0.6H97.4z"/>
		<path class="st2" d="M103.9,107.6c1,0,1.9,0.4,1.9,1.5c0,0.7-0.4,1.2-1.2,1.5l1.6,2.5h-0.8l-1.4-2.3h-0.8v2.3h-0.6v-5.5H103.9z
			 M103.2,110.4c0.1,0,0.2,0,0.3,0c1,0,1.5-0.4,1.5-1.2c0-0.8-0.5-1.1-1.5-1.1c-0.1,0-0.3,0-0.4,0V110.4z"/>
		<path class="st2" d="M107.2,111.3v0.1c0,0.9,0.4,1.4,1,1.4c0.4,0,0.8-0.2,0.9-0.5h0.4v0.5c-0.4,0.4-0.8,0.5-1.4,0.5
			c-1.1,0-1.6-0.7-1.6-2.2c0-1.4,0.6-2.2,1.5-2.2c1,0,1.5,0.8,1.5,2.2v0.2H107.2z M109,110.8c0-0.9-0.4-1.4-0.9-1.4
			c-0.6,0-0.9,0.5-0.9,1.4H109z"/>
		<path class="st2" d="M111,111.3v0.1c0,0.9,0.4,1.4,1,1.4c0.4,0,0.8-0.2,0.9-0.5h0.4v0.5c-0.4,0.4-0.8,0.5-1.4,0.5
			c-1.1,0-1.6-0.7-1.6-2.2c0-1.4,0.6-2.2,1.5-2.2c1,0,1.5,0.8,1.5,2.2v0.2H111z M112.8,110.8c0-0.9-0.4-1.4-0.9-1.4
			c-0.6,0-0.9,0.5-0.9,1.4H112.8z"/>
		<path class="st2" d="M114.5,112.2c0.2,0.4,0.5,0.6,1,0.6c0.5,0,0.8-0.3,0.8-0.7c0-0.6-0.5-0.6-1.3-0.9c-0.5-0.2-0.8-0.6-0.8-1.1
			c0-0.7,0.5-1.2,1.3-1.2c0.4,0,0.8,0.1,1.2,0.5v0.6h-0.4c-0.2-0.4-0.5-0.6-0.8-0.6c-0.4,0-0.8,0.3-0.8,0.7c0,0.4,0.3,0.6,0.9,0.8
			c0.8,0.2,1.2,0.6,1.2,1.2c0,0.7-0.5,1.3-1.4,1.3c-0.5,0-1-0.2-1.4-0.5v-0.6H114.5z"/>
		<path class="st2" d="M118.2,111.3v0.1c0,0.9,0.4,1.4,1,1.4c0.4,0,0.8-0.2,0.9-0.5h0.4v0.5c-0.4,0.4-0.8,0.5-1.4,0.5
			c-1.1,0-1.6-0.7-1.6-2.2c0-1.4,0.6-2.2,1.5-2.2c1,0,1.5,0.8,1.5,2.2v0.2H118.2z M120,110.8c0-0.9-0.4-1.4-0.9-1.4
			c-0.6,0-0.9,0.5-0.9,1.4H120z"/>
		<path class="st2" d="M121.3,109.4c0.4,0,0.5-0.2,0.5-0.6v-0.4h-0.4v-0.7h0.9v0.9c0,0.9-0.2,1.2-1,1.2V109.4z"/>
		<path class="st2" d="M123.4,112.2c0.2,0.4,0.5,0.6,1,0.6c0.5,0,0.8-0.3,0.8-0.7c0-0.6-0.5-0.6-1.3-0.9c-0.5-0.2-0.8-0.6-0.8-1.1
			c0-0.7,0.6-1.2,1.3-1.2c0.4,0,0.8,0.1,1.2,0.5v0.6h-0.4c-0.2-0.4-0.5-0.6-0.8-0.6c-0.4,0-0.8,0.3-0.8,0.7c0,0.4,0.3,0.6,0.9,0.8
			c0.8,0.2,1.2,0.6,1.2,1.2c0,0.7-0.5,1.3-1.4,1.3c-0.5,0-1-0.2-1.4-0.5v-0.6H123.4z"/>
	</g>
</g>
<g>
	<g>
		<path class="st2" d="M63.9,218l1.5,5.5h-0.7l-0.4-1.4h-1.6l-0.4,1.4h-0.7L63,218H63.9z M62.7,221.6h1.5l-0.3-1.2
			c-0.2-0.6-0.3-1.3-0.3-1.9h-0.3c-0.1,0.7-0.1,1.3-0.3,1.9L62.7,221.6z"/>
		<path class="st2" d="M70,220.4c-0.1-0.4-0.4-0.6-0.7-0.6c-0.5,0-0.9,0.6-0.9,1.7c0,1.1,0.3,1.7,0.9,1.7c0.3,0,0.6-0.2,0.7-0.6h0.4
			v0.6c-0.3,0.4-0.7,0.5-1.1,0.5c-0.9,0-1.5-0.8-1.5-2.2c0-1.4,0.6-2.2,1.5-2.2c0.4,0,0.8,0.2,1.1,0.5v0.6H70z"/>
		<path class="st2" d="M74,223.5h-0.6v-0.3h-0.1c-0.3,0.3-0.6,0.5-1,0.5c-0.7,0-1.3-0.5-1.3-1.2c0-0.9,0.8-1.4,2.3-1.5
			c0-0.1,0-0.2,0-0.3c0-0.7-0.2-0.9-0.8-0.9c-0.4,0-0.7,0.2-0.9,0.6h-0.4v-0.6c0.4-0.2,0.8-0.4,1.3-0.4c0.5,0,0.9,0.2,1.2,0.5
			c0.2,0.3,0.2,0.6,0.2,1.3V223.5z M73.4,221.3c-1.2,0.1-1.7,0.5-1.7,1.1c0,0.4,0.3,0.7,0.8,0.7c0.3,0,0.6-0.1,0.9-0.4V221.3z"/>
		<path class="st2" d="M75.7,219.4v0.3l0.1,0c0.2-0.3,0.5-0.5,0.9-0.5c0.8,0,1.1,0.5,1.1,1.4v2.8h-0.6v-2.6c0-0.8-0.1-1.2-0.7-1.2
			c-0.3,0-0.6,0.1-0.8,0.4v3.3h-0.6v-4.1H75.7z"/>
		<path class="st2" d="M81,223.2L81,223.2c-0.3,0.3-0.6,0.5-1,0.5c-0.8,0-1.3-0.8-1.3-2.2c0-1.3,0.5-2.2,1.3-2.2
			c0.4,0,0.6,0.2,0.9,0.5l0.1,0v-2h0.6v5.8H81V223.2z M81,220.2c-0.3-0.3-0.5-0.4-0.8-0.4c-0.6,0-0.9,0.6-0.9,1.7
			c0,1.1,0.3,1.7,0.9,1.7c0.3,0,0.5-0.2,0.8-0.4V220.2z"/>
		<path class="st2" d="M83,219.4l0.8,3.4h0.1l0.7-3.4h0.7l-1.2,4c-0.3,1-0.7,1.5-1.6,1.5c-0.1,0-0.1,0-0.2,0v-0.5c0.1,0,0.1,0,0.2,0
			c0.6,0,0.8-0.3,1-1l-1.2-3.9H83z"/>
		<path class="st2" d="M88.5,219.4v0.3l0.1,0c0.2-0.3,0.5-0.5,0.9-0.5c0.8,0,1.1,0.5,1.1,1.4v2.8H90v-2.6c0-0.8-0.1-1.2-0.7-1.2
			c-0.3,0-0.6,0.1-0.8,0.4v3.3h-0.6v-4.1H88.5z"/>
		<path class="st2" d="M94.3,223.5h-0.6v-0.3h-0.1c-0.3,0.3-0.6,0.5-1,0.5c-0.7,0-1.3-0.5-1.3-1.2c0-0.9,0.8-1.4,2.3-1.5
			c0-0.1,0-0.2,0-0.3c0-0.7-0.2-0.9-0.8-0.9c-0.4,0-0.7,0.2-0.9,0.6h-0.4v-0.6c0.4-0.2,0.8-0.4,1.3-0.4c0.5,0,0.9,0.2,1.2,0.5
			c0.2,0.3,0.2,0.6,0.2,1.3V223.5z M93.7,221.3c-1.2,0.1-1.7,0.5-1.7,1.1c0,0.4,0.3,0.7,0.8,0.7c0.3,0,0.6-0.1,0.9-0.4V221.3z"/>
		<path class="st2" d="M96,219.4v0.3l0.1,0c0.2-0.3,0.5-0.5,0.9-0.5c0.4,0,0.7,0.2,1,0.6c0.4-0.4,0.7-0.6,1-0.6
			c0.7,0,1.1,0.5,1.1,1.4v2.8h-0.6v-2.6c0-0.8-0.1-1.2-0.7-1.2c-0.3,0-0.5,0.1-0.7,0.4v3.3h-0.6v-2.4c0-0.9-0.1-1.3-0.6-1.3
			c-0.3,0-0.5,0.1-0.8,0.4v3.3h-0.6v-4.1H96z"/>
		<path class="st2" d="M101.4,221.6v0.1c0,0.9,0.4,1.4,1,1.4c0.4,0,0.8-0.2,0.9-0.5h0.4v0.5c-0.4,0.4-0.8,0.5-1.4,0.5
			c-1.1,0-1.6-0.7-1.6-2.2c0-1.4,0.6-2.2,1.5-2.2c1,0,1.5,0.8,1.5,2.2v0.2H101.4z M103.2,221.2c0-0.9-0.4-1.4-0.9-1.4
			c-0.6,0-0.9,0.5-0.9,1.4H103.2z"/>
		<path class="st2" d="M106.9,223.2L106.9,223.2c-0.3,0.3-0.6,0.5-1,0.5c-0.8,0-1.3-0.8-1.3-2.2c0-1.3,0.5-2.2,1.3-2.2
			c0.4,0,0.6,0.2,0.9,0.5l0.1,0v-2h0.6v5.8h-0.6V223.2z M106.9,220.2c-0.3-0.3-0.5-0.4-0.8-0.4c-0.6,0-0.9,0.6-0.9,1.7
			c0,1.1,0.3,1.7,0.9,1.7c0.3,0,0.5-0.2,0.8-0.4V220.2z"/>
		<path class="st2" d="M113.1,223.5h-0.6v-0.3h-0.1c-0.3,0.3-0.6,0.5-1,0.5c-0.7,0-1.3-0.5-1.3-1.2c0-0.9,0.8-1.4,2.3-1.5
			c0-0.1,0-0.2,0-0.3c0-0.7-0.2-0.9-0.8-0.9c-0.4,0-0.7,0.2-0.9,0.6h-0.4v-0.6c0.4-0.2,0.8-0.4,1.3-0.4c0.5,0,0.9,0.2,1.2,0.5
			c0.2,0.3,0.2,0.6,0.2,1.3V223.5z M112.5,221.3c-1.2,0.1-1.7,0.5-1.7,1.1c0,0.4,0.3,0.7,0.8,0.7c0.3,0,0.6-0.1,0.9-0.4V221.3z"/>
		<path class="st2" d="M113.8,219.9v-0.5h0.6c0-0.1,0-0.3,0-0.5c0-0.9,0.3-1.3,1.2-1.3c0.1,0,0.1,0,0.2,0v0.5h-0.1
			c-0.5,0-0.7,0.2-0.7,0.7v0.6h0.7v0.5h-0.7v3.6h-0.6v-3.6H113.8z"/>
		<path class="st2" d="M118,219.4v0.5h-0.9v2.6c0,0.6,0,0.6,0.5,0.6h0.4v0.5h-0.6c-0.8,0-0.9-0.3-0.9-1.3v-2.4H116v-0.5h0.5v-1.3
			h0.6v1.3H118z"/>
		<path class="st2" d="M119.2,221.6v0.1c0,0.9,0.4,1.4,1,1.4c0.4,0,0.8-0.2,0.9-0.5h0.4v0.5c-0.4,0.4-0.8,0.5-1.4,0.5
			c-1.1,0-1.6-0.7-1.6-2.2c0-1.4,0.6-2.2,1.5-2.2c1,0,1.5,0.8,1.5,2.2v0.2H119.2z M121,221.2c0-0.9-0.4-1.4-0.9-1.4
			c-0.6,0-0.9,0.5-0.9,1.4H121z"/>
		<path class="st2" d="M123.1,219.4v0.3c0,0.1,0,0.3-0.1,0.4l0.1,0.1c0.2-0.5,0.8-0.8,1.3-0.8h0v0.7c-0.6,0-1,0.2-1.4,0.6v2.9h-0.6
			v-4.1H123.1z"/>
		<path class="st2" d="M128.9,219.4v0.5h-0.9v2.6c0,0.6,0,0.6,0.5,0.6h0.4v0.5h-0.6c-0.8,0-0.9-0.3-0.9-1.3v-2.4h-0.5v-0.5h0.5v-1.3
			h0.6v1.3H128.9z"/>
		<path class="st2" d="M130.2,217.7v2l0.1,0c0.2-0.3,0.5-0.5,0.9-0.5c0.7,0,1.1,0.5,1.1,1.4v2.8h-0.6v-2.6c0-0.8-0.1-1.2-0.7-1.2
			c-0.3,0-0.6,0.1-0.8,0.4v3.3h-0.6v-5.8H130.2z"/>
		<path class="st2" d="M133.8,221.6v0.1c0,0.9,0.4,1.4,1,1.4c0.4,0,0.8-0.2,0.9-0.5h0.4v0.5c-0.4,0.4-0.8,0.5-1.4,0.5
			c-1.1,0-1.6-0.7-1.6-2.2c0-1.4,0.6-2.2,1.5-2.2c1,0,1.5,0.8,1.5,2.2v0.2H133.8z M135.6,221.2c0-0.9-0.4-1.4-0.9-1.4
			c-0.6,0-0.9,0.5-0.9,1.4H135.6z"/>
		<path class="st2" d="M138.6,219.9v-0.5h0.6c0-0.1,0-0.3,0-0.5c0-0.9,0.3-1.3,1.2-1.3c0.1,0,0.1,0,0.2,0v0.5h-0.1
			c-0.5,0-0.7,0.2-0.7,0.7v0.6h0.7v0.5h-0.7v3.6h-0.6v-3.6H138.6z"/>
		<path class="st2" d="M144.2,221.5c0,1.4-0.6,2.2-1.5,2.2c-0.9,0-1.5-0.8-1.5-2.2c0-1.3,0.6-2.2,1.5-2.2
			C143.7,219.3,144.2,220.1,144.2,221.5z M141.8,221.4c0,1.2,0.3,1.8,0.9,1.8c0.6,0,0.9-0.6,0.9-1.7c0-1.1-0.4-1.7-0.9-1.7
			S141.8,220.3,141.8,221.4z"/>
		<path class="st2" d="M147.2,223.5v-0.3l-0.1,0c-0.2,0.3-0.5,0.5-0.9,0.5c-0.5,0-0.9-0.2-1-0.7c-0.1-0.2-0.1-0.6-0.1-1.1v-2.4h0.6
			v2.6c0,0.8,0.1,1.2,0.7,1.2c0.3,0,0.6-0.1,0.8-0.4v-3.3h0.6v4.1H147.2z"/>
		<path class="st2" d="M149.5,219.4v0.3l0.1,0c0.2-0.3,0.5-0.5,0.9-0.5c0.8,0,1.1,0.5,1.1,1.4v2.8H151v-2.6c0-0.8-0.1-1.2-0.7-1.2
			c-0.3,0-0.6,0.1-0.8,0.4v3.3h-0.6v-4.1H149.5z"/>
		<path class="st2" d="M154.8,223.2L154.8,223.2c-0.3,0.3-0.6,0.5-1,0.5c-0.8,0-1.3-0.8-1.3-2.2c0-1.3,0.5-2.2,1.3-2.2
			c0.4,0,0.6,0.2,0.9,0.5l0.1,0v-2h0.6v5.8h-0.6V223.2z M154.8,220.2c-0.3-0.3-0.5-0.4-0.8-0.4c-0.6,0-0.9,0.6-0.9,1.7
			c0,1.1,0.3,1.7,0.9,1.7c0.3,0,0.5-0.2,0.8-0.4V220.2z"/>
		<path class="st2" d="M156.9,221.6v0.1c0,0.9,0.4,1.4,1,1.4c0.4,0,0.8-0.2,0.9-0.5h0.4v0.5c-0.4,0.4-0.8,0.5-1.4,0.5
			c-1.1,0-1.6-0.7-1.6-2.2c0-1.4,0.6-2.2,1.5-2.2c1,0,1.5,0.8,1.5,2.2v0.2H156.9z M158.7,221.2c0-0.9-0.4-1.4-0.9-1.4
			c-0.6,0-0.9,0.5-0.9,1.4H158.7z"/>
		<path class="st2" d="M160.8,219.4v0.3c0,0.1,0,0.3-0.1,0.4l0.1,0.1c0.2-0.5,0.8-0.8,1.3-0.8h0v0.7c-0.6,0-1,0.2-1.4,0.6v2.9h-0.6
			v-4.1H160.8z"/>
		<path class="st2" d="M162.8,219.8c0.4,0,0.5-0.2,0.5-0.6v-0.4H163V218h0.9v0.9c0,0.9-0.2,1.2-1,1.2V219.8z"/>
		<path class="st2" d="M164.9,222.5c0.2,0.4,0.5,0.6,1,0.6c0.5,0,0.8-0.3,0.8-0.7c0-0.6-0.5-0.6-1.3-0.9c-0.5-0.2-0.8-0.6-0.8-1.1
			c0-0.7,0.5-1.2,1.3-1.2c0.4,0,0.8,0.1,1.2,0.5v0.6h-0.4c-0.2-0.4-0.5-0.6-0.8-0.6c-0.4,0-0.8,0.3-0.8,0.7c0,0.4,0.3,0.6,0.9,0.8
			c0.8,0.2,1.2,0.6,1.2,1.2c0,0.7-0.5,1.3-1.4,1.3c-0.5,0-1-0.2-1.4-0.5v-0.6H164.9z"/>
		<path class="st2" d="M64,233.3L64,233.3c-0.3,0.3-0.6,0.5-1,0.5c-0.8,0-1.3-0.8-1.3-2.2c0-1.3,0.5-2.2,1.3-2.2
			c0.4,0,0.6,0.2,0.9,0.5l0.1,0v-2h0.6v5.8H64V233.3z M64,230.4c-0.3-0.3-0.5-0.4-0.8-0.4c-0.6,0-0.9,0.6-0.9,1.7
			c0,1.1,0.3,1.7,0.9,1.7c0.3,0,0.5-0.2,0.8-0.4V230.4z"/>
		<path class="st2" d="M68.4,233.7h-0.6v-0.3h-0.1c-0.3,0.3-0.6,0.5-1,0.5c-0.7,0-1.3-0.5-1.3-1.2c0-0.9,0.8-1.4,2.3-1.5
			c0-0.1,0-0.2,0-0.3c0-0.7-0.2-0.9-0.8-0.9c-0.4,0-0.7,0.2-0.9,0.6h-0.4v-0.6c0.4-0.2,0.8-0.4,1.3-0.4c0.5,0,0.9,0.2,1.2,0.5
			c0.2,0.3,0.2,0.6,0.2,1.3V233.7z M67.8,231.5c-1.2,0.1-1.7,0.5-1.7,1.1c0,0.4,0.3,0.7,0.8,0.7c0.3,0,0.6-0.1,0.9-0.4V231.5z"/>
		<path class="st2" d="M71.5,233.7v-0.3l-0.1,0c-0.2,0.3-0.5,0.5-0.9,0.5c-0.5,0-0.9-0.2-1-0.7c-0.1-0.2-0.1-0.6-0.1-1.1v-2.4h0.6
			v2.6c0,0.8,0.1,1.2,0.7,1.2c0.3,0,0.6-0.1,0.8-0.4v-3.3H72v4.1H71.5z"/>
		<path class="st2" d="M75.9,233.5c0,1.1-0.5,1.5-1.4,1.5c-0.5,0-0.9-0.1-1.3-0.4v-0.7h0.4c0.2,0.4,0.4,0.5,0.9,0.5
			c0.7,0,0.8-0.4,0.8-1.3v-0.3l-0.1,0c-0.2,0.3-0.5,0.5-0.9,0.5c-0.8,0-1.3-0.7-1.3-1.9c0-1.3,0.5-2,1.3-2c0.4,0,0.7,0.2,0.9,0.5
			l0.1,0v-0.4h0.6V233.5z M75.3,230.4c-0.3-0.3-0.5-0.4-0.8-0.4c-0.6,0-0.9,0.5-0.9,1.4c0,1,0.3,1.5,0.9,1.5c0.3,0,0.6-0.1,0.8-0.4
			V230.4z"/>
		<path class="st2" d="M77.5,227.9v2l0.1,0c0.2-0.3,0.5-0.5,0.9-0.5c0.7,0,1.1,0.5,1.1,1.4v2.8h-0.6v-2.6c0-0.8-0.1-1.2-0.7-1.2
			c-0.3,0-0.6,0.1-0.8,0.4v3.3H77v-5.8H77.5z"/>
		<path class="st2" d="M82.3,229.5v0.5h-0.9v2.6c0,0.6,0,0.6,0.5,0.6h0.4v0.5h-0.6c-0.8,0-0.9-0.3-0.9-1.3V230h-0.5v-0.5h0.5v-1.3
			h0.6v1.3H82.3z"/>
		<path class="st2" d="M83.5,231.8v0.1c0,0.9,0.4,1.4,1,1.4c0.4,0,0.8-0.2,0.9-0.5h0.4v0.5c-0.4,0.4-0.8,0.5-1.4,0.5
			c-1.1,0-1.6-0.7-1.6-2.2c0-1.4,0.6-2.2,1.5-2.2c1,0,1.5,0.8,1.5,2.2v0.2H83.5z M85.3,231.3c0-0.9-0.4-1.4-0.9-1.4
			c-0.6,0-0.9,0.5-0.9,1.4H85.3z"/>
		<path class="st2" d="M87.4,229.5v0.3c0,0.1,0,0.3-0.1,0.4l0.1,0.1c0.2-0.5,0.8-0.8,1.3-0.8h0v0.7c-0.6,0-1,0.2-1.4,0.6v2.9h-0.6
			v-4.1H87.4z"/>
		<path class="st2" d="M88.4,234.6c0.4,0,0.5-0.2,0.5-0.6v-0.4h-0.4v-0.7h0.9v0.9c0,0.9-0.2,1.2-1,1.2V234.6z"/>
		<path class="st2" d="M94,229.5v0.5h-0.9v2.6c0,0.6,0,0.6,0.5,0.6H94v0.5h-0.6c-0.8,0-0.9-0.3-0.9-1.3V230H92v-0.5h0.5v-1.3h0.6
			v1.3H94z"/>
		<path class="st2" d="M95.3,227.9v2l0.1,0c0.2-0.3,0.5-0.5,0.9-0.5c0.7,0,1.1,0.5,1.1,1.4v2.8h-0.6v-2.6c0-0.8-0.1-1.2-0.7-1.2
			c-0.3,0-0.6,0.1-0.8,0.4v3.3h-0.6v-5.8H95.3z"/>
		<path class="st2" d="M99.1,227.9v0.7h-0.6v-0.7H99.1z M99.1,229.5v4.1h-0.6v-4.1H99.1z"/>
		<path class="st2" d="M100.4,232.7c0.2,0.4,0.5,0.6,1,0.6c0.5,0,0.8-0.3,0.8-0.7c0-0.6-0.5-0.6-1.3-0.9c-0.5-0.2-0.8-0.6-0.8-1.1
			c0-0.7,0.6-1.2,1.3-1.2c0.4,0,0.8,0.1,1.2,0.5v0.6h-0.4c-0.2-0.4-0.5-0.6-0.8-0.6c-0.4,0-0.8,0.3-0.8,0.7s0.3,0.6,0.9,0.8
			c0.8,0.2,1.2,0.6,1.2,1.2c0,0.7-0.5,1.3-1.4,1.3c-0.5,0-1-0.2-1.4-0.5v-0.6H100.4z"/>
		<path class="st2" d="M107.5,230.5c-0.1-0.4-0.4-0.6-0.7-0.6c-0.5,0-0.9,0.6-0.9,1.7c0,1.1,0.3,1.7,0.9,1.7c0.3,0,0.6-0.2,0.7-0.6
			h0.4v0.6c-0.3,0.4-0.7,0.5-1.1,0.5c-0.9,0-1.5-0.8-1.5-2.2c0-1.4,0.6-2.2,1.5-2.2c0.4,0,0.8,0.2,1.1,0.5v0.6H107.5z"/>
		<path class="st2" d="M109.5,227.9v2l0.1,0c0.2-0.3,0.5-0.5,0.9-0.5c0.7,0,1.1,0.5,1.1,1.4v2.8H111v-2.6c0-0.8-0.1-1.2-0.7-1.2
			c-0.3,0-0.6,0.1-0.8,0.4v3.3h-0.6v-5.8H109.5z"/>
		<path class="st2" d="M113,231.8v0.1c0,0.9,0.4,1.4,1,1.4c0.4,0,0.8-0.2,0.9-0.5h0.4v0.5c-0.4,0.4-0.8,0.5-1.4,0.5
			c-1.1,0-1.6-0.7-1.6-2.2c0-1.4,0.6-2.2,1.5-2.2c1,0,1.5,0.8,1.5,2.2v0.2H113z M114.8,231.3c0-0.9-0.4-1.4-0.9-1.4
			c-0.6,0-0.9,0.5-0.9,1.4H114.8z"/>
		<path class="st2" d="M116.6,229.5l0.7,3.5h0.1l0.7-3.5h0.6l0.7,3.5h0.1l0.7-3.5h0.7l-1.2,4.1h-0.6l-0.7-3.2h-0.1l-0.7,3.2h-0.6
			l-1.1-4.1H116.6z"/>
		<path class="st2" d="M121.9,229.5l0.8,3.4h0.1l0.7-3.4h0.7l-1.2,4c-0.3,1-0.7,1.5-1.6,1.5c-0.1,0-0.1,0-0.2,0v-0.5
			c0.1,0,0.1,0,0.2,0c0.6,0,0.8-0.3,1-1l-1.2-3.9H121.9z"/>
		<path class="st2" d="M128.8,230.5c-0.1-0.4-0.4-0.6-0.7-0.6c-0.5,0-0.9,0.6-0.9,1.7c0,1.1,0.3,1.7,0.9,1.7c0.3,0,0.6-0.2,0.7-0.6
			h0.4v0.6c-0.3,0.4-0.7,0.5-1.1,0.5c-0.9,0-1.5-0.8-1.5-2.2c0-1.4,0.6-2.2,1.5-2.2c0.4,0,0.8,0.2,1.1,0.5v0.6H128.8z"/>
		<path class="st2" d="M130.8,227.9v5.8h-0.6v-5.8H130.8z"/>
		<path class="st2" d="M134.6,233.7H134v-0.3H134c-0.3,0.3-0.6,0.5-1,0.5c-0.7,0-1.3-0.5-1.3-1.2c0-0.9,0.8-1.4,2.3-1.5
			c0-0.1,0-0.2,0-0.3c0-0.7-0.2-0.9-0.8-0.9c-0.4,0-0.7,0.2-0.9,0.6h-0.4v-0.6c0.4-0.2,0.8-0.4,1.3-0.4c0.5,0,0.9,0.2,1.2,0.5
			c0.2,0.3,0.2,0.6,0.2,1.3V233.7z M134,231.5c-1.2,0.1-1.7,0.5-1.7,1.1c0,0.4,0.3,0.7,0.8,0.7c0.3,0,0.6-0.1,0.9-0.4V231.5z"/>
		<path class="st2" d="M135.9,232.7c0.2,0.4,0.5,0.6,1,0.6c0.5,0,0.8-0.3,0.8-0.7c0-0.6-0.5-0.6-1.3-0.9c-0.5-0.2-0.8-0.6-0.8-1.1
			c0-0.7,0.6-1.2,1.3-1.2c0.4,0,0.8,0.1,1.2,0.5v0.6h-0.4c-0.2-0.4-0.5-0.6-0.8-0.6c-0.4,0-0.8,0.3-0.8,0.7s0.3,0.6,0.9,0.8
			c0.8,0.2,1.2,0.6,1.2,1.2c0,0.7-0.5,1.3-1.4,1.3c-0.5,0-1-0.2-1.4-0.5v-0.6H135.9z"/>
		<path class="st2" d="M139.3,232.7c0.2,0.4,0.5,0.6,1,0.6c0.5,0,0.8-0.3,0.8-0.7c0-0.6-0.5-0.6-1.3-0.9c-0.5-0.2-0.8-0.6-0.8-1.1
			c0-0.7,0.5-1.2,1.3-1.2c0.4,0,0.8,0.1,1.2,0.5v0.6h-0.4c-0.2-0.4-0.5-0.6-0.8-0.6c-0.4,0-0.8,0.3-0.8,0.7s0.3,0.6,0.9,0.8
			c0.8,0.2,1.2,0.6,1.2,1.2c0,0.7-0.5,1.3-1.4,1.3c-0.5,0-1-0.2-1.4-0.5v-0.6H139.3z"/>
		<path class="st2" d="M143.2,227.9v0.7h-0.6v-0.7H143.2z M143.1,229.5v4.1h-0.6v-4.1H143.1z"/>
		<path class="st2" d="M146.3,230.5c-0.1-0.4-0.4-0.6-0.7-0.6c-0.5,0-0.9,0.6-0.9,1.7c0,1.1,0.3,1.7,0.9,1.7c0.3,0,0.6-0.2,0.7-0.6
			h0.4v0.6c-0.3,0.4-0.7,0.5-1.1,0.5c-0.9,0-1.5-0.8-1.5-2.2c0-1.4,0.6-2.2,1.5-2.2c0.4,0,0.8,0.2,1.1,0.5v0.6H146.3z"/>
		<path class="st2" d="M150.1,227.9v0.7h-0.6v-0.7H150.1z M150.1,229.5v4.1h-0.6v-4.1H150.1z"/>
		<path class="st2" d="M151.4,232.7c0.2,0.4,0.5,0.6,1,0.6c0.5,0,0.8-0.3,0.8-0.7c0-0.6-0.5-0.6-1.3-0.9c-0.5-0.2-0.8-0.6-0.8-1.1
			c0-0.7,0.5-1.2,1.3-1.2c0.4,0,0.8,0.1,1.2,0.5v0.6h-0.4c-0.2-0.4-0.5-0.6-0.8-0.6c-0.4,0-0.8,0.3-0.8,0.7s0.3,0.6,0.9,0.8
			c0.8,0.2,1.2,0.6,1.2,1.2c0,0.7-0.5,1.3-1.4,1.3c-0.5,0-1-0.2-1.4-0.5v-0.6H151.4z"/>
		<path class="st2" d="M62.5,238.1v0.7h-0.6v-0.7H62.5z M62.5,239.7v4.1h-0.6v-4.1H62.5z"/>
		<path class="st2" d="M64.3,239.7v0.3c0,0.1,0,0.3-0.1,0.4l0.1,0.1c0.2-0.5,0.8-0.8,1.3-0.8h0v0.7c-0.6,0-1,0.2-1.4,0.6v2.9h-0.6
			v-4.1H64.3z"/>
		<path class="st2" d="M67.1,239.7v0.3c0,0.1,0,0.3-0.1,0.4l0.1,0.1c0.2-0.5,0.8-0.8,1.3-0.8h0v0.7c-0.6,0-1,0.2-1.4,0.6v2.9h-0.6
			v-4.1H67.1z"/>
		<path class="st2" d="M69.7,242v0.1c0,0.9,0.4,1.4,1,1.4c0.4,0,0.8-0.2,0.9-0.5h0.4v0.5c-0.4,0.4-0.8,0.5-1.4,0.5
			c-1.1,0-1.6-0.7-1.6-2.2c0-1.4,0.6-2.2,1.5-2.2c1,0,1.5,0.8,1.5,2.2v0.2H69.7z M71.5,241.5c0-0.9-0.4-1.4-0.9-1.4
			c-0.6,0-0.9,0.5-0.9,1.4H71.5z"/>
		<path class="st2" d="M73.2,242.9c0.2,0.4,0.5,0.6,1,0.6c0.5,0,0.8-0.3,0.8-0.7c0-0.6-0.5-0.6-1.3-0.9c-0.5-0.2-0.8-0.6-0.8-1.1
			c0-0.7,0.6-1.2,1.3-1.2c0.4,0,0.8,0.1,1.2,0.5v0.6h-0.4c-0.2-0.4-0.5-0.6-0.8-0.6c-0.4,0-0.8,0.3-0.8,0.7c0,0.4,0.3,0.6,0.9,0.8
			c0.8,0.2,1.2,0.6,1.2,1.2c0,0.7-0.5,1.3-1.4,1.3c-0.5,0-1-0.2-1.4-0.5v-0.6H73.2z"/>
		<path class="st2" d="M77.1,238.1v0.7h-0.6v-0.7H77.1z M77.1,239.7v4.1h-0.6v-4.1H77.1z"/>
		<path class="st2" d="M78.4,242.9c0.2,0.4,0.5,0.6,1,0.6c0.5,0,0.8-0.3,0.8-0.7c0-0.6-0.5-0.6-1.3-0.9c-0.5-0.2-0.8-0.6-0.8-1.1
			c0-0.7,0.6-1.2,1.3-1.2c0.4,0,0.8,0.1,1.2,0.5v0.6h-0.4c-0.2-0.4-0.5-0.6-0.8-0.6c-0.4,0-0.8,0.3-0.8,0.7c0,0.4,0.3,0.6,0.9,0.8
			c0.8,0.2,1.2,0.6,1.2,1.2c0,0.7-0.5,1.3-1.4,1.3c-0.5,0-1-0.2-1.4-0.5v-0.6H78.4z"/>
		<path class="st2" d="M83.3,239.7v0.5h-0.9v2.6c0,0.6,0,0.6,0.5,0.6h0.4v0.5h-0.6c-0.8,0-0.9-0.3-0.9-1.3v-2.4h-0.5v-0.5h0.5v-1.3
			h0.6v1.3H83.3z"/>
		<path class="st2" d="M84.6,238.1v0.7H84v-0.7H84.6z M84.6,239.7v4.1H84v-4.1H84.6z"/>
		<path class="st2" d="M86.3,238.1v2l0.1,0c0.2-0.3,0.5-0.5,0.9-0.5c0.7,0,1.3,0.8,1.3,2.2c0,1.4-0.5,2.2-1.3,2.2
			c-0.4,0-0.7-0.2-0.9-0.5l-0.1,0v0.4h-0.6v-5.8H86.3z M86.3,243c0.3,0.3,0.5,0.4,0.8,0.4c0.6,0,0.9-0.6,0.9-1.7
			c0-1.1-0.3-1.7-0.9-1.7c-0.3,0-0.5,0.1-0.8,0.4V243z"/>
		<path class="st2" d="M90.1,238.1v5.8h-0.6v-5.8H90.1z"/>
		<path class="st2" d="M91.7,242v0.1c0,0.9,0.4,1.4,1,1.4c0.4,0,0.8-0.2,0.9-0.5h0.4v0.5c-0.4,0.4-0.8,0.5-1.4,0.5
			c-1.1,0-1.6-0.7-1.6-2.2c0-1.4,0.6-2.2,1.5-2.2c1,0,1.5,0.8,1.5,2.2v0.2H91.7z M93.5,241.5c0-0.9-0.4-1.4-0.9-1.4
			c-0.6,0-0.9,0.5-0.9,1.4H93.5z"/>
		<path class="st2" d="M96.8,241.7c0-1.3,0.4-2.5,1.2-3.5h0.5v0.1c-0.7,0.9-1,2-1,3.4c0,1.4,0.3,2.5,1,3.4v0.1H98
			C97.2,244.2,96.8,243,96.8,241.7z"/>
		<path class="st2" d="M99.7,242v0.1c0,0.9,0.4,1.4,1,1.4c0.4,0,0.8-0.2,0.9-0.5h0.4v0.5c-0.4,0.4-0.8,0.5-1.4,0.5
			c-1.1,0-1.6-0.7-1.6-2.2c0-1.4,0.6-2.2,1.5-2.2c1,0,1.5,0.8,1.5,2.2v0.2H99.7z M101.5,241.5c0-0.9-0.4-1.4-0.9-1.4
			c-0.6,0-0.9,0.5-0.9,1.4H101.5z"/>
		<path class="st2" d="M103.2,242.9c0.2,0.4,0.5,0.6,1,0.6c0.5,0,0.8-0.3,0.8-0.7c0-0.6-0.5-0.6-1.3-0.9c-0.5-0.2-0.8-0.6-0.8-1.1
			c0-0.7,0.6-1.2,1.3-1.2c0.4,0,0.8,0.1,1.2,0.5v0.6h-0.4c-0.2-0.4-0.5-0.6-0.8-0.6c-0.4,0-0.8,0.3-0.8,0.7c0,0.4,0.3,0.6,0.9,0.8
			c0.8,0.2,1.2,0.6,1.2,1.2c0,0.7-0.5,1.3-1.4,1.3c-0.5,0-1-0.2-1.4-0.5v-0.6H103.2z"/>
		<path class="st2" d="M107,239.7v0.4l0.1,0c0.2-0.3,0.5-0.5,0.9-0.5c0.8,0,1.3,0.8,1.3,2.2c0,1.3-0.5,2.2-1.3,2.2
			c-0.4,0-0.7-0.2-0.9-0.5l-0.1,0v1.6h-0.6v-5.4H107z M107,243c0.3,0.3,0.5,0.4,0.8,0.4c0.6,0,0.9-0.6,0.9-1.7
			c0-1.1-0.3-1.7-0.9-1.7c-0.3,0-0.5,0.1-0.8,0.4V243z"/>
		<path class="st2" d="M110.6,242v0.1c0,0.9,0.4,1.4,1,1.4c0.4,0,0.8-0.2,0.9-0.5h0.4v0.5c-0.4,0.4-0.8,0.5-1.4,0.5
			c-1.1,0-1.6-0.7-1.6-2.2c0-1.4,0.6-2.2,1.5-2.2c1,0,1.5,0.8,1.5,2.2v0.2H110.6z M112.4,241.5c0-0.9-0.4-1.4-0.9-1.4
			c-0.6,0-0.9,0.5-0.9,1.4H112.4z"/>
		<path class="st2" d="M116,240.7c-0.1-0.4-0.4-0.6-0.7-0.6c-0.5,0-0.9,0.6-0.9,1.7c0,1.1,0.3,1.7,0.9,1.7c0.3,0,0.6-0.2,0.7-0.6
			h0.4v0.6c-0.3,0.4-0.7,0.5-1.1,0.5c-0.9,0-1.5-0.8-1.5-2.2c0-1.4,0.6-2.2,1.5-2.2c0.4,0,0.8,0.2,1.1,0.5v0.6H116z"/>
		<path class="st2" d="M117.9,238.1v0.7h-0.6v-0.7H117.9z M117.9,239.7v4.1h-0.6v-4.1H117.9z"/>
		<path class="st2" d="M121.7,243.8h-0.6v-0.3h-0.1c-0.3,0.3-0.6,0.5-1,0.5c-0.7,0-1.3-0.5-1.3-1.2c0-0.9,0.8-1.4,2.3-1.5
			c0-0.1,0-0.2,0-0.3c0-0.7-0.2-0.9-0.8-0.9c-0.4,0-0.7,0.2-0.9,0.6H119V240c0.4-0.2,0.8-0.4,1.3-0.4c0.5,0,0.9,0.2,1.2,0.5
			c0.2,0.3,0.2,0.6,0.2,1.3V243.8z M121.1,241.6c-1.2,0.1-1.7,0.5-1.7,1.1c0,0.4,0.3,0.7,0.8,0.7c0.3,0,0.6-0.1,0.9-0.4V241.6z"/>
		<path class="st2" d="M123.4,238.1v5.8h-0.6v-5.8H123.4z"/>
		<path class="st2" d="M125.2,238.1v5.8h-0.6v-5.8H125.2z"/>
		<path class="st2" d="M126.7,239.7l0.8,3.4h0.1l0.7-3.4h0.7l-1.2,4c-0.3,1-0.7,1.5-1.6,1.5c-0.1,0-0.1,0-0.2,0v-0.5
			c0.1,0,0.1,0,0.2,0c0.6,0,0.8-0.3,1-1l-1.2-3.9H126.7z"/>
		<path class="st2" d="M131.8,239.7l0.7,3.5h0.1l0.7-3.5h0.6l0.7,3.5h0.1l0.7-3.5h0.7l-1.2,4.1h-0.6l-0.7-3.2h-0.1l-0.7,3.2h-0.6
			l-1.1-4.1H131.8z"/>
		<path class="st2" d="M137.5,238.1v2l0.1,0c0.2-0.3,0.5-0.5,0.9-0.5c0.7,0,1.1,0.5,1.1,1.4v2.8H139v-2.6c0-0.8-0.1-1.2-0.7-1.2
			c-0.3,0-0.6,0.1-0.8,0.4v3.3h-0.6v-5.8H137.5z"/>
		<path class="st2" d="M141.1,242v0.1c0,0.9,0.4,1.4,1,1.4c0.4,0,0.8-0.2,0.9-0.5h0.4v0.5c-0.4,0.4-0.8,0.5-1.4,0.5
			c-1.1,0-1.6-0.7-1.6-2.2c0-1.4,0.6-2.2,1.5-2.2c1,0,1.5,0.8,1.5,2.2v0.2H141.1z M142.9,241.5c0-0.9-0.4-1.4-0.9-1.4
			c-0.6,0-0.9,0.5-0.9,1.4H142.9z"/>
		<path class="st2" d="M145,239.7v0.3l0.1,0c0.2-0.3,0.5-0.5,0.9-0.5c0.8,0,1.1,0.5,1.1,1.4v2.8h-0.6v-2.6c0-0.8-0.1-1.2-0.7-1.2
			c-0.3,0-0.6,0.1-0.8,0.4v3.3h-0.6v-4.1H145z"/>
		<path class="st2" d="M150.3,239.7l0.8,3.4h0.1l0.7-3.4h0.7l-1.2,4c-0.3,1-0.7,1.5-1.6,1.5c-0.1,0-0.1,0-0.2,0v-0.5
			c0.1,0,0.1,0,0.2,0c0.6,0,0.8-0.3,1-1l-1.2-3.9H150.3z"/>
		<path class="st2" d="M156.1,241.8c0,1.4-0.6,2.2-1.5,2.2c-0.9,0-1.5-0.8-1.5-2.2c0-1.3,0.6-2.2,1.5-2.2
			C155.5,239.6,156.1,240.4,156.1,241.8z M153.7,241.7c0,1.2,0.3,1.8,0.9,1.8c0.6,0,0.9-0.6,0.9-1.7c0-1.1-0.4-1.7-0.9-1.7
			S153.7,240.7,153.7,241.7z"/>
		<path class="st2" d="M159.1,243.8v-0.3l-0.1,0c-0.2,0.3-0.5,0.5-0.9,0.5c-0.5,0-0.9-0.2-1-0.7c-0.1-0.2-0.1-0.6-0.1-1.1v-2.4h0.6
			v2.6c0,0.8,0.1,1.2,0.7,1.2c0.3,0,0.6-0.1,0.8-0.4v-3.3h0.6v4.1H159.1z"/>
		<path class="st2" d="M160.6,240.1c0.4,0,0.5-0.2,0.5-0.6V239h-0.4v-0.7h0.9v0.9c0,0.9-0.2,1.2-1,1.2V240.1z"/>
		<path class="st2" d="M162.9,239.7l0.6,2.3c0.1,0.3,0.1,0.6,0.2,1.1h0.1c0.1-0.6,0.2-1,0.2-1.1l0.5-2.3h0.7l-1.2,4.1h-0.5l-1.2-4.1
			H162.9z"/>
		<path class="st2" d="M166.4,242v0.1c0,0.9,0.4,1.4,1,1.4c0.4,0,0.8-0.2,0.9-0.5h0.4v0.5c-0.4,0.4-0.8,0.5-1.4,0.5
			c-1.1,0-1.6-0.7-1.6-2.2c0-1.4,0.6-2.2,1.5-2.2c1,0,1.5,0.8,1.5,2.2v0.2H166.4z M168.2,241.5c0-0.9-0.4-1.4-0.9-1.4
			c-0.6,0-0.9,0.5-0.9,1.4H168.2z"/>
		<path class="st2" d="M62.3,252.1v0.1c0,0.9,0.4,1.4,1,1.4c0.4,0,0.8-0.2,0.9-0.5h0.4v0.5c-0.4,0.4-0.8,0.5-1.4,0.5
			c-1.1,0-1.6-0.7-1.6-2.2c0-1.4,0.6-2.2,1.5-2.2c1,0,1.5,0.8,1.5,2.2v0.2H62.3z M64.1,251.7c0-0.9-0.4-1.4-0.9-1.4
			c-0.6,0-0.9,0.5-0.9,1.4H64.1z"/>
		<path class="st2" d="M68.4,254h-0.6v-0.3h-0.1c-0.3,0.3-0.6,0.5-1,0.5c-0.7,0-1.3-0.5-1.3-1.2c0-0.9,0.8-1.4,2.3-1.5
			c0-0.1,0-0.2,0-0.3c0-0.7-0.2-0.9-0.8-0.9c-0.4,0-0.7,0.2-0.9,0.6h-0.4v-0.6c0.4-0.2,0.8-0.4,1.3-0.4c0.5,0,0.9,0.2,1.2,0.5
			c0.2,0.3,0.2,0.6,0.2,1.3V254z M67.8,251.8c-1.2,0.1-1.7,0.5-1.7,1.1c0,0.4,0.3,0.7,0.8,0.7c0.3,0,0.6-0.1,0.9-0.4V251.8z"/>
		<path class="st2" d="M71,249.9v0.5h-0.9v2.6c0,0.6,0,0.6,0.5,0.6H71v0.5h-0.6c-0.8,0-0.9-0.3-0.9-1.3v-2.4H69v-0.5h0.5v-1.3h0.6
			v1.3H71z"/>
		<path class="st2" d="M72.2,252.1v0.1c0,0.9,0.4,1.4,1,1.4c0.4,0,0.8-0.2,0.9-0.5h0.4v0.5c-0.4,0.4-0.8,0.5-1.4,0.5
			c-1.1,0-1.6-0.7-1.6-2.2c0-1.4,0.6-2.2,1.5-2.2c1,0,1.5,0.8,1.5,2.2v0.2H72.2z M74,251.7c0-0.9-0.4-1.4-0.9-1.4
			c-0.6,0-0.9,0.5-0.9,1.4H74z"/>
		<path class="st2" d="M76.1,249.9v0.3l0.1,0c0.2-0.3,0.5-0.5,0.9-0.5c0.8,0,1.1,0.5,1.1,1.4v2.8h-0.6v-2.6c0-0.8-0.1-1.2-0.7-1.2
			c-0.3,0-0.6,0.1-0.8,0.4v3.3h-0.6v-4.1H76.1z"/>
		<path class="st2" d="M81.6,252.1v0.1c0,0.9,0.4,1.4,1,1.4c0.4,0,0.8-0.2,0.9-0.5H84v0.5c-0.4,0.4-0.8,0.5-1.4,0.5
			c-1.1,0-1.6-0.7-1.6-2.2c0-1.4,0.6-2.2,1.5-2.2c1,0,1.5,0.8,1.5,2.2v0.2H81.6z M83.4,251.7c0-0.9-0.4-1.4-0.9-1.4
			c-0.6,0-0.9,0.5-0.9,1.4H83.4z"/>
		<path class="st2" d="M85.2,249.9l0.6,2.3c0.1,0.3,0.1,0.6,0.2,1.1h0.1c0.1-0.6,0.2-1,0.2-1.1l0.5-2.3h0.7l-1.2,4.1h-0.5l-1.2-4.1
			H85.2z"/>
		<path class="st2" d="M88.6,252.1v0.1c0,0.9,0.4,1.4,1,1.4c0.4,0,0.8-0.2,0.9-0.5h0.4v0.5c-0.4,0.4-0.8,0.5-1.4,0.5
			c-1.1,0-1.6-0.7-1.6-2.2c0-1.4,0.6-2.2,1.5-2.2c1,0,1.5,0.8,1.5,2.2v0.2H88.6z M90.5,251.7c0-0.9-0.4-1.4-0.9-1.4
			c-0.6,0-0.9,0.5-0.9,1.4H90.5z"/>
		<path class="st2" d="M92.6,249.9v0.3c0,0.1,0,0.3-0.1,0.4l0.1,0.1c0.2-0.5,0.8-0.8,1.3-0.8h0v0.7c-0.6,0-1,0.2-1.4,0.6v2.9H92
			v-4.1H92.6z"/>
		<path class="st2" d="M95.1,249.9l0.8,3.4H96l0.7-3.4h0.7l-1.2,4c-0.3,1-0.7,1.5-1.6,1.5c-0.1,0-0.1,0-0.2,0v-0.5
			c0.1,0,0.1,0,0.2,0c0.6,0,0.8-0.3,1-1l-1.2-3.9H95.1z"/>
		<path class="st2" d="M99.7,249.9v0.5h-0.9v2.6c0,0.6,0,0.6,0.5,0.6h0.4v0.5h-0.6c-0.8,0-0.9-0.3-0.9-1.3v-2.4h-0.5v-0.5h0.5v-1.3
			h0.6v1.3H99.7z"/>
		<path class="st2" d="M101.1,248.2v2l0.1,0c0.2-0.3,0.5-0.5,0.9-0.5c0.7,0,1.1,0.5,1.1,1.4v2.8h-0.6v-2.6c0-0.8-0.1-1.2-0.7-1.2
			c-0.3,0-0.6,0.1-0.8,0.4v3.3h-0.6v-5.8H101.1z"/>
		<path class="st2" d="M104.9,248.2v0.7h-0.6v-0.7H104.9z M104.8,249.9v4.1h-0.6v-4.1H104.8z"/>
		<path class="st2" d="M106.6,249.9v0.3l0.1,0c0.2-0.3,0.5-0.5,0.9-0.5c0.8,0,1.1,0.5,1.1,1.4v2.8h-0.6v-2.6c0-0.8-0.1-1.2-0.7-1.2
			c-0.3,0-0.6,0.1-0.8,0.4v3.3H106v-4.1H106.6z"/>
		<path class="st2" d="M112.5,253.8c0,1-0.5,1.5-1.4,1.5c-0.5,0-0.9-0.1-1.3-0.4v-0.7h0.4c0.2,0.4,0.4,0.5,0.9,0.5
			c0.7,0,0.8-0.4,0.8-1.3v-0.3l-0.1,0c-0.2,0.3-0.5,0.5-0.9,0.5c-0.8,0-1.3-0.7-1.3-1.9c0-1.3,0.5-2,1.3-2c0.4,0,0.7,0.2,0.9,0.5
			l0.1,0v-0.4h0.6V253.8z M111.9,250.7c-0.3-0.3-0.5-0.4-0.8-0.4c-0.6,0-0.9,0.5-0.9,1.4c0,1,0.3,1.5,0.9,1.5c0.3,0,0.6-0.1,0.8-0.4
			V250.7z"/>
		<path class="st2" d="M115.8,252.1v0.1c0,0.9,0.4,1.4,1,1.4c0.4,0,0.8-0.2,0.9-0.5h0.4v0.5c-0.4,0.4-0.8,0.5-1.4,0.5
			c-1.1,0-1.6-0.7-1.6-2.2c0-1.4,0.6-2.2,1.5-2.2c1,0,1.5,0.8,1.5,2.2v0.2H115.8z M117.6,251.7c0-0.9-0.4-1.4-0.9-1.4
			c-0.6,0-0.9,0.5-0.9,1.4H117.6z"/>
		<path class="st2" d="M119.8,248.2v5.8h-0.6v-5.8H119.8z"/>
		<path class="st2" d="M121.1,253c0.2,0.4,0.5,0.6,1,0.6c0.5,0,0.8-0.3,0.8-0.7c0-0.6-0.5-0.6-1.3-0.9c-0.5-0.2-0.8-0.6-0.8-1.1
			c0-0.7,0.6-1.2,1.3-1.2c0.4,0,0.8,0.1,1.2,0.5v0.6h-0.4c-0.2-0.4-0.5-0.6-0.8-0.6c-0.4,0-0.8,0.3-0.8,0.7c0,0.4,0.3,0.6,0.9,0.8
			c0.8,0.2,1.2,0.6,1.2,1.2c0,0.7-0.5,1.3-1.4,1.3c-0.5,0-1-0.2-1.4-0.5V253H121.1z"/>
		<path class="st2" d="M124.7,252.1v0.1c0,0.9,0.4,1.4,1,1.4c0.4,0,0.8-0.2,0.9-0.5h0.4v0.5c-0.4,0.4-0.8,0.5-1.4,0.5
			c-1.1,0-1.6-0.7-1.6-2.2c0-1.4,0.6-2.2,1.5-2.2c1,0,1.5,0.8,1.5,2.2v0.2H124.7z M126.5,251.7c0-0.9-0.4-1.4-0.9-1.4
			c-0.6,0-0.9,0.5-0.9,1.4H126.5z"/>
		<path class="st2" d="M129.4,251.9c0,1.3-0.4,2.5-1.2,3.5h-0.5v-0.1c0.7-0.9,1-2,1-3.4c0-1.4-0.3-2.5-1-3.4v-0.1h0.5
			C129,249.4,129.4,250.5,129.4,251.9z"/>
	</g>
</g>
<circle class="st3" cx="28.4" cy="33.9" r="26.2"/>
<path class="st2" d="M23.2,29.9c-0.6,1.9,0.3,3.9,2.1,4.7l5.9,2.7c1.8,0.8,3.9,0.2,4.9-1.5l3.2-5.2L25,24.1L23.2,29.9z"/>
<path class="st4" d="M49.9,13.4c1.2-2,0.4-4.6-1.7-5.6L36.4,2.5c-2.1-1-4.6,0.1-5.3,2.4l-1.7,5.4l17.6,8L49.9,13.4z"/>
<polygon class="st5" points="29.4,10.2 25,24.1 39.3,30.6 46.9,18.2 "/>
<path class="st4" d="M18.4,50.7c-1.4,1.8-1.2,4.3,0.4,5.9l5.2,5.2c1.6,1.6,4.1,1.7,5.9,0.4l5.6-4.3L22.7,45.1L18.4,50.7z"/>
<path class="st2" d="M53.7,43.6c2.1-1.7,2.3-4.8,0.4-6.7L43.6,26.4c-1.9-1.9-5-1.7-6.7,0.4L33,31.9l15.7,15.6L53.7,43.6z"/>
<polygon class="st5" points="33,31.9 21.8,46.4 34.2,58.8 48.7,47.6 "/>
<path class="st2" d="M23.1,42.2c1.6,1.2,3.8,1,5.1-0.4l4.5-4.6c1.4-1.4,1.5-3.6,0.2-5.2l-3.9-4.8L18.2,38.5L23.1,42.2z"/>
<path class="st4" d="M16.5,11.5c-1.5-1.8-4.2-1.9-5.8-0.3l-9,9.3C0,22.2,0.2,25,2.1,26.4l4.5,3.4L20,15.9L16.5,11.5z"/>
<polygon class="st5" points="6.6,29.8 19.3,39.3 30,28.3 20,15.9 "/>
<circle class="st3" cx="28.9" cy="98.8" r="26.2"/>
<ellipse transform="matrix(5.325422e-02 -0.9986 0.9986 5.325422e-02 -73.9 124.7249)" class="st6" cx="28.8" cy="101.3" rx="6.2" ry="15.3"/>
<path class="st7" d="M13.8,101.7l1.6,5.9c3,7,21.6,8.2,25.9,1.1c0.2-0.4,2.6-5.7,2.6-5.7C38.2,110.8,16.3,107.2,13.8,101.7z"/>
<ellipse transform="matrix(0.9221 -0.3869 0.3869 0.9221 -34.6049 13.3159)" class="st6" cx="15.8" cy="92.6" rx="15.3" ry="6.2"/>
<path class="st7" d="M2.4,99.5l4,4.6c5.8,5,23-2.1,23.8-10.2c0-0.4-0.1-6.2-0.1-6.2C28.3,97.1,7.1,103.4,2.4,99.5z"/>
<ellipse transform="matrix(0.6037 -0.7972 0.7972 0.6037 -54.5569 67.6913)" class="st6" cx="40.8" cy="88.7" rx="7.4" ry="18.8"/>
<path class="st7" d="M24.9,78.6l-2.4,7.2C20.7,95.2,39,109.3,48.3,105c0.5-0.2,6.6-4,6.6-4C43.7,104.9,23.7,86.1,24.9,78.6z"/>
<circle class="st3" cx="28.7" cy="236.2" r="26.2"/>
<g>
	<polygon class="st8" points="17.7,250.6 23,248.8 28.3,247 27.2,252.5 26.1,258 21.9,254.3 	"/>
	<polygon class="st8" points="49,213.7 48.1,219.2 47.2,224.7 52.5,222.8 57.7,220.8 53.4,217.2 	"/>
	<g>
		
			<rect x="43.4" y="220.1" transform="matrix(0.6455 -0.7638 0.7638 0.6455 -156.9308 114.9544)" class="st9" width="3.9" height="12.9"/>
		<path class="st8" d="M52.7,227.8c0.9-1.1,0.8-2.8-0.3-3.7l-5.8-4.9c-1.1-0.9-2.8-0.8-3.7,0.3l-1.1,1.4l9.9,8.4L52.7,227.8z"/>
		<path class="st8" d="M32.3,252l0.8-0.9l-9.9-8.4l-0.8,0.9c-0.9,1.1-0.8,2.8,0.3,3.7l5.8,4.9C29.7,253.2,31.4,253.1,32.3,252z"/>
		
			<rect x="27" y="229.5" transform="matrix(0.6455 -0.7638 0.7638 0.6455 -166.9552 112.2114)" class="st10" width="20.7" height="12.9"/>
		
			<rect x="27.5" y="238.9" transform="matrix(0.6455 -0.7638 0.7638 0.6455 -176.9797 109.4684)" class="st9" width="3.9" height="12.9"/>
	</g>
</g>
<g>
	<polygon class="st11" points="3.2,230.2 7,234.4 10.8,238.5 5.3,239.7 -0.2,240.9 1.5,235.5 	"/>
	
		<rect x="29.9" y="244.2" transform="matrix(0.2909 -0.9568 0.9568 0.2909 -209.7155 209.3344)" class="st12" width="13" height="3.9"/>
	<path class="st2" d="M38.1,253.4c1.4,0.4,2.9-0.4,3.3-1.8l2.2-7.3c0.4-1.4-0.4-2.9-1.8-3.3l-1.7-0.5l-3.8,12.4L38.1,253.4z"/>
	<path class="st13" d="M7.8,244.2l1.1,0.3l3.8-12.4l-1.1-0.3c-1.4-0.4-2.9,0.4-3.3,1.8L6,240.9C5.6,242.3,6.4,243.8,7.8,244.2z"/>
	<polygon class="st14" points="36.4,252.9 36.4,239.4 16.5,233.3 12.7,245.7 	"/>
	
		<rect x="6.2" y="237" transform="matrix(0.2909 -0.9568 0.9568 0.2909 -219.6054 181.6148)" class="st12" width="13" height="3.9"/>
</g>
<g>
	<polygon class="st15" points="43.7,262.6 42.6,255.9 41.5,249.2 47.9,251.6 54.3,254.1 49,258.3 	"/>
	<polygon class="st15" points="5.9,217.4 12.3,219.6 18.8,221.8 17.5,215.1 16.2,208.4 11,212.9 	"/>
	<g>
		
			<rect x="12.7" y="222.1" transform="matrix(0.7661 -0.6428 0.6428 0.7661 -139.4667 65.7002)" class="st16" width="15.7" height="4.8"/>
		<path class="st15" d="M23.6,215.9c-1.1-1.4-3.2-1.5-4.5-0.4l-7.1,6c-1.4,1.1-1.5,3.2-0.4,4.5l1.4,1.7L25,217.6L23.6,215.9z"/>
		<path class="st15" d="M48.3,245.3l-0.9-1.1l-12.1,10.1l0.9,1.1c1.1,1.4,3.2,1.5,4.5,0.4l7.1-6C49.3,248.7,49.5,246.7,48.3,245.3z"
			/>
		
			<rect x="22.3" y="223.3" transform="matrix(0.7661 -0.6428 0.6428 0.7661 -144.6022 74.5943)" class="st17" width="15.7" height="25.2"/>
		
			<rect x="32" y="245.1" transform="matrix(0.7661 -0.6428 0.6428 0.7661 -149.7378 83.4883)" class="st16" width="15.7" height="4.8"/>
	</g>
</g>
<g>
	<g>
		<path class="st2" d="M63.7,152.6l0.9,3.1c0.1,0.5,0.3,1.1,0.4,1.6h0.2c0.1-0.7,0.3-1.2,0.4-1.7l0.9-3h1v5.5h-0.6v-3.3
			c0-0.2,0-0.8,0.1-1.8h-0.1l-1.5,5.1h-0.5l-1.5-5.1h-0.1c0.1,0.7,0.1,1.2,0.1,1.6v3.5h-0.6v-5.5H63.7z"/>
		<path class="st2" d="M72.2,155v0.3c0,0.7-0.2,1.2-0.5,1.5v0.1l1.2,1.2H72l-0.6-0.7c-0.4,0.6-0.8,0.8-1.5,0.8
			c-0.9,0-1.6-0.7-1.6-1.6c0-0.7,0.3-1.1,1-1.5v-0.1c-0.5-0.4-0.8-0.8-0.8-1.4c0-0.7,0.5-1.2,1.3-1.2c0.8,0,1.4,0.6,1.4,1.3
			c0,0.6-0.4,1.2-1.1,1.4v0.1c0.5,0.4,0.8,0.9,1.2,1.4h0.2V155H72.2z M69.6,155.4c-0.5,0.4-0.7,0.7-0.7,1.1c0,0.7,0.5,1.3,1.1,1.3
			c0.5,0,1-0.4,1.2-0.6L69.6,155.4z M70,154.9c0.5-0.3,0.7-0.6,0.7-1.1c0-0.6-0.3-0.9-0.8-0.9c-0.5,0-0.8,0.3-0.8,0.8
			c0,0.4,0.3,0.8,0.8,1.2H70z"/>
		<path class="st2" d="M74.3,152.6l0.9,3.1c0.1,0.5,0.3,1.1,0.4,1.6h0.2c0.1-0.7,0.3-1.2,0.4-1.7l0.9-3h1v5.5h-0.6v-3.3
			c0-0.2,0-0.8,0.1-1.8h-0.1l-1.5,5.1h-0.5l-1.5-5.1h-0.1c0.1,0.7,0.1,1.2,0.1,1.6v3.5h-0.6v-5.5H74.3z"/>
		<path class="st2" d="M78.9,154.4c0.4,0,0.5-0.2,0.5-0.6v-0.4H79v-0.7h0.9v0.9c0,0.9-0.2,1.2-1,1.2V154.4z"/>
		<path class="st2" d="M80.9,157.2c0.2,0.4,0.5,0.6,1,0.6c0.5,0,0.8-0.3,0.8-0.7c0-0.6-0.5-0.6-1.3-0.9c-0.5-0.2-0.8-0.6-0.8-1.1
			c0-0.7,0.6-1.2,1.3-1.2c0.4,0,0.8,0.1,1.2,0.5v0.6h-0.4c-0.2-0.4-0.5-0.6-0.8-0.6c-0.4,0-0.8,0.3-0.8,0.7s0.3,0.6,0.9,0.8
			c0.8,0.2,1.2,0.6,1.2,1.2c0,0.7-0.5,1.3-1.4,1.3c-0.5,0-1-0.2-1.4-0.5v-0.6H80.9z"/>
		<path class="st2" d="M84,159.1c0.4,0,0.5-0.2,0.5-0.6V158h-0.4v-0.7H85v0.9c0,0.9-0.2,1.2-1,1.2V159.1z"/>
		<path class="st2" d="M89.6,154v0.5h-0.9v2.6c0,0.6,0,0.6,0.5,0.6h0.4v0.5h-0.6c-0.8,0-0.9-0.3-0.9-1.3v-2.4h-0.5V154H88v-1.3h0.6
			v1.3H89.6z"/>
		<path class="st2" d="M90.9,152.4v2l0.1,0c0.2-0.3,0.5-0.5,0.9-0.5c0.7,0,1.1,0.5,1.1,1.4v2.8h-0.6v-2.6c0-0.8-0.1-1.2-0.7-1.2
			c-0.3,0-0.6,0.1-0.8,0.4v3.3h-0.6v-5.8H90.9z"/>
		<path class="st2" d="M94.5,156.3v0.1c0,0.9,0.4,1.4,1,1.4c0.4,0,0.8-0.2,0.9-0.5h0.4v0.5c-0.4,0.4-0.8,0.5-1.4,0.5
			c-1.1,0-1.6-0.7-1.6-2.2c0-1.4,0.6-2.2,1.5-2.2c1,0,1.5,0.8,1.5,2.2v0.2H94.5z M96.3,155.8c0-0.9-0.4-1.4-0.9-1.4
			c-0.6,0-0.9,0.5-0.9,1.4H96.3z"/>
		<path class="st2" d="M101.7,155c-0.1-0.4-0.4-0.6-0.7-0.6c-0.5,0-0.9,0.6-0.9,1.7c0,1.1,0.3,1.7,0.9,1.7c0.3,0,0.6-0.2,0.7-0.6
			h0.4v0.6c-0.3,0.4-0.7,0.5-1.1,0.5c-0.9,0-1.5-0.8-1.5-2.2c0-1.4,0.6-2.2,1.5-2.2c0.4,0,0.8,0.2,1.1,0.5v0.6H101.7z"/>
		<path class="st2" d="M105.8,156.1c0,1.4-0.6,2.2-1.5,2.2c-0.9,0-1.5-0.8-1.5-2.2c0-1.3,0.6-2.2,1.5-2.2
			C105.3,153.9,105.8,154.7,105.8,156.1z M103.4,156c0,1.2,0.3,1.8,0.9,1.8c0.6,0,0.9-0.6,0.9-1.7c0-1.1-0.4-1.7-0.9-1.7
			S103.4,155,103.4,156z"/>
		<path class="st2" d="M107.4,152.4v5.8h-0.6v-5.8H107.4z"/>
		<path class="st2" d="M111.4,156.1c0,1.4-0.6,2.2-1.5,2.2c-0.9,0-1.5-0.8-1.5-2.2c0-1.3,0.6-2.2,1.5-2.2
			C110.8,153.9,111.4,154.7,111.4,156.1z M108.9,156c0,1.2,0.3,1.8,0.9,1.8c0.6,0,0.9-0.6,0.9-1.7c0-1.1-0.4-1.7-0.9-1.7
			S108.9,155,108.9,156z"/>
		<path class="st2" d="M114.3,158.1v-0.3l-0.1,0c-0.2,0.3-0.5,0.5-0.9,0.5c-0.5,0-0.9-0.2-1-0.7c-0.1-0.2-0.1-0.6-0.1-1.1V154h0.6
			v2.6c0,0.8,0.1,1.2,0.7,1.2c0.3,0,0.6-0.1,0.8-0.4V154h0.6v4.1H114.3z"/>
		<path class="st2" d="M116.6,154v0.3c0,0.1,0,0.3-0.1,0.4l0.1,0.1c0.2-0.5,0.8-0.8,1.3-0.8h0v0.7c-0.6,0-1,0.2-1.4,0.6v2.9h-0.6
			V154H116.6z"/>
		<path class="st2" d="M118.4,154.5V154h0.6c0-0.1,0-0.3,0-0.5c0-0.9,0.3-1.3,1.2-1.3c0.1,0,0.1,0,0.2,0v0.5h-0.1
			c-0.5,0-0.7,0.2-0.7,0.7v0.6h0.7v0.5h-0.7v3.6H119v-3.6H118.4z"/>
		<path class="st2" d="M123.1,158.1v-0.3l-0.1,0c-0.2,0.3-0.5,0.5-0.9,0.5c-0.5,0-0.9-0.2-1-0.7c-0.1-0.2-0.1-0.6-0.1-1.1V154h0.6
			v2.6c0,0.8,0.1,1.2,0.7,1.2c0.3,0,0.6-0.1,0.8-0.4V154h0.6v4.1H123.1z"/>
		<path class="st2" d="M125.5,152.4v5.8h-0.6v-5.8H125.5z"/>
		<path class="st2" d="M129,152.4v2l0.1,0c0.2-0.3,0.5-0.5,0.9-0.5c0.7,0,1.3,0.8,1.3,2.2c0,1.4-0.5,2.2-1.3,2.2
			c-0.4,0-0.7-0.2-0.9-0.5l-0.1,0v0.4h-0.6v-5.8H129z M129,157.3c0.3,0.3,0.5,0.4,0.8,0.4c0.6,0,0.9-0.6,0.9-1.7
			c0-1.1-0.3-1.7-0.9-1.7c-0.3,0-0.5,0.1-0.8,0.4V157.3z"/>
		<path class="st2" d="M134.3,158.1v-0.3l-0.1,0c-0.2,0.3-0.5,0.5-0.9,0.5c-0.5,0-0.9-0.2-1-0.7c-0.1-0.2-0.1-0.6-0.1-1.1V154h0.6
			v2.6c0,0.8,0.1,1.2,0.7,1.2c0.3,0,0.6-0.1,0.8-0.4V154h0.6v4.1H134.3z"/>
		<path class="st2" d="M137.6,154v0.5h-0.9v2.6c0,0.6,0,0.6,0.5,0.6h0.4v0.5H137c-0.8,0-0.9-0.3-0.9-1.3v-2.4h-0.5V154h0.5v-1.3h0.6
			v1.3H137.6z"/>
		<path class="st2" d="M140,154v0.5H139v2.6c0,0.6,0,0.6,0.5,0.6h0.4v0.5h-0.6c-0.8,0-0.9-0.3-0.9-1.3v-2.4h-0.5V154h0.5v-1.3h0.6
			v1.3H140z"/>
		<path class="st2" d="M143.5,156.1c0,1.4-0.6,2.2-1.5,2.2c-0.9,0-1.5-0.8-1.5-2.2c0-1.3,0.6-2.2,1.5-2.2
			C142.9,153.9,143.5,154.7,143.5,156.1z M141.1,156c0,1.2,0.3,1.8,0.9,1.8c0.6,0,0.9-0.6,0.9-1.7c0-1.1-0.4-1.7-0.9-1.7
			S141.1,155,141.1,156z"/>
		<path class="st2" d="M145.1,154v0.3l0.1,0c0.2-0.3,0.5-0.5,0.9-0.5c0.8,0,1.1,0.5,1.1,1.4v2.8h-0.6v-2.6c0-0.8-0.1-1.2-0.7-1.2
			c-0.3,0-0.6,0.1-0.8,0.4v3.3h-0.6V154H145.1z"/>
		<path class="st2" d="M149.7,155.3v0.6h-1.8v-0.6H149.7z"/>
		<path class="st2" d="M150.7,157.2c0.2,0.4,0.5,0.6,1,0.6c0.5,0,0.8-0.3,0.8-0.7c0-0.6-0.5-0.6-1.3-0.9c-0.5-0.2-0.8-0.6-0.8-1.1
			c0-0.7,0.5-1.2,1.3-1.2c0.4,0,0.8,0.1,1.2,0.5v0.6h-0.4c-0.2-0.4-0.5-0.6-0.8-0.6c-0.4,0-0.8,0.3-0.8,0.7s0.3,0.6,0.9,0.8
			c0.8,0.2,1.2,0.6,1.2,1.2c0,0.7-0.5,1.3-1.4,1.3c-0.5,0-1-0.2-1.4-0.5v-0.6H150.7z"/>
		<path class="st2" d="M154.6,152.4v2l0.1,0c0.2-0.3,0.5-0.5,0.9-0.5c0.7,0,1.1,0.5,1.1,1.4v2.8h-0.6v-2.6c0-0.8-0.1-1.2-0.7-1.2
			c-0.3,0-0.6,0.1-0.8,0.4v3.3H154v-5.8H154.6z"/>
		<path class="st2" d="M160.3,158.1h-0.6v-0.3h-0.1c-0.3,0.3-0.6,0.5-1,0.5c-0.7,0-1.3-0.5-1.3-1.2c0-0.9,0.8-1.4,2.3-1.5
			c0-0.1,0-0.2,0-0.3c0-0.7-0.2-0.9-0.8-0.9c-0.4,0-0.7,0.2-0.9,0.6h-0.4v-0.6c0.4-0.2,0.8-0.4,1.3-0.4c0.5,0,0.9,0.2,1.2,0.5
			c0.2,0.3,0.2,0.6,0.2,1.3V158.1z M159.7,155.9c-1.2,0.1-1.7,0.5-1.7,1.1c0,0.4,0.3,0.7,0.8,0.7c0.3,0,0.6-0.1,0.9-0.4V155.9z"/>
		<path class="st2" d="M161.8,154v0.4l0.1,0c0.2-0.3,0.5-0.5,0.9-0.5c0.8,0,1.3,0.8,1.3,2.2c0,1.3-0.5,2.2-1.3,2.2
			c-0.4,0-0.7-0.2-0.9-0.5l-0.1,0v1.6h-0.6V154H161.8z M161.8,157.3c0.3,0.3,0.5,0.4,0.8,0.4c0.6,0,0.9-0.6,0.9-1.7
			c0-1.1-0.3-1.7-0.9-1.7c-0.3,0-0.5,0.1-0.8,0.4V157.3z"/>
		<path class="st2" d="M165.5,156.3v0.1c0,0.9,0.4,1.4,1,1.4c0.4,0,0.8-0.2,0.9-0.5h0.4v0.5c-0.4,0.4-0.8,0.5-1.4,0.5
			c-1.1,0-1.6-0.7-1.6-2.2c0-1.4,0.6-2.2,1.5-2.2c1,0,1.5,0.8,1.5,2.2v0.2H165.5z M167.3,155.8c0-0.9-0.4-1.4-0.9-1.4
			c-0.6,0-0.9,0.5-0.9,1.4H167.3z"/>
		<path class="st2" d="M171,157.8L171,157.8c-0.3,0.3-0.6,0.5-1,0.5c-0.8,0-1.3-0.8-1.3-2.2c0-1.3,0.5-2.2,1.3-2.2
			c0.4,0,0.6,0.2,0.9,0.5l0.1,0v-2h0.6v5.8H171V157.8z M171,154.9c-0.3-0.3-0.5-0.4-0.8-0.4c-0.6,0-0.9,0.6-0.9,1.7
			c0,1.1,0.3,1.7,0.9,1.7c0.3,0,0.5-0.2,0.8-0.4V154.9z"/>
		<path class="st2" d="M64.7,165.2c-0.1-0.4-0.4-0.6-0.7-0.6c-0.5,0-0.9,0.6-0.9,1.7c0,1.1,0.3,1.7,0.9,1.7c0.3,0,0.6-0.2,0.7-0.6
			h0.4v0.6c-0.3,0.4-0.7,0.5-1.1,0.5c-0.9,0-1.5-0.8-1.5-2.2c0-1.4,0.6-2.2,1.5-2.2c0.4,0,0.8,0.2,1.1,0.5v0.6H64.7z"/>
		<path class="st2" d="M68.7,168.3h-0.6V168H68c-0.3,0.3-0.6,0.5-1,0.5c-0.7,0-1.3-0.5-1.3-1.2c0-0.9,0.8-1.4,2.3-1.5
			c0-0.1,0-0.2,0-0.3c0-0.7-0.2-0.9-0.8-0.9c-0.4,0-0.7,0.2-0.9,0.6H66v-0.6c0.4-0.2,0.8-0.4,1.3-0.4c0.5,0,0.9,0.2,1.2,0.5
			c0.2,0.3,0.2,0.6,0.2,1.3V168.3z M68.1,166.1c-1.2,0.1-1.7,0.5-1.7,1.1c0,0.4,0.3,0.7,0.8,0.7c0.3,0,0.6-0.1,0.9-0.4V166.1z"/>
		<path class="st2" d="M70.4,164.2v0.3l0.1,0c0.2-0.3,0.5-0.5,0.9-0.5c0.8,0,1.1,0.5,1.1,1.4v2.8h-0.6v-2.6c0-0.8-0.1-1.2-0.7-1.2
			c-0.3,0-0.6,0.1-0.8,0.4v3.3h-0.6v-4.1H70.4z"/>
		<path class="st2" d="M75.6,168L75.6,168c-0.3,0.3-0.6,0.5-1,0.5c-0.8,0-1.3-0.8-1.3-2.2c0-1.3,0.5-2.2,1.3-2.2
			c0.4,0,0.6,0.2,0.9,0.5l0.1,0v-2h0.6v5.8h-0.6V168z M75.6,165c-0.3-0.3-0.5-0.4-0.8-0.4c-0.6,0-0.9,0.6-0.9,1.7
			c0,1.1,0.3,1.7,0.9,1.7c0.3,0,0.5-0.2,0.8-0.4V165z"/>
		<path class="st2" d="M77.9,162.5v0.7h-0.6v-0.7H77.9z M77.9,164.2v4.1h-0.6v-4.1H77.9z"/>
		<path class="st2" d="M79.5,166.4v0.1c0,0.9,0.4,1.4,1,1.4c0.4,0,0.8-0.2,0.9-0.5h0.4v0.5c-0.4,0.4-0.8,0.5-1.4,0.5
			c-1.1,0-1.6-0.7-1.6-2.2c0-1.4,0.6-2.2,1.5-2.2c1,0,1.5,0.8,1.5,2.2v0.2H79.5z M81.3,166c0-0.9-0.4-1.4-0.9-1.4
			c-0.6,0-0.9,0.5-0.9,1.4H81.3z"/>
		<path class="st2" d="M82.9,167.3c0.2,0.4,0.5,0.6,1,0.6c0.5,0,0.8-0.3,0.8-0.7c0-0.6-0.5-0.6-1.3-0.9c-0.5-0.2-0.8-0.6-0.8-1.1
			c0-0.7,0.6-1.2,1.3-1.2c0.4,0,0.8,0.1,1.2,0.5v0.6h-0.4c-0.2-0.4-0.5-0.6-0.8-0.6c-0.4,0-0.8,0.3-0.8,0.7c0,0.4,0.3,0.6,0.9,0.8
			c0.8,0.2,1.2,0.6,1.2,1.2c0,0.7-0.5,1.3-1.4,1.3c-0.5,0-1-0.2-1.4-0.5v-0.6H82.9z"/>
		<path class="st2" d="M86,169.2c0.4,0,0.5-0.2,0.5-0.6v-0.4h-0.4v-0.7H87v0.9c0,0.9-0.2,1.2-1,1.2V169.2z"/>
		<path class="st2" d="M90.6,164.2v0.3l0.1,0c0.2-0.3,0.5-0.5,0.9-0.5c0.8,0,1.1,0.5,1.1,1.4v2.8h-0.6v-2.6c0-0.8-0.1-1.2-0.7-1.2
			c-0.3,0-0.6,0.1-0.8,0.4v3.3H90v-4.1H90.6z"/>
		<path class="st2" d="M94.1,166.4v0.1c0,0.9,0.4,1.4,1,1.4c0.4,0,0.8-0.2,0.9-0.5h0.4v0.5c-0.4,0.4-0.8,0.5-1.4,0.5
			c-1.1,0-1.6-0.7-1.6-2.2c0-1.4,0.6-2.2,1.5-2.2c1,0,1.5,0.8,1.5,2.2v0.2H94.1z M96,166c0-0.9-0.4-1.4-0.9-1.4
			c-0.6,0-0.9,0.5-0.9,1.4H96z"/>
		<path class="st2" d="M97.8,164.2l0.6,2.3c0.1,0.3,0.1,0.6,0.2,1.1h0.1c0.1-0.6,0.2-1,0.2-1.1l0.5-2.3h0.7l-1.2,4.1h-0.5l-1.2-4.1
			H97.8z"/>
		<path class="st2" d="M101.2,166.4v0.1c0,0.9,0.4,1.4,1,1.4c0.4,0,0.8-0.2,0.9-0.5h0.4v0.5c-0.4,0.4-0.8,0.5-1.4,0.5
			c-1.1,0-1.6-0.7-1.6-2.2c0-1.4,0.6-2.2,1.5-2.2c1,0,1.5,0.8,1.5,2.2v0.2H101.2z M103,166c0-0.9-0.4-1.4-0.9-1.4
			c-0.6,0-0.9,0.5-0.9,1.4H103z"/>
		<path class="st2" d="M105.1,164.2v0.3c0,0.1,0,0.3-0.1,0.4l0.1,0.1c0.2-0.5,0.8-0.8,1.3-0.8h0v0.7c-0.6,0-1,0.2-1.4,0.6v2.9h-0.6
			v-4.1H105.1z"/>
		<path class="st2" d="M112,168.1c0,1-0.5,1.5-1.4,1.5c-0.5,0-0.9-0.1-1.3-0.4v-0.7h0.4c0.2,0.4,0.4,0.5,0.9,0.5
			c0.7,0,0.8-0.4,0.8-1.3v-0.3l-0.1,0c-0.2,0.3-0.5,0.5-0.9,0.5c-0.8,0-1.3-0.7-1.3-1.9c0-1.3,0.5-2,1.3-2c0.4,0,0.7,0.2,0.9,0.5
			l0.1,0v-0.4h0.6V168.1z M111.4,165c-0.3-0.3-0.5-0.4-0.8-0.4c-0.6,0-0.9,0.5-0.9,1.4c0,1,0.3,1.5,0.9,1.5c0.3,0,0.6-0.1,0.8-0.4
			V165z"/>
		<path class="st2" d="M113.4,166.4v0.1c0,0.9,0.4,1.4,1,1.4c0.4,0,0.8-0.2,0.9-0.5h0.4v0.5c-0.4,0.4-0.8,0.5-1.4,0.5
			c-1.1,0-1.6-0.7-1.6-2.2c0-1.4,0.6-2.2,1.5-2.2c1,0,1.5,0.8,1.5,2.2v0.2H113.4z M115.2,166c0-0.9-0.4-1.4-0.9-1.4
			c-0.6,0-0.9,0.5-0.9,1.4H115.2z"/>
		<path class="st2" d="M118.4,164.2v0.5h-0.9v2.6c0,0.6,0,0.6,0.5,0.6h0.4v0.5h-0.6c-0.8,0-0.9-0.3-0.9-1.3v-2.4h-0.5v-0.5h0.5v-1.3
			h0.6v1.3H118.4z"/>
		<path class="st2" d="M123.8,166.3c0,1.4-0.6,2.2-1.5,2.2c-0.9,0-1.5-0.8-1.5-2.2c0-1.3,0.6-2.2,1.5-2.2
			C123.3,164.1,123.8,164.9,123.8,166.3z M121.4,166.2c0,1.2,0.3,1.8,0.9,1.8c0.6,0,0.9-0.6,0.9-1.7c0-1.1-0.4-1.7-0.9-1.7
			S121.4,165.1,121.4,166.2z"/>
		<path class="st2" d="M125.4,162.5v5.8h-0.6v-5.8H125.4z"/>
		<path class="st2" d="M128.7,168L128.7,168c-0.3,0.3-0.6,0.5-1,0.5c-0.8,0-1.3-0.8-1.3-2.2c0-1.3,0.5-2.2,1.3-2.2
			c0.4,0,0.6,0.2,0.9,0.5l0.1,0v-2h0.6v5.8h-0.6V168z M128.7,165c-0.3-0.3-0.5-0.4-0.8-0.4c-0.6,0-0.9,0.6-0.9,1.7
			c0,1.1,0.3,1.7,0.9,1.7c0.3,0,0.5-0.2,0.8-0.4V165z"/>
	</g>
</g>
<circle class="st3" cx="30" cy="167.5" r="26.3"/>
<ellipse transform="matrix(0.2041 -0.979 0.979 0.2041 -133.5844 154.6418)" class="st18" cx="28.3" cy="159.5" rx="10" ry="14.5"/>
<g>
	<path class="st2" d="M25.5,154.6l1.3,0.5l-0.3,0.8c0.7-0.4,1.4-0.4,2.1-0.2c0.4,0.1,0.6,0.3,0.8,0.6c0.2,0.2,0.3,0.6,0.4,0.9
		c0.4-0.2,0.7-0.3,1.1-0.3c0.3,0,0.7,0,1,0.1c0.4,0.2,0.7,0.4,0.9,0.7c0.2,0.3,0.3,0.6,0.3,1c0,0.3-0.1,0.7-0.3,1.2l-1.4,3.5
		l-1.5-0.6l1.3-3.1c0.2-0.5,0.3-0.9,0.3-1.1c-0.1-0.3-0.2-0.5-0.5-0.6c-0.2-0.1-0.4-0.1-0.7,0c-0.2,0.1-0.4,0.2-0.6,0.4
		c-0.2,0.2-0.4,0.6-0.6,1.1l-1.1,2.6l-1.5-0.6l1.2-3c0.2-0.5,0.3-0.9,0.3-1.1c0-0.2,0-0.3-0.1-0.4s-0.2-0.2-0.4-0.3
		c-0.2-0.1-0.5-0.1-0.7-0.1c-0.2,0-0.4,0.2-0.6,0.4c-0.2,0.2-0.4,0.6-0.6,1.1l-1.1,2.7l-1.5-0.6L25.5,154.6z"/>
</g>
<ellipse transform="matrix(0.9797 -0.2002 0.2002 0.9797 -34.1366 6.8401)" class="st19" cx="16.7" cy="172.2" rx="16.6" ry="11.5"/>
<g>
	<path class="st2" d="M12.7,170.4l1.6-0.3l0.2,0.9c0.4-0.8,1.1-1.3,1.9-1.5c0.4-0.1,0.8-0.1,1.2,0.1c0.3,0.1,0.7,0.3,0.9,0.7
		c0.2-0.4,0.5-0.7,0.8-1c0.3-0.2,0.7-0.4,1-0.5c0.5-0.1,0.9-0.1,1.3,0.1c0.4,0.1,0.7,0.4,0.9,0.7c0.2,0.3,0.3,0.7,0.4,1.4l0.8,4.3
		l-1.8,0.3l-0.7-3.8c-0.1-0.7-0.3-1.1-0.4-1.3c-0.2-0.2-0.5-0.3-0.8-0.2c-0.2,0-0.5,0.2-0.7,0.4c-0.2,0.2-0.3,0.4-0.3,0.8
		c0,0.3,0,0.8,0.1,1.4l0.6,3.2l-1.8,0.3l-0.7-3.7c-0.1-0.7-0.2-1.1-0.3-1.2c-0.1-0.2-0.2-0.3-0.4-0.4c-0.1-0.1-0.3-0.1-0.6,0
		c-0.3,0.1-0.5,0.2-0.7,0.4c-0.2,0.2-0.3,0.4-0.3,0.7s0,0.8,0.1,1.4l0.6,3.3l-1.8,0.3L12.7,170.4z"/>
</g>
<ellipse transform="matrix(0.8266 -0.5628 0.5628 0.8266 -83.7421 55.3174)" class="st4" cx="47.9" cy="163.6" rx="13.1" ry="9"/>
<g>
	<path class="st2" d="M43.7,161.2L45,161l0.1,0.7c0.4-0.6,0.8-1,1.5-1.2c0.3-0.1,0.6-0.1,0.9,0c0.3,0.1,0.5,0.3,0.7,0.5
		c0.2-0.3,0.4-0.6,0.6-0.8c0.2-0.2,0.5-0.3,0.8-0.4c0.4-0.1,0.7-0.1,1,0s0.5,0.3,0.7,0.6c0.1,0.2,0.3,0.6,0.4,1.1l0.6,3.4l-1.4,0.3
		l-0.6-3c-0.1-0.5-0.2-0.9-0.3-1c-0.2-0.2-0.4-0.2-0.7-0.2c-0.2,0-0.4,0.1-0.5,0.3c-0.1,0.2-0.2,0.3-0.3,0.6c0,0.2,0,0.6,0.1,1.1
		l0.5,2.5l-1.4,0.3l-0.6-2.9c-0.1-0.5-0.2-0.8-0.3-1c-0.1-0.1-0.2-0.2-0.3-0.3c-0.1-0.1-0.3-0.1-0.4,0c-0.2,0-0.4,0.1-0.5,0.3
		c-0.1,0.1-0.2,0.3-0.3,0.6c0,0.2,0,0.6,0.1,1.1l0.5,2.6l-1.4,0.3L43.7,161.2z"/>
</g>
<g>
</g>
<g>
</g>
<g>
</g>
<g>
</g>
<g>
</g>
<g>
</g>
</svg>
