<?xml version="1.0" encoding="utf-8"?>
<!-- Generator: Adobe Illustrator 19.2.1, SVG Export Plug-In . SVG Version: 6.00 Build 0)  -->
<svg version="1.1" id="Layer_1" xmlns="http://www.w3.org/2000/svg" xmlns:xlink="http://www.w3.org/1999/xlink" x="0px" y="0px"
	 width="172.8px" height="266.4px" viewBox="0 0 172.8 266.4" enable-background="new 0 0 172.8 266.4" xml:space="preserve">
<rect x="0.2" fill="#3A2417" stroke="#000000" stroke-miterlimit="10" width="172.8" height="266.4"/>
<g>
	<rect x="61.3" y="16.7" fill="none" width="118.5" height="43.4"/>
	<path fill="#FFFFFF" d="M62.1,21.4c0.2,0.5,0.6,0.7,1.1,0.7c0.7,0,1.1-0.4,1.1-1c0-0.7-0.5-0.9-1.4-1.3c-0.8-0.4-1.2-0.8-1.2-1.6
		c0-0.8,0.6-1.4,1.5-1.4c0.6,0,1,0.1,1.5,0.5V18h-0.4c-0.2-0.5-0.6-0.7-1-0.7c-0.6,0-1,0.4-1,0.9s0.3,0.8,0.9,1
		c0.5,0.2,1,0.4,1.3,0.7c0.3,0.3,0.5,0.7,0.5,1.1c0,0.9-0.7,1.5-1.9,1.5c-0.5,0-0.9-0.1-1.4-0.4v-0.8L62.1,21.4L62.1,21.4z"/>
	<path fill="#FFFFFF" d="M68.6,20.4c0,1.4-0.6,2.2-1.5,2.2s-1.5-0.8-1.5-2.2c0-1.3,0.6-2.2,1.5-2.2C68,18.2,68.6,19,68.6,20.4z
		 M66.2,20.3c0,1.2,0.3,1.8,0.9,1.8s0.9-0.6,0.9-1.7s-0.4-1.7-0.9-1.7S66.2,19.3,66.2,20.3z"/>
	<path fill="#FFFFFF" d="M70.1,18.3v0.3h0.1c0.2-0.3,0.5-0.5,0.9-0.5s0.7,0.2,1,0.6c0.4-0.4,0.7-0.6,1.1-0.6c0.7,0,1.1,0.5,1.1,1.4
		v2.8h-0.6v-2.6c0-0.8-0.1-1.2-0.7-1.2c-0.3,0-0.6,0.1-0.7,0.4v3.3h-0.6V20c0-0.9-0.1-1.3-0.6-1.3c-0.3,0-0.6,0.1-0.8,0.4v3.3h-0.6
		v-4.1H70.1z"/>
	<path fill="#FFFFFF" d="M75.6,20.6v0.1c0,0.9,0.4,1.4,1,1.4c0.4,0,0.8-0.2,0.9-0.5H78v0.5c-0.4,0.4-0.8,0.5-1.4,0.5
		c-1.1,0-1.6-0.7-1.6-2.2c0-1.4,0.6-2.2,1.5-2.2c1,0,1.5,0.8,1.5,2.2v0.2H75.6z M77.4,20.1c0-0.9-0.4-1.4-0.9-1.4
		c-0.6,0-0.9,0.5-0.9,1.4H77.4z"/>
	<path fill="#FFFFFF" d="M81,21.5c0.2,0.4,0.5,0.6,1,0.6s0.8-0.3,0.8-0.7c0-0.6-0.5-0.6-1.3-0.9c-0.5-0.2-0.8-0.6-0.8-1.1
		c0-0.7,0.6-1.2,1.3-1.2c0.4,0,0.8,0.1,1.2,0.5v0.6h-0.4c-0.2-0.4-0.5-0.6-0.8-0.6c-0.4,0-0.8,0.3-0.8,0.7c0,0.4,0.3,0.6,0.9,0.8
		c0.8,0.2,1.2,0.6,1.2,1.2c0,0.7-0.5,1.3-1.4,1.3c-0.5,0-1-0.2-1.4-0.5v-0.6L81,21.5L81,21.5z"/>
	<path fill="#FFFFFF" d="M86.9,22.4h-0.6v-0.3h-0.1c-0.3,0.3-0.6,0.5-1,0.5c-0.7,0-1.3-0.5-1.3-1.2c0-0.9,0.8-1.4,2.3-1.5
		c0-0.1,0-0.2,0-0.3c0-0.7-0.2-0.9-0.8-0.9c-0.4,0-0.7,0.2-0.9,0.6h-0.4v-0.6c0.4-0.2,0.8-0.4,1.3-0.4s0.9,0.2,1.2,0.5
		c0.2,0.3,0.2,0.6,0.2,1.3v2.3H86.9z M86.3,20.2c-1.2,0.1-1.7,0.5-1.7,1.1c0,0.4,0.3,0.7,0.8,0.7c0.3,0,0.6-0.1,0.9-0.4
		C86.3,21.6,86.3,20.2,86.3,20.2z"/>
	<path fill="#FFFFFF" d="M88.3,18.3l0.8,3.4h0.1l0.7-3.4h0.7l-1.2,4c-0.3,1-0.7,1.5-1.6,1.5c-0.1,0-0.1,0-0.2,0v-0.5
		c0.1,0,0.1,0,0.2,0c0.6,0,0.8-0.3,1-1l-1.2-3.9h0.7V18.3z"/>
	<path fill="#FFFFFF" d="M95.2,19.3c-0.1-0.4-0.4-0.6-0.7-0.6c-0.5,0-0.9,0.6-0.9,1.7s0.3,1.7,0.9,1.7c0.3,0,0.6-0.2,0.7-0.6h0.4
		v0.6c-0.3,0.4-0.7,0.5-1.1,0.5c-0.9,0-1.5-0.8-1.5-2.2c0-1.4,0.6-2.2,1.5-2.2c0.4,0,0.8,0.2,1.1,0.5v0.6H95.2z"/>
	<path fill="#FFFFFF" d="M99.2,22.4h-0.6v-0.3h-0.1c-0.3,0.3-0.6,0.5-1,0.5c-0.7,0-1.3-0.5-1.3-1.2c0-0.9,0.8-1.4,2.3-1.5
		c0-0.1,0-0.2,0-0.3c0-0.7-0.2-0.9-0.8-0.9c-0.4,0-0.7,0.2-0.9,0.6h-0.4v-0.6c0.4-0.2,0.8-0.4,1.3-0.4s0.9,0.2,1.2,0.5
		c0.2,0.3,0.2,0.6,0.2,1.3v2.3H99.2z M98.6,20.2c-1.2,0.1-1.7,0.5-1.7,1.1c0,0.4,0.3,0.7,0.8,0.7c0.3,0,0.6-0.1,0.9-0.4
		C98.6,21.6,98.6,20.2,98.6,20.2z"/>
	<path fill="#FFFFFF" d="M100.8,18.3v0.3h0.1c0.2-0.3,0.5-0.5,0.9-0.5c0.8,0,1.1,0.5,1.1,1.4v2.8h-0.6v-2.6c0-0.8-0.1-1.2-0.7-1.2
		c-0.3,0-0.6,0.1-0.8,0.4v3.3h-0.6v-4.1h0.6V18.3z"/>
	<path fill="#FFFFFF" d="M106.1,22.1L106.1,22.1c-0.3,0.3-0.6,0.5-1,0.5c-0.8,0-1.3-0.8-1.3-2.2c0-1.3,0.5-2.2,1.3-2.2
		c0.4,0,0.6,0.2,0.9,0.5h0.1v-2h0.6v5.8h-0.6V22.1z M106.1,19.2c-0.3-0.3-0.5-0.4-0.8-0.4c-0.6,0-0.9,0.6-0.9,1.7s0.3,1.7,0.9,1.7
		c0.3,0,0.5-0.2,0.8-0.4V19.2z"/>
	<path fill="#FFFFFF" d="M108.1,18.3l0.8,3.4h0.1l0.7-3.4h0.7l-1.2,4c-0.3,1-0.7,1.5-1.6,1.5c-0.1,0-0.1,0-0.2,0v-0.5
		c0.1,0,0.1,0,0.2,0c0.6,0,0.8-0.3,1-1l-1.2-3.9h0.7V18.3z"/>
	<path fill="#FFFFFF" d="M115,19.3c-0.1-0.4-0.4-0.6-0.7-0.6c-0.5,0-0.9,0.6-0.9,1.7s0.3,1.7,0.9,1.7c0.3,0,0.6-0.2,0.7-0.6h0.4v0.6
		c-0.3,0.4-0.7,0.5-1.1,0.5c-0.9,0-1.5-0.8-1.5-2.2c0-1.4,0.6-2.2,1.5-2.2c0.4,0,0.8,0.2,1.1,0.5v0.6H115z"/>
	<path fill="#FFFFFF" d="M119.2,20.4c0,1.4-0.6,2.2-1.5,2.2s-1.5-0.8-1.5-2.2c0-1.3,0.6-2.2,1.5-2.2C118.6,18.2,119.2,19,119.2,20.4
		z M116.7,20.3c0,1.2,0.3,1.8,0.9,1.8s0.9-0.6,0.9-1.7s-0.4-1.7-0.9-1.7S116.7,19.3,116.7,20.3z"/>
	<path fill="#FFFFFF" d="M120.7,18.3v0.3c0,0.1,0,0.3-0.1,0.4l0.1,0.1c0.2-0.5,0.8-0.8,1.3-0.8l0,0V19c-0.6,0-1,0.2-1.4,0.6v2.9H120
		v-4.1h0.7V18.3z"/>
	<path fill="#FFFFFF" d="M123.5,18.3v0.3h0.1c0.2-0.3,0.5-0.5,0.9-0.5c0.8,0,1.1,0.5,1.1,1.4v2.8H125v-2.6c0-0.8-0.1-1.2-0.7-1.2
		c-0.3,0-0.6,0.1-0.8,0.4v3.3h-0.6v-4.1h0.6V18.3z"/>
	<path fill="#FFFFFF" d="M129.2,16.7v0.7h-0.6v-0.7H129.2z M129.1,18.3v4.1h-0.6v-4.1H129.1z"/>
	<path fill="#FFFFFF" d="M130.5,21.5c0.2,0.4,0.5,0.6,1,0.6s0.8-0.3,0.8-0.7c0-0.6-0.5-0.6-1.3-0.9c-0.5-0.2-0.8-0.6-0.8-1.1
		c0-0.7,0.6-1.2,1.3-1.2c0.4,0,0.8,0.1,1.2,0.5v0.6h-0.4c-0.2-0.4-0.5-0.6-0.8-0.6c-0.4,0-0.8,0.3-0.8,0.7c0,0.4,0.3,0.6,0.9,0.8
		c0.8,0.2,1.2,0.6,1.2,1.2c0,0.7-0.5,1.3-1.4,1.3c-0.5,0-1-0.2-1.4-0.5v-0.6L130.5,21.5L130.5,21.5z"/>
	<path fill="#FFFFFF" d="M137.2,18.3v0.5h-0.9v2.6c0,0.6,0,0.6,0.5,0.6h0.4v0.5h-0.6c-0.8,0-0.9-0.3-0.9-1.3v-2.4h-0.5v-0.5h0.5V17
		h0.6v1.3H137.2z"/>
	<path fill="#FFFFFF" d="M138.5,16.7v2h0.1c0.2-0.3,0.5-0.5,0.9-0.5c0.7,0,1.1,0.5,1.1,1.4v2.8H140v-2.6c0-0.8-0.1-1.2-0.7-1.2
		c-0.3,0-0.6,0.1-0.8,0.4v3.3H138v-5.8h0.5V16.7z"/>
	<path fill="#FFFFFF" d="M142.1,20.6v0.1c0,0.9,0.4,1.4,1,1.4c0.4,0,0.8-0.2,0.9-0.5h0.4v0.5c-0.4,0.4-0.8,0.5-1.4,0.5
		c-1.1,0-1.6-0.7-1.6-2.2c0-1.4,0.6-2.2,1.5-2.2c1,0,1.5,0.8,1.5,2.2v0.2H142.1z M143.9,20.1c0-0.9-0.4-1.4-0.9-1.4
		c-0.6,0-0.9,0.5-0.9,1.4H143.9z"/>
	<path fill="#FFFFFF" d="M147.9,18.3v0.3h0.1c0.2-0.3,0.5-0.5,0.9-0.5s0.7,0.2,1,0.6c0.4-0.4,0.7-0.6,1-0.6c0.7,0,1.1,0.5,1.1,1.4
		v2.8h-0.6v-2.6c0-0.8-0.1-1.2-0.7-1.2c-0.3,0-0.5,0.1-0.7,0.4v3.3h-0.6V20c0-0.9-0.1-1.3-0.6-1.3c-0.3,0-0.5,0.1-0.8,0.4v3.3h-0.6
		v-4.1H147.9z"/>
	<path fill="#FFFFFF" d="M155.8,20.4c0,1.4-0.6,2.2-1.5,2.2s-1.5-0.8-1.5-2.2c0-1.3,0.6-2.2,1.5-2.2C155.3,18.2,155.8,19,155.8,20.4
		z M153.4,20.3c0,1.2,0.3,1.8,0.9,1.8c0.6,0,0.9-0.6,0.9-1.7s-0.4-1.7-0.9-1.7S153.4,19.3,153.4,20.3z"/>
	<path fill="#FFFFFF" d="M156.9,21.5c0.2,0.4,0.5,0.6,1,0.6s0.8-0.3,0.8-0.7c0-0.6-0.5-0.6-1.3-0.9c-0.5-0.2-0.8-0.6-0.8-1.1
		c0-0.7,0.5-1.2,1.3-1.2c0.4,0,0.8,0.1,1.2,0.5v0.6h-0.4c-0.2-0.4-0.5-0.6-0.8-0.6c-0.4,0-0.8,0.3-0.8,0.7c0,0.4,0.3,0.6,0.9,0.8
		c0.8,0.2,1.2,0.6,1.2,1.2c0,0.7-0.5,1.3-1.4,1.3c-0.5,0-1-0.2-1.4-0.5v-0.6L156.9,21.5L156.9,21.5z"/>
	<path fill="#FFFFFF" d="M161.8,18.3v0.5h-0.9v2.6c0,0.6,0,0.6,0.5,0.6h0.4v0.5h-0.6c-0.8,0-0.9-0.3-0.9-1.3v-2.4h-0.5v-0.5h0.5V17
		h0.6v1.3H161.8z"/>
	<path fill="#FFFFFF" d="M62.4,28.5v0.4h0.1c0.2-0.3,0.5-0.5,0.9-0.5c0.8,0,1.3,0.8,1.3,2.2c0,1.3-0.5,2.2-1.3,2.2
		c-0.4,0-0.7-0.2-0.9-0.5h-0.1v1.6h-0.6v-5.4C61.8,28.5,62.4,28.5,62.4,28.5z M62.4,31.8c0.3,0.3,0.5,0.4,0.8,0.4
		c0.6,0,0.9-0.6,0.9-1.7s-0.3-1.7-0.9-1.7c-0.3,0-0.5,0.1-0.8,0.4C62.4,29.2,62.4,31.8,62.4,31.8z"/>
	<path fill="#FFFFFF" d="M68.5,30.6c0,1.4-0.6,2.2-1.5,2.2s-1.5-0.8-1.5-2.2c0-1.3,0.6-2.2,1.5-2.2C67.9,28.4,68.5,29.2,68.5,30.6z
		 M66.1,30.5c0,1.2,0.3,1.8,0.9,1.8s0.9-0.6,0.9-1.7s-0.4-1.7-0.9-1.7S66.1,29.4,66.1,30.5z"/>
	<path fill="#FFFFFF" d="M69.9,28.5v0.4H70c0.2-0.3,0.5-0.5,0.9-0.5c0.8,0,1.3,0.8,1.3,2.2c0,1.3-0.5,2.2-1.3,2.2
		c-0.4,0-0.7-0.2-0.9-0.5h-0.1v1.6h-0.6v-5.4C69.3,28.5,69.9,28.5,69.9,28.5z M69.9,31.8c0.3,0.3,0.5,0.4,0.8,0.4
		c0.6,0,0.9-0.6,0.9-1.7s-0.3-1.7-0.9-1.7c-0.3,0-0.5,0.1-0.8,0.4V31.8z"/>
	<path fill="#FFFFFF" d="M75.2,32.6v-0.3h-0.1c-0.2,0.3-0.5,0.5-0.9,0.5c-0.5,0-0.9-0.2-1-0.7c-0.1-0.2-0.1-0.6-0.1-1.1v-2.4h0.6
		v2.6c0,0.8,0.1,1.2,0.7,1.2c0.3,0,0.6-0.1,0.8-0.4v-3.3h0.6v4.1h-0.6V32.6z"/>
	<path fill="#FFFFFF" d="M77.5,26.8v5.8H77v-5.8H77.5z"/>
	<path fill="#FFFFFF" d="M81.4,32.6h-0.6v-0.3h-0.1c-0.3,0.3-0.6,0.5-1,0.5c-0.7,0-1.3-0.5-1.3-1.2c0-0.9,0.8-1.4,2.3-1.5
		c0-0.1,0-0.2,0-0.3c0-0.7-0.2-0.9-0.8-0.9c-0.4,0-0.7,0.2-0.9,0.6h-0.4v-0.6c0.4-0.2,0.8-0.4,1.3-0.4s0.9,0.2,1.2,0.5
		c0.2,0.3,0.2,0.6,0.2,1.3v2.3H81.4z M80.8,30.4c-1.2,0.1-1.7,0.5-1.7,1.1c0,0.4,0.3,0.7,0.8,0.7c0.3,0,0.6-0.1,0.9-0.4
		C80.8,31.8,80.8,30.4,80.8,30.4z"/>
	<path fill="#FFFFFF" d="M83.1,28.5v0.3c0,0.1,0,0.3-0.1,0.4l0.1,0.1c0.2-0.5,0.8-0.8,1.3-0.8l0,0v0.7c-0.6,0-1,0.2-1.4,0.6v2.9
		h-0.6v-4.1h0.7V28.5z"/>
	<path fill="#FFFFFF" d="M89.2,29.5c-0.1-0.4-0.4-0.6-0.7-0.6c-0.5,0-0.9,0.6-0.9,1.7s0.3,1.7,0.9,1.7c0.3,0,0.6-0.2,0.7-0.6h0.4
		v0.6c-0.3,0.4-0.7,0.5-1.1,0.5c-0.9,0-1.5-0.8-1.5-2.2c0-1.4,0.6-2.2,1.5-2.2c0.4,0,0.8,0.2,1.1,0.5v0.6
		C89.6,29.5,89.2,29.5,89.2,29.5z"/>
	<path fill="#FFFFFF" d="M93.2,32.6h-0.6v-0.3h-0.1c-0.3,0.3-0.6,0.5-1,0.5c-0.7,0-1.3-0.5-1.3-1.2c0-0.9,0.8-1.4,2.3-1.5
		c0-0.1,0-0.2,0-0.3c0-0.7-0.2-0.9-0.8-0.9c-0.4,0-0.7,0.2-0.9,0.6h-0.4v-0.6c0.4-0.2,0.8-0.4,1.3-0.4s0.9,0.2,1.2,0.5
		c0.2,0.3,0.2,0.6,0.2,1.3v2.3H93.2z M92.6,30.4c-1.2,0.1-1.7,0.5-1.7,1.1c0,0.4,0.3,0.7,0.8,0.7c0.3,0,0.6-0.1,0.9-0.4
		C92.6,31.8,92.6,30.4,92.6,30.4z"/>
	<path fill="#FFFFFF" d="M94.8,28.5v0.3h0.1c0.2-0.3,0.5-0.5,0.9-0.5c0.8,0,1.1,0.5,1.1,1.4v2.8h-0.6V30c0-0.8-0.1-1.2-0.7-1.2
		c-0.3,0-0.6,0.1-0.8,0.4v3.3h-0.6v-4.1h0.6V28.5z"/>
	<path fill="#FFFFFF" d="M100.1,32.3L100.1,32.3c-0.3,0.3-0.6,0.5-1,0.5c-0.8,0-1.3-0.8-1.3-2.2c0-1.3,0.5-2.2,1.3-2.2
		c0.4,0,0.6,0.2,0.9,0.5h0.1v-2h0.6v5.8h-0.6V32.3z M100.1,29.3c-0.3-0.3-0.5-0.4-0.8-0.4c-0.6,0-0.9,0.6-0.9,1.7s0.3,1.7,0.9,1.7
		c0.3,0,0.5-0.2,0.8-0.4V29.3z"/>
	<path fill="#FFFFFF" d="M102.1,28.5l0.8,3.4h0.1l0.7-3.4h0.7l-1.2,4c-0.3,1-0.7,1.5-1.6,1.5c-0.1,0-0.1,0-0.2,0v-0.5
		c0.1,0,0.1,0,0.2,0c0.6,0,0.8-0.3,1-1l-1.2-3.9h0.7V28.5z"/>
	<path fill="#FFFFFF" d="M106.6,29v-0.5h0.6c0-0.1,0-0.3,0-0.5c0-0.9,0.3-1.3,1.2-1.3c0.1,0,0.1,0,0.2,0v0.5h-0.1
		c-0.5,0-0.7,0.2-0.7,0.7v0.6h0.7V29h-0.7v3.6h-0.6V29H106.6z"/>
	<path fill="#FFFFFF" d="M112.2,30.6c0,1.4-0.6,2.2-1.5,2.2s-1.5-0.8-1.5-2.2c0-1.3,0.6-2.2,1.5-2.2
		C111.7,28.4,112.2,29.2,112.2,30.6z M109.8,30.5c0,1.2,0.3,1.8,0.9,1.8s0.9-0.6,0.9-1.7s-0.4-1.7-0.9-1.7S109.8,29.4,109.8,30.5z"
		/>
	<path fill="#FFFFFF" d="M113.8,28.5v0.3c0,0.1,0,0.3-0.1,0.4l0.1,0.1c0.2-0.5,0.8-0.8,1.3-0.8l0,0v0.7c-0.6,0-1,0.2-1.4,0.6v2.9
		h-0.6v-4.1h0.7V28.5z"/>
	<path fill="#FFFFFF" d="M118.5,27.1v2.3h2.3v-2.3h0.6v5.5h-0.6v-2.7h-2.3v2.7h-0.6v-5.5C117.9,27.1,118.5,27.1,118.5,27.1z"/>
	<path fill="#FFFFFF" d="M125.3,32.6h-0.6v-0.3h-0.1c-0.3,0.3-0.6,0.5-1,0.5c-0.7,0-1.3-0.5-1.3-1.2c0-0.9,0.8-1.4,2.3-1.5
		c0-0.1,0-0.2,0-0.3c0-0.7-0.2-0.9-0.8-0.9c-0.4,0-0.7,0.2-0.9,0.6h-0.4v-0.6c0.4-0.2,0.8-0.4,1.3-0.4s0.9,0.2,1.2,0.5
		c0.2,0.3,0.2,0.6,0.2,1.3v2.3H125.3z M124.7,30.4c-1.2,0.1-1.7,0.5-1.7,1.1c0,0.4,0.3,0.7,0.8,0.7c0.3,0,0.6-0.1,0.9-0.4
		C124.7,31.8,124.7,30.4,124.7,30.4z"/>
	<path fill="#FFFFFF" d="M126.9,26.8v5.8h-0.6v-5.8H126.9z"/>
	<path fill="#FFFFFF" d="M128.7,26.8v5.8h-0.6v-5.8H128.7z"/>
	<path fill="#FFFFFF" d="M132.7,30.6c0,1.4-0.6,2.2-1.5,2.2s-1.5-0.8-1.5-2.2c0-1.3,0.6-2.2,1.5-2.2
		C132.1,28.4,132.7,29.2,132.7,30.6z M130.3,30.5c0,1.2,0.3,1.8,0.9,1.8c0.6,0,0.9-0.6,0.9-1.7s-0.4-1.7-0.9-1.7
		S130.3,29.4,130.3,30.5z"/>
	<path fill="#FFFFFF" d="M133.9,28.5l0.7,3.5h0.1l0.7-3.5h0.6l0.7,3.5h0.1l0.7-3.5h0.7l-1.2,4.1h-0.6l-0.7-3.2h-0.1l-0.7,3.2h-0.6
		l-1.1-4.1C133.2,28.5,133.9,28.5,133.9,28.5z"/>
	<path fill="#FFFFFF" d="M139.3,30.7v0.1c0,0.9,0.4,1.4,1,1.4c0.4,0,0.8-0.2,0.9-0.5h0.4v0.5c-0.4,0.4-0.8,0.5-1.4,0.5
		c-1.1,0-1.6-0.7-1.6-2.2c0-1.4,0.6-2.2,1.5-2.2c1,0,1.5,0.8,1.5,2.2v0.2H139.3z M141.1,30.3c0-0.9-0.4-1.4-0.9-1.4
		c-0.6,0-0.9,0.5-0.9,1.4H141.1z"/>
	<path fill="#FFFFFF" d="M143,30.7v0.1c0,0.9,0.4,1.4,1,1.4c0.4,0,0.8-0.2,0.9-0.5h0.4v0.5c-0.4,0.4-0.8,0.5-1.4,0.5
		c-1.1,0-1.6-0.7-1.6-2.2c0-1.4,0.6-2.2,1.5-2.2c1,0,1.5,0.8,1.5,2.2v0.2H143z M144.8,30.3c0-0.9-0.4-1.4-0.9-1.4
		c-0.6,0-0.9,0.5-0.9,1.4H144.8z"/>
	<path fill="#FFFFFF" d="M147,28.5v0.3h0.1c0.2-0.3,0.5-0.5,0.9-0.5c0.8,0,1.1,0.5,1.1,1.4v2.8h-0.6V30c0-0.8-0.1-1.2-0.7-1.2
		c-0.3,0-0.6,0.1-0.8,0.4v3.3h-0.6v-4.1h0.6V28.5z"/>
	<path fill="#FFFFFF" d="M150,31.8h0.9v0.8H150V31.8z"/>
	<path fill="#FFFFFF" d="M152.9,27.1h0.7l0.8,2c0.1,0.3,0.3,0.6,0.4,1.1h0.1c0.1-0.5,0.2-0.9,0.3-1.1l0.8-2h0.7l-1.5,3.6v2h-0.6v-2
		L152.9,27.1z"/>
	<path fill="#FFFFFF" d="M159.7,30.6c0,1.4-0.6,2.2-1.5,2.2s-1.5-0.8-1.5-2.2c0-1.3,0.6-2.2,1.5-2.2
		C159.1,28.4,159.7,29.2,159.7,30.6z M157.2,30.5c0,1.2,0.3,1.8,0.9,1.8c0.6,0,0.9-0.6,0.9-1.7s-0.4-1.7-0.9-1.7
		S157.2,29.4,157.2,30.5z"/>
	<path fill="#FFFFFF" d="M162.6,32.6v-0.3h-0.1c-0.2,0.3-0.5,0.5-0.9,0.5c-0.5,0-0.9-0.2-1-0.7c-0.1-0.2-0.1-0.6-0.1-1.1v-2.4h0.6
		v2.6c0,0.8,0.1,1.2,0.7,1.2c0.3,0,0.6-0.1,0.8-0.4v-3.3h0.6v4.1h-0.6V32.6z"/>
	<path fill="#FFFFFF" d="M64.6,42.6c0,1.1-0.5,1.5-1.4,1.5c-0.5,0-0.9-0.1-1.3-0.4V43h0.4c0.2,0.4,0.4,0.5,0.9,0.5
		c0.7,0,0.8-0.4,0.8-1.3V42h-0.1c-0.2,0.3-0.5,0.5-0.9,0.5c-0.8,0-1.3-0.7-1.3-1.9c0-1.3,0.5-2,1.3-2c0.4,0,0.7,0.2,0.9,0.5H64v-0.4
		h0.6V42.6z M64,39.5c-0.3-0.3-0.5-0.4-0.8-0.4c-0.6,0-0.9,0.5-0.9,1.4c0,1,0.3,1.5,0.9,1.5c0.3,0,0.6-0.1,0.8-0.4V39.5z"/>
	<path fill="#FFFFFF" d="M68.5,40.7c0,1.4-0.6,2.2-1.5,2.2s-1.5-0.8-1.5-2.2c0-1.3,0.6-2.2,1.5-2.2S68.5,39.3,68.5,40.7z M66.1,40.6
		c0,1.2,0.3,1.8,0.9,1.8s0.9-0.6,0.9-1.7c0-1.1-0.4-1.7-0.9-1.7S66.1,39.6,66.1,40.6z"/>
	<path fill="#FFFFFF" d="M71,38.7v0.5h-0.9v2.6c0,0.6,0,0.6,0.5,0.6H71v0.5h-0.6c-0.8,0-0.9-0.3-0.9-1.3v-2.4H69v-0.5h0.5v-1.3h0.6
		v1.3C70.1,38.7,71,38.7,71,38.7z"/>
	<path fill="#FFFFFF" d="M73.4,38.7v0.5h-0.9v2.6c0,0.6,0,0.6,0.5,0.6h0.4v0.5h-0.6c-0.8,0-0.9-0.3-0.9-1.3v-2.4h-0.5v-0.5h0.5v-1.3
		h0.6v1.3C72.5,38.7,73.4,38.7,73.4,38.7z"/>
	<path fill="#FFFFFF" d="M76.8,42.8h-0.6v-0.3h-0.1c-0.3,0.3-0.6,0.5-1,0.5c-0.7,0-1.3-0.5-1.3-1.2c0-0.9,0.8-1.4,2.3-1.5
		c0-0.1,0-0.2,0-0.3c0-0.7-0.2-0.9-0.8-0.9c-0.4,0-0.7,0.2-0.9,0.6H74v-0.6c0.4-0.2,0.8-0.4,1.3-0.4s0.9,0.2,1.2,0.5
		c0.2,0.3,0.2,0.6,0.2,1.3v2.3C76.7,42.8,76.8,42.8,76.8,42.8z M76.2,40.6c-1.2,0.1-1.7,0.5-1.7,1.1c0,0.4,0.3,0.7,0.8,0.7
		c0.3,0,0.6-0.1,0.9-0.4C76.2,42,76.2,40.6,76.2,40.6z"/>
	<path fill="#FFFFFF" d="M80.4,37v5.8h-0.6V37H80.4z"/>
	<path fill="#FFFFFF" d="M84.4,40.7c0,1.4-0.6,2.2-1.5,2.2s-1.5-0.8-1.5-2.2c0-1.3,0.6-2.2,1.5-2.2S84.4,39.3,84.4,40.7z M81.9,40.6
		c0,1.2,0.3,1.8,0.9,1.8s0.9-0.6,0.9-1.7c0-1.1-0.4-1.7-0.9-1.7S81.9,39.6,81.9,40.6z"/>
	<path fill="#FFFFFF" d="M85.6,38.7l0.6,2.3c0.1,0.3,0.1,0.6,0.2,1.1h0.1c0.1-0.6,0.2-1,0.2-1.1l0.5-2.3h0.7l-1.2,4.1h-0.5L85,38.7
		H85.6z"/>
	<path fill="#FFFFFF" d="M89,40.9L89,40.9c0,1,0.4,1.5,1,1.5c0.4,0,0.8-0.2,0.9-0.5h0.4v0.5c-0.4,0.4-0.8,0.5-1.4,0.5
		c-1.1,0-1.6-0.7-1.6-2.2c0-1.4,0.6-2.2,1.5-2.2c1,0,1.5,0.8,1.5,2.2v0.2H89z M90.8,40.4c0-0.9-0.4-1.4-0.9-1.4
		c-0.6,0-0.9,0.5-0.9,1.4H90.8z"/>
	<path fill="#FFFFFF" d="M95.9,38.7v0.5H95v2.6c0,0.6,0,0.6,0.5,0.6h0.4v0.5h-0.6c-0.8,0-0.9-0.3-0.9-1.3v-2.4h-0.5v-0.5h0.5v-1.3
		H95v1.3C95,38.7,95.9,38.7,95.9,38.7z"/>
	<path fill="#FFFFFF" d="M97.2,37v2h0.1c0.2-0.3,0.5-0.5,0.9-0.5c0.7,0,1.1,0.5,1.1,1.4v2.8h-0.6v-2.6c0-0.8-0.1-1.2-0.7-1.2
		c-0.3,0-0.6,0.1-0.8,0.4v3.3h-0.6V37H97.2z"/>
	<path fill="#FFFFFF" d="M100.8,40.9L100.8,40.9c0,1,0.4,1.5,1,1.5c0.4,0,0.8-0.2,0.9-0.5h0.4v0.5c-0.4,0.4-0.8,0.5-1.4,0.5
		c-1.1,0-1.6-0.7-1.6-2.2c0-1.4,0.6-2.2,1.5-2.2c1,0,1.5,0.8,1.5,2.2v0.2H100.8z M102.6,40.4c0-0.9-0.4-1.4-0.9-1.4
		c-0.6,0-0.9,0.5-0.9,1.4H102.6z"/>
	<path fill="#FFFFFF" d="M104.3,41.8c0.2,0.4,0.5,0.6,1,0.6s0.8-0.3,0.8-0.7c0-0.6-0.5-0.6-1.3-0.9c-0.5-0.2-0.8-0.6-0.8-1.1
		c0-0.7,0.6-1.2,1.3-1.2c0.4,0,0.8,0.1,1.2,0.5v0.6h-0.4c-0.2-0.4-0.5-0.6-0.8-0.6c-0.4,0-0.8,0.3-0.8,0.7s0.3,0.6,0.9,0.8
		c0.8,0.2,1.2,0.6,1.2,1.2c0,0.7-0.5,1.3-1.4,1.3c-0.5,0-1-0.2-1.4-0.5v-0.6L104.3,41.8L104.3,41.8z"/>
	<path fill="#FFFFFF" d="M107.9,40.9L107.9,40.9c0,1,0.4,1.5,1,1.5c0.4,0,0.8-0.2,0.9-0.5h0.4v0.5c-0.4,0.4-0.8,0.5-1.4,0.5
		c-1.1,0-1.6-0.7-1.6-2.2c0-1.4,0.6-2.2,1.5-2.2c1,0,1.5,0.8,1.5,2.2v0.2H107.9z M109.7,40.4c0-0.9-0.4-1.4-0.9-1.4
		c-0.6,0-0.9,0.5-0.9,1.4H109.7z"/>
	<path fill="#FFFFFF" d="M113.3,41.8c0.2,0.4,0.5,0.6,1,0.6s0.8-0.3,0.8-0.7c0-0.6-0.5-0.6-1.3-0.9c-0.5-0.2-0.8-0.6-0.8-1.1
		c0-0.7,0.6-1.2,1.3-1.2c0.4,0,0.8,0.1,1.2,0.5v0.6h-0.4c-0.2-0.4-0.5-0.6-0.8-0.6c-0.4,0-0.8,0.3-0.8,0.7s0.3,0.6,0.9,0.8
		c0.8,0.2,1.2,0.6,1.2,1.2c0,0.7-0.5,1.3-1.4,1.3c-0.5,0-1-0.2-1.4-0.5v-0.6L113.3,41.8L113.3,41.8z"/>
	<path fill="#FFFFFF" d="M118.6,42.8v-0.3h-0.1c-0.2,0.3-0.5,0.5-0.9,0.5c-0.5,0-0.9-0.2-1-0.7c-0.1-0.2-0.1-0.6-0.1-1.1v-2.4h0.6
		v2.6c0,0.8,0.1,1.2,0.7,1.2c0.3,0,0.6-0.1,0.8-0.4v-3.3h0.6V43h-0.6V42.8z"/>
	<path fill="#FFFFFF" d="M123,42.6c0,1.1-0.5,1.5-1.4,1.5c-0.5,0-0.9-0.1-1.3-0.4V43h0.4c0.2,0.4,0.4,0.5,0.9,0.5
		c0.7,0,0.8-0.4,0.8-1.3V42h-0.1c-0.2,0.3-0.5,0.5-0.9,0.5c-0.8,0-1.3-0.7-1.3-1.9c0-1.3,0.5-2,1.3-2c0.4,0,0.7,0.2,0.9,0.5h0.1
		v-0.4h0.6V42.6z M122.5,39.5c-0.3-0.3-0.5-0.4-0.8-0.4c-0.6,0-0.9,0.5-0.9,1.4c0,1,0.3,1.5,0.9,1.5c0.3,0,0.6-0.1,0.8-0.4V39.5z"/>
	<path fill="#FFFFFF" d="M126.8,42.8h-0.6v-0.3h-0.1c-0.3,0.3-0.6,0.5-1,0.5c-0.7,0-1.3-0.5-1.3-1.2c0-0.9,0.8-1.4,2.3-1.5
		c0-0.1,0-0.2,0-0.3c0-0.7-0.2-0.9-0.8-0.9c-0.4,0-0.7,0.2-0.9,0.6H124v-0.6c0.4-0.2,0.8-0.4,1.3-0.4s0.9,0.2,1.2,0.5
		c0.2,0.3,0.2,0.6,0.2,1.3v2.3C126.7,42.8,126.8,42.8,126.8,42.8z M126.2,40.6c-1.2,0.1-1.7,0.5-1.7,1.1c0,0.4,0.3,0.7,0.8,0.7
		c0.3,0,0.6-0.1,0.9-0.4C126.2,42,126.2,40.6,126.2,40.6z"/>
	<path fill="#FFFFFF" d="M128.5,38.7V39c0,0.1,0,0.3-0.1,0.4l0.1,0.1c0.2-0.5,0.8-0.8,1.3-0.8l0,0v0.7c-0.6,0-1,0.2-1.4,0.6v2.9
		h-0.6v-4.1h0.7L128.5,38.7L128.5,38.7z"/>
	<path fill="#FFFFFF" d="M131,38.7l0.8,3.4h0.1l0.7-3.4h0.7l-1.2,4c-0.3,1-0.7,1.5-1.6,1.5c-0.1,0-0.1,0-0.2,0v-0.5
		c0.1,0,0.1,0,0.2,0c0.6,0,0.8-0.3,1-1l-1.2-3.9L131,38.7L131,38.7z"/>
	<path fill="#FFFFFF" d="M137.5,38.7v0.5h-0.9v2.6c0,0.6,0,0.6,0.5,0.6h0.4v0.5h-0.6c-0.8,0-0.9-0.3-0.9-1.3v-2.4h-0.5v-0.5h0.5
		v-1.3h0.6v1.3C136.6,38.7,137.5,38.7,137.5,38.7z"/>
	<path fill="#FFFFFF" d="M138.8,38.7V39c0,0.1,0,0.3-0.1,0.4l0.1,0.1c0.2-0.5,0.8-0.8,1.3-0.8l0,0v0.7c-0.6,0-1,0.2-1.4,0.6v2.9
		h-0.6v-4.1h0.7V38.7z"/>
	<path fill="#FFFFFF" d="M141.4,40.9L141.4,40.9c0,1,0.4,1.5,1,1.5c0.4,0,0.8-0.2,0.9-0.5h0.4v0.5c-0.4,0.4-0.8,0.5-1.4,0.5
		c-1.1,0-1.6-0.7-1.6-2.2c0-1.4,0.6-2.2,1.5-2.2c1,0,1.5,0.8,1.5,2.2v0.2H141.4z M143.2,40.4c0-0.9-0.4-1.4-0.9-1.4
		c-0.6,0-0.9,0.5-0.9,1.4H143.2z"/>
	<path fill="#FFFFFF" d="M147.5,42.8h-0.6v-0.3h-0.1c-0.3,0.3-0.6,0.5-1,0.5c-0.7,0-1.3-0.5-1.3-1.2c0-0.9,0.8-1.4,2.3-1.5
		c0-0.1,0-0.2,0-0.3c0-0.7-0.2-0.9-0.8-0.9c-0.4,0-0.7,0.2-0.9,0.6h-0.4v-0.6c0.4-0.2,0.8-0.4,1.3-0.4s0.9,0.2,1.2,0.5
		c0.2,0.3,0.2,0.6,0.2,1.3v2.3C147.4,42.8,147.5,42.8,147.5,42.8z M146.9,40.6c-1.2,0.1-1.7,0.5-1.7,1.1c0,0.4,0.3,0.7,0.8,0.7
		c0.3,0,0.6-0.1,0.9-0.4V40.6z"/>
	<path fill="#FFFFFF" d="M150.2,38.7v0.5h-0.9v2.6c0,0.6,0,0.6,0.5,0.6h0.4v0.5h-0.6c-0.8,0-0.9-0.3-0.9-1.3v-2.4h-0.5v-0.5h0.5
		v-1.3h0.6v1.3C149.3,38.7,150.2,38.7,150.2,38.7z"/>
	<path fill="#FFFFFF" d="M151.1,41.8c0.2,0.4,0.5,0.6,1,0.6s0.8-0.3,0.8-0.7c0-0.6-0.5-0.6-1.3-0.9c-0.5-0.2-0.8-0.6-0.8-1.1
		c0-0.7,0.6-1.2,1.3-1.2c0.4,0,0.8,0.1,1.2,0.5v0.6h-0.4c-0.2-0.4-0.5-0.6-0.8-0.6c-0.4,0-0.8,0.3-0.8,0.7s0.3,0.6,0.9,0.8
		c0.8,0.2,1.2,0.6,1.2,1.2c0,0.7-0.5,1.3-1.4,1.3c-0.5,0-1-0.2-1.4-0.5v-0.6L151.1,41.8L151.1,41.8z"/>
</g>
<g>
	<g>
		<path fill="#FFFFFF" d="M62.3,77.2l0.7,3.3c0.1,0.4,0.2,1,0.3,1.6h0.1c0-0.6,0.1-1,0.2-1.4l0.7-3.5H65l0.7,3.5
			c0.1,0.4,0.2,0.9,0.2,1.4H66c0.1-0.5,0.2-1.1,0.3-1.6l0.7-3.3h0.7l-1.4,5.5h-0.7l-0.7-3.6c-0.1-0.4-0.2-0.8-0.2-1.3h-0.2
			c-0.1,0.5-0.1,0.9-0.2,1.3l-0.7,3.5h-0.7l-1.4-5.5L62.3,77.2L62.3,77.2z"/>
		<path fill="#FFFFFF" d="M68.8,76.9v2h0.1c0.2-0.3,0.5-0.5,0.9-0.5c0.7,0,1.1,0.5,1.1,1.4v2.8h-0.6V80c0-0.8-0.1-1.2-0.7-1.2
			c-0.3,0-0.6,0.1-0.8,0.4v3.3h-0.6v-5.8h0.6V76.9z"/>
		<path fill="#FFFFFF" d="M72.3,80.8L72.3,80.8c0,1,0.4,1.5,1,1.5c0.4,0,0.8-0.2,0.9-0.5h0.4v0.5c-0.4,0.4-0.8,0.5-1.4,0.5
			c-1.1,0-1.6-0.7-1.6-2.2c0-1.4,0.6-2.2,1.5-2.2c1,0,1.5,0.8,1.5,2.2v0.2H72.3z M74.1,80.4c0-0.9-0.4-1.4-0.9-1.4
			c-0.6,0-0.9,0.5-0.9,1.4H74.1z"/>
		<path fill="#FFFFFF" d="M77.3,78.6V79h-0.9v2.6c0,0.6,0,0.6,0.5,0.6h0.4v0.5h-0.6c-0.8,0-0.9-0.3-0.9-1.3V79h-0.5v-0.5h0.5v-1.3
			h0.6v1.3L77.3,78.6L77.3,78.6z"/>
		<path fill="#FFFFFF" d="M78.6,76.9v2h0.1c0.2-0.3,0.5-0.5,0.9-0.5c0.7,0,1.1,0.5,1.1,1.4v2.8h-0.6V80c0-0.8-0.1-1.2-0.7-1.2
			c-0.3,0-0.6,0.1-0.8,0.4v3.3H78v-5.8h0.6V76.9z"/>
		<path fill="#FFFFFF" d="M82.2,80.8L82.2,80.8c0,1,0.4,1.5,1,1.5c0.4,0,0.8-0.2,0.9-0.5h0.4v0.5c-0.4,0.4-0.8,0.5-1.4,0.5
			c-1.1,0-1.6-0.7-1.6-2.2c0-1.4,0.6-2.2,1.5-2.2c1,0,1.5,0.8,1.5,2.2v0.2H82.2z M84,80.4c0-0.9-0.4-1.4-0.9-1.4
			c-0.6,0-0.9,0.5-0.9,1.4H84z"/>
		<path fill="#FFFFFF" d="M86.2,78.6v0.3c0,0.1,0,0.3-0.1,0.4l0.1,0.1c0.2-0.5,0.8-0.8,1.3-0.8l0,0v0.7c-0.6,0-1,0.2-1.4,0.6v2.9
			h-0.6v-4.1L86.2,78.6L86.2,78.6z"/>
		<path fill="#FFFFFF" d="M91.9,78.6V79H91v2.6c0,0.6,0,0.6,0.5,0.6h0.4v0.5h-0.6c-0.8,0-0.9-0.3-0.9-1.3V79h-0.5v-0.5h0.5v-1.3H91
			v1.3L91.9,78.6L91.9,78.6z"/>
		<path fill="#FFFFFF" d="M93.2,76.9v2h0.1c0.2-0.3,0.5-0.5,0.9-0.5c0.7,0,1.1,0.5,1.1,1.4v2.8h-0.6V80c0-0.8-0.1-1.2-0.7-1.2
			c-0.3,0-0.6,0.1-0.8,0.4v3.3h-0.6v-5.8h0.6V76.9z"/>
		<path fill="#FFFFFF" d="M96.8,80.8L96.8,80.8c0,1,0.4,1.5,1,1.5c0.4,0,0.8-0.2,0.9-0.5h0.4v0.5c-0.4,0.4-0.8,0.5-1.4,0.5
			c-1.1,0-1.6-0.7-1.6-2.2c0-1.4,0.6-2.2,1.5-2.2c1,0,1.5,0.8,1.5,2.2v0.2H96.8z M98.6,80.4c0-0.9-0.4-1.4-0.9-1.4
			c-0.6,0-0.9,0.5-0.9,1.4H98.6z"/>
		<path fill="#FFFFFF" d="M100.3,78.6l0.8,3.4h0.1l0.7-3.4h0.7l-1.2,4c-0.3,1-0.7,1.5-1.6,1.5c-0.1,0-0.1,0-0.2,0v-0.5
			c0.1,0,0.1,0,0.2,0c0.6,0,0.8-0.3,1-1l-1.2-3.9L100.3,78.6L100.3,78.6z"/>
		<path fill="#FFFFFF" d="M107.9,82.7h-0.6v-0.3h-0.1c-0.3,0.3-0.6,0.5-1,0.5c-0.7,0-1.3-0.5-1.3-1.2c0-0.9,0.8-1.4,2.3-1.5
			c0-0.1,0-0.2,0-0.3c0-0.7-0.2-0.9-0.8-0.9c-0.4,0-0.7,0.2-0.9,0.6h-0.4V79c0.4-0.2,0.8-0.4,1.3-0.4s0.9,0.2,1.2,0.5
			c0.2,0.3,0.2,0.6,0.2,1.3v2.3C107.8,82.7,107.9,82.7,107.9,82.7z M107.3,80.5c-1.2,0.1-1.7,0.5-1.7,1.1c0,0.4,0.3,0.7,0.8,0.7
			c0.3,0,0.6-0.1,0.9-0.4C107.3,81.9,107.3,80.5,107.3,80.5z"/>
		<path fill="#FFFFFF" d="M109.6,78.6v0.3c0,0.1,0,0.3-0.1,0.4l0.1,0.1c0.2-0.5,0.8-0.8,1.3-0.8l0,0v0.7c-0.6,0-1,0.2-1.4,0.6v2.9
			H109v-4.1L109.6,78.6L109.6,78.6z"/>
		<path fill="#FFFFFF" d="M112.2,80.8L112.2,80.8c0,1,0.4,1.5,1,1.5c0.4,0,0.8-0.2,0.9-0.5h0.4v0.5c-0.4,0.4-0.8,0.5-1.4,0.5
			c-1.1,0-1.6-0.7-1.6-2.2c0-1.4,0.6-2.2,1.5-2.2c1,0,1.5,0.8,1.5,2.2v0.2H112.2z M114,80.4c0-0.9-0.4-1.4-0.9-1.4
			c-0.6,0-0.9,0.5-0.9,1.4H114z"/>
		<path fill="#FFFFFF" d="M118,78.6v0.3h0.1c0.2-0.3,0.5-0.5,0.9-0.5s0.7,0.2,1,0.6c0.4-0.4,0.7-0.6,1-0.6c0.7,0,1.1,0.5,1.1,1.4
			v2.8h-0.6V80c0-0.8-0.1-1.2-0.7-1.2c-0.3,0-0.5,0.1-0.7,0.4v3.3h-0.6v-2.4c0-0.9-0.1-1.3-0.6-1.3c-0.3,0-0.5,0.1-0.8,0.4v3.3h-0.6
			v-4.1h0.5C118,78.4,118,78.6,118,78.6z"/>
		<path fill="#FFFFFF" d="M123.7,76.9v0.7h-0.6v-0.7H123.7z M123.7,78.6v4.1h-0.6v-4.1H123.7z"/>
		<path fill="#FFFFFF" d="M125.5,78.6v0.3h0.1c0.2-0.3,0.5-0.5,0.9-0.5c0.8,0,1.1,0.5,1.1,1.4v2.8H127V80c0-0.8-0.1-1.2-0.7-1.2
			c-0.3,0-0.6,0.1-0.8,0.4v3.3h-0.6v-4.1h0.6V78.6z"/>
		<path fill="#FFFFFF" d="M129.2,76.9v0.7h-0.6v-0.7H129.2z M129.2,78.6v4.1h-0.6v-4.1H129.2z"/>
		<path fill="#FFFFFF" d="M133.5,77.2c1,0,1.9,0.4,1.9,1.5c0,0.7-0.4,1.2-1.2,1.5l1.6,2.5H135l-1.4-2.3h-0.8v2.3h-0.6v-5.5H133.5z
			 M132.9,79.9c0.1,0,0.2,0,0.3,0c1.1,0,1.5-0.4,1.5-1.2c0-0.8-0.5-1.1-1.5-1.1c-0.1,0-0.3,0-0.4,0L132.9,79.9L132.9,79.9z"/>
		<path fill="#FFFFFF" d="M136.9,80.8L136.9,80.8c0,1,0.4,1.5,1,1.5c0.4,0,0.8-0.2,0.9-0.5h0.4v0.5c-0.4,0.4-0.8,0.5-1.4,0.5
			c-1.1,0-1.6-0.7-1.6-2.2c0-1.4,0.6-2.2,1.5-2.2c1,0,1.5,0.8,1.5,2.2v0.2H136.9z M138.7,80.4c0-0.9-0.4-1.4-0.9-1.4
			c-0.6,0-0.9,0.5-0.9,1.4H138.7z"/>
		<path fill="#FFFFFF" d="M140.7,80.8L140.7,80.8c0,1,0.4,1.5,1,1.5c0.4,0,0.8-0.2,0.9-0.5h0.4v0.5c-0.4,0.4-0.8,0.5-1.4,0.5
			c-1.1,0-1.6-0.7-1.6-2.2c0-1.4,0.6-2.2,1.5-2.2c1,0,1.5,0.8,1.5,2.2v0.2H140.7z M142.5,80.4c0-0.9-0.4-1.4-0.9-1.4
			c-0.6,0-0.9,0.5-0.9,1.4H142.5z"/>
		<path fill="#FFFFFF" d="M144.2,81.7c0.2,0.4,0.5,0.6,1,0.6s0.8-0.3,0.8-0.7c0-0.6-0.5-0.6-1.3-0.9c-0.5-0.2-0.8-0.6-0.8-1.1
			c0-0.7,0.6-1.2,1.3-1.2c0.4,0,0.8,0.1,1.2,0.5v0.6H146c-0.2-0.4-0.5-0.6-0.8-0.6c-0.4,0-0.8,0.3-0.8,0.7c0,0.4,0.3,0.6,0.9,0.8
			c0.8,0.2,1.2,0.6,1.2,1.2c0,0.7-0.5,1.3-1.4,1.3c-0.5,0-1-0.2-1.4-0.5v-0.6h0.5V81.7z"/>
		<path fill="#FFFFFF" d="M147.8,80.8L147.8,80.8c0,1,0.4,1.5,1,1.5c0.4,0,0.8-0.2,0.9-0.5h0.4v0.5c-0.4,0.4-0.8,0.5-1.4,0.5
			c-1.1,0-1.6-0.7-1.6-2.2c0-1.4,0.6-2.2,1.5-2.2c1,0,1.5,0.8,1.5,2.2v0.2H147.8z M149.6,80.4c0-0.9-0.4-1.4-0.9-1.4
			c-0.6,0-0.9,0.5-0.9,1.4H149.6z"/>
		<path fill="#FFFFFF" d="M151,78.9c0.4,0,0.5-0.2,0.5-0.6v-0.4h-0.4v-0.7h0.9v0.9c0,0.9-0.2,1.2-1,1.2V78.9z"/>
		<path fill="#FFFFFF" d="M153,81.7c0.2,0.4,0.5,0.6,1,0.6s0.8-0.3,0.8-0.7c0-0.6-0.5-0.6-1.3-0.9c-0.5-0.2-0.8-0.6-0.8-1.1
			c0-0.7,0.5-1.2,1.3-1.2c0.4,0,0.8,0.1,1.2,0.5v0.6h-0.4c-0.2-0.4-0.5-0.6-0.8-0.6c-0.4,0-0.8,0.3-0.8,0.7c0,0.4,0.3,0.6,0.9,0.8
			c0.8,0.2,1.2,0.6,1.2,1.2c0,0.7-0.5,1.3-1.4,1.3c-0.5,0-1-0.2-1.4-0.5v-0.6h0.5V81.7z"/>
		<path fill="#FFFFFF" d="M62.4,88.7v0.4h0.1c0.2-0.3,0.5-0.5,0.9-0.5c0.8,0,1.3,0.8,1.3,2.2c0,1.3-0.5,2.2-1.3,2.2
			c-0.4,0-0.7-0.2-0.9-0.5h-0.1v1.6h-0.6v-5.4C61.8,88.7,62.4,88.7,62.4,88.7z M62.4,92c0.3,0.3,0.5,0.4,0.8,0.4
			c0.6,0,0.9-0.6,0.9-1.7S63.8,89,63.2,89c-0.3,0-0.5,0.1-0.8,0.4V92z"/>
		<path fill="#FFFFFF" d="M66.1,91L66.1,91c0,1,0.4,1.5,1,1.5c0.4,0,0.8-0.2,0.9-0.5h0.4v0.5C68,92.9,67.6,93,67,93
			c-1.1,0-1.6-0.7-1.6-2.2c0-1.4,0.6-2.2,1.5-2.2c1,0,1.5,0.8,1.5,2.2V91H66.1z M67.9,90.5c0-0.9-0.4-1.4-0.9-1.4
			c-0.6,0-0.9,0.5-0.9,1.4H67.9z"/>
		<path fill="#FFFFFF" d="M72.1,92.8h-0.6v-0.3h-0.1c-0.3,0.3-0.6,0.5-1,0.5c-0.7,0-1.3-0.5-1.3-1.2c0-0.9,0.8-1.4,2.3-1.5
			c0-0.1,0-0.2,0-0.3c0-0.7-0.2-0.9-0.8-0.9c-0.4,0-0.7,0.2-0.9,0.6h-0.4V89c0.4-0.2,0.8-0.4,1.3-0.4s0.9,0.2,1.2,0.5
			c0.2,0.3,0.2,0.6,0.2,1.3v2.4H72.1z M71.5,90.6c-1.2,0.1-1.7,0.5-1.7,1.1c0,0.4,0.3,0.7,0.8,0.7c0.3,0,0.6-0.1,0.9-0.4
			C71.5,92,71.5,90.6,71.5,90.6z"/>
		<path fill="#FFFFFF" d="M73.8,88.7V89h0.1c0.2-0.3,0.5-0.5,0.9-0.5c0.8,0,1.1,0.5,1.1,1.4v2.8h-0.6v-2.6c0-0.8-0.1-1.2-0.7-1.2
			c-0.3,0-0.6,0.1-0.8,0.4v3.3h-0.6v-4.1h0.6V88.7z"/>
		<path fill="#FFFFFF" d="M79,92.8v-0.3h-0.1C78.7,92.8,78.4,93,78,93c-0.5,0-0.9-0.2-1-0.7c-0.1-0.2-0.1-0.6-0.1-1.1v-2.4h0.6v2.6
			c0,0.8,0.1,1.2,0.7,1.2c0.3,0,0.6-0.1,0.8-0.4v-3.3h0.6V93H79V92.8z"/>
		<path fill="#FFFFFF" d="M82.3,88.7v0.5h-0.9v2.6c0,0.6,0,0.6,0.5,0.6h0.4v0.5h-0.6c-0.8,0-0.9-0.3-0.9-1.3v-2.4h-0.5v-0.5h0.5
			v-1.3h0.6v1.3C81.4,88.7,82.3,88.7,82.3,88.7z"/>
		<path fill="#FFFFFF" d="M85.4,87.1v2h0.1c0.2-0.3,0.5-0.5,0.9-0.5c0.7,0,1.3,0.8,1.3,2.2c0,1.4-0.5,2.2-1.3,2.2
			c-0.4,0-0.7-0.2-0.9-0.5h-0.1v0.4h-0.6v-5.8C84.8,87.1,85.4,87.1,85.4,87.1z M85.4,92c0.3,0.3,0.5,0.4,0.8,0.4
			c0.6,0,0.9-0.6,0.9-1.7S86.8,89,86.2,89c-0.3,0-0.5,0.1-0.8,0.4C85.4,89.4,85.4,92,85.4,92z"/>
		<path fill="#FFFFFF" d="M90.7,92.8v-0.3h-0.1c-0.2,0.3-0.5,0.5-0.9,0.5c-0.5,0-0.9-0.2-1-0.7c-0.1-0.2-0.1-0.6-0.1-1.1v-2.4h0.6
			v2.6c0,0.8,0.1,1.2,0.7,1.2c0.3,0,0.6-0.1,0.8-0.4v-3.3h0.6V93h-0.6V92.8z"/>
		<path fill="#FFFFFF" d="M94,88.7v0.5h-0.9v2.6c0,0.6,0,0.6,0.5,0.6H94v0.5h-0.6c-0.8,0-0.9-0.3-0.9-1.3v-2.4H92v-0.5h0.5v-1.3h0.6
			v1.3C93.1,88.7,94,88.7,94,88.7z"/>
		<path fill="#FFFFFF" d="M96.4,88.7v0.5h-0.9v2.6c0,0.6,0,0.6,0.5,0.6h0.4v0.5h-0.6c-0.8,0-0.9-0.3-0.9-1.3v-2.4h-0.5v-0.5h0.5
			v-1.3h0.6v1.3C95.5,88.7,96.4,88.7,96.4,88.7z"/>
		<path fill="#FFFFFF" d="M97.5,91L97.5,91c0,1,0.4,1.5,1,1.5c0.4,0,0.8-0.2,0.9-0.5h0.4v0.5C99.4,92.9,99,93,98.4,93
			c-1.1,0-1.6-0.7-1.6-2.2c0-1.4,0.6-2.2,1.5-2.2c1,0,1.5,0.8,1.5,2.2V91H97.5z M99.3,90.5c0-0.9-0.4-1.4-0.9-1.4
			c-0.6,0-0.9,0.5-0.9,1.4H99.3z"/>
		<path fill="#FFFFFF" d="M101.5,88.7V89c0,0.1,0,0.3-0.1,0.4l0.1,0.1c0.2-0.5,0.8-0.8,1.3-0.8l0,0v0.7c-0.6,0-1,0.2-1.4,0.6v2.9
			h-0.6v-4.1L101.5,88.7L101.5,88.7z"/>
		<path fill="#FFFFFF" d="M105.7,89.7c-0.1-0.4-0.4-0.6-0.7-0.6c-0.5,0-0.9,0.6-0.9,1.7s0.3,1.7,0.9,1.7c0.3,0,0.6-0.2,0.7-0.6h0.4
			v0.6c-0.3,0.4-0.7,0.5-1.1,0.5c-0.9,0-1.5-0.8-1.5-2.2c0-1.4,0.6-2.2,1.5-2.2c0.4,0,0.8,0.2,1.1,0.5v0.6H105.7z"/>
		<path fill="#FFFFFF" d="M109,92.8v-0.3h-0.1c-0.2,0.3-0.5,0.5-0.9,0.5c-0.5,0-0.9-0.2-1-0.7c-0.1-0.2-0.1-0.6-0.1-1.1v-2.4h0.6
			v2.6c0,0.8,0.1,1.2,0.7,1.2c0.3,0,0.6-0.1,0.8-0.4v-3.3h0.6V93H109V92.8z"/>
		<path fill="#FFFFFF" d="M111.3,88.7v0.4h0.1c0.2-0.3,0.5-0.5,0.9-0.5c0.8,0,1.3,0.8,1.3,2.2c0,1.3-0.5,2.2-1.3,2.2
			c-0.4,0-0.7-0.2-0.9-0.5h-0.1v1.6h-0.6v-5.4C110.7,88.7,111.3,88.7,111.3,88.7z M111.3,92c0.3,0.3,0.5,0.4,0.8,0.4
			c0.6,0,0.9-0.6,0.9-1.7s-0.3-1.7-0.9-1.7c-0.3,0-0.5,0.1-0.8,0.4V92z"/>
		<path fill="#FFFFFF" d="M114.7,91.9c0.2,0.4,0.5,0.6,1,0.6s0.8-0.3,0.8-0.7c0-0.6-0.5-0.6-1.3-0.9c-0.5-0.2-0.8-0.6-0.8-1.1
			c0-0.7,0.5-1.2,1.3-1.2c0.4,0,0.8,0.1,1.2,0.5v0.6h-0.4c-0.2-0.4-0.5-0.6-0.8-0.6c-0.4,0-0.8,0.3-0.8,0.7c0,0.4,0.3,0.6,0.9,0.8
			c0.8,0.2,1.2,0.6,1.2,1.2c0,0.7-0.5,1.3-1.4,1.3c-0.5,0-1-0.2-1.4-0.5V92L114.7,91.9L114.7,91.9L114.7,91.9z"/>
		<path fill="#FFFFFF" d="M122.7,90.8c0,1.4-0.6,2.2-1.5,2.2s-1.5-0.8-1.5-2.2c0-1.3,0.6-2.2,1.5-2.2
			C122.1,88.6,122.7,89.4,122.7,90.8z M120.2,90.7c0,1.2,0.3,1.8,0.9,1.8s0.9-0.6,0.9-1.7s-0.4-1.7-0.9-1.7S120.2,89.7,120.2,90.7z"
			/>
		<path fill="#FFFFFF" d="M124.2,88.7V89c0,0.1,0,0.3-0.1,0.4l0.1,0.1c0.2-0.5,0.8-0.8,1.3-0.8l0,0v0.7c-0.6,0-1,0.2-1.4,0.6v2.9
			h-0.6v-4.1L124.2,88.7L124.2,88.7z"/>
		<path fill="#FFFFFF" d="M128.8,88.7v0.4h0.1c0.2-0.3,0.5-0.5,0.9-0.5c0.8,0,1.3,0.8,1.3,2.2c0,1.3-0.5,2.2-1.3,2.2
			c-0.4,0-0.7-0.2-0.9-0.5h-0.1v1.6h-0.6v-5.4C128.2,88.7,128.8,88.7,128.8,88.7z M128.8,92c0.3,0.3,0.5,0.4,0.8,0.4
			c0.6,0,0.9-0.6,0.9-1.7s-0.3-1.7-0.9-1.7c-0.3,0-0.5,0.1-0.8,0.4V92z"/>
		<path fill="#FFFFFF" d="M134.1,92.8v-0.3H134c-0.2,0.3-0.5,0.5-0.9,0.5c-0.5,0-0.9-0.2-1-0.7c-0.1-0.2-0.1-0.6-0.1-1.1v-2.4h0.6
			v2.6c0,0.8,0.1,1.2,0.7,1.2c0.3,0,0.6-0.1,0.8-0.4v-3.3h0.6V93h-0.6V92.8z"/>
		<path fill="#FFFFFF" d="M136.4,88.7V89h0.1c0.2-0.3,0.5-0.5,0.9-0.5s0.7,0.2,1,0.6c0.4-0.4,0.7-0.6,1.1-0.6c0.7,0,1.1,0.5,1.1,1.4
			v2.8H140v-2.6c0-0.8-0.1-1.2-0.7-1.2c-0.3,0-0.6,0.1-0.7,0.4v3.3H138v-2.4c0-0.9-0.1-1.3-0.6-1.3c-0.3,0-0.6,0.1-0.8,0.4v3.3H136
			v-4.1h0.4V88.7z"/>
		<path fill="#FFFFFF" d="M142,88.7v0.4h0.1c0.2-0.3,0.5-0.5,0.9-0.5c0.8,0,1.3,0.8,1.3,2.2c0,1.3-0.5,2.2-1.3,2.2
			c-0.4,0-0.7-0.2-0.9-0.5H142v1.6h-0.6v-5.4C141.4,88.7,142,88.7,142,88.7z M142,92c0.3,0.3,0.5,0.4,0.8,0.4c0.6,0,0.9-0.6,0.9-1.7
			s-0.3-1.7-0.9-1.7c-0.3,0-0.5,0.1-0.8,0.4V92z"/>
		<path fill="#FFFFFF" d="M145.8,87.1v2.5c0,0.4,0,0.8-0.1,1.2h0.1l1.5-2.1h0.7l-1.4,1.8l1.3,2.3h-0.6l-0.7-1.3
			c-0.1-0.2-0.2-0.4-0.3-0.7h-0.1l-0.4,0.6v1.4h-0.6V87L145.8,87.1L145.8,87.1z"/>
		<path fill="#FFFFFF" d="M149.3,87.1v0.7h-0.6v-0.7H149.3z M149.2,88.7v4.1h-0.6v-4.1H149.2z"/>
		<path fill="#FFFFFF" d="M151,88.7V89h0.1c0.2-0.3,0.5-0.5,0.9-0.5c0.8,0,1.1,0.5,1.1,1.4v2.8h-0.6v-2.6c0-0.8-0.1-1.2-0.7-1.2
			c-0.3,0-0.6,0.1-0.8,0.4v3.3h-0.6v-4.1h0.6V88.7z"/>
		<path fill="#FFFFFF" d="M62.1,102c0.2,0.4,0.5,0.6,1,0.6s0.8-0.3,0.8-0.7c0-0.6-0.5-0.6-1.3-0.9c-0.5-0.2-0.8-0.6-0.8-1.1
			c0-0.7,0.6-1.2,1.3-1.2c0.4,0,0.8,0.1,1.2,0.5v0.6h-0.4c-0.2-0.4-0.5-0.6-0.8-0.6c-0.4,0-0.8,0.3-0.8,0.7c0,0.4,0.3,0.6,0.9,0.8
			c0.8,0.2,1.2,0.6,1.2,1.2c0,0.7-0.5,1.3-1.4,1.3c-0.5,0-1-0.2-1.4-0.5V102H62.1z"/>
		<path fill="#FFFFFF" d="M65.9,97.2v2H66c0.2-0.3,0.5-0.5,0.9-0.5c0.7,0,1.1,0.5,1.1,1.4v2.8h-0.6v-2.6c0-0.8-0.1-1.2-0.7-1.2
			c-0.3,0-0.6,0.1-0.8,0.4v3.3h-0.6V97h0.6V97.2z"/>
		<path fill="#FFFFFF" d="M71.6,103H71v-0.3h-0.1c-0.3,0.3-0.6,0.5-1,0.5c-0.7,0-1.3-0.5-1.3-1.2c0-0.9,0.8-1.4,2.3-1.5
			c0-0.1,0-0.2,0-0.3c0-0.7-0.2-0.9-0.8-0.9c-0.4,0-0.7,0.2-0.9,0.6h-0.4v-0.6c0.4-0.2,0.8-0.4,1.3-0.4s0.9,0.2,1.2,0.5
			c0.2,0.3,0.2,0.6,0.2,1.3v2.3H71.6z M71,100.8c-1.2,0.1-1.7,0.5-1.7,1.1c0,0.4,0.3,0.7,0.8,0.7c0.3,0,0.6-0.1,0.9-0.4
			C71,102.2,71,100.8,71,100.8z"/>
		<path fill="#FFFFFF" d="M73.2,98.9v0.4h0.1c0.2-0.3,0.5-0.5,0.9-0.5c0.8,0,1.3,0.8,1.3,2.2c0,1.3-0.5,2.2-1.3,2.2
			c-0.4,0-0.7-0.2-0.9-0.5h-0.1v1.6h-0.6v-5.4C72.6,98.9,73.2,98.9,73.2,98.9z M73.2,102.2c0.3,0.3,0.5,0.4,0.8,0.4
			c0.6,0,0.9-0.6,0.9-1.7s-0.3-1.7-0.9-1.7c-0.3,0-0.5,0.1-0.8,0.4V102.2z"/>
		<path fill="#FFFFFF" d="M76.8,101.1L76.8,101.1c0,1,0.4,1.5,1,1.5c0.4,0,0.8-0.2,0.9-0.5h0.4v0.5c-0.4,0.4-0.8,0.5-1.4,0.5
			c-1.1,0-1.6-0.7-1.6-2.2c0-1.4,0.6-2.2,1.5-2.2c1,0,1.5,0.8,1.5,2.2v0.2H76.8z M78.6,100.7c0-0.9-0.4-1.4-0.9-1.4
			c-0.6,0-0.9,0.5-0.9,1.4H78.6z"/>
		<path fill="#FFFFFF" d="M82.3,102.7L82.3,102.7c-0.3,0.3-0.6,0.5-1,0.5c-0.8,0-1.3-0.8-1.3-2.2c0-1.3,0.5-2.2,1.3-2.2
			c0.4,0,0.6,0.2,0.9,0.5h0.1v-2h0.6v5.8h-0.6V102.7z M82.3,99.7c-0.3-0.3-0.5-0.4-0.8-0.4c-0.6,0-0.9,0.6-0.9,1.7s0.3,1.7,0.9,1.7
			c0.3,0,0.5-0.2,0.8-0.4V99.7z"/>
		<path fill="#FFFFFF" d="M83.8,103.9c0.4,0,0.5-0.2,0.5-0.6v-0.4h-0.4v-0.7h0.9v0.9c0,0.9-0.2,1.2-1,1.2V103.9z"/>
		<path fill="#FFFFFF" d="M88.1,101.1L88.1,101.1c0,1,0.4,1.5,1,1.5c0.4,0,0.8-0.2,0.9-0.5h0.4v0.5c-0.4,0.4-0.8,0.5-1.4,0.5
			c-1.1,0-1.6-0.7-1.6-2.2c0-1.4,0.6-2.2,1.5-2.2c1,0,1.5,0.8,1.5,2.2v0.2H88.1z M89.9,100.7c0-0.9-0.4-1.4-0.9-1.4
			c-0.6,0-0.9,0.5-0.9,1.4H89.9z"/>
		<path fill="#FFFFFF" d="M91.7,98.9l0.6,2.3c0.1,0.3,0.1,0.6,0.2,1.1h0.1c0.1-0.6,0.2-1,0.2-1.1l0.5-2.3H94l-1.2,4.1h-0.5l-1.2-4.1
			H91.7z"/>
		<path fill="#FFFFFF" d="M95.2,101.1L95.2,101.1c0,1,0.4,1.5,1,1.5c0.4,0,0.8-0.2,0.9-0.5h0.4v0.5c-0.4,0.4-0.8,0.5-1.4,0.5
			c-1.1,0-1.6-0.7-1.6-2.2c0-1.4,0.6-2.2,1.5-2.2c1,0,1.5,0.8,1.5,2.2v0.2H95.2z M97,100.7c0-0.9-0.4-1.4-0.9-1.4
			c-0.6,0-0.9,0.5-0.9,1.4H97z"/>
		<path fill="#FFFFFF" d="M99.1,98.9v0.3c0,0.1,0,0.3-0.1,0.4l0.1,0.1c0.2-0.5,0.8-0.8,1.3-0.8l0,0v0.7c-0.6,0-1,0.2-1.4,0.6v2.9
			h-0.6V99L99.1,98.9L99.1,98.9z"/>
		<path fill="#FFFFFF" d="M101.6,98.9l0.8,3.4h0.1l0.7-3.4h0.7l-1.2,4c-0.3,1-0.7,1.5-1.6,1.5c-0.1,0-0.1,0-0.2,0v-0.5
			c0.1,0,0.1,0,0.2,0c0.6,0,0.8-0.3,1-1l-1.2-3.9L101.6,98.9L101.6,98.9z"/>
		<path fill="#FFFFFF" d="M105.1,97.2v2h0.1c0.2-0.3,0.5-0.5,0.9-0.5c0.7,0,1.3,0.8,1.3,2.2c0,1.4-0.5,2.2-1.3,2.2
			c-0.4,0-0.7-0.2-0.9-0.5h-0.1v0.4h-0.6v-5.8C104.5,97.2,105.1,97.2,105.1,97.2z M105.1,102.2c0.3,0.3,0.5,0.4,0.8,0.4
			c0.6,0,0.9-0.6,0.9-1.7s-0.3-1.7-0.9-1.7c-0.3,0-0.5,0.1-0.8,0.4V102.2z"/>
		<path fill="#FFFFFF" d="M111.2,101c0,1.4-0.6,2.2-1.5,2.2s-1.5-0.8-1.5-2.2c0-1.3,0.6-2.2,1.5-2.2
			C110.7,98.8,111.2,99.6,111.2,101z M108.8,100.9c0,1.2,0.3,1.8,0.9,1.8s0.9-0.6,0.9-1.7s-0.4-1.7-0.9-1.7S108.8,99.8,108.8,100.9z
			"/>
		<path fill="#FFFFFF" d="M114.3,102.7L114.3,102.7c-0.3,0.3-0.6,0.5-1,0.5c-0.8,0-1.3-0.8-1.3-2.2c0-1.3,0.5-2.2,1.3-2.2
			c0.4,0,0.6,0.2,0.9,0.5h0.1v-2h0.6v5.8h-0.6V102.7z M114.3,99.7c-0.3-0.3-0.5-0.4-0.8-0.4c-0.6,0-0.9,0.6-0.9,1.7s0.3,1.7,0.9,1.7
			c0.3,0,0.5-0.2,0.8-0.4V99.7z"/>
		<path fill="#FFFFFF" d="M116.3,98.9l0.8,3.4h0.1l0.7-3.4h0.7l-1.2,4c-0.3,1-0.7,1.5-1.6,1.5c-0.1,0-0.1,0-0.2,0v-0.5
			c0.1,0,0.1,0,0.2,0c0.6,0,0.8-0.3,1-1l-1.2-3.9L116.3,98.9L116.3,98.9z"/>
		<path fill="#FFFFFF" d="M121.4,98.9l0.7,3.5h0.1l0.7-3.5h0.6l0.7,3.5h0.1l0.7-3.5h0.7l-1.2,4.1H124l-0.7-3.2h-0.1l-0.7,3.2h-0.6
			l-1.1-4.1H121.4z"/>
		<path fill="#FFFFFF" d="M127.1,97.2v0.7h-0.6v-0.7H127.1z M127.1,98.9v4.1h-0.6v-4.1H127.1z"/>
		<path fill="#FFFFFF" d="M129.9,98.9v0.5H129v2.6c0,0.6,0,0.6,0.5,0.6h0.4v0.5h-0.6c-0.8,0-0.9-0.3-0.9-1.3v-2.4h-0.5v-0.5h0.5
			v-1.3h0.6v1.3C129,98.9,129.9,98.9,129.9,98.9z"/>
		<path fill="#FFFFFF" d="M131.2,97.2v2h0.1c0.2-0.3,0.5-0.5,0.9-0.5c0.7,0,1.1,0.5,1.1,1.4v2.8h-0.6v-2.6c0-0.8-0.1-1.2-0.7-1.2
			c-0.3,0-0.6,0.1-0.8,0.4v3.3h-0.6V97h0.6V97.2z"/>
		<path fill="#FFFFFF" d="M137.2,101c0,1.4-0.6,2.2-1.5,2.2s-1.5-0.8-1.5-2.2c0-1.3,0.6-2.2,1.5-2.2
			C136.6,98.8,137.2,99.6,137.2,101z M134.8,100.9c0,1.2,0.3,1.8,0.9,1.8c0.6,0,0.9-0.6,0.9-1.7s-0.4-1.7-0.9-1.7
			S134.8,99.8,134.8,100.9z"/>
		<path fill="#FFFFFF" d="M140.2,103v-0.3h-0.1c-0.2,0.3-0.5,0.5-0.9,0.5c-0.5,0-0.9-0.2-1-0.7c-0.1-0.2-0.1-0.6-0.1-1.1V99h0.6v2.6
			c0,0.8,0.1,1.2,0.7,1.2c0.3,0,0.6-0.1,0.8-0.4v-3.3h0.6v4.1h-0.6V103z"/>
		<path fill="#FFFFFF" d="M143.5,98.9v0.5h-0.9v2.6c0,0.6,0,0.6,0.5,0.6h0.4v0.5h-0.6c-0.8,0-0.9-0.3-0.9-1.3v-2.4h-0.5v-0.5h0.5
			v-1.3h0.6v1.3C142.6,98.9,143.5,98.9,143.5,98.9z"/>
		<path fill="#FFFFFF" d="M148.8,103h-0.6v-0.3h-0.1c-0.3,0.3-0.6,0.5-1,0.5c-0.7,0-1.3-0.5-1.3-1.2c0-0.9,0.8-1.4,2.3-1.5
			c0-0.1,0-0.2,0-0.3c0-0.7-0.2-0.9-0.8-0.9c-0.4,0-0.7,0.2-0.9,0.6H146v-0.6c0.4-0.2,0.8-0.4,1.3-0.4s0.9,0.2,1.2,0.5
			c0.2,0.3,0.2,0.6,0.2,1.3v2.3H148.8z M148.2,100.8c-1.2,0.1-1.7,0.5-1.7,1.1c0,0.4,0.3,0.7,0.8,0.7c0.3,0,0.6-0.1,0.9-0.4V100.8z"
			/>
		<path fill="#FFFFFF" d="M152.3,98.9v0.4h0.1c0.2-0.3,0.5-0.5,0.9-0.5c0.8,0,1.3,0.8,1.3,2.2c0,1.3-0.5,2.2-1.3,2.2
			c-0.4,0-0.7-0.2-0.9-0.5h-0.1v1.6h-0.6v-5.4C151.7,98.9,152.3,98.9,152.3,98.9z M152.3,102.2c0.3,0.3,0.5,0.4,0.8,0.4
			c0.6,0,0.9-0.6,0.9-1.7s-0.3-1.7-0.9-1.7c-0.3,0-0.5,0.1-0.8,0.4V102.2z"/>
		<path fill="#FFFFFF" d="M155.9,101.1L155.9,101.1c0,1,0.4,1.5,1,1.5c0.4,0,0.8-0.2,0.9-0.5h0.4v0.5c-0.4,0.4-0.8,0.5-1.4,0.5
			c-1.1,0-1.6-0.7-1.6-2.2c0-1.4,0.6-2.2,1.5-2.2c1,0,1.5,0.8,1.5,2.2v0.2H155.9z M157.7,100.7c0-0.9-0.4-1.4-0.9-1.4
			c-0.6,0-0.9,0.5-0.9,1.4H157.7z"/>
		<path fill="#FFFFFF" d="M162,103h-0.6v-0.3h-0.1c-0.3,0.3-0.6,0.5-1,0.5c-0.7,0-1.3-0.5-1.3-1.2c0-0.9,0.8-1.4,2.3-1.5
			c0-0.1,0-0.2,0-0.3c0-0.7-0.2-0.9-0.8-0.9c-0.4,0-0.7,0.2-0.9,0.6h-0.4v-0.6c0.4-0.2,0.8-0.4,1.3-0.4s0.9,0.2,1.2,0.5
			c0.2,0.3,0.2,0.6,0.2,1.3v2.3H162z M161.4,100.8c-1.2,0.1-1.7,0.5-1.7,1.1c0,0.4,0.3,0.7,0.8,0.7c0.3,0,0.6-0.1,0.9-0.4V100.8z"/>
		<path fill="#FFFFFF" d="M163.6,98.9v0.3h0.1c0.2-0.3,0.5-0.5,0.9-0.5c0.8,0,1.1,0.5,1.1,1.4v2.8h-0.6v-2.6c0-0.8-0.1-1.2-0.7-1.2
			c-0.3,0-0.6,0.1-0.8,0.4v3.3H163v-4.1h0.6V98.9z"/>
		<path fill="#FFFFFF" d="M168.8,103v-0.3h-0.1c-0.2,0.3-0.5,0.5-0.9,0.5c-0.5,0-0.9-0.2-1-0.7c-0.1-0.2-0.1-0.6-0.1-1.1V99h0.6v2.6
			c0,0.8,0.1,1.2,0.7,1.2c0.3,0,0.6-0.1,0.8-0.4v-3.3h0.6v4.1h-0.6V103z"/>
		<path fill="#FFFFFF" d="M172.2,98.9v0.5h-0.9v2.6c0,0.6,0,0.6,0.5,0.6h0.4v0.5h-0.6c-0.8,0-0.9-0.3-0.9-1.3v-2.4h-0.5v-0.5h0.5
			v-1.3h0.6v1.3C171.3,98.9,172.2,98.9,172.2,98.9z"/>
		<path fill="#FFFFFF" d="M64.6,113.2H64v-0.3h-0.1c-0.3,0.3-0.6,0.5-1,0.5c-0.7,0-1.3-0.5-1.3-1.2c0-0.9,0.8-1.4,2.3-1.5
			c0-0.1,0-0.2,0-0.3c0-0.7-0.2-0.9-0.8-0.9c-0.4,0-0.7,0.2-0.9,0.6h-0.4v-0.6c0.4-0.2,0.8-0.4,1.3-0.4s0.9,0.2,1.2,0.5
			c0.2,0.3,0.2,0.6,0.2,1.3v2.3H64.6z M64,111c-1.2,0.1-1.7,0.5-1.7,1.1c0,0.4,0.3,0.7,0.8,0.7c0.3,0,0.6-0.1,0.9-0.4V111z"/>
		<path fill="#FFFFFF" d="M66.3,107.4v5.8h-0.6v-5.8H66.3z"/>
		<path fill="#FFFFFF" d="M68,107.4v5.8h-0.6v-5.8H68z"/>
		<path fill="#FFFFFF" d="M69.6,111.3L69.6,111.3c0,1,0.4,1.5,1,1.5c0.4,0,0.8-0.2,0.9-0.5H72v0.5c-0.4,0.4-0.8,0.5-1.4,0.5
			c-1.1,0-1.6-0.7-1.6-2.2c0-1.4,0.6-2.2,1.5-2.2c1,0,1.5,0.8,1.5,2.2v0.2H69.6z M71.4,110.8c0-0.9-0.4-1.4-0.9-1.4
			c-0.6,0-0.9,0.5-0.9,1.4H71.4z"/>
		<path fill="#FFFFFF" d="M73.5,109.1v0.3c0,0.1,0,0.3-0.1,0.4l0.1,0.1c0.2-0.5,0.8-0.8,1.3-0.8l0,0v0.7c-0.6,0-1,0.2-1.4,0.6v2.9
			H73v-4.1L73.5,109.1L73.5,109.1z"/>
		<path fill="#FFFFFF" d="M78.5,113c0,1.1-0.5,1.5-1.4,1.5c-0.5,0-0.9-0.1-1.3-0.4v-0.7h0.4c0.2,0.4,0.4,0.5,0.9,0.5
			c0.7,0,0.8-0.4,0.8-1.3v-0.3h-0.1c-0.2,0.3-0.5,0.5-0.9,0.5c-0.8,0-1.3-0.7-1.3-1.9c0-1.3,0.5-2,1.3-2c0.4,0,0.7,0.2,0.9,0.5h0.1
			V109h0.6V113z M77.9,109.9c-0.3-0.3-0.5-0.4-0.8-0.4c-0.6,0-0.9,0.5-0.9,1.4c0,1,0.3,1.5,0.9,1.5c0.3,0,0.6-0.1,0.8-0.4V109.9z"/>
		<path fill="#FFFFFF" d="M79.8,109.1l0.8,3.4h0.1l0.7-3.4h0.7l-1.2,4c-0.3,1-0.7,1.5-1.6,1.5c-0.1,0-0.1,0-0.2,0v-0.5
			c0.1,0,0.1,0,0.2,0c0.6,0,0.8-0.3,1-1l-1.2-3.9L79.8,109.1L79.8,109.1z"/>
		<path fill="#FFFFFF" d="M85.3,107.4v5.8h-0.6v-5.8H85.3z"/>
		<path fill="#FFFFFF" d="M89.3,111.1c0,1.4-0.6,2.2-1.5,2.2s-1.5-0.8-1.5-2.2c0-1.3,0.6-2.2,1.5-2.2
			C88.7,108.9,89.3,109.7,89.3,111.1z M86.9,111c0,1.2,0.3,1.8,0.9,1.8s0.9-0.6,0.9-1.7s-0.4-1.7-0.9-1.7S86.9,110,86.9,111z"/>
		<path fill="#FFFFFF" d="M90.5,109.1l0.6,2.3c0.1,0.3,0.1,0.6,0.2,1.1h0.1c0.1-0.6,0.2-1,0.2-1.1l0.5-2.3h0.7l-1.2,4.1H91l-1.2-4.1
			H90.5z"/>
		<path fill="#FFFFFF" d="M93.9,111.3L93.9,111.3c0,1,0.4,1.5,1,1.5c0.4,0,0.8-0.2,0.9-0.5h0.4v0.5c-0.4,0.4-0.8,0.5-1.4,0.5
			c-1.1,0-1.6-0.7-1.6-2.2c0-1.4,0.6-2.2,1.5-2.2c1,0,1.5,0.8,1.5,2.2v0.2H93.9z M95.7,110.8c0-0.9-0.4-1.4-0.9-1.4
			c-0.6,0-0.9,0.5-0.9,1.4H95.7z"/>
		<path fill="#FFFFFF" d="M97.4,112.2c0.2,0.4,0.5,0.6,1,0.6s0.8-0.3,0.8-0.7c0-0.6-0.5-0.6-1.3-0.9c-0.5-0.2-0.8-0.6-0.8-1.1
			c0-0.7,0.5-1.2,1.3-1.2c0.4,0,0.8,0.1,1.2,0.5v0.6h-0.4c-0.2-0.4-0.5-0.6-0.8-0.6c-0.4,0-0.8,0.3-0.8,0.7c0,0.4,0.3,0.6,0.9,0.8
			c0.8,0.2,1.2,0.6,1.2,1.2c0,0.7-0.5,1.3-1.4,1.3c-0.5,0-1-0.2-1.4-0.5v-0.6h0.5L97.4,112.2L97.4,112.2z"/>
		<path fill="#FFFFFF" d="M103.9,107.6c1,0,1.9,0.4,1.9,1.5c0,0.7-0.4,1.2-1.2,1.5l1.6,2.5h-0.8l-1.4-2.3h-0.8v2.3h-0.6v-5.5H103.9z
			 M103.2,110.4c0.1,0,0.2,0,0.3,0c1,0,1.5-0.4,1.5-1.2c0-0.8-0.5-1.1-1.5-1.1c-0.1,0-0.3,0-0.4,0L103.2,110.4L103.2,110.4z"/>
		<path fill="#FFFFFF" d="M107.2,111.3L107.2,111.3c0,1,0.4,1.5,1,1.5c0.4,0,0.8-0.2,0.9-0.5h0.4v0.5c-0.4,0.4-0.8,0.5-1.4,0.5
			c-1.1,0-1.6-0.7-1.6-2.2c0-1.4,0.6-2.2,1.5-2.2c1,0,1.5,0.8,1.5,2.2v0.2H107.2z M109,110.8c0-0.9-0.4-1.4-0.9-1.4
			c-0.6,0-0.9,0.5-0.9,1.4H109z"/>
		<path fill="#FFFFFF" d="M111,111.3L111,111.3c0,1,0.4,1.5,1,1.5c0.4,0,0.8-0.2,0.9-0.5h0.4v0.5c-0.4,0.4-0.8,0.5-1.4,0.5
			c-1.1,0-1.6-0.7-1.6-2.2c0-1.4,0.6-2.2,1.5-2.2c1,0,1.5,0.8,1.5,2.2v0.2H111z M112.8,110.8c0-0.9-0.4-1.4-0.9-1.4
			c-0.6,0-0.9,0.5-0.9,1.4H112.8z"/>
		<path fill="#FFFFFF" d="M114.5,112.2c0.2,0.4,0.5,0.6,1,0.6s0.8-0.3,0.8-0.7c0-0.6-0.5-0.6-1.3-0.9c-0.5-0.2-0.8-0.6-0.8-1.1
			c0-0.7,0.5-1.2,1.3-1.2c0.4,0,0.8,0.1,1.2,0.5v0.6h-0.4c-0.2-0.4-0.5-0.6-0.8-0.6c-0.4,0-0.8,0.3-0.8,0.7c0,0.4,0.3,0.6,0.9,0.8
			c0.8,0.2,1.2,0.6,1.2,1.2c0,0.7-0.5,1.3-1.4,1.3c-0.5,0-1-0.2-1.4-0.5v-0.6h0.5L114.5,112.2L114.5,112.2z"/>
		<path fill="#FFFFFF" d="M118.2,111.3L118.2,111.3c0,1,0.4,1.5,1,1.5c0.4,0,0.8-0.2,0.9-0.5h0.4v0.5c-0.4,0.4-0.8,0.5-1.4,0.5
			c-1.1,0-1.6-0.7-1.6-2.2c0-1.4,0.6-2.2,1.5-2.2c1,0,1.5,0.8,1.5,2.2v0.2H118.2z M120,110.8c0-0.9-0.4-1.4-0.9-1.4
			c-0.6,0-0.9,0.5-0.9,1.4H120z"/>
		<path fill="#FFFFFF" d="M121.3,109.4c0.4,0,0.5-0.2,0.5-0.6v-0.4h-0.4v-0.7h0.9v0.9c0,0.9-0.2,1.2-1,1.2V109.4z"/>
		<path fill="#FFFFFF" d="M123.4,112.2c0.2,0.4,0.5,0.6,1,0.6s0.8-0.3,0.8-0.7c0-0.6-0.5-0.6-1.3-0.9c-0.5-0.2-0.8-0.6-0.8-1.1
			c0-0.7,0.6-1.2,1.3-1.2c0.4,0,0.8,0.1,1.2,0.5v0.6h-0.4c-0.2-0.4-0.5-0.6-0.8-0.6c-0.4,0-0.8,0.3-0.8,0.7c0,0.4,0.3,0.6,0.9,0.8
			c0.8,0.2,1.2,0.6,1.2,1.2c0,0.7-0.5,1.3-1.4,1.3c-0.5,0-1-0.2-1.4-0.5v-0.6h0.5L123.4,112.2L123.4,112.2z"/>
	</g>
</g>
<g>
	<g>
		<path fill="#FFFFFF" d="M60.4,148.3h0.7l0.8,2c0.1,0.3,0.3,0.6,0.4,1.1h0.1c0.1-0.5,0.2-0.9,0.3-1.1l0.8-2h0.7l-1.5,3.6v2H62v-2
			L60.4,148.3z"/>
		<path fill="#FFFFFF" d="M67.2,151.8c0,1.4-0.6,2.2-1.5,2.2s-1.5-0.8-1.5-2.2c0-1.3,0.6-2.2,1.5-2.2S67.2,150.4,67.2,151.8z
			 M64.8,151.7c0,1.2,0.3,1.8,0.9,1.8s0.9-0.6,0.9-1.7c0-1.1-0.4-1.7-0.9-1.7S64.8,150.6,64.8,151.7z"/>
		<path fill="#FFFFFF" d="M70.2,153.8v-0.3h-0.1c-0.2,0.3-0.5,0.5-0.9,0.5c-0.5,0-0.9-0.2-1-0.7c-0.1-0.2-0.1-0.6-0.1-1.1v-2.4h0.6
			v2.6c0,0.8,0.1,1.2,0.7,1.2c0.3,0,0.6-0.1,0.8-0.4v-3.3h0.6v4.1h-0.6V153.8z"/>
		<path fill="#FFFFFF" d="M76.5,153.6c0,1-0.5,1.5-1.4,1.5c-0.5,0-0.9-0.1-1.3-0.4V154h0.4c0.2,0.4,0.4,0.5,0.9,0.5
			c0.7,0,0.8-0.4,0.8-1.3V153h-0.1c-0.2,0.3-0.5,0.5-0.9,0.5c-0.8,0-1.3-0.7-1.3-1.9c0-1.3,0.5-2,1.3-2c0.4,0,0.7,0.2,0.9,0.5h0.1
			v-0.4h0.6V153.6z M75.9,150.5c-0.3-0.3-0.5-0.4-0.8-0.4c-0.6,0-0.9,0.5-0.9,1.4c0,1,0.3,1.5,0.9,1.5c0.3,0,0.6-0.1,0.8-0.4V150.5z
			"/>
		<path fill="#FFFFFF" d="M80.4,151.8c0,1.4-0.6,2.2-1.5,2.2s-1.5-0.8-1.5-2.2c0-1.3,0.6-2.2,1.5-2.2S80.4,150.4,80.4,151.8z
			 M77.9,151.7c0,1.2,0.3,1.8,0.9,1.8s0.9-0.6,0.9-1.7c0-1.1-0.4-1.7-0.9-1.7S77.9,150.6,77.9,151.7z"/>
		<path fill="#FFFFFF" d="M82.9,149.7v0.5H82v2.6c0,0.6,0,0.6,0.5,0.6h0.4v0.5h-0.6c-0.8,0-0.9-0.3-0.9-1.3v-2.4h-0.5v-0.5h0.5v-1.3
			H82v1.3L82.9,149.7L82.9,149.7z"/>
		<path fill="#FFFFFF" d="M85.3,149.7v0.5h-0.9v2.6c0,0.6,0,0.6,0.5,0.6h0.4v0.5h-0.6c-0.8,0-0.9-0.3-0.9-1.3v-2.4h-0.5v-0.5h0.5
			v-1.3h0.6v1.3L85.3,149.7L85.3,149.7z"/>
		<path fill="#FFFFFF" d="M88.7,153.8h-0.6v-0.3H88c-0.3,0.3-0.6,0.5-1,0.5c-0.7,0-1.3-0.5-1.3-1.2c0-0.9,0.8-1.4,2.3-1.5
			c0-0.1,0-0.2,0-0.3c0-0.7-0.2-0.9-0.8-0.9c-0.4,0-0.7,0.2-0.9,0.6H86V150c0.4-0.2,0.8-0.4,1.3-0.4s0.9,0.2,1.2,0.5
			c0.2,0.3,0.2,0.6,0.2,1.3V153.8z M88.1,151.6c-1.2,0.1-1.7,0.5-1.7,1.1c0,0.4,0.3,0.7,0.8,0.7c0.3,0,0.6-0.1,0.9-0.4
			C88.1,153,88.1,151.6,88.1,151.6z"/>
		<path fill="#FFFFFF" d="M92.2,148v5.8h-0.6V148H92.2z"/>
		<path fill="#FFFFFF" d="M96.2,151.8c0,1.4-0.6,2.2-1.5,2.2s-1.5-0.8-1.5-2.2c0-1.3,0.6-2.2,1.5-2.2
			C95.7,149.6,96.2,150.4,96.2,151.8z M93.8,151.7c0,1.2,0.3,1.8,0.9,1.8s0.9-0.6,0.9-1.7c0-1.1-0.4-1.7-0.9-1.7
			C94.2,150,93.8,150.6,93.8,151.7z"/>
		<path fill="#FFFFFF" d="M97.4,149.7L98,152c0.1,0.3,0.1,0.6,0.2,1.1h0.1c0.1-0.6,0.2-1,0.2-1.1l0.5-2.3h0.7l-1.2,4.1H98l-1.2-4.1
			H97.4z"/>
		<path fill="#FFFFFF" d="M100.9,152v0.1c0,0.9,0.4,1.4,1,1.4c0.4,0,0.8-0.2,0.9-0.5h0.4v0.5c-0.4,0.4-0.8,0.5-1.4,0.5
			c-1.1,0-1.6-0.7-1.6-2.2c0-1.4,0.6-2.2,1.5-2.2c1,0,1.5,0.8,1.5,2.2v0.2H100.9z M102.7,151.5c0-0.9-0.4-1.4-0.9-1.4
			c-0.6,0-0.9,0.5-0.9,1.4H102.7z"/>
		<path fill="#FFFFFF" d="M106.7,148v0.7h-0.6V148H106.7z M106.7,149.7v4.1h-0.6v-4.1H106.7z"/>
		<path fill="#FFFFFF" d="M109.5,149.7v0.5h-0.9v2.6c0,0.6,0,0.6,0.5,0.6h0.4v0.5h-0.6c-0.8,0-0.9-0.3-0.9-1.3v-2.4h-0.5v-0.5h0.5
			v-1.3h0.6v1.3L109.5,149.7L109.5,149.7z"/>
		<path fill="#FFFFFF" d="M112.3,149.7l0.7,3.5h0.1l0.7-3.5h0.6l0.7,3.5h0.1l0.7-3.5h0.7l-1.2,4.1h-0.6l-0.7-3.2H114l-0.7,3.2h-0.6
			l-1.1-4.1H112.3z"/>
		<path fill="#FFFFFF" d="M118,148v2h0.1c0.2-0.3,0.5-0.5,0.9-0.5c0.7,0,1.1,0.5,1.1,1.4v2.8h-0.6v-2.6c0-0.8-0.1-1.2-0.7-1.2
			c-0.3,0-0.6,0.1-0.8,0.4v3.3h-0.6V148H118z"/>
		<path fill="#FFFFFF" d="M121.6,152v0.1c0,0.9,0.4,1.4,1,1.4c0.4,0,0.8-0.2,0.9-0.5h0.4v0.5c-0.4,0.4-0.8,0.5-1.4,0.5
			c-1.1,0-1.6-0.7-1.6-2.2c0-1.4,0.6-2.2,1.5-2.2c1,0,1.5,0.8,1.5,2.2v0.2H121.6z M123.4,151.5c0-0.9-0.4-1.4-0.9-1.4
			c-0.6,0-0.9,0.5-0.9,1.4H123.4z"/>
		<path fill="#FFFFFF" d="M125.5,149.7v0.3h0.1c0.2-0.3,0.5-0.5,0.9-0.5c0.8,0,1.1,0.5,1.1,1.4v2.8H127v-2.6c0-0.8-0.1-1.2-0.7-1.2
			c-0.3,0-0.6,0.1-0.8,0.4v3.3h-0.6v-4.1h0.6V149.7z"/>
		<path fill="#FFFFFF" d="M130.8,149.7l0.8,3.4h0.1l0.7-3.4h0.7l-1.2,4c-0.3,1-0.7,1.5-1.6,1.5c-0.1,0-0.1,0-0.2,0v-0.5
			c0.1,0,0.1,0,0.2,0c0.6,0,0.8-0.3,1-1l-1.2-3.9h0.7V149.7z"/>
		<path fill="#FFFFFF" d="M136.6,151.8c0,1.4-0.6,2.2-1.5,2.2s-1.5-0.8-1.5-2.2c0-1.3,0.6-2.2,1.5-2.2S136.6,150.4,136.6,151.8z
			 M134.2,151.7c0,1.2,0.3,1.8,0.9,1.8c0.6,0,0.9-0.6,0.9-1.7c0-1.1-0.4-1.7-0.9-1.7C134.5,150,134.2,150.6,134.2,151.7z"/>
		<path fill="#FFFFFF" d="M139.6,153.8v-0.3h-0.1c-0.2,0.3-0.5,0.5-0.9,0.5c-0.5,0-0.9-0.2-1-0.7c-0.1-0.2-0.1-0.6-0.1-1.1v-2.4h0.6
			v2.6c0,0.8,0.1,1.2,0.7,1.2c0.3,0,0.6-0.1,0.8-0.4v-3.3h0.6v4.1h-0.6V153.8z"/>
		<path fill="#FFFFFF" d="M143.6,152v0.1c0,0.9,0.4,1.4,1,1.4c0.4,0,0.8-0.2,0.9-0.5h0.4v0.5c-0.4,0.4-0.8,0.5-1.4,0.5
			c-1.1,0-1.6-0.7-1.6-2.2c0-1.4,0.6-2.2,1.5-2.2c1,0,1.5,0.8,1.5,2.2v0.2H143.6z M145.4,151.5c0-0.9-0.4-1.4-0.9-1.4
			c-0.6,0-0.9,0.5-0.9,1.4H145.4z"/>
		<path fill="#FFFFFF" d="M149.6,153.8H149v-0.3h-0.1c-0.3,0.3-0.6,0.5-1,0.5c-0.7,0-1.3-0.5-1.3-1.2c0-0.9,0.8-1.4,2.3-1.5
			c0-0.1,0-0.2,0-0.3c0-0.7-0.2-0.9-0.8-0.9c-0.4,0-0.7,0.2-0.9,0.6h-0.4V150c0.4-0.2,0.8-0.4,1.3-0.4s0.9,0.2,1.2,0.5
			c0.2,0.3,0.2,0.6,0.2,1.3v2.4H149.6z M149,151.6c-1.2,0.1-1.7,0.5-1.7,1.1c0,0.4,0.3,0.7,0.8,0.7c0.3,0,0.6-0.1,0.9-0.4V151.6z"/>
		<path fill="#FFFFFF" d="M152.3,149.7v0.5h-0.9v2.6c0,0.6,0,0.6,0.5,0.6h0.4v0.5h-0.6c-0.8,0-0.9-0.3-0.9-1.3v-2.4h-0.5v-0.5h0.5
			v-1.3h0.6v1.3L152.3,149.7L152.3,149.7z"/>
		<path fill="#FFFFFF" d="M63.6,164H63v-0.3h-0.1c-0.3,0.3-0.6,0.5-1,0.5c-0.7,0-1.3-0.5-1.3-1.2c0-0.9,0.8-1.4,2.3-1.5
			c0-0.1,0-0.2,0-0.3c0-0.7-0.2-0.9-0.8-0.9c-0.4,0-0.7,0.2-0.9,0.6h-0.4v-0.6c0.4-0.2,0.8-0.4,1.3-0.4s0.9,0.2,1.2,0.5
			c0.2,0.3,0.2,0.6,0.2,1.3L63.6,164L63.6,164z M63,161.8c-1.2,0.1-1.7,0.5-1.7,1.1c0,0.4,0.3,0.7,0.8,0.7c0.3,0,0.6-0.1,0.9-0.4
			V161.8z"/>
		<path fill="#FFFFFF" d="M65.3,159.9v0.3h0.1c0.2-0.3,0.5-0.5,0.9-0.5c0.8,0,1.1,0.5,1.1,1.4v2.8h-0.6v-2.6c0-0.8-0.1-1.2-0.7-1.2
			c-0.3,0-0.6,0.1-0.8,0.4v3.3h-0.6v-4.1h0.6V159.9z"/>
		<path fill="#FFFFFF" d="M68.6,159.9l0.8,3.4h0.1l0.7-3.4h0.7l-1.2,4c-0.3,1-0.7,1.5-1.6,1.5c-0.1,0-0.1,0-0.2,0v-0.5
			c0.1,0,0.1,0,0.2,0c0.6,0,0.8-0.3,1-1l-1.2-3.9h0.7V159.9z"/>
		<path fill="#FFFFFF" d="M73.2,159.9v0.5h-0.9v2.6c0,0.6,0,0.6,0.5,0.6h0.4v0.5h-0.6c-0.8,0-0.9-0.3-0.9-1.3v-2.4h-0.5v-0.5h0.5
			v-1.3h0.6v1.3L73.2,159.9L73.2,159.9z"/>
		<path fill="#FFFFFF" d="M74.5,158.2v2h0.1c0.2-0.3,0.5-0.5,0.9-0.5c0.7,0,1.1,0.5,1.1,1.4v2.8H76v-2.6c0-0.8-0.1-1.2-0.7-1.2
			c-0.3,0-0.6,0.1-0.8,0.4v3.3H74V158h0.5V158.2z"/>
		<path fill="#FFFFFF" d="M78.3,158.2v0.7h-0.6v-0.7H78.3z M78.3,159.9v4.1h-0.6v-4.1H78.3z"/>
		<path fill="#FFFFFF" d="M80.1,159.9v0.3h0.1c0.2-0.3,0.5-0.5,0.9-0.5c0.8,0,1.1,0.5,1.1,1.4v2.8h-0.6v-2.6c0-0.8-0.1-1.2-0.7-1.2
			c-0.3,0-0.6,0.1-0.8,0.4v3.3h-0.6v-4.1h0.6V159.9z"/>
		<path fill="#FFFFFF" d="M85.9,163.8c0,1.1-0.5,1.5-1.4,1.5c-0.5,0-0.9-0.1-1.3-0.4v-0.7h0.4c0.2,0.4,0.4,0.5,0.9,0.5
			c0.7,0,0.8-0.4,0.8-1.3v-0.3h-0.1c-0.2,0.3-0.5,0.5-0.9,0.5c-0.8,0-1.3-0.7-1.3-1.9c0-1.3,0.5-2,1.3-2c0.4,0,0.7,0.2,0.9,0.5h0.1
			v-0.4h0.6V163.8z M85.4,160.7c-0.3-0.3-0.5-0.4-0.8-0.4c-0.6,0-0.9,0.5-0.9,1.4c0,1,0.3,1.5,0.9,1.5c0.3,0,0.6-0.1,0.8-0.4V160.7z
			"/>
		<path fill="#FFFFFF" d="M89,163c0.2,0.4,0.5,0.6,1,0.6s0.8-0.3,0.8-0.7c0-0.6-0.5-0.6-1.3-0.9c-0.5-0.2-0.8-0.6-0.8-1.1
			c0-0.7,0.5-1.2,1.3-1.2c0.4,0,0.8,0.1,1.2,0.5v0.6h-0.4c-0.2-0.4-0.5-0.6-0.8-0.6c-0.4,0-0.8,0.3-0.8,0.7s0.3,0.6,0.9,0.8
			c0.8,0.2,1.2,0.6,1.2,1.2c0,0.7-0.5,1.3-1.4,1.3c-0.5,0-1-0.2-1.4-0.5V163H89z"/>
		<path fill="#FFFFFF" d="M95.1,161.9c0,1.4-0.6,2.2-1.5,2.2s-1.5-0.8-1.5-2.2c0-1.3,0.6-2.2,1.5-2.2S95.1,160.5,95.1,161.9z
			 M92.7,161.8c0,1.2,0.3,1.8,0.9,1.8s0.9-0.6,0.9-1.7c0-1.1-0.4-1.7-0.9-1.7S92.7,160.8,92.7,161.8z"/>
		<path fill="#FFFFFF" d="M98.1,164v-0.3H98c-0.2,0.3-0.5,0.5-0.9,0.5c-0.5,0-0.9-0.2-1-0.7c-0.1-0.2-0.1-0.6-0.1-1.1V160h0.6v2.6
			c0,0.8,0.1,1.2,0.7,1.2c0.3,0,0.6-0.1,0.8-0.4v-3.3h0.6v4.1h-0.6V164z"/>
		<path fill="#FFFFFF" d="M100.4,159.9v0.3c0,0.1,0,0.3-0.1,0.4l0.1,0.1c0.2-0.5,0.8-0.8,1.3-0.8l0,0v0.7c-0.6,0-1,0.2-1.4,0.6v2.9
			h-0.6V160L100.4,159.9L100.4,159.9z"/>
		<path fill="#FFFFFF" d="M107.3,161.9c0,1.4-0.6,2.2-1.5,2.2s-1.5-0.8-1.5-2.2c0-1.3,0.6-2.2,1.5-2.2
			C106.8,159.7,107.3,160.5,107.3,161.9z M104.9,161.8c0,1.2,0.3,1.8,0.9,1.8s0.9-0.6,0.9-1.7c0-1.1-0.4-1.7-0.9-1.7
			S104.9,160.8,104.9,161.8z"/>
		<path fill="#FFFFFF" d="M108.9,159.9v0.3c0,0.1,0,0.3-0.1,0.4l0.1,0.1c0.2-0.5,0.8-0.8,1.3-0.8l0,0v0.7c-0.6,0-1,0.2-1.4,0.6v2.9
			h-0.6V160L108.9,159.9L108.9,159.9z"/>
		<path fill="#FFFFFF" d="M113.6,158.2v2h0.1c0.2-0.3,0.5-0.5,0.9-0.5c0.7,0,1.1,0.5,1.1,1.4v2.8h-0.6v-2.6c0-0.8-0.1-1.2-0.7-1.2
			c-0.3,0-0.6,0.1-0.8,0.4v3.3H113V158h0.6V158.2z"/>
		<path fill="#FFFFFF" d="M119.6,161.9c0,1.4-0.6,2.2-1.5,2.2s-1.5-0.8-1.5-2.2c0-1.3,0.6-2.2,1.5-2.2S119.6,160.5,119.6,161.9z
			 M117.1,161.8c0,1.2,0.3,1.8,0.9,1.8s0.9-0.6,0.9-1.7c0-1.1-0.4-1.7-0.9-1.7S117.1,160.8,117.1,161.8z"/>
		<path fill="#FFFFFF" d="M122.1,159.9v0.5h-0.9v2.6c0,0.6,0,0.6,0.5,0.6h0.4v0.5h-0.6c-0.8,0-0.9-0.3-0.9-1.3v-2.4h-0.5v-0.5h0.5
			v-1.3h0.6v1.3L122.1,159.9L122.1,159.9z"/>
		<path fill="#FFFFFF" d="M124.9,163c0.2,0.4,0.5,0.6,1,0.6s0.8-0.3,0.8-0.7c0-0.6-0.5-0.6-1.3-0.9c-0.5-0.2-0.8-0.6-0.8-1.1
			c0-0.7,0.6-1.2,1.3-1.2c0.4,0,0.8,0.1,1.2,0.5v0.6h-0.4c-0.2-0.4-0.5-0.6-0.8-0.6c-0.4,0-0.8,0.3-0.8,0.7s0.3,0.6,0.9,0.8
			c0.8,0.2,1.2,0.6,1.2,1.2c0,0.7-0.5,1.3-1.4,1.3c-0.5,0-1-0.2-1.4-0.5V163H124.9z"/>
		<path fill="#FFFFFF" d="M130.2,164v-0.3h-0.1c-0.2,0.3-0.5,0.5-0.9,0.5c-0.5,0-0.9-0.2-1-0.7c-0.1-0.2-0.1-0.6-0.1-1.1V160h0.6
			v2.6c0,0.8,0.1,1.2,0.7,1.2c0.3,0,0.6-0.1,0.8-0.4v-3.3h0.6v4.1h-0.6V164z"/>
		<path fill="#FFFFFF" d="M133.9,160.8c-0.1-0.4-0.4-0.6-0.7-0.6c-0.5,0-0.9,0.6-0.9,1.7c0,1.1,0.3,1.7,0.9,1.7
			c0.3,0,0.6-0.2,0.7-0.6h0.4v0.6c-0.3,0.4-0.7,0.5-1.1,0.5c-0.9,0-1.5-0.8-1.5-2.2s0.6-2.2,1.5-2.2c0.4,0,0.8,0.2,1.1,0.5v0.6
			H133.9z"/>
		<path fill="#FFFFFF" d="M135.8,158.2v2h0.1c0.2-0.3,0.5-0.5,0.9-0.5c0.7,0,1.1,0.5,1.1,1.4v2.8h-0.6v-2.6c0-0.8-0.1-1.2-0.7-1.2
			c-0.3,0-0.6,0.1-0.8,0.4v3.3h-0.6V158h0.6V158.2z"/>
		<path fill="#FFFFFF" d="M143.5,164h-0.6v-0.3h-0.1c-0.3,0.3-0.6,0.5-1,0.5c-0.7,0-1.3-0.5-1.3-1.2c0-0.9,0.8-1.4,2.3-1.5
			c0-0.1,0-0.2,0-0.3c0-0.7-0.2-0.9-0.8-0.9c-0.4,0-0.7,0.2-0.9,0.6h-0.4v-0.6c0.4-0.2,0.8-0.4,1.3-0.4s0.9,0.2,1.2,0.5
			c0.2,0.3,0.2,0.6,0.2,1.3v2.3L143.5,164L143.5,164z M142.9,161.8c-1.2,0.1-1.7,0.5-1.7,1.1c0,0.4,0.3,0.7,0.8,0.7
			c0.3,0,0.6-0.1,0.9-0.4V161.8z"/>
		<path fill="#FFFFFF" d="M144.7,163c0.2,0.4,0.5,0.6,1,0.6s0.8-0.3,0.8-0.7c0-0.6-0.5-0.6-1.3-0.9c-0.5-0.2-0.8-0.6-0.8-1.1
			c0-0.7,0.6-1.2,1.3-1.2c0.4,0,0.8,0.1,1.2,0.5v0.6h-0.4c-0.2-0.4-0.5-0.6-0.8-0.6c-0.4,0-0.8,0.3-0.8,0.7s0.3,0.6,0.9,0.8
			c0.8,0.2,1.2,0.6,1.2,1.2c0,0.7-0.5,1.3-1.4,1.3c-0.5,0-1-0.2-1.4-0.5V163H144.7z"/>
		<path fill="#FFFFFF" d="M150.5,158.2v2h0.1c0.2-0.3,0.5-0.5,0.9-0.5c0.7,0,1.1,0.5,1.1,1.4v2.8H152v-2.6c0-0.8-0.1-1.2-0.7-1.2
			c-0.3,0-0.6,0.1-0.8,0.4v3.3h-0.6V158h0.6V158.2z"/>
		<path fill="#FFFFFF" d="M156.5,161.9c0,1.4-0.6,2.2-1.5,2.2s-1.5-0.8-1.5-2.2c0-1.3,0.6-2.2,1.5-2.2S156.5,160.5,156.5,161.9z
			 M154.1,161.8c0,1.2,0.3,1.8,0.9,1.8c0.6,0,0.9-0.6,0.9-1.7c0-1.1-0.4-1.7-0.9-1.7S154.1,160.8,154.1,161.8z"/>
		<path fill="#FFFFFF" d="M159,159.9v0.5h-0.9v2.6c0,0.6,0,0.6,0.5,0.6h0.4v0.5h-0.6c-0.8,0-0.9-0.3-0.9-1.3v-2.4H157v-0.5h0.5v-1.3
			h0.6v1.3L159,159.9L159,159.9z"/>
		<path fill="#FFFFFF" d="M62.5,170v0.5h-0.9v2.6c0,0.6,0,0.6,0.5,0.6h0.4v0.5h-0.6c-0.8,0-0.9-0.3-0.9-1.3v-2.4h-0.5V170H61v-1.3
			h0.6v1.3H62.5z"/>
		<path fill="#FFFFFF" d="M66,174.1h-0.6v-0.3h-0.1c-0.3,0.3-0.6,0.5-1,0.5c-0.7,0-1.3-0.5-1.3-1.2c0-0.9,0.8-1.4,2.3-1.5
			c0-0.1,0-0.2,0-0.3c0-0.7-0.2-0.9-0.8-0.9c-0.4,0-0.7,0.2-0.9,0.6h-0.4v-0.6c0.4-0.2,0.8-0.4,1.3-0.4c0.5,0,0.9,0.2,1.2,0.5
			c0.2,0.3,0.2,0.6,0.2,1.3v2.3L66,174.1L66,174.1z M65.4,171.9c-1.2,0.1-1.7,0.5-1.7,1.1c0,0.4,0.3,0.7,0.8,0.7
			c0.3,0,0.6-0.1,0.9-0.4V171.9z"/>
		<path fill="#FFFFFF" d="M67.6,170v0.3h0.1c0.2-0.3,0.5-0.5,0.9-0.5s0.7,0.2,1,0.6c0.4-0.4,0.7-0.6,1.1-0.6c0.7,0,1.1,0.5,1.1,1.4
			v2.8H71v-2.6c0-0.8-0.1-1.2-0.7-1.2c-0.3,0-0.6,0.1-0.7,0.4v3.3H69v-2.4c0-0.9-0.1-1.3-0.6-1.3c-0.3,0-0.6,0.1-0.8,0.4v3.3H67V170
			H67.6z"/>
		<path fill="#FFFFFF" d="M75.4,174.1h-0.6v-0.3h-0.1c-0.3,0.3-0.6,0.5-1,0.5c-0.7,0-1.3-0.5-1.3-1.2c0-0.9,0.8-1.4,2.3-1.5
			c0-0.1,0-0.2,0-0.3c0-0.7-0.2-0.9-0.8-0.9c-0.4,0-0.7,0.2-0.9,0.6h-0.4v-0.6c0.4-0.2,0.8-0.4,1.3-0.4s0.9,0.2,1.2,0.5
			c0.2,0.3,0.2,0.6,0.2,1.3v2.3L75.4,174.1L75.4,174.1z M74.8,171.9c-1.2,0.1-1.7,0.5-1.7,1.1c0,0.4,0.3,0.7,0.8,0.7
			c0.3,0,0.6-0.1,0.9-0.4C74.8,173.3,74.8,171.9,74.8,171.9z"/>
		<path fill="#FFFFFF" d="M77,168.4v5.8h-0.6v-5.8H77z"/>
		<path fill="#FFFFFF" d="M78.6,172.3v0.1c0,0.9,0.4,1.4,1,1.4c0.4,0,0.8-0.2,0.9-0.5H81v0.5c-0.4,0.4-0.8,0.5-1.4,0.5
			c-1.1,0-1.6-0.7-1.6-2.2c0-1.4,0.6-2.2,1.5-2.2c1,0,1.5,0.8,1.5,2.2v0.2H78.6z M80.4,171.8c0-0.9-0.4-1.4-0.9-1.4
			c-0.6,0-0.9,0.5-0.9,1.4H80.4z"/>
		<path fill="#FFFFFF" d="M82.1,173.2c0.2,0.4,0.5,0.6,1,0.6s0.8-0.3,0.8-0.7c0-0.6-0.5-0.6-1.3-0.9c-0.5-0.2-0.8-0.6-0.8-1.1
			c0-0.7,0.6-1.2,1.3-1.2c0.4,0,0.8,0.1,1.2,0.5v0.6H84c-0.2-0.4-0.5-0.6-0.8-0.6c-0.4,0-0.8,0.3-0.8,0.7s0.3,0.6,0.9,0.8
			c0.8,0.2,1.2,0.6,1.2,1.2c0,0.7-0.5,1.3-1.4,1.3c-0.5,0-1-0.2-1.4-0.5v-0.6h0.4C82.1,173.3,82.1,173.2,82.1,173.2z"/>
		<path fill="#FFFFFF" d="M85.2,175.1c0.4,0,0.5-0.2,0.5-0.6V174h-0.4v-0.7h0.9v0.9c0,0.9-0.2,1.2-1,1.2V175.1z"/>
		<path fill="#FFFFFF" d="M91.8,174.1h-0.6v-0.3h-0.1c-0.3,0.3-0.6,0.5-1,0.5c-0.7,0-1.3-0.5-1.3-1.2c0-0.9,0.8-1.4,2.3-1.5
			c0-0.1,0-0.2,0-0.3c0-0.7-0.2-0.9-0.8-0.9c-0.4,0-0.7,0.2-0.9,0.6H89v-0.6c0.4-0.2,0.8-0.4,1.3-0.4s0.9,0.2,1.2,0.5
			c0.2,0.3,0.2,0.6,0.2,1.3v2.3L91.8,174.1L91.8,174.1z M91.2,171.9c-1.2,0.1-1.7,0.5-1.7,1.1c0,0.4,0.3,0.7,0.8,0.7
			c0.3,0,0.6-0.1,0.9-0.4C91.2,173.3,91.2,171.9,91.2,171.9z"/>
		<path fill="#FFFFFF" d="M94.5,170v0.5h-0.9v2.6c0,0.6,0,0.6,0.5,0.6h0.4v0.5h-0.6c-0.8,0-0.9-0.3-0.9-1.3v-2.4h-0.5V170H93v-1.3
			h0.6v1.3H94.5z"/>
		<path fill="#FFFFFF" d="M98.1,172.1c0,1.4-0.6,2.2-1.5,2.2s-1.5-0.8-1.5-2.2c0-1.3,0.6-2.2,1.5-2.2
			C97.5,169.9,98.1,170.7,98.1,172.1z M95.6,172c0,1.2,0.3,1.8,0.9,1.8s0.9-0.6,0.9-1.7c0-1.1-0.4-1.7-0.9-1.7
			C96,170.4,95.6,171,95.6,172z"/>
		<path fill="#FFFFFF" d="M99.6,170v0.3h0.1c0.2-0.3,0.5-0.5,0.9-0.5s0.7,0.2,1,0.6c0.4-0.4,0.7-0.6,1-0.6c0.7,0,1.1,0.5,1.1,1.4
			v2.8H103v-2.6c0-0.8-0.1-1.2-0.7-1.2c-0.3,0-0.6,0.1-0.7,0.4v3.3H101v-2.4c0-0.9-0.1-1.3-0.6-1.3c-0.3,0-0.5,0.1-0.8,0.4v3.3H99
			V170H99.6z"/>
		<path fill="#FFFFFF" d="M105.3,168.4v0.7h-0.6v-0.7H105.3z M105.3,170v4.1h-0.6V170H105.3z"/>
		<path fill="#FFFFFF" d="M108.4,171c-0.1-0.4-0.4-0.6-0.7-0.6c-0.5,0-0.9,0.6-0.9,1.7c0,1.1,0.3,1.7,0.9,1.7c0.3,0,0.6-0.2,0.7-0.6
			h0.4v0.6c-0.3,0.4-0.7,0.5-1.1,0.5c-0.9,0-1.5-0.8-1.5-2.2s0.6-2.2,1.5-2.2c0.4,0,0.8,0.2,1.1,0.5v0.6H108.4z"/>
		<path fill="#FFFFFF" d="M111.2,170.5V170h0.6c0-0.1,0-0.3,0-0.5c0-0.9,0.3-1.3,1.2-1.3c0.1,0,0.1,0,0.2,0v0.5H113
			c-0.5,0-0.7,0.2-0.7,0.7v0.6h0.7v0.5h-0.7v3.6h-0.6v-3.6H111.2z"/>
		<path fill="#FFFFFF" d="M114.5,168.4v0.7h-0.6v-0.7H114.5z M114.4,170v4.1h-0.6V170H114.4z"/>
		<path fill="#FFFFFF" d="M116.2,170v0.3c0,0.1,0,0.3-0.1,0.4l0.1,0.1c0.2-0.5,0.8-0.8,1.3-0.8l0,0v0.7c-0.6,0-1,0.2-1.4,0.6v2.9
			h-0.6V170H116.2z"/>
		<path fill="#FFFFFF" d="M118.8,172.3v0.1c0,0.9,0.4,1.4,1,1.4c0.4,0,0.8-0.2,0.9-0.5h0.4v0.5c-0.4,0.4-0.8,0.5-1.4,0.5
			c-1.1,0-1.6-0.7-1.6-2.2c0-1.4,0.6-2.2,1.5-2.2c1,0,1.5,0.8,1.5,2.2v0.2H118.8z M120.6,171.8c0-0.9-0.4-1.4-0.9-1.4
			c-0.6,0-0.9,0.5-0.9,1.4H120.6z"/>
		<path fill="#FFFFFF" d="M122.7,168.4v2h0.1c0.2-0.3,0.5-0.5,0.9-0.5c0.7,0,1.3,0.8,1.3,2.2s-0.5,2.2-1.3,2.2
			c-0.4,0-0.7-0.2-0.9-0.5h-0.1v0.4h-0.6v-5.8L122.7,168.4L122.7,168.4z M122.7,173.3c0.3,0.3,0.5,0.4,0.8,0.4
			c0.6,0,0.9-0.6,0.9-1.7c0-1.1-0.3-1.7-0.9-1.7c-0.3,0-0.5,0.1-0.8,0.4V173.3z"/>
		<path fill="#FFFFFF" d="M128.6,174.1H128v-0.3l0,0c-0.3,0.3-0.6,0.5-1,0.5c-0.7,0-1.3-0.5-1.3-1.2c0-0.9,0.8-1.4,2.3-1.5
			c0-0.1,0-0.2,0-0.3c0-0.7-0.2-0.9-0.8-0.9c-0.4,0-0.7,0.2-0.9,0.6h-0.4v-0.6c0.4-0.2,0.8-0.4,1.3-0.4s0.9,0.2,1.2,0.5
			c0.2,0.3,0.2,0.6,0.2,1.3L128.6,174.1L128.6,174.1z M128,171.9c-1.2,0.1-1.7,0.5-1.7,1.1c0,0.4,0.3,0.7,0.8,0.7
			c0.3,0,0.6-0.1,0.9-0.4V171.9z"/>
		<path fill="#FFFFFF" d="M130.3,168.4v5.8h-0.6v-5.8H130.3z"/>
		<path fill="#FFFFFF" d="M132.1,168.4v5.8h-0.6v-5.8H132.1z"/>
		<path fill="#FFFFFF" d="M133.4,173.2c0.2,0.4,0.5,0.6,1,0.6s0.8-0.3,0.8-0.7c0-0.6-0.5-0.6-1.3-0.9c-0.5-0.2-0.8-0.6-0.8-1.1
			c0-0.7,0.5-1.2,1.3-1.2c0.4,0,0.8,0.1,1.2,0.5v0.6h-0.4c-0.2-0.4-0.5-0.6-0.8-0.6c-0.4,0-0.8,0.3-0.8,0.7s0.3,0.6,0.9,0.8
			c0.8,0.2,1.2,0.6,1.2,1.2c0,0.7-0.5,1.3-1.4,1.3c-0.5,0-1-0.2-1.4-0.5v-0.6h0.5V173.2z"/>
		<path fill="#FFFFFF" d="M136.4,175.1c0.4,0,0.5-0.2,0.5-0.6V174h-0.4v-0.7h0.9v0.9c0,0.9-0.2,1.2-1,1.2V175.1z"/>
		<path fill="#FFFFFF" d="M140.5,173.2c0.2,0.4,0.5,0.6,1,0.6s0.8-0.3,0.8-0.7c0-0.6-0.5-0.6-1.3-0.9c-0.5-0.2-0.8-0.6-0.8-1.1
			c0-0.7,0.6-1.2,1.3-1.2c0.4,0,0.8,0.1,1.2,0.5v0.6h-0.4c-0.2-0.4-0.5-0.6-0.8-0.6c-0.4,0-0.8,0.3-0.8,0.7s0.3,0.6,0.9,0.8
			c0.8,0.2,1.2,0.6,1.2,1.2c0,0.7-0.5,1.3-1.4,1.3c-0.5,0-1-0.2-1.4-0.5v-0.6h0.5V173.2z"/>
		<path fill="#FFFFFF" d="M146.6,172.1c0,1.4-0.6,2.2-1.5,2.2s-1.5-0.8-1.5-2.2c0-1.3,0.6-2.2,1.5-2.2
			C146.1,169.9,146.6,170.7,146.6,172.1z M144.2,172c0,1.2,0.3,1.8,0.9,1.8c0.6,0,0.9-0.6,0.9-1.7c0-1.1-0.4-1.7-0.9-1.7
			S144.2,171,144.2,172z"/>
		<path fill="#FFFFFF" d="M149.6,174.1v-0.3h-0.1c-0.2,0.3-0.5,0.5-0.9,0.5c-0.5,0-0.9-0.2-1-0.7c-0.1-0.2-0.1-0.6-0.1-1.1V170h0.6
			v2.6c0,0.8,0.1,1.2,0.7,1.2c0.3,0,0.6-0.1,0.8-0.4V170h0.6v4.1H149.6z"/>
		<path fill="#FFFFFF" d="M151.9,170v0.3c0,0.1,0,0.3-0.1,0.4l0.1,0.1c0.2-0.5,0.8-0.8,1.3-0.8l0,0v0.7c-0.6,0-1,0.2-1.4,0.6v2.9
			h-0.6V170H151.9z"/>
		<path fill="#FFFFFF" d="M156.5,170v0.4h0.1c0.2-0.3,0.5-0.5,0.9-0.5c0.8,0,1.3,0.8,1.3,2.2c0,1.3-0.5,2.2-1.3,2.2
			c-0.4,0-0.7-0.2-0.9-0.5h-0.1v1.6h-0.6V170H156.5z M156.5,173.3c0.3,0.3,0.5,0.4,0.8,0.4c0.6,0,0.9-0.6,0.9-1.7
			c0-1.1-0.3-1.7-0.9-1.7c-0.3,0-0.5,0.1-0.8,0.4V173.3z"/>
		<path fill="#FFFFFF" d="M162.3,174.1h-0.6v-0.3h-0.1c-0.3,0.3-0.6,0.5-1,0.5c-0.7,0-1.3-0.5-1.3-1.2c0-0.9,0.8-1.4,2.3-1.5
			c0-0.1,0-0.2,0-0.3c0-0.7-0.2-0.9-0.8-0.9c-0.4,0-0.7,0.2-0.9,0.6h-0.4v-0.6c0.4-0.2,0.8-0.4,1.3-0.4s0.9,0.2,1.2,0.5
			c0.2,0.3,0.2,0.6,0.2,1.3v2.3L162.3,174.1L162.3,174.1z M161.7,171.9c-1.2,0.1-1.7,0.5-1.7,1.1c0,0.4,0.3,0.7,0.8,0.7
			c0.3,0,0.6-0.1,0.9-0.4V171.9z"/>
		<path fill="#FFFFFF" d="M165,170v0.5h-0.9v2.6c0,0.6,0,0.6,0.5,0.6h0.4v0.5h-0.6c-0.8,0-0.9-0.3-0.9-1.3v-2.4H163V170h0.5v-1.3
			h0.6v1.3H165z"/>
		<path fill="#FFFFFF" d="M167.7,171c-0.1-0.4-0.4-0.6-0.7-0.6c-0.5,0-0.9,0.6-0.9,1.7c0,1.1,0.3,1.7,0.9,1.7c0.3,0,0.6-0.2,0.7-0.6
			h0.4v0.6c-0.3,0.4-0.7,0.5-1.1,0.5c-0.9,0-1.5-0.8-1.5-2.2s0.6-2.2,1.5-2.2c0.4,0,0.8,0.2,1.1,0.5v0.6H167.7z"/>
		<path fill="#FFFFFF" d="M169.6,168.4v2h0.1c0.2-0.3,0.5-0.5,0.9-0.5c0.7,0,1.1,0.5,1.1,1.4v2.8h-0.6v-2.6c0-0.8-0.1-1.2-0.7-1.2
			c-0.3,0-0.6,0.1-0.8,0.4v3.3H169v-5.8h0.6V168.4z"/>
		<path fill="#FFFFFF" d="M61.5,178.5v2.5c0,0.4,0,0.8-0.1,1.2h0.1l1.5-2.1h0.7l-1.4,1.8l1.3,2.3H63l-0.7-1.3
			c-0.1-0.2-0.2-0.4-0.3-0.7h-0.1l-0.4,0.6v1.4h-0.6v-5.8h0.6V178.5z"/>
		<path fill="#FFFFFF" d="M64.9,178.5v0.7h-0.6v-0.7H64.9z M64.9,180.2v4.1h-0.6v-4.1H64.9z"/>
		<path fill="#FFFFFF" d="M68.2,184L68.2,184c-0.3,0.3-0.6,0.5-1,0.5c-0.8,0-1.3-0.8-1.3-2.2c0-1.3,0.5-2.2,1.3-2.2
			c0.4,0,0.6,0.2,0.9,0.5h0.1v-2h0.6v5.8h-0.6V184z M68.2,181c-0.3-0.3-0.5-0.4-0.8-0.4c-0.6,0-0.9,0.6-0.9,1.7
			c0,1.1,0.3,1.7,0.9,1.7c0.3,0,0.5-0.2,0.8-0.4V181z"/>
		<path fill="#FFFFFF" d="M70,183.3c0.2,0.4,0.5,0.6,1,0.6s0.8-0.3,0.8-0.7c0-0.6-0.5-0.6-1.3-0.9c-0.5-0.2-0.8-0.6-0.8-1.1
			c0-0.7,0.6-1.2,1.3-1.2c0.4,0,0.8,0.1,1.2,0.5v0.6h-0.4c-0.2-0.4-0.5-0.6-0.8-0.6c-0.4,0-0.8,0.3-0.8,0.7s0.3,0.6,0.9,0.8
			c0.8,0.2,1.2,0.6,1.2,1.2c0,0.7-0.5,1.3-1.4,1.3c-0.5,0-1-0.2-1.4-0.5v-0.6H70V183.3z"/>
		<path fill="#FFFFFF" d="M78,182.3c0,1.4-0.6,2.2-1.5,2.2s-1.5-0.8-1.5-2.2c0-1.3,0.6-2.2,1.5-2.2S78,180.9,78,182.3z M75.5,182.2
			c0,1.2,0.3,1.8,0.9,1.8s0.9-0.6,0.9-1.7c0-1.1-0.4-1.7-0.9-1.7S75.5,181.1,75.5,182.2z"/>
		<path fill="#FFFFFF" d="M79.5,180.2v0.3c0,0.1,0,0.3-0.1,0.4l0.1,0.1c0.2-0.5,0.8-0.8,1.3-0.8l0,0v0.7c-0.6,0-1,0.2-1.4,0.6v2.9
			h-0.6v-4.1L79.5,180.2L79.5,180.2z"/>
		<path fill="#FFFFFF" d="M83.8,180.2l0.7,3.5h0.1l0.7-3.5h0.6l0.7,3.5h0.1l0.7-3.5h0.7l-1.2,4.1h-0.6l-0.7-3.2h-0.1l-0.7,3.2h-0.6
			l-1.1-4.1H83.8z"/>
		<path fill="#FFFFFF" d="M91.6,184.3H91V184h-0.1c-0.3,0.3-0.6,0.5-1,0.5c-0.7,0-1.3-0.5-1.3-1.2c0-0.9,0.8-1.4,2.3-1.5
			c0-0.1,0-0.2,0-0.3c0-0.7-0.2-0.9-0.8-0.9c-0.4,0-0.7,0.2-0.9,0.6h-0.4v-0.6c0.4-0.2,0.8-0.4,1.3-0.4s0.9,0.2,1.2,0.5
			c0.2,0.3,0.2,0.6,0.2,1.3v2.3L91.6,184.3L91.6,184.3z M91,182.1c-1.2,0.1-1.7,0.5-1.7,1.1c0,0.4,0.3,0.7,0.8,0.7
			c0.3,0,0.6-0.1,0.9-0.4C91,183.5,91,182.1,91,182.1z"/>
		<path fill="#FFFFFF" d="M93.2,180.2v0.3c0,0.1,0,0.3-0.1,0.4l0.1,0.1c0.2-0.5,0.8-0.8,1.3-0.8l0,0v0.7c-0.6,0-1,0.2-1.4,0.6v2.9
			h-0.6v-4.1L93.2,180.2L93.2,180.2z"/>
		<path fill="#FFFFFF" d="M96.1,178.5v2h0.1c0.2-0.3,0.5-0.5,0.9-0.5c0.7,0,1.1,0.5,1.1,1.4v2.8h-0.6v-2.6c0-0.8-0.1-1.2-0.7-1.2
			c-0.3,0-0.6,0.1-0.8,0.4v3.3h-0.6v-5.8h0.6V178.5z"/>
		<path fill="#FFFFFF" d="M99.6,182.4v0.1c0,0.9,0.4,1.4,1,1.4c0.4,0,0.8-0.2,0.9-0.5h0.4v0.5c-0.4,0.4-0.8,0.5-1.4,0.5
			c-1.1,0-1.6-0.7-1.6-2.2c0-1.4,0.6-2.2,1.5-2.2c1,0,1.5,0.8,1.5,2.2v0.2H99.6z M101.4,182c0-0.9-0.4-1.4-0.9-1.4
			c-0.6,0-0.9,0.5-0.9,1.4H101.4z"/>
		<path fill="#FFFFFF" d="M105.7,184.3h-0.6V184H105c-0.3,0.3-0.6,0.5-1,0.5c-0.7,0-1.3-0.5-1.3-1.2c0-0.9,0.8-1.4,2.3-1.5
			c0-0.1,0-0.2,0-0.3c0-0.7-0.2-0.9-0.8-0.9c-0.4,0-0.7,0.2-0.9,0.6H103v-0.6c0.4-0.2,0.8-0.4,1.3-0.4s0.9,0.2,1.2,0.5
			c0.2,0.3,0.2,0.6,0.2,1.3V184.3z M105.1,182.1c-1.2,0.1-1.7,0.5-1.7,1.1c0,0.4,0.3,0.7,0.8,0.7c0.3,0,0.6-0.1,0.9-0.4
			C105.1,183.5,105.1,182.1,105.1,182.1z"/>
		<path fill="#FFFFFF" d="M108.9,184L108.9,184c-0.3,0.3-0.6,0.5-1,0.5c-0.8,0-1.3-0.8-1.3-2.2c0-1.3,0.5-2.2,1.3-2.2
			c0.4,0,0.6,0.2,0.9,0.5h0.1v-2h0.6v5.8h-0.6V184z M108.9,181c-0.3-0.3-0.5-0.4-0.8-0.4c-0.6,0-0.9,0.6-0.9,1.7
			c0,1.1,0.3,1.7,0.9,1.7c0.3,0,0.5-0.2,0.8-0.4V181z"/>
		<path fill="#FFFFFF" d="M110.7,183.3c0.2,0.4,0.5,0.6,1,0.6s0.8-0.3,0.8-0.7c0-0.6-0.5-0.6-1.3-0.9c-0.5-0.2-0.8-0.6-0.8-1.1
			c0-0.7,0.6-1.2,1.3-1.2c0.4,0,0.8,0.1,1.2,0.5v0.6h-0.4c-0.2-0.4-0.5-0.6-0.8-0.6c-0.4,0-0.8,0.3-0.8,0.7s0.3,0.6,0.9,0.8
			c0.8,0.2,1.2,0.6,1.2,1.2c0,0.7-0.5,1.3-1.4,1.3c-0.5,0-1-0.2-1.4-0.5v-0.6h0.5L110.7,183.3L110.7,183.3z"/>
	</g>
</g>
<g>
	<g>
		<path fill="#FFFFFF" d="M63.9,218l1.5,5.5h-0.7l-0.4-1.4h-1.6l-0.4,1.4h-0.7L63,218H63.9z M62.7,221.6h1.5l-0.3-1.2
			c-0.2-0.6-0.3-1.3-0.3-1.9h-0.3c-0.1,0.7-0.1,1.3-0.3,1.9L62.7,221.6z"/>
		<path fill="#FFFFFF" d="M70,220.4c-0.1-0.4-0.4-0.6-0.7-0.6c-0.5,0-0.9,0.6-0.9,1.7c0,1.1,0.3,1.7,0.9,1.7c0.3,0,0.6-0.2,0.7-0.6
			h0.4v0.6c-0.3,0.4-0.7,0.5-1.1,0.5c-0.9,0-1.5-0.8-1.5-2.2s0.6-2.2,1.5-2.2c0.4,0,0.8,0.2,1.1,0.5v0.6H70z"/>
		<path fill="#FFFFFF" d="M74,223.5h-0.6v-0.3h-0.1c-0.3,0.3-0.6,0.5-1,0.5c-0.7,0-1.3-0.5-1.3-1.2c0-0.9,0.8-1.4,2.3-1.5
			c0-0.1,0-0.2,0-0.3c0-0.7-0.2-0.9-0.8-0.9c-0.4,0-0.7,0.2-0.9,0.6h-0.4v-0.6c0.4-0.2,0.8-0.4,1.3-0.4s0.9,0.2,1.2,0.5
			c0.2,0.3,0.2,0.6,0.2,1.3v2.3L74,223.5L74,223.5z M73.4,221.3c-1.2,0.1-1.7,0.5-1.7,1.1c0,0.4,0.3,0.7,0.8,0.7
			c0.3,0,0.6-0.1,0.9-0.4C73.4,222.7,73.4,221.3,73.4,221.3z"/>
		<path fill="#FFFFFF" d="M75.7,219.4v0.3h0.1c0.2-0.3,0.5-0.5,0.9-0.5c0.8,0,1.1,0.5,1.1,1.4v2.8h-0.6v-2.6c0-0.8-0.1-1.2-0.7-1.2
			c-0.3,0-0.6,0.1-0.8,0.4v3.3h-0.6v-4.1h0.6V219.4z"/>
		<path fill="#FFFFFF" d="M81,223.2L81,223.2c-0.3,0.3-0.6,0.5-1,0.5c-0.8,0-1.3-0.8-1.3-2.2c0-1.3,0.5-2.2,1.3-2.2
			c0.4,0,0.6,0.2,0.9,0.5H81v-2h0.6v5.8H81V223.2z M81,220.2c-0.3-0.3-0.5-0.4-0.8-0.4c-0.6,0-0.9,0.6-0.9,1.7
			c0,1.1,0.3,1.7,0.9,1.7c0.3,0,0.5-0.2,0.8-0.4V220.2z"/>
		<path fill="#FFFFFF" d="M83,219.4l0.8,3.4h0.1l0.7-3.4h0.7l-1.2,4c-0.3,1-0.7,1.5-1.6,1.5c-0.1,0-0.1,0-0.2,0v-0.5
			c0.1,0,0.1,0,0.2,0c0.6,0,0.8-0.3,1-1l-1.2-3.9H83V219.4z"/>
		<path fill="#FFFFFF" d="M88.5,219.4v0.3h0.1c0.2-0.3,0.5-0.5,0.9-0.5c0.8,0,1.1,0.5,1.1,1.4v2.8H90v-2.6c0-0.8-0.1-1.2-0.7-1.2
			c-0.3,0-0.6,0.1-0.8,0.4v3.3h-0.6v-4.1h0.6V219.4z"/>
		<path fill="#FFFFFF" d="M94.3,223.5h-0.6v-0.3h-0.1c-0.3,0.3-0.6,0.5-1,0.5c-0.7,0-1.3-0.5-1.3-1.2c0-0.9,0.8-1.4,2.3-1.5
			c0-0.1,0-0.2,0-0.3c0-0.7-0.2-0.9-0.8-0.9c-0.4,0-0.7,0.2-0.9,0.6h-0.4v-0.6c0.4-0.2,0.8-0.4,1.3-0.4s0.9,0.2,1.2,0.5
			c0.2,0.3,0.2,0.6,0.2,1.3v2.3L94.3,223.5L94.3,223.5z M93.7,221.3c-1.2,0.1-1.7,0.5-1.7,1.1c0,0.4,0.3,0.7,0.8,0.7
			c0.3,0,0.6-0.1,0.9-0.4C93.7,222.7,93.7,221.3,93.7,221.3z"/>
		<path fill="#FFFFFF" d="M96,219.4v0.3h0.1c0.2-0.3,0.5-0.5,0.9-0.5s0.7,0.2,1,0.6c0.4-0.4,0.7-0.6,1-0.6c0.7,0,1.1,0.5,1.1,1.4
			v2.8h-0.6v-2.6c0-0.8-0.1-1.2-0.7-1.2c-0.3,0-0.5,0.1-0.7,0.4v3.3h-0.6v-2.4c0-0.9-0.1-1.3-0.6-1.3c-0.3,0-0.5,0.1-0.8,0.4v3.3
			h-0.6v-4.1H96V219.4z"/>
		<path fill="#FFFFFF" d="M101.4,221.6v0.1c0,0.9,0.4,1.4,1,1.4c0.4,0,0.8-0.2,0.9-0.5h0.4v0.5c-0.4,0.4-0.8,0.5-1.4,0.5
			c-1.1,0-1.6-0.7-1.6-2.2c0-1.4,0.6-2.2,1.5-2.2c1,0,1.5,0.8,1.5,2.2v0.2H101.4z M103.2,221.2c0-0.9-0.4-1.4-0.9-1.4
			c-0.6,0-0.9,0.5-0.9,1.4H103.2z"/>
		<path fill="#FFFFFF" d="M106.9,223.2L106.9,223.2c-0.3,0.3-0.6,0.5-1,0.5c-0.8,0-1.3-0.8-1.3-2.2c0-1.3,0.5-2.2,1.3-2.2
			c0.4,0,0.6,0.2,0.9,0.5h0.1v-2h0.6v5.8h-0.6V223.2z M106.9,220.2c-0.3-0.3-0.5-0.4-0.8-0.4c-0.6,0-0.9,0.6-0.9,1.7
			c0,1.1,0.3,1.7,0.9,1.7c0.3,0,0.5-0.2,0.8-0.4V220.2z"/>
		<path fill="#FFFFFF" d="M113.1,223.5h-0.6v-0.3h-0.1c-0.3,0.3-0.6,0.5-1,0.5c-0.7,0-1.3-0.5-1.3-1.2c0-0.9,0.8-1.4,2.3-1.5
			c0-0.1,0-0.2,0-0.3c0-0.7-0.2-0.9-0.8-0.9c-0.4,0-0.7,0.2-0.9,0.6h-0.4v-0.6c0.4-0.2,0.8-0.4,1.3-0.4s0.9,0.2,1.2,0.5
			c0.2,0.3,0.2,0.6,0.2,1.3v2.3L113.1,223.5L113.1,223.5z M112.5,221.3c-1.2,0.1-1.7,0.5-1.7,1.1c0,0.4,0.3,0.7,0.8,0.7
			c0.3,0,0.6-0.1,0.9-0.4C112.5,222.7,112.5,221.3,112.5,221.3z"/>
		<path fill="#FFFFFF" d="M113.8,219.9v-0.5h0.6c0-0.1,0-0.3,0-0.5c0-0.9,0.3-1.3,1.2-1.3c0.1,0,0.1,0,0.2,0v0.5h-0.1
			c-0.5,0-0.7,0.2-0.7,0.7v0.6h0.7v0.5H115v3.6h-0.6v-3.6H113.8z"/>
		<path fill="#FFFFFF" d="M118,219.4v0.5h-0.9v2.6c0,0.6,0,0.6,0.5,0.6h0.4v0.5h-0.6c-0.8,0-0.9-0.3-0.9-1.3v-2.4H116v-0.5h0.5v-1.3
			h0.6v1.3L118,219.4L118,219.4z"/>
		<path fill="#FFFFFF" d="M119.2,221.6v0.1c0,0.9,0.4,1.4,1,1.4c0.4,0,0.8-0.2,0.9-0.5h0.4v0.5c-0.4,0.4-0.8,0.5-1.4,0.5
			c-1.1,0-1.6-0.7-1.6-2.2c0-1.4,0.6-2.2,1.5-2.2c1,0,1.5,0.8,1.5,2.2v0.2H119.2z M121,221.2c0-0.9-0.4-1.4-0.9-1.4
			c-0.6,0-0.9,0.5-0.9,1.4H121z"/>
		<path fill="#FFFFFF" d="M123.1,219.4v0.3c0,0.1,0,0.3-0.1,0.4l0.1,0.1c0.2-0.5,0.8-0.8,1.3-0.8l0,0v0.7c-0.6,0-1,0.2-1.4,0.6v2.9
			h-0.6v-4.1L123.1,219.4L123.1,219.4z"/>
		<path fill="#FFFFFF" d="M128.9,219.4v0.5H128v2.6c0,0.6,0,0.6,0.5,0.6h0.4v0.5h-0.6c-0.8,0-0.9-0.3-0.9-1.3v-2.4h-0.5v-0.5h0.5
			v-1.3h0.6v1.3L128.9,219.4L128.9,219.4z"/>
		<path fill="#FFFFFF" d="M130.2,217.7v2h0.1c0.2-0.3,0.5-0.5,0.9-0.5c0.7,0,1.1,0.5,1.1,1.4v2.8h-0.6v-2.6c0-0.8-0.1-1.2-0.7-1.2
			c-0.3,0-0.6,0.1-0.8,0.4v3.3h-0.6v-5.8h0.6V217.7z"/>
		<path fill="#FFFFFF" d="M133.8,221.6v0.1c0,0.9,0.4,1.4,1,1.4c0.4,0,0.8-0.2,0.9-0.5h0.4v0.5c-0.4,0.4-0.8,0.5-1.4,0.5
			c-1.1,0-1.6-0.7-1.6-2.2c0-1.4,0.6-2.2,1.5-2.2c1,0,1.5,0.8,1.5,2.2v0.2H133.8z M135.6,221.2c0-0.9-0.4-1.4-0.9-1.4
			c-0.6,0-0.9,0.5-0.9,1.4H135.6z"/>
		<path fill="#FFFFFF" d="M138.6,219.9v-0.5h0.6c0-0.1,0-0.3,0-0.5c0-0.9,0.3-1.3,1.2-1.3c0.1,0,0.1,0,0.2,0v0.5h-0.1
			c-0.5,0-0.7,0.2-0.7,0.7v0.6h0.7v0.5h-0.7v3.6h-0.6v-3.6H138.6z"/>
		<path fill="#FFFFFF" d="M144.2,221.5c0,1.4-0.6,2.2-1.5,2.2s-1.5-0.8-1.5-2.2c0-1.3,0.6-2.2,1.5-2.2
			C143.7,219.3,144.2,220.1,144.2,221.5z M141.8,221.4c0,1.2,0.3,1.8,0.9,1.8c0.6,0,0.9-0.6,0.9-1.7c0-1.1-0.4-1.7-0.9-1.7
			S141.8,220.3,141.8,221.4z"/>
		<path fill="#FFFFFF" d="M147.2,223.5v-0.3h-0.1c-0.2,0.3-0.5,0.5-0.9,0.5c-0.5,0-0.9-0.2-1-0.7c-0.1-0.2-0.1-0.6-0.1-1.1v-2.4h0.6
			v2.6c0,0.8,0.1,1.2,0.7,1.2c0.3,0,0.6-0.1,0.8-0.4v-3.3h0.6v4.1h-0.6V223.5z"/>
		<path fill="#FFFFFF" d="M149.5,219.4v0.3h0.1c0.2-0.3,0.5-0.5,0.9-0.5c0.8,0,1.1,0.5,1.1,1.4v2.8H151v-2.6c0-0.8-0.1-1.2-0.7-1.2
			c-0.3,0-0.6,0.1-0.8,0.4v3.3h-0.6v-4.1h0.6V219.4z"/>
		<path fill="#FFFFFF" d="M154.8,223.2L154.8,223.2c-0.3,0.3-0.6,0.5-1,0.5c-0.8,0-1.3-0.8-1.3-2.2c0-1.3,0.5-2.2,1.3-2.2
			c0.4,0,0.6,0.2,0.9,0.5h0.1v-2h0.6v5.8h-0.6V223.2z M154.8,220.2c-0.3-0.3-0.5-0.4-0.8-0.4c-0.6,0-0.9,0.6-0.9,1.7
			c0,1.1,0.3,1.7,0.9,1.7c0.3,0,0.5-0.2,0.8-0.4V220.2z"/>
		<path fill="#FFFFFF" d="M156.9,221.6v0.1c0,0.9,0.4,1.4,1,1.4c0.4,0,0.8-0.2,0.9-0.5h0.4v0.5c-0.4,0.4-0.8,0.5-1.4,0.5
			c-1.1,0-1.6-0.7-1.6-2.2c0-1.4,0.6-2.2,1.5-2.2c1,0,1.5,0.8,1.5,2.2v0.2H156.9z M158.7,221.2c0-0.9-0.4-1.4-0.9-1.4
			c-0.6,0-0.9,0.5-0.9,1.4H158.7z"/>
		<path fill="#FFFFFF" d="M160.8,219.4v0.3c0,0.1,0,0.3-0.1,0.4l0.1,0.1c0.2-0.5,0.8-0.8,1.3-0.8l0,0v0.7c-0.6,0-1,0.2-1.4,0.6v2.9
			h-0.6v-4.1L160.8,219.4L160.8,219.4z"/>
		<path fill="#FFFFFF" d="M162.8,219.8c0.4,0,0.5-0.2,0.5-0.6v-0.4H163V218h0.9v0.9c0,0.9-0.2,1.2-1,1.2L162.8,219.8L162.8,219.8z"
			/>
		<path fill="#FFFFFF" d="M164.9,222.5c0.2,0.4,0.5,0.6,1,0.6s0.8-0.3,0.8-0.7c0-0.6-0.5-0.6-1.3-0.9c-0.5-0.2-0.8-0.6-0.8-1.1
			c0-0.7,0.5-1.2,1.3-1.2c0.4,0,0.8,0.1,1.2,0.5v0.6h-0.4c-0.2-0.4-0.5-0.6-0.8-0.6c-0.4,0-0.8,0.3-0.8,0.7s0.3,0.6,0.9,0.8
			c0.8,0.2,1.2,0.6,1.2,1.2c0,0.7-0.5,1.3-1.4,1.3c-0.5,0-1-0.2-1.4-0.5v-0.6h0.5V222.5z"/>
		<path fill="#FFFFFF" d="M64,233.3L64,233.3c-0.3,0.3-0.6,0.5-1,0.5c-0.8,0-1.3-0.8-1.3-2.2c0-1.3,0.5-2.2,1.3-2.2
			c0.4,0,0.6,0.2,0.9,0.5H64v-2h0.6v5.8H64V233.3z M64,230.4c-0.3-0.3-0.5-0.4-0.8-0.4c-0.6,0-0.9,0.6-0.9,1.7
			c0,1.1,0.3,1.7,0.9,1.7c0.3,0,0.5-0.2,0.8-0.4V230.4z"/>
		<path fill="#FFFFFF" d="M68.4,233.7h-0.6v-0.3h-0.1c-0.3,0.3-0.6,0.5-1,0.5c-0.7,0-1.3-0.5-1.3-1.2c0-0.9,0.8-1.4,2.3-1.5
			c0-0.1,0-0.2,0-0.3c0-0.7-0.2-0.9-0.8-0.9c-0.4,0-0.7,0.2-0.9,0.6h-0.4V230c0.4-0.2,0.8-0.4,1.3-0.4s0.9,0.2,1.2,0.5
			c0.2,0.3,0.2,0.6,0.2,1.3v2.3L68.4,233.7L68.4,233.7z M67.8,231.5c-1.2,0.1-1.7,0.5-1.7,1.1c0,0.4,0.3,0.7,0.8,0.7
			c0.3,0,0.6-0.1,0.9-0.4C67.8,232.9,67.8,231.5,67.8,231.5z"/>
		<path fill="#FFFFFF" d="M71.5,233.7v-0.3h-0.1c-0.2,0.3-0.5,0.5-0.9,0.5c-0.5,0-0.9-0.2-1-0.7c-0.1-0.2-0.1-0.6-0.1-1.1v-2.4H70
			v2.6c0,0.8,0.1,1.2,0.7,1.2c0.3,0,0.6-0.1,0.8-0.4v-3.3H72v4.1h-0.5V233.7z"/>
		<path fill="#FFFFFF" d="M75.9,233.5c0,1.1-0.5,1.5-1.4,1.5c-0.5,0-0.9-0.1-1.3-0.4v-0.7h0.4c0.2,0.4,0.4,0.5,0.9,0.5
			c0.7,0,0.8-0.4,0.8-1.3v-0.3h-0.1c-0.2,0.3-0.5,0.5-0.9,0.5c-0.8,0-1.3-0.7-1.3-1.9c0-1.3,0.5-2,1.3-2c0.4,0,0.7,0.2,0.9,0.5h0.1
			v-0.4h0.6V233.5z M75.3,230.4c-0.3-0.3-0.5-0.4-0.8-0.4c-0.6,0-0.9,0.5-0.9,1.4c0,1,0.3,1.5,0.9,1.5c0.3,0,0.6-0.1,0.8-0.4V230.4z
			"/>
		<path fill="#FFFFFF" d="M77.5,227.9v2h0.1c0.2-0.3,0.5-0.5,0.9-0.5c0.7,0,1.1,0.5,1.1,1.4v2.8H79V231c0-0.8-0.1-1.2-0.7-1.2
			c-0.3,0-0.6,0.1-0.8,0.4v3.3H77v-5.8h0.5V227.9z"/>
		<path fill="#FFFFFF" d="M82.3,229.5v0.5h-0.9v2.6c0,0.6,0,0.6,0.5,0.6h0.4v0.5h-0.6c-0.8,0-0.9-0.3-0.9-1.3V230h-0.5v-0.5h0.5
			v-1.3h0.6v1.3H82.3z"/>
		<path fill="#FFFFFF" d="M83.5,231.8v0.1c0,0.9,0.4,1.4,1,1.4c0.4,0,0.8-0.2,0.9-0.5h0.4v0.5c-0.4,0.4-0.8,0.5-1.4,0.5
			c-1.1,0-1.6-0.7-1.6-2.2c0-1.4,0.6-2.2,1.5-2.2c1,0,1.5,0.8,1.5,2.2v0.2H83.5z M85.3,231.3c0-0.9-0.4-1.4-0.9-1.4
			c-0.6,0-0.9,0.5-0.9,1.4H85.3z"/>
		<path fill="#FFFFFF" d="M87.4,229.5v0.3c0,0.1,0,0.3-0.1,0.4l0.1,0.1c0.2-0.5,0.8-0.8,1.3-0.8l0,0v0.7c-0.6,0-1,0.2-1.4,0.6v2.9
			h-0.6v-4.1L87.4,229.5L87.4,229.5z"/>
		<path fill="#FFFFFF" d="M88.4,234.6c0.4,0,0.5-0.2,0.5-0.6v-0.4h-0.4v-0.7h0.9v0.9c0,0.9-0.2,1.2-1,1.2V234.6z"/>
		<path fill="#FFFFFF" d="M94,229.5v0.5h-0.9v2.6c0,0.6,0,0.6,0.5,0.6H94v0.5h-0.6c-0.8,0-0.9-0.3-0.9-1.3V230H92v-0.5h0.5v-1.3h0.6
			v1.3H94z"/>
		<path fill="#FFFFFF" d="M95.3,227.9v2h0.1c0.2-0.3,0.5-0.5,0.9-0.5c0.7,0,1.1,0.5,1.1,1.4v2.8h-0.6V231c0-0.8-0.1-1.2-0.7-1.2
			c-0.3,0-0.6,0.1-0.8,0.4v3.3h-0.6v-5.8h0.6V227.9z"/>
		<path fill="#FFFFFF" d="M99.1,227.9v0.7h-0.6v-0.7H99.1z M99.1,229.5v4.1h-0.6v-4.1H99.1z"/>
		<path fill="#FFFFFF" d="M100.4,232.7c0.2,0.4,0.5,0.6,1,0.6s0.8-0.3,0.8-0.7c0-0.6-0.5-0.6-1.3-0.9c-0.5-0.2-0.8-0.6-0.8-1.1
			c0-0.7,0.6-1.2,1.3-1.2c0.4,0,0.8,0.1,1.2,0.5v0.6h-0.4c-0.2-0.4-0.5-0.6-0.8-0.6c-0.4,0-0.8,0.3-0.8,0.7s0.3,0.6,0.9,0.8
			c0.8,0.2,1.2,0.6,1.2,1.2c0,0.7-0.5,1.3-1.4,1.3c-0.5,0-1-0.2-1.4-0.5v-0.6h0.5L100.4,232.7L100.4,232.7z"/>
		<path fill="#FFFFFF" d="M107.5,230.5c-0.1-0.4-0.4-0.6-0.7-0.6c-0.5,0-0.9,0.6-0.9,1.7c0,1.1,0.3,1.7,0.9,1.7
			c0.3,0,0.6-0.2,0.7-0.6h0.4v0.6c-0.3,0.4-0.7,0.5-1.1,0.5c-0.9,0-1.5-0.8-1.5-2.2s0.6-2.2,1.5-2.2c0.4,0,0.8,0.2,1.1,0.5v0.6
			H107.5z"/>
		<path fill="#FFFFFF" d="M109.5,227.9v2h0.1c0.2-0.3,0.5-0.5,0.9-0.5c0.7,0,1.1,0.5,1.1,1.4v2.8H111V231c0-0.8-0.1-1.2-0.7-1.2
			c-0.3,0-0.6,0.1-0.8,0.4v3.3h-0.6v-5.8h0.6V227.9z"/>
		<path fill="#FFFFFF" d="M113,231.8v0.1c0,0.9,0.4,1.4,1,1.4c0.4,0,0.8-0.2,0.9-0.5h0.4v0.5c-0.4,0.4-0.8,0.5-1.4,0.5
			c-1.1,0-1.6-0.7-1.6-2.2c0-1.4,0.6-2.2,1.5-2.2c1,0,1.5,0.8,1.5,2.2v0.2H113z M114.8,231.3c0-0.9-0.4-1.4-0.9-1.4
			c-0.6,0-0.9,0.5-0.9,1.4H114.8z"/>
		<path fill="#FFFFFF" d="M116.6,229.5l0.7,3.5h0.1l0.7-3.5h0.6l0.7,3.5h0.1l0.7-3.5h0.7l-1.2,4.1h-0.6l-0.7-3.2h-0.1l-0.7,3.2H117
			l-1.1-4.1H116.6z"/>
		<path fill="#FFFFFF" d="M121.9,229.5l0.8,3.4h0.1l0.7-3.4h0.7l-1.2,4c-0.3,1-0.7,1.5-1.6,1.5c-0.1,0-0.1,0-0.2,0v-0.5
			c0.1,0,0.1,0,0.2,0c0.6,0,0.8-0.3,1-1l-1.2-3.9h0.7V229.5z"/>
		<path fill="#FFFFFF" d="M128.8,230.5c-0.1-0.4-0.4-0.6-0.7-0.6c-0.5,0-0.9,0.6-0.9,1.7c0,1.1,0.3,1.7,0.9,1.7
			c0.3,0,0.6-0.2,0.7-0.6h0.4v0.6c-0.3,0.4-0.7,0.5-1.1,0.5c-0.9,0-1.5-0.8-1.5-2.2s0.6-2.2,1.5-2.2c0.4,0,0.8,0.2,1.1,0.5v0.6
			H128.8z"/>
		<path fill="#FFFFFF" d="M130.8,227.9v5.8h-0.6v-5.8H130.8z"/>
		<path fill="#FFFFFF" d="M134.6,233.7H134v-0.3l0,0c-0.3,0.3-0.6,0.5-1,0.5c-0.7,0-1.3-0.5-1.3-1.2c0-0.9,0.8-1.4,2.3-1.5
			c0-0.1,0-0.2,0-0.3c0-0.7-0.2-0.9-0.8-0.9c-0.4,0-0.7,0.2-0.9,0.6h-0.4V230c0.4-0.2,0.8-0.4,1.3-0.4s0.9,0.2,1.2,0.5
			c0.2,0.3,0.2,0.6,0.2,1.3V233.7z M134,231.5c-1.2,0.1-1.7,0.5-1.7,1.1c0,0.4,0.3,0.7,0.8,0.7c0.3,0,0.6-0.1,0.9-0.4V231.5z"/>
		<path fill="#FFFFFF" d="M135.9,232.7c0.2,0.4,0.5,0.6,1,0.6s0.8-0.3,0.8-0.7c0-0.6-0.5-0.6-1.3-0.9c-0.5-0.2-0.8-0.6-0.8-1.1
			c0-0.7,0.6-1.2,1.3-1.2c0.4,0,0.8,0.1,1.2,0.5v0.6h-0.4c-0.2-0.4-0.5-0.6-0.8-0.6c-0.4,0-0.8,0.3-0.8,0.7s0.3,0.6,0.9,0.8
			c0.8,0.2,1.2,0.6,1.2,1.2c0,0.7-0.5,1.3-1.4,1.3c-0.5,0-1-0.2-1.4-0.5v-0.6h0.5V232.7z"/>
		<path fill="#FFFFFF" d="M139.3,232.7c0.2,0.4,0.5,0.6,1,0.6s0.8-0.3,0.8-0.7c0-0.6-0.5-0.6-1.3-0.9c-0.5-0.2-0.8-0.6-0.8-1.1
			c0-0.7,0.5-1.2,1.3-1.2c0.4,0,0.8,0.1,1.2,0.5v0.6h-0.4c-0.2-0.4-0.5-0.6-0.8-0.6c-0.4,0-0.8,0.3-0.8,0.7s0.3,0.6,0.9,0.8
			c0.8,0.2,1.2,0.6,1.2,1.2c0,0.7-0.5,1.3-1.4,1.3c-0.5,0-1-0.2-1.4-0.5v-0.6h0.5V232.7z"/>
		<path fill="#FFFFFF" d="M143.2,227.9v0.7h-0.6v-0.7H143.2z M143.1,229.5v4.1h-0.6v-4.1H143.1z"/>
		<path fill="#FFFFFF" d="M146.3,230.5c-0.1-0.4-0.4-0.6-0.7-0.6c-0.5,0-0.9,0.6-0.9,1.7c0,1.1,0.3,1.7,0.9,1.7
			c0.3,0,0.6-0.2,0.7-0.6h0.4v0.6c-0.3,0.4-0.7,0.5-1.1,0.5c-0.9,0-1.5-0.8-1.5-2.2s0.6-2.2,1.5-2.2c0.4,0,0.8,0.2,1.1,0.5v0.6
			H146.3z"/>
		<path fill="#FFFFFF" d="M150.1,227.9v0.7h-0.6v-0.7H150.1z M150.1,229.5v4.1h-0.6v-4.1H150.1z"/>
		<path fill="#FFFFFF" d="M151.4,232.7c0.2,0.4,0.5,0.6,1,0.6s0.8-0.3,0.8-0.7c0-0.6-0.5-0.6-1.3-0.9c-0.5-0.2-0.8-0.6-0.8-1.1
			c0-0.7,0.5-1.2,1.3-1.2c0.4,0,0.8,0.1,1.2,0.5v0.6h-0.4c-0.2-0.4-0.5-0.6-0.8-0.6c-0.4,0-0.8,0.3-0.8,0.7s0.3,0.6,0.9,0.8
			c0.8,0.2,1.2,0.6,1.2,1.2c0,0.7-0.5,1.3-1.4,1.3c-0.5,0-1-0.2-1.4-0.5v-0.6h0.5V232.7z"/>
		<path fill="#FFFFFF" d="M62.5,238.1v0.7h-0.6v-0.7H62.5z M62.5,239.7v4.1h-0.6v-4.1H62.5z"/>
		<path fill="#FFFFFF" d="M64.3,239.7v0.3c0,0.1,0,0.3-0.1,0.4l0.1,0.1c0.2-0.5,0.8-0.8,1.3-0.8l0,0v0.7c-0.6,0-1,0.2-1.4,0.6v2.9
			h-0.6v-4.1L64.3,239.7L64.3,239.7z"/>
		<path fill="#FFFFFF" d="M67.1,239.7v0.3c0,0.1,0,0.3-0.1,0.4l0.1,0.1c0.2-0.5,0.8-0.8,1.3-0.8l0,0v0.7c-0.6,0-1,0.2-1.4,0.6v2.9
			h-0.6v-4.1L67.1,239.7L67.1,239.7z"/>
		<path fill="#FFFFFF" d="M69.7,242v0.1c0,0.9,0.4,1.4,1,1.4c0.4,0,0.8-0.2,0.9-0.5H72v0.5c-0.4,0.4-0.8,0.5-1.4,0.5
			c-1.1,0-1.6-0.7-1.6-2.2c0-1.4,0.6-2.2,1.5-2.2c1,0,1.5,0.8,1.5,2.2v0.2H69.7z M71.5,241.5c0-0.9-0.4-1.4-0.9-1.4
			c-0.6,0-0.9,0.5-0.9,1.4H71.5z"/>
		<path fill="#FFFFFF" d="M73.2,242.9c0.2,0.4,0.5,0.6,1,0.6s0.8-0.3,0.8-0.7c0-0.6-0.5-0.6-1.3-0.9c-0.5-0.2-0.8-0.6-0.8-1.1
			c0-0.7,0.6-1.2,1.3-1.2c0.4,0,0.8,0.1,1.2,0.5v0.6H75c-0.2-0.4-0.5-0.6-0.8-0.6c-0.4,0-0.8,0.3-0.8,0.7s0.3,0.6,0.9,0.8
			c0.8,0.2,1.2,0.6,1.2,1.2c0,0.7-0.5,1.3-1.4,1.3c-0.5,0-1-0.2-1.4-0.5V243h0.5C73.2,243,73.2,242.9,73.2,242.9z"/>
		<path fill="#FFFFFF" d="M77.1,238.1v0.7h-0.6v-0.7H77.1z M77.1,239.7v4.1h-0.6v-4.1H77.1z"/>
		<path fill="#FFFFFF" d="M78.4,242.9c0.2,0.4,0.5,0.6,1,0.6s0.8-0.3,0.8-0.7c0-0.6-0.5-0.6-1.3-0.9c-0.5-0.2-0.8-0.6-0.8-1.1
			c0-0.7,0.6-1.2,1.3-1.2c0.4,0,0.8,0.1,1.2,0.5v0.6h-0.4c-0.2-0.4-0.5-0.6-0.8-0.6c-0.4,0-0.8,0.3-0.8,0.7s0.3,0.6,0.9,0.8
			c0.8,0.2,1.2,0.6,1.2,1.2c0,0.7-0.5,1.3-1.4,1.3c-0.5,0-1-0.2-1.4-0.5V243h0.5L78.4,242.9L78.4,242.9z"/>
		<path fill="#FFFFFF" d="M83.3,239.7v0.5h-0.9v2.6c0,0.6,0,0.6,0.5,0.6h0.4v0.5h-0.6c-0.8,0-0.9-0.3-0.9-1.3v-2.4h-0.5v-0.5h0.5
			v-1.3h0.6v1.3L83.3,239.7L83.3,239.7z"/>
		<path fill="#FFFFFF" d="M84.6,238.1v0.7H84v-0.7H84.6z M84.6,239.7v4.1H84v-4.1H84.6z"/>
		<path fill="#FFFFFF" d="M86.3,238.1v2h0.1c0.2-0.3,0.5-0.5,0.9-0.5c0.7,0,1.3,0.8,1.3,2.2s-0.5,2.2-1.3,2.2
			c-0.4,0-0.7-0.2-0.9-0.5h-0.1v0.4h-0.6v-5.8L86.3,238.1L86.3,238.1z M86.3,243c0.3,0.3,0.5,0.4,0.8,0.4c0.6,0,0.9-0.6,0.9-1.7
			c0-1.1-0.3-1.7-0.9-1.7c-0.3,0-0.5,0.1-0.8,0.4V243z"/>
		<path fill="#FFFFFF" d="M90.1,238.1v5.8h-0.6v-5.8H90.1z"/>
		<path fill="#FFFFFF" d="M91.7,242v0.1c0,0.9,0.4,1.4,1,1.4c0.4,0,0.8-0.2,0.9-0.5H94v0.5c-0.4,0.4-0.8,0.5-1.4,0.5
			c-1.1,0-1.6-0.7-1.6-2.2c0-1.4,0.6-2.2,1.5-2.2c1,0,1.5,0.8,1.5,2.2v0.2H91.7z M93.5,241.5c0-0.9-0.4-1.4-0.9-1.4
			c-0.6,0-0.9,0.5-0.9,1.4H93.5z"/>
		<path fill="#FFFFFF" d="M96.8,241.7c0-1.3,0.4-2.5,1.2-3.5h0.5v0.1c-0.7,0.9-1,2-1,3.4s0.3,2.5,1,3.4v0.1H98
			C97.2,244.2,96.8,243,96.8,241.7z"/>
		<path fill="#FFFFFF" d="M99.7,242v0.1c0,0.9,0.4,1.4,1,1.4c0.4,0,0.8-0.2,0.9-0.5h0.4v0.5c-0.4,0.4-0.8,0.5-1.4,0.5
			c-1.1,0-1.6-0.7-1.6-2.2c0-1.4,0.6-2.2,1.5-2.2c1,0,1.5,0.8,1.5,2.2v0.2H99.7z M101.5,241.5c0-0.9-0.4-1.4-0.9-1.4
			c-0.6,0-0.9,0.5-0.9,1.4H101.5z"/>
		<path fill="#FFFFFF" d="M103.2,242.9c0.2,0.4,0.5,0.6,1,0.6s0.8-0.3,0.8-0.7c0-0.6-0.5-0.6-1.3-0.9c-0.5-0.2-0.8-0.6-0.8-1.1
			c0-0.7,0.6-1.2,1.3-1.2c0.4,0,0.8,0.1,1.2,0.5v0.6H105c-0.2-0.4-0.5-0.6-0.8-0.6c-0.4,0-0.8,0.3-0.8,0.7s0.3,0.6,0.9,0.8
			c0.8,0.2,1.2,0.6,1.2,1.2c0,0.7-0.5,1.3-1.4,1.3c-0.5,0-1-0.2-1.4-0.5V243h0.5C103.2,243,103.2,242.9,103.2,242.9z"/>
		<path fill="#FFFFFF" d="M107,239.7v0.4h0.1c0.2-0.3,0.5-0.5,0.9-0.5c0.8,0,1.3,0.8,1.3,2.2c0,1.3-0.5,2.2-1.3,2.2
			c-0.4,0-0.7-0.2-0.9-0.5H107v1.6h-0.6v-5.4H107z M107,243c0.3,0.3,0.5,0.4,0.8,0.4c0.6,0,0.9-0.6,0.9-1.7c0-1.1-0.3-1.7-0.9-1.7
			c-0.3,0-0.5,0.1-0.8,0.4V243z"/>
		<path fill="#FFFFFF" d="M110.6,242v0.1c0,0.9,0.4,1.4,1,1.4c0.4,0,0.8-0.2,0.9-0.5h0.4v0.5c-0.4,0.4-0.8,0.5-1.4,0.5
			c-1.1,0-1.6-0.7-1.6-2.2c0-1.4,0.6-2.2,1.5-2.2c1,0,1.5,0.8,1.5,2.2v0.2H110.6z M112.4,241.5c0-0.9-0.4-1.4-0.9-1.4
			c-0.6,0-0.9,0.5-0.9,1.4H112.4z"/>
		<path fill="#FFFFFF" d="M116,240.7c-0.1-0.4-0.4-0.6-0.7-0.6c-0.5,0-0.9,0.6-0.9,1.7c0,1.1,0.3,1.7,0.9,1.7c0.3,0,0.6-0.2,0.7-0.6
			h0.4v0.6c-0.3,0.4-0.7,0.5-1.1,0.5c-0.9,0-1.5-0.8-1.5-2.2s0.6-2.2,1.5-2.2c0.4,0,0.8,0.2,1.1,0.5v0.6H116z"/>
		<path fill="#FFFFFF" d="M117.9,238.1v0.7h-0.6v-0.7H117.9z M117.9,239.7v4.1h-0.6v-4.1H117.9z"/>
		<path fill="#FFFFFF" d="M121.7,243.8h-0.6v-0.3H121c-0.3,0.3-0.6,0.5-1,0.5c-0.7,0-1.3-0.5-1.3-1.2c0-0.9,0.8-1.4,2.3-1.5
			c0-0.1,0-0.2,0-0.3c0-0.7-0.2-0.9-0.8-0.9c-0.4,0-0.7,0.2-0.9,0.6H119V240c0.4-0.2,0.8-0.4,1.3-0.4s0.9,0.2,1.2,0.5
			c0.2,0.3,0.2,0.6,0.2,1.3V243.8z M121.1,241.6c-1.2,0.1-1.7,0.5-1.7,1.1c0,0.4,0.3,0.7,0.8,0.7c0.3,0,0.6-0.1,0.9-0.4
			C121.1,243,121.1,241.6,121.1,241.6z"/>
		<path fill="#FFFFFF" d="M123.4,238.1v5.8h-0.6v-5.8H123.4z"/>
		<path fill="#FFFFFF" d="M125.2,238.1v5.8h-0.6v-5.8H125.2z"/>
		<path fill="#FFFFFF" d="M126.7,239.7l0.8,3.4h0.1l0.7-3.4h0.7l-1.2,4c-0.3,1-0.7,1.5-1.6,1.5c-0.1,0-0.1,0-0.2,0v-0.5
			c0.1,0,0.1,0,0.2,0c0.6,0,0.8-0.3,1-1l-1.2-3.9h0.7C126.7,239.8,126.7,239.7,126.7,239.7z"/>
		<path fill="#FFFFFF" d="M131.8,239.7l0.7,3.5h0.1l0.7-3.5h0.6l0.7,3.5h0.1l0.7-3.5h0.7l-1.2,4.1h-0.6l-0.7-3.2h-0.1l-0.7,3.2h-0.6
			l-1.1-4.1H131.8z"/>
		<path fill="#FFFFFF" d="M137.5,238.1v2h0.1c0.2-0.3,0.5-0.5,0.9-0.5c0.7,0,1.1,0.5,1.1,1.4v2.8H139v-2.6c0-0.8-0.1-1.2-0.7-1.2
			c-0.3,0-0.6,0.1-0.8,0.4v3.3h-0.6v-5.8h0.6V238.1z"/>
		<path fill="#FFFFFF" d="M141.1,242v0.1c0,0.9,0.4,1.4,1,1.4c0.4,0,0.8-0.2,0.9-0.5h0.4v0.5c-0.4,0.4-0.8,0.5-1.4,0.5
			c-1.1,0-1.6-0.7-1.6-2.2c0-1.4,0.6-2.2,1.5-2.2c1,0,1.5,0.8,1.5,2.2v0.2H141.1z M142.9,241.5c0-0.9-0.4-1.4-0.9-1.4
			c-0.6,0-0.9,0.5-0.9,1.4H142.9z"/>
		<path fill="#FFFFFF" d="M145,239.7v0.3h0.1c0.2-0.3,0.5-0.5,0.9-0.5c0.8,0,1.1,0.5,1.1,1.4v2.8h-0.6v-2.6c0-0.8-0.1-1.2-0.7-1.2
			c-0.3,0-0.6,0.1-0.8,0.4v3.3h-0.6v-4.1h0.6V239.7z"/>
		<path fill="#FFFFFF" d="M150.3,239.7l0.8,3.4h0.1l0.7-3.4h0.7l-1.2,4c-0.3,1-0.7,1.5-1.6,1.5c-0.1,0-0.1,0-0.2,0v-0.5
			c0.1,0,0.1,0,0.2,0c0.6,0,0.8-0.3,1-1l-1.2-3.9h0.7V239.7z"/>
		<path fill="#FFFFFF" d="M156.1,241.8c0,1.4-0.6,2.2-1.5,2.2s-1.5-0.8-1.5-2.2c0-1.3,0.6-2.2,1.5-2.2S156.1,240.4,156.1,241.8z
			 M153.7,241.7c0,1.2,0.3,1.8,0.9,1.8c0.6,0,0.9-0.6,0.9-1.7c0-1.1-0.4-1.7-0.9-1.7S153.7,240.7,153.7,241.7z"/>
		<path fill="#FFFFFF" d="M159.1,243.8v-0.3H159c-0.2,0.3-0.5,0.5-0.9,0.5c-0.5,0-0.9-0.2-1-0.7c-0.1-0.2-0.1-0.6-0.1-1.1v-2.4h0.6
			v2.6c0,0.8,0.1,1.2,0.7,1.2c0.3,0,0.6-0.1,0.8-0.4v-3.3h0.6v4.1h-0.6V243.8z"/>
		<path fill="#FFFFFF" d="M160.6,240.1c0.4,0,0.5-0.2,0.5-0.6V239h-0.4v-0.7h0.9v0.9c0,0.9-0.2,1.2-1,1.2V240.1z"/>
		<path fill="#FFFFFF" d="M162.9,239.7l0.6,2.3c0.1,0.3,0.1,0.6,0.2,1.1h0.1c0.1-0.6,0.2-1,0.2-1.1l0.5-2.3h0.7l-1.2,4.1h-0.5
			l-1.2-4.1H162.9z"/>
		<path fill="#FFFFFF" d="M166.4,242v0.1c0,0.9,0.4,1.4,1,1.4c0.4,0,0.8-0.2,0.9-0.5h0.4v0.5c-0.4,0.4-0.8,0.5-1.4,0.5
			c-1.1,0-1.6-0.7-1.6-2.2c0-1.4,0.6-2.2,1.5-2.2c1,0,1.5,0.8,1.5,2.2v0.2H166.4z M168.2,241.5c0-0.9-0.4-1.4-0.9-1.4
			c-0.6,0-0.9,0.5-0.9,1.4H168.2z"/>
		<path fill="#FFFFFF" d="M62.3,252.1v0.1c0,0.9,0.4,1.4,1,1.4c0.4,0,0.8-0.2,0.9-0.5h0.4v0.5c-0.4,0.4-0.8,0.5-1.4,0.5
			c-1.1,0-1.6-0.7-1.6-2.2c0-1.4,0.6-2.2,1.5-2.2c1,0,1.5,0.8,1.5,2.2v0.2H62.3z M64.1,251.7c0-0.9-0.4-1.4-0.9-1.4
			c-0.6,0-0.9,0.5-0.9,1.4H64.1z"/>
		<path fill="#FFFFFF" d="M68.4,254h-0.6v-0.3h-0.1c-0.3,0.3-0.6,0.5-1,0.5c-0.7,0-1.3-0.5-1.3-1.2c0-0.9,0.8-1.4,2.3-1.5
			c0-0.1,0-0.2,0-0.3c0-0.7-0.2-0.9-0.8-0.9c-0.4,0-0.7,0.2-0.9,0.6h-0.4v-0.6c0.4-0.2,0.8-0.4,1.3-0.4s0.9,0.2,1.2,0.5
			c0.2,0.3,0.2,0.6,0.2,1.3v2.3L68.4,254L68.4,254z M67.8,251.8c-1.2,0.1-1.7,0.5-1.7,1.1c0,0.4,0.3,0.7,0.8,0.7
			c0.3,0,0.6-0.1,0.9-0.4C67.8,253.2,67.8,251.8,67.8,251.8z"/>
		<path fill="#FFFFFF" d="M71,249.9v0.5h-0.9v2.6c0,0.6,0,0.6,0.5,0.6H71v0.5h-0.6c-0.8,0-0.9-0.3-0.9-1.3v-2.4H69v-0.5h0.5v-1.3
			h0.6v1.3L71,249.9L71,249.9z"/>
		<path fill="#FFFFFF" d="M72.2,252.1v0.1c0,0.9,0.4,1.4,1,1.4c0.4,0,0.8-0.2,0.9-0.5h0.4v0.5c-0.4,0.4-0.8,0.5-1.4,0.5
			c-1.1,0-1.6-0.7-1.6-2.2c0-1.4,0.6-2.2,1.5-2.2c1,0,1.5,0.8,1.5,2.2v0.2H72.2z M74,251.7c0-0.9-0.4-1.4-0.9-1.4
			c-0.6,0-0.9,0.5-0.9,1.4H74z"/>
		<path fill="#FFFFFF" d="M76.1,249.9v0.3h0.1c0.2-0.3,0.5-0.5,0.9-0.5c0.8,0,1.1,0.5,1.1,1.4v2.8h-0.6v-2.6c0-0.8-0.1-1.2-0.7-1.2
			c-0.3,0-0.6,0.1-0.8,0.4v3.3h-0.6v-4.1h0.6V249.9z"/>
		<path fill="#FFFFFF" d="M81.6,252.1v0.1c0,0.9,0.4,1.4,1,1.4c0.4,0,0.8-0.2,0.9-0.5H84v0.5c-0.4,0.4-0.8,0.5-1.4,0.5
			c-1.1,0-1.6-0.7-1.6-2.2c0-1.4,0.6-2.2,1.5-2.2c1,0,1.5,0.8,1.5,2.2v0.2H81.6z M83.4,251.7c0-0.9-0.4-1.4-0.9-1.4
			c-0.6,0-0.9,0.5-0.9,1.4H83.4z"/>
		<path fill="#FFFFFF" d="M85.2,249.9l0.6,2.3c0.1,0.3,0.1,0.6,0.2,1.1h0.1c0.1-0.6,0.2-1,0.2-1.1l0.5-2.3h0.7l-1.2,4.1h-0.5
			l-1.2-4.1H85.2z"/>
		<path fill="#FFFFFF" d="M88.6,252.1v0.1c0,0.9,0.4,1.4,1,1.4c0.4,0,0.8-0.2,0.9-0.5h0.4v0.5c-0.4,0.4-0.8,0.5-1.4,0.5
			c-1.1,0-1.6-0.7-1.6-2.2c0-1.4,0.6-2.2,1.5-2.2c1,0,1.5,0.8,1.5,2.2v0.2H88.6z M90.5,251.7c0-0.9-0.4-1.4-0.9-1.4
			c-0.6,0-0.9,0.5-0.9,1.4H90.5z"/>
		<path fill="#FFFFFF" d="M92.6,249.9v0.3c0,0.1,0,0.3-0.1,0.4l0.1,0.1c0.2-0.5,0.8-0.8,1.3-0.8l0,0v0.7c-0.6,0-1,0.2-1.4,0.6v2.9
			H92V250L92.6,249.9L92.6,249.9z"/>
		<path fill="#FFFFFF" d="M95.1,249.9l0.8,3.4H96l0.7-3.4h0.7l-1.2,4c-0.3,1-0.7,1.5-1.6,1.5c-0.1,0-0.1,0-0.2,0v-0.5
			c0.1,0,0.1,0,0.2,0c0.6,0,0.8-0.3,1-1l-1.2-3.9h0.7V249.9z"/>
		<path fill="#FFFFFF" d="M99.7,249.9v0.5h-0.9v2.6c0,0.6,0,0.6,0.5,0.6h0.4v0.5h-0.6c-0.8,0-0.9-0.3-0.9-1.3v-2.4h-0.5v-0.5h0.5
			v-1.3h0.6v1.3L99.7,249.9L99.7,249.9z"/>
		<path fill="#FFFFFF" d="M101.1,248.2v2h0.1c0.2-0.3,0.5-0.5,0.9-0.5c0.7,0,1.1,0.5,1.1,1.4v2.8h-0.6v-2.6c0-0.8-0.1-1.2-0.7-1.2
			c-0.3,0-0.6,0.1-0.8,0.4v3.3h-0.6V248h0.6V248.2z"/>
		<path fill="#FFFFFF" d="M104.9,248.2v0.7h-0.6v-0.7H104.9z M104.8,249.9v4.1h-0.6v-4.1H104.8z"/>
		<path fill="#FFFFFF" d="M106.6,249.9v0.3h0.1c0.2-0.3,0.5-0.5,0.9-0.5c0.8,0,1.1,0.5,1.1,1.4v2.8h-0.6v-2.6c0-0.8-0.1-1.2-0.7-1.2
			c-0.3,0-0.6,0.1-0.8,0.4v3.3H106v-4.1h0.6V249.9z"/>
		<path fill="#FFFFFF" d="M112.5,253.8c0,1-0.5,1.5-1.4,1.5c-0.5,0-0.9-0.1-1.3-0.4v-0.7h0.4c0.2,0.4,0.4,0.5,0.9,0.5
			c0.7,0,0.8-0.4,0.8-1.3v-0.3h-0.1c-0.2,0.3-0.5,0.5-0.9,0.5c-0.8,0-1.3-0.7-1.3-1.9c0-1.3,0.5-2,1.3-2c0.4,0,0.7,0.2,0.9,0.5h0.1
			v-0.4h0.6V253.8z M111.9,250.7c-0.3-0.3-0.5-0.4-0.8-0.4c-0.6,0-0.9,0.5-0.9,1.4c0,1,0.3,1.5,0.9,1.5c0.3,0,0.6-0.1,0.8-0.4V250.7
			z"/>
		<path fill="#FFFFFF" d="M115.8,252.1v0.1c0,0.9,0.4,1.4,1,1.4c0.4,0,0.8-0.2,0.9-0.5h0.4v0.5c-0.4,0.4-0.8,0.5-1.4,0.5
			c-1.1,0-1.6-0.7-1.6-2.2c0-1.4,0.6-2.2,1.5-2.2c1,0,1.5,0.8,1.5,2.2v0.2H115.8z M117.6,251.7c0-0.9-0.4-1.4-0.9-1.4
			c-0.6,0-0.9,0.5-0.9,1.4H117.6z"/>
		<path fill="#FFFFFF" d="M119.8,248.2v5.8h-0.6v-5.8H119.8z"/>
		<path fill="#FFFFFF" d="M121.1,253c0.2,0.4,0.5,0.6,1,0.6s0.8-0.3,0.8-0.7c0-0.6-0.5-0.6-1.3-0.9c-0.5-0.2-0.8-0.6-0.8-1.1
			c0-0.7,0.6-1.2,1.3-1.2c0.4,0,0.8,0.1,1.2,0.5v0.6h-0.4c-0.2-0.4-0.5-0.6-0.8-0.6c-0.4,0-0.8,0.3-0.8,0.7s0.3,0.6,0.9,0.8
			c0.8,0.2,1.2,0.6,1.2,1.2c0,0.7-0.5,1.3-1.4,1.3c-0.5,0-1-0.2-1.4-0.5V253H121.1z"/>
		<path fill="#FFFFFF" d="M124.7,252.1v0.1c0,0.9,0.4,1.4,1,1.4c0.4,0,0.8-0.2,0.9-0.5h0.4v0.5c-0.4,0.4-0.8,0.5-1.4,0.5
			c-1.1,0-1.6-0.7-1.6-2.2c0-1.4,0.6-2.2,1.5-2.2c1,0,1.5,0.8,1.5,2.2v0.2H124.7z M126.5,251.7c0-0.9-0.4-1.4-0.9-1.4
			c-0.6,0-0.9,0.5-0.9,1.4H126.5z"/>
		<path fill="#FFFFFF" d="M129.4,251.9c0,1.3-0.4,2.5-1.2,3.5h-0.5v-0.1c0.7-0.9,1-2,1-3.4s-0.3-2.5-1-3.4v-0.1h0.5
			C129,249.4,129.4,250.5,129.4,251.9z"/>
	</g>
</g>
<circle fill="none" stroke="#FCEE23" stroke-width="1.2706" stroke-miterlimit="10" cx="28.4" cy="33.9" r="26.2"/>
<path fill="#FFFFFF" d="M23.2,29.9c-0.6,1.9,0.3,3.9,2.1,4.7l5.9,2.7c1.8,0.8,3.9,0.2,4.9-1.5l3.2-5.2L25,24.1L23.2,29.9z"/>
<path fill="#FCEE23" d="M49.9,13.4c1.2-2,0.4-4.6-1.7-5.6L36.4,2.5c-2.1-1-4.6,0.1-5.3,2.4l-1.7,5.4l17.6,8L49.9,13.4z"/>
<polygon fill="#EF4237" points="29.4,10.2 25,24.1 39.3,30.6 46.9,18.2 "/>
<path fill="#FCEE23" d="M18.4,50.7c-1.4,1.8-1.2,4.3,0.4,5.9l5.2,5.2c1.6,1.6,4.1,1.7,5.9,0.4l5.6-4.3L22.7,45.1L18.4,50.7z"/>
<path fill="#FFFFFF" d="M53.7,43.6c2.1-1.7,2.3-4.8,0.4-6.7L43.6,26.4c-1.9-1.9-5-1.7-6.7,0.4L33,31.9l15.7,15.6L53.7,43.6z"/>
<polygon fill="#EF4237" points="33,31.9 21.8,46.4 34.2,58.8 48.7,47.6 "/>
<path fill="#FFFFFF" d="M23.1,42.2c1.6,1.2,3.8,1,5.1-0.4l4.5-4.6c1.4-1.4,1.5-3.6,0.2-5.2L29,27.2L18.2,38.5L23.1,42.2z"/>
<path fill="#FCEE23" d="M16.5,11.5c-1.5-1.8-4.2-1.9-5.8-0.3l-9,9.3C0,22.2,0.2,25,2.1,26.4l4.5,3.4L20,15.9L16.5,11.5z"/>
<polygon fill="#EF4237" points="6.6,29.8 19.3,39.3 30,28.3 20,15.9 "/>
<circle fill="none" stroke="#FCEE23" stroke-width="1.2706" stroke-miterlimit="10" cx="28.9" cy="98.8" r="26.2"/>
<ellipse transform="matrix(5.325220e-02 -0.9986 0.9986 5.325220e-02 -73.9107 124.7495)" fill="#603A17" cx="28.8" cy="101.4" rx="6.2" ry="15.3"/>
<path fill="#3B2717" stroke="#392515" stroke-miterlimit="10" d="M13.8,101.7l1.6,5.9c3,7,21.6,8.2,25.9,1.1
	c0.2-0.4,2.6-5.7,2.6-5.7C38.2,110.8,16.3,107.2,13.8,101.7z"/>
<ellipse transform="matrix(0.9221 -0.3869 0.3869 0.9221 -34.5947 13.3255)" fill="#603A17" cx="15.8" cy="92.6" rx="15.3" ry="6.2"/>
<path fill="#3B2717" stroke="#392515" stroke-miterlimit="10" d="M2.4,99.5l4,4.6c5.8,5,23-2.1,23.8-10.2c0-0.4-0.1-6.2-0.1-6.2
	C28.3,97.1,7.1,103.4,2.4,99.5z"/>
<ellipse transform="matrix(0.6037 -0.7972 0.7972 0.6037 -54.5455 67.661)" fill="#603A17" cx="40.8" cy="88.7" rx="7.4" ry="18.8"/>
<path fill="#3B2717" stroke="#392515" stroke-miterlimit="10" d="M24.9,78.6l-2.4,7.2C20.7,95.2,39,109.3,48.3,105
	c0.5-0.2,6.6-4,6.6-4C43.7,104.9,23.7,86.1,24.9,78.6z"/>
<circle fill="none" stroke="#FCEE23" stroke-width="1.2706" stroke-miterlimit="10" cx="28.9" cy="167.9" r="26.2"/>
<path fill="#E7DB19" d="M27,175.8c3.2-3.2,1.8-5.6-1-7s-3.5-3.8-4.6-5.3c-1.1-1.4-4.4-1.8-5.1-3c-0.7-1.2-1.4-3.9-3.4-5.9
	c-1.9-2-2.8-1-6.1,2.3s-5.4,5.5,0.8,8.2c4.2,1.9,3.2,3.6,6.6,6.1s4.4,2.7,7.2,5.2S24.5,178.4,27,175.8z"/>
<path fill="#EC2227" d="M25.7,166.4c-1.2,1.4-1.3,3.3-0.2,4.4l3.5,3.5c1.1,1.1,2.9,1,4.4-0.2l4.5-3.7l-8.5-8.5L25.7,166.4z"/>
<path fill="#EC2227" d="M52.7,158.3c1.7-1.4,2.1-3.8,0.8-5l-7-7c-1.3-1.3-3.6-0.9-5,0.9l-3.4,4.1l10.5,10.5L52.7,158.3z"/>
<polygon fill="#EC2227" points="38.1,151.2 28.6,162.9 36.9,171.3 48.6,161.7 "/>
<circle fill="#BE202E" cx="19.9" cy="184.7" r="11.8"/>
<ellipse fill="#E7DB19" cx="44.3" cy="174.2" rx="9.3" ry="6.9"/>
<circle fill="none" stroke="#FCEE23" stroke-width="1.2706" stroke-miterlimit="10" cx="28.7" cy="236.2" r="26.2"/>
<g>
	<polygon fill="#FFFFFF" stroke="#050505" stroke-width="0.5" stroke-miterlimit="10" points="17.7,250.6 23,248.8 28.3,247 
		27.2,252.5 26.1,258 21.9,254.3 	"/>
	<polygon fill="#FFFFFF" stroke="#050505" stroke-width="0.5" stroke-miterlimit="10" points="49,213.7 48.1,219.2 47.2,224.7 
		52.5,222.8 57.7,220.8 53.4,217.2 	"/>
	<g>
		
			<rect x="43.4" y="220.1" transform="matrix(0.6455 -0.7638 0.7638 0.6455 -156.9732 114.9748)" fill="#BE202E" stroke="#050505" stroke-width="0.5" stroke-miterlimit="10" width="3.9" height="12.9"/>
		<path fill="#FFFFFF" stroke="#050505" stroke-width="0.5" stroke-miterlimit="10" d="M52.7,227.8c0.9-1.1,0.8-2.8-0.3-3.7
			l-5.8-4.9c-1.1-0.9-2.8-0.8-3.7,0.3l-1.1,1.4l9.9,8.4L52.7,227.8z"/>
		<path fill="#FFFFFF" stroke="#050505" stroke-width="0.5" stroke-miterlimit="10" d="M32.3,252l0.8-0.9l-9.9-8.4l-0.8,0.9
			c-0.9,1.1-0.8,2.8,0.3,3.7l5.8,4.9C29.7,253.2,31.4,253.1,32.3,252z"/>
		
			<rect x="27" y="229.5" transform="matrix(0.6455 -0.7638 0.7638 0.6455 -167.0042 112.1764)" fill="#261810" stroke="#050505" stroke-width="0.5" stroke-miterlimit="10" width="20.7" height="12.9"/>
		
			<rect x="27.5" y="238.9" transform="matrix(0.6455 -0.7638 0.7638 0.6455 -176.942 109.4702)" fill="#BE202E" stroke="#050505" stroke-width="0.5" stroke-miterlimit="10" width="3.9" height="12.9"/>
	</g>
</g>
<g>
	<polygon fill="#FFFFFF" stroke="#000000" stroke-width="0.5" stroke-miterlimit="10" points="3.2,230.2 7,234.4 10.8,238.5 
		5.3,239.7 -0.2,240.9 1.5,235.5 	"/>
	
		<rect x="29.9" y="244.2" transform="matrix(0.2909 -0.9568 0.9568 0.2909 -209.6319 209.3873)" fill="#BE202E" width="13" height="3.9"/>
	<path fill="#FFFFFF" d="M38.1,253.4c1.4,0.4,2.9-0.4,3.3-1.8l2.2-7.3c0.4-1.4-0.4-2.9-1.8-3.3l-1.7-0.5l-3.8,12.4L38.1,253.4z"/>
	<path fill="#FFFFFF" stroke="#0D0D0D" stroke-width="0.5" stroke-miterlimit="10" d="M7.8,244.2l1.1,0.3l3.8-12.4l-1.1-0.3
		c-1.4-0.4-2.9,0.4-3.3,1.8L6,240.9C5.6,242.3,6.4,243.8,7.8,244.2z"/>
	<polygon fill="#261810" stroke="#000000" stroke-width="0.5" stroke-miterlimit="10" points="36.4,252.9 36.4,239.4 16.5,233.3 
		12.7,245.7 	"/>
	
		<rect x="6.2" y="237" transform="matrix(0.2909 -0.9568 0.9568 0.2909 -219.6459 181.6174)" fill="#BE202E" width="13" height="3.9"/>
</g>
<g>
	<polygon fill="#FFFFFF" stroke="#020202" stroke-width="0.5" stroke-miterlimit="10" points="43.7,262.6 42.6,255.9 41.5,249.2 
		47.9,251.6 54.3,254.1 49,258.3 	"/>
	<polygon fill="#FFFFFF" stroke="#020202" stroke-width="0.5" stroke-miterlimit="10" points="5.9,217.4 12.3,219.6 18.8,221.8 
		17.5,215.1 16.2,208.4 11,212.9 	"/>
	<g>
		
			<rect x="12.7" y="222.1" transform="matrix(0.7661 -0.6428 0.6428 0.7661 -139.5038 65.7529)" fill="#BE202E" stroke="#020202" stroke-width="0.5" stroke-miterlimit="10" width="15.7" height="4.8"/>
		<path fill="#FFFFFF" stroke="#020202" stroke-width="0.5" stroke-miterlimit="10" d="M23.6,215.9c-1.1-1.4-3.2-1.5-4.5-0.4l-7.1,6
			c-1.4,1.1-1.5,3.2-0.4,4.5l1.4,1.7l12-10.1L23.6,215.9z"/>
		<path fill="#FFFFFF" stroke="#020202" stroke-width="0.5" stroke-miterlimit="10" d="M48.3,245.3l-0.9-1.1l-12.1,10.1l0.9,1.1
			c1.1,1.4,3.2,1.5,4.5,0.4l7.1-6C49.3,248.7,49.5,246.7,48.3,245.3z"/>
		
			<rect x="22.3" y="223.3" transform="matrix(0.7661 -0.6428 0.6428 0.7661 -144.5835 74.5546)" fill="#261810" stroke="#020202" stroke-width="0.5" stroke-miterlimit="10" width="15.7" height="25.2"/>
		
			<rect x="32" y="245.1" transform="matrix(0.7661 -0.6428 0.6428 0.7661 -149.7726 83.5388)" fill="#BE202E" stroke="#020202" stroke-width="0.5" stroke-miterlimit="10" width="15.7" height="4.8"/>
	</g>
</g>
</svg>
