<?xml version="1.0" encoding="utf-8"?>
<!-- Generator: Adobe Illustrator 19.2.1, SVG Export Plug-In . SVG Version: 6.00 Build 0)  -->
<svg version="1.1" id="Layer_1" xmlns="http://www.w3.org/2000/svg" xmlns:xlink="http://www.w3.org/1999/xlink" x="0px" y="0px"
	 width="180px" height="28.8px" viewBox="0 0 180 28.8" style="enable-background:new 0 0 180 28.8;" xml:space="preserve">
<style type="text/css">
	.st0{fill:#F89521;stroke:#FFFFFF;stroke-width:1.2543;stroke-miterlimit:10;}
	.st1{fill:#FFFFFF;stroke:#FFFFFF;stroke-miterlimit:10;}
</style>
<path class="st0" d="M174.4,29H5.6C2.5,29,0,26.5,0,23.4V5.6C0,2.5,2.5,0,5.6,0h168.9c3.1,0,5.6,2.5,5.6,5.6v17.9
	C180,26.5,177.5,29,174.4,29z"/>
<g>
	<path class="st1" d="M27.9,16.4l2.3,0.6c-0.5,1.9-1.4,3.4-2.7,4.4c-1.3,1-2.8,1.5-4.7,1.5c-1.9,0-3.5-0.4-4.7-1.2
		c-1.2-0.8-2.1-1.9-2.7-3.4c-0.6-1.5-0.9-3.1-0.9-4.7c0-1.8,0.4-3.5,1.1-4.8c0.7-1.4,1.7-2.4,3-3.1s2.7-1.1,4.3-1.1
		c1.8,0,3.3,0.5,4.5,1.4c1.2,0.9,2,2.2,2.5,3.8l-2.3,0.5c-0.4-1.3-1-2.2-1.8-2.8c-0.8-0.6-1.8-0.9-2.9-0.9c-1.4,0-2.5,0.3-3.4,1
		c-0.9,0.7-1.6,1.5-1.9,2.6c-0.4,1.1-0.6,2.2-0.6,3.4c0,1.5,0.2,2.8,0.7,3.9c0.4,1.1,1.1,2,2,2.5s1.9,0.8,3,0.8
		c1.3,0,2.4-0.4,3.3-1.1C27,19,27.6,17.9,27.9,16.4z"/>
	<path class="st1" d="M34.5,16.2c0-2.4,0.7-4.1,2-5.3c1.1-0.9,2.4-1.4,4-1.4c1.8,0,3.2,0.6,4.3,1.7c1.1,1.2,1.7,2.8,1.7,4.8
		c0,1.7-0.2,2.9-0.7,3.9c-0.5,0.9-1.2,1.7-2.2,2.2s-2,0.8-3.1,0.8c-1.8,0-3.2-0.6-4.4-1.7C35.1,20,34.5,18.4,34.5,16.2z M36.8,16.2
		c0,1.6,0.4,2.9,1.1,3.7c0.7,0.8,1.6,1.2,2.7,1.2c1.1,0,2-0.4,2.7-1.2c0.7-0.8,1.1-2.1,1.1-3.8c0-1.6-0.4-2.8-1.1-3.6
		c-0.7-0.8-1.6-1.2-2.7-1.2c-1.1,0-2,0.4-2.7,1.2C37.1,13.3,36.8,14.5,36.8,16.2z"/>
	<path class="st1" d="M51.6,22.6V9.8h2v1.8c0.9-1.4,2.3-2.1,4.1-2.1c0.8,0,1.5,0.1,2.1,0.4s1.1,0.6,1.5,1.1c0.3,0.5,0.5,1,0.7,1.6
		c0.1,0.4,0.1,1.1,0.1,2.1v7.9h-2.2v-7.8c0-0.9-0.1-1.5-0.3-2c-0.2-0.4-0.5-0.8-0.9-1.1s-0.9-0.4-1.5-0.4c-0.9,0-1.7,0.3-2.4,0.9
		c-0.7,0.6-1,1.7-1,3.3v7H51.6z"/>
	<path class="st1" d="M76.2,17.9l2.1,0.3c-0.2,1.5-0.8,2.6-1.8,3.5s-2.1,1.2-3.5,1.2c-1.8,0-3.2-0.6-4.2-1.7
		c-1.1-1.1-1.6-2.8-1.6-4.9c0-1.4,0.2-2.6,0.7-3.6s1.2-1.8,2.1-2.3c0.9-0.5,2-0.8,3.1-0.8c1.4,0,2.5,0.4,3.4,1.1s1.5,1.7,1.7,3
		L76,13.9c-0.2-0.9-0.6-1.5-1.1-1.9c-0.5-0.4-1.1-0.7-1.9-0.7c-1.1,0-2,0.4-2.7,1.2c-0.7,0.8-1,2-1,3.7c0,1.7,0.3,3,1,3.8
		c0.7,0.8,1.5,1.2,2.6,1.2c0.9,0,1.6-0.3,2.1-0.8S76,19,76.2,17.9z"/>
	<path class="st1" d="M82.6,22.6V4.9h2.2v17.7H82.6z"/>
	<path class="st1" d="M99,22.6v-1.9c-1,1.4-2.4,2.2-4.1,2.2c-0.8,0-1.5-0.1-2.1-0.4c-0.7-0.3-1.1-0.7-1.5-1.1
		c-0.3-0.4-0.5-1-0.7-1.6c-0.1-0.4-0.1-1.1-0.1-2V9.8h2.2v7.1c0,1.1,0,1.9,0.1,2.3c0.1,0.6,0.4,1,0.9,1.3s1,0.5,1.6,0.5
		s1.3-0.2,1.8-0.5c0.6-0.3,1-0.8,1.2-1.4c0.2-0.6,0.4-1.4,0.4-2.5V9.8h2.2v12.8H99z"/>
	<path class="st1" d="M106,18.8l2.1-0.3c0.1,0.9,0.5,1.5,1,2c0.6,0.5,1.3,0.7,2.3,0.7c1,0,1.7-0.2,2.2-0.6c0.5-0.4,0.7-0.9,0.7-1.4
		c0-0.5-0.2-0.9-0.6-1.2c-0.3-0.2-1-0.4-2.2-0.7c-1.6-0.4-2.7-0.8-3.3-1c-0.6-0.3-1.1-0.7-1.4-1.2c-0.3-0.5-0.5-1.1-0.5-1.7
		c0-0.6,0.1-1.1,0.4-1.6c0.3-0.5,0.6-0.9,1.1-1.2c0.3-0.2,0.8-0.5,1.4-0.6c0.6-0.2,1.2-0.3,1.9-0.3c1,0,1.9,0.1,2.7,0.4
		c0.8,0.3,1.3,0.7,1.7,1.2s0.6,1.2,0.7,2l-2.1,0.3c-0.1-0.7-0.4-1.2-0.8-1.5s-1.1-0.6-2-0.6c-1,0-1.7,0.2-2.1,0.5
		c-0.4,0.3-0.6,0.7-0.6,1.2c0,0.3,0.1,0.5,0.3,0.8c0.2,0.2,0.5,0.4,0.8,0.6c0.2,0.1,0.9,0.3,1.9,0.6c1.5,0.4,2.6,0.7,3.2,1
		c0.6,0.3,1.1,0.6,1.4,1.1c0.3,0.5,0.5,1.1,0.5,1.9c0,0.7-0.2,1.4-0.6,2c-0.4,0.6-1,1.1-1.8,1.5c-0.8,0.3-1.7,0.5-2.7,0.5
		c-1.7,0-2.9-0.3-3.8-1C106.8,21.2,106.2,20.1,106,18.8z"/>
	<path class="st1" d="M121.7,7.4V4.9h2.2v2.5H121.7z M121.7,22.6V9.8h2.2v12.8H121.7z"/>
	<path class="st1" d="M128.8,16.2c0-2.4,0.7-4.1,2-5.3c1.1-0.9,2.4-1.4,4-1.4c1.8,0,3.2,0.6,4.3,1.7s1.7,2.8,1.7,4.8
		c0,1.7-0.2,2.9-0.7,3.9c-0.5,0.9-1.2,1.7-2.2,2.2s-2,0.8-3.1,0.8c-1.8,0-3.2-0.6-4.4-1.7C129.4,20,128.8,18.4,128.8,16.2z
		 M131.1,16.2c0,1.6,0.4,2.9,1.1,3.7c0.7,0.8,1.6,1.2,2.7,1.2c1.1,0,2-0.4,2.7-1.2s1.1-2.1,1.1-3.8c0-1.6-0.4-2.8-1.1-3.6
		c-0.7-0.8-1.6-1.2-2.7-1.2c-1.1,0-2,0.4-2.7,1.2S131.1,14.5,131.1,16.2z"/>
	<path class="st1" d="M145.9,22.6V9.8h2v1.8c0.9-1.4,2.3-2.1,4.1-2.1c0.8,0,1.5,0.1,2.1,0.4s1.1,0.6,1.5,1.1c0.3,0.5,0.5,1,0.7,1.6
		c0.1,0.4,0.1,1.1,0.1,2.1v7.9h-2.2v-7.8c0-0.9-0.1-1.5-0.3-2c-0.2-0.4-0.5-0.8-0.9-1.1s-0.9-0.4-1.5-0.4c-0.9,0-1.7,0.3-2.4,0.9
		c-0.7,0.6-1,1.7-1,3.3v7H145.9z"/>
</g>
<g>
</g>
<g>
</g>
<g>
</g>
<g>
</g>
<g>
</g>
<g>
</g>
</svg>
